<?xml version="1.0" standalone="no"?>
<!DOCTYPE svg PUBLIC "-//W3C//DTD SVG 20010904//EN"
 "http://www.w3.org/TR/2001/REC-SVG-20010904/DTD/svg10.dtd">
<svg version="1.0" xmlns="http://www.w3.org/2000/svg"
 width="1067.000000pt" height="1067.000000pt" viewBox="0 0 1067.000000 1067.000000"
 preserveAspectRatio="xMidYMid meet">
<metadata>
Created by potrace 1.11, written by Peter Selinger 2001-2013
</metadata>
<g transform="translate(0.000000,1067.000000) scale(0.100000,-0.100000)"
fill="#000000" stroke="none">
<path d="M2859 8792 c-8 -37 -14 -74 -15 -82 -1 -8 -4 -22 -7 -30 -6 -18 -44
-190 -52 -240 -4 -19 -15 -75 -26 -125 -12 -49 -22 -99 -25 -110 -2 -11 -6
-31 -9 -45 -2 -14 -7 -38 -10 -55 -3 -16 -7 -41 -10 -55 -2 -14 -7 -38 -10
-55 -12 -62 -39 -141 -56 -166 -10 -14 -16 -29 -12 -33 3 -3 2 -6 -4 -6 -5 0
-22 -11 -37 -24 -46 -39 -87 -47 -135 -26 -22 10 -57 30 -77 44 -21 14 -42 22
-47 19 -6 -3 -7 -1 -3 5 4 7 3 12 -3 12 -5 0 -16 6 -23 13 -7 7 -35 30 -63 52
-91 73 -102 83 -293 266 -95 92 -133 110 -187 89 -63 -24 -84 -75 -65 -159 21
-95 79 -251 93 -251 5 0 5 -4 2 -10 -3 -5 0 -22 8 -37 65 -124 143 -357 153
-457 5 -52 3 -65 -13 -85 -18 -23 -27 -25 -104 -25 -95 0 -140 5 -254 33 -162
40 -239 66 -474 161 -69 27 -126 49 -127 47 -2 -1 11 -41 28 -87 16 -47 31
-89 32 -95 2 -5 6 -17 9 -25 6 -13 54 -191 56 -205 1 -3 1 -6 2 -7 8 -36 11
-241 5 -298 -2 -14 -9 -38 -16 -55 -7 -16 -13 -33 -12 -37 1 -3 -15 -24 -36
-46 -62 -66 -112 -78 -334 -81 l-37 -1 19 -46 c42 -97 78 -212 85 -270 4 -32
9 -65 10 -73 1 -11 -10 -96 -19 -136 -4 -18 -38 -79 -62 -111 -13 -17 -20 -34
-17 -38 4 -3 1 -6 -5 -6 -7 0 -31 -18 -54 -40 -62 -58 -200 -122 -383 -175
-168 -49 -181 -53 -205 -55 -24 -1 2 -14 115 -55 177 -65 209 -77 252 -96 24
-11 45 -19 47 -19 2 0 25 -10 52 -22 27 -11 50 -19 50 -17 1 2 12 -5 24 -16
12 -11 23 -18 24 -15 2 6 177 -88 199 -108 9 -8 17 -12 17 -8 0 4 12 -4 26
-18 14 -13 39 -37 55 -52 59 -56 59 -131 1 -264 -15 -34 -77 -134 -97 -156 -5
-7 -19 -25 -30 -40 -10 -16 -83 -93 -162 -172 -79 -79 -143 -145 -143 -146 0
-1 15 -3 33 -4 18 -1 44 -4 57 -7 62 -12 176 -19 298 -19 72 0 132 -4 132 -8
0 -17 -52 -149 -83 -208 -43 -84 -52 -98 -115 -193 -28 -44 -52 -81 -52 -83 0
-1 -11 -15 -25 -30 -13 -14 -22 -32 -18 -38 3 -6 3 -8 -2 -4 -8 8 -82 -82 -77
-94 1 -5 -1 -7 -6 -5 -8 2 -67 -61 -94 -101 -10 -15 -14 -37 -11 -60 4 -38 34
-90 48 -84 4 2 11 -1 14 -7 6 -10 45 -16 83 -12 9 0 38 21 65 46 26 25 53 45
59 45 6 0 23 9 37 20 14 11 30 20 36 20 6 0 28 11 49 24 20 12 40 24 44 25 8
1 126 58 163 78 97 52 456 213 645 289 112 45 157 58 200 58 l55 1 35 -70 c20
-38 44 -92 54 -120 10 -27 20 -57 23 -65 4 -8 7 -17 8 -20 1 -3 4 -12 8 -20 3
-8 18 -60 33 -115 14 -55 29 -107 32 -115 2 -8 6 -26 8 -40 2 -14 6 -36 10
-50 3 -14 8 -36 10 -50 2 -14 7 -36 10 -50 4 -14 8 -36 9 -50 1 -14 5 -45 9
-70 3 -25 8 -67 12 -95 3 -27 7 -59 9 -70 1 -11 6 -47 9 -80 4 -33 11 -91 17
-130 5 -38 10 -82 11 -98 3 -30 17 -37 20 -9 2 31 3 37 10 47 3 6 24 71 48
145 83 268 122 376 158 435 41 68 95 126 139 148 27 14 31 14 44 -1 20 -23
102 -184 129 -252 12 -30 27 -66 33 -80 6 -14 11 -27 12 -30 1 -3 7 -18 14
-35 6 -16 17 -43 23 -60 35 -87 84 -129 147 -121 46 5 75 29 95 77 68 160 104
221 170 283 65 61 114 79 201 73 41 -3 84 -11 97 -18 13 -7 24 -12 26 -11 1 1
3 2 5 1 1 0 9 -2 17 -4 34 -6 224 -98 290 -140 25 -16 51 -28 57 -28 7 0 11
-2 8 -5 -2 -2 24 -22 58 -44 34 -22 81 -56 105 -75 23 -19 42 -32 42 -29 0 3
11 -5 24 -17 28 -26 39 -34 86 -67 19 -13 44 -33 55 -43 11 -10 35 -27 53 -38
17 -12 32 -26 32 -31 0 -6 3 -9 6 -6 3 3 19 -7 37 -23 17 -16 33 -26 36 -22 3
3 0 8 -6 10 -7 3 -13 10 -13 17 0 17 -181 379 -194 388 -6 4 -7 8 -3 8 5 0 1
12 -7 28 -19 34 -72 174 -82 215 -1 4 -2 8 -4 10 -1 1 -3 9 -5 17 -1 8 -8 33
-13 55 -38 142 -44 326 -13 406 5 15 7 30 4 33 -4 3 -2 6 4 6 6 0 16 13 23 29
6 16 20 37 31 47 10 9 16 21 13 26 -3 4 -2 7 3 6 4 -2 28 18 53 43 120 121
232 182 373 203 34 5 42 2 68 -25 16 -17 29 -35 29 -40 0 -8 96 -40 137 -45
12 -1 26 -4 30 -7 5 -3 29 -8 53 -12 25 -3 62 -11 83 -16 42 -11 40 1 21 -124
-12 -81 -11 -423 2 -526 19 -162 59 -360 85 -429 5 -14 11 -34 13 -45 9 -40
59 -170 68 -173 4 -2 6 -7 3 -12 -3 -4 14 -48 37 -96 23 -49 42 -91 43 -94 6
-22 30 -60 38 -60 6 0 7 -3 4 -6 -7 -7 42 -97 55 -102 4 -2 8 -9 8 -16 0 -7 8
-21 18 -32 10 -10 18 -21 18 -24 -1 -12 107 -160 117 -160 6 0 7 -3 4 -6 -17
-18 331 -384 364 -384 7 0 10 -3 6 -6 -3 -3 15 -22 41 -42 26 -19 49 -39 50
-44 2 -4 8 -6 13 -2 5 3 9 1 9 -5 0 -8 196 -145 255 -177 94 -53 130 -71 195
-104 41 -21 100 -48 130 -60 30 -12 64 -26 75 -31 19 -8 164 -58 230 -78 41
-13 183 -49 220 -55 17 -3 41 -8 55 -11 14 -3 43 -8 65 -11 22 -3 51 -7 65 -9
190 -28 599 -28 740 0 14 3 43 7 65 10 22 3 51 7 65 10 14 3 36 8 50 10 36 6
59 11 110 26 25 6 52 13 60 14 18 3 179 52 200 62 8 3 20 7 25 8 19 5 170 67
195 80 14 7 55 28 93 45 37 17 67 36 67 41 0 6 3 8 8 5 4 -2 30 9 57 25 28 15
63 36 80 45 16 9 35 23 43 30 7 8 20 14 28 14 8 0 17 7 20 15 4 8 11 15 18 15
6 0 23 10 37 23 14 12 32 27 41 32 44 29 128 97 137 112 6 10 11 15 11 10 0
-4 17 7 37 25 62 56 73 68 73 80 0 6 3 9 6 5 8 -8 44 25 38 35 -3 4 0 8 7 8 6
0 19 8 28 19 9 10 41 46 71 80 73 83 230 293 224 302 -2 4 3 9 11 13 8 3 15
10 15 16 0 6 5 16 10 23 11 12 82 130 81 134 0 1 23 50 50 108 55 116 110 255
102 255 -3 0 -1 6 4 13 11 13 64 195 68 231 1 11 3 21 4 21 3 0 10 31 16 70 2
17 9 54 14 82 32 167 36 562 7 723 -3 14 -7 41 -10 60 -24 158 -80 356 -148
525 -49 119 -158 335 -170 335 -4 0 -8 9 -8 19 0 11 -3 21 -7 23 -5 2 -38 48
-75 103 -74 109 -107 152 -154 202 -18 18 -30 33 -27 33 10 0 -165 177 -227
230 -14 11 -36 31 -50 44 -14 13 -28 24 -32 25 -4 1 -22 16 -40 33 -18 17 -51
43 -73 57 -22 14 -49 34 -59 43 -11 10 -28 20 -38 24 -10 3 -18 10 -18 15 0 5
-5 9 -11 9 -6 0 -22 9 -36 20 -14 11 -29 17 -34 14 -5 -3 -9 0 -9 5 0 10 -13
18 -107 65 -21 11 -41 24 -44 29 -4 5 -12 6 -18 3 -6 -4 -11 -3 -11 2 0 11
-130 71 -265 122 -166 63 -383 120 -550 145 -22 4 -50 8 -62 10 -155 25 -579
26 -709 1 -12 -2 -45 -7 -75 -11 -150 -19 -558 -131 -567 -156 -2 -5 -8 -7
-12 -4 -18 11 -303 -128 -440 -214 -124 -77 -270 -182 -270 -193 0 -4 -6 -8
-14 -8 -8 0 -16 -3 -18 -7 -1 -5 -21 -24 -43 -42 -22 -19 -39 -39 -37 -44 1
-5 -2 -6 -6 -3 -10 6 -186 -172 -255 -257 -33 -39 -42 -45 -58 -37 -10 6 -19
8 -19 4 0 -3 -6 -2 -12 4 -7 5 -24 12 -38 14 -14 1 -27 6 -30 10 -3 4 -15 9
-25 11 -11 1 -24 5 -30 9 -23 14 -165 41 -224 43 -62 2 -127 -11 -172 -36 -30
-16 -100 -81 -94 -87 2 -3 -6 -13 -19 -23 -13 -10 -29 -32 -36 -49 -7 -16 -16
-30 -21 -30 -5 0 -8 -3 -6 -7 1 -5 -2 -9 -8 -11 -23 -7 -38 183 -21 271 26
138 123 283 261 392 28 22 52 43 55 46 12 14 211 129 280 161 110 52 180 83
220 98 19 7 49 19 67 26 17 8 33 14 36 14 3 0 18 5 34 12 15 6 34 12 41 14 8
1 21 6 30 10 9 4 19 8 22 9 3 1 18 7 33 13 16 7 33 12 38 12 5 0 17 4 27 9 9
5 62 26 117 46 55 20 125 46 155 57 30 11 64 24 75 28 11 5 -141 9 -355 10
-450 2 -453 2 -601 31 -48 10 -209 77 -185 79 5 0 -3 9 -16 20 -40 31 -70 116
-71 195 -1 113 42 360 94 542 12 43 23 85 24 93 1 8 7 28 14 43 16 41 14 78
-8 110 -29 45 -63 57 -137 48 -7 0 -25 -14 -40 -29 -16 -16 -51 -46 -79 -68
-27 -21 -52 -41 -55 -44 -8 -8 -124 -84 -135 -89 -5 -2 -14 -8 -20 -13 -23
-19 -85 -57 -85 -52 0 3 -13 -4 -29 -15 -16 -12 -34 -21 -40 -21 -7 0 -22 -6
-34 -14 -12 -8 -45 -19 -74 -26 -44 -10 -56 -9 -83 5 -18 9 -43 28 -55 41 -12
13 -25 21 -28 19 -4 -3 -5 -2 -3 1 2 3 -11 31 -30 61 -19 31 -34 63 -34 70 0
7 -5 13 -11 13 -5 0 -7 5 -4 10 4 6 1 18 -7 27 -7 9 -11 17 -9 17 2 1 -2 21
-9 46 -7 25 -19 77 -27 115 -8 39 -16 75 -17 80 -2 6 -6 31 -11 58 -4 26 -11
50 -16 53 -5 3 -7 9 -4 14 11 17 -81 307 -106 334 -5 6 -9 20 -9 31 0 12 -3
25 -7 29 -5 4 -15 26 -25 49 -16 41 -16 42 -26 17 -5 -14 -26 -58 -46 -99 -19
-40 -33 -77 -30 -82 3 -5 1 -9 -3 -9 -5 0 -19 -24 -33 -52 -33 -73 -133 -219
-187 -273 -24 -25 -40 -45 -36 -45 4 -1 -1 -6 -12 -13 -12 -7 -45 -30 -75 -53
-108 -80 -211 -100 -295 -58 -25 13 -52 30 -59 37 -7 6 -42 37 -77 67 -143
124 -205 209 -224 305 -7 37 -22 127 -29 180 -3 22 -8 54 -10 70 -8 53 -18
139 -22 180 -2 22 -5 49 -8 60 -3 11 -8 49 -11 85 -4 36 -9 73 -11 82 -3 10
-7 37 -9 62 -4 57 -16 150 -19 153 -1 2 -9 -28 -17 -65z"/>
</g>
</svg>
