<?xml version="1.0" encoding="utf-8"?>
<!-- Generator: Adobe Illustrator 16.0.0, SVG Export Plug-In . SVG Version: 6.00 Build 0)  -->
<!DOCTYPE svg PUBLIC "-//W3C//DTD SVG 1.1//EN" "http://www.w3.org/Graphics/SVG/1.1/DTD/svg11.dtd">
<svg version="1.1" id="Layer_1" xmlns="http://www.w3.org/2000/svg" xmlns:xlink="http://www.w3.org/1999/xlink" x="0px" y="0px"
	 width="466px" height="229px" viewBox="0 0 466 229" enable-background="new 0 0 466 229" xml:space="preserve">
<path fill="none" d="M450.434,4.673C428.533,0.631,391.944,3.337,311.5,5c-54.6,1.134-47,26-143.5,12c-33-5.5-77-28-158.301-4.768
	c-8.387,5.972-4.45,11.414-0.855,24.189C8.962,73.656,4.5,80.5,2.853,121.086C2.853,168,22,152.5,18.257,181.938
	C11,200-0.571,200.609,7.131,209.15C19.113,222.305,20,228,81.586,226.916C152.103,232.132,142,220,245.898,216.333
	c61.275-0.378,51.745,11.78,116.102,7.167c68.5-2.5,68.5-2.5,94.424-15.104c20.076-38.396-5.946-55.84-5.99-68.035
	c1.711-19.729,13.595-25.861,8.559-40.441C454,78.5,456.739,74.823,454,56C449.208,23.344,474,32,450.434,4.673z"/>
</svg>
