<?xml version="1.0" encoding="utf-8"?>
<!-- Generator: Adobe Illustrator 16.0.0, SVG Export Plug-In . SVG Version: 6.00 Build 0)  -->
<!DOCTYPE svg PUBLIC "-//W3C//DTD SVG 1.1//EN" "http://www.w3.org/Graphics/SVG/1.1/DTD/svg11.dtd">
<svg version="1.1" id="Layer_1" xmlns="http://www.w3.org/2000/svg" xmlns:xlink="http://www.w3.org/1999/xlink" x="0px" y="0px"
	 width="401px" height="229px" viewBox="0 0 401 229" enable-background="new 0 0 401 229" xml:space="preserve">
<path fill="none" d="M387.474,4.673C368.513,0.81,341.177,4.337,272,6c-46.951,1.134-48.463,5.448-127.5,2.5
	C74.735,5.854,25.112-1.45,8.48,12.232C1.269,18.204,3.409,44.225,6.5,57C16.655,99.181,1.346,80.255,9,121
	c6.476,34.697,12.186,31.562,1,52.5c-6.182,11.566-9.623,34.459-3,43c10.303,13.154,50.576-11.71,65-10.5
	c60.639,5.216,70.118,18.528,139,18c52.691-0.378,67.159-9.387,122.5-14c30.025-2.493,47.019,17.209,58.5,9.5
	c20.312-13.684-7.469-39.604-4.526-79.139c1.473-19.729-8.854-20.586-10.474-39.861c-1.766-20.939,19.355-26.177,17-45
	C389.879,22.844,402.487,12.913,387.474,4.673z"/>
</svg>
