<?xml version="1.0" encoding="utf-8"?>
<!-- Generator: Adobe Illustrator 16.0.0, SVG Export Plug-In . SVG Version: 6.00 Build 0)  -->
<!DOCTYPE svg PUBLIC "-//W3C//DTD SVG 1.1//EN" "http://www.w3.org/Graphics/SVG/1.1/DTD/svg11.dtd">
<svg version="1.1" id="Layer_1" xmlns="http://www.w3.org/2000/svg" xmlns:xlink="http://www.w3.org/1999/xlink" x="0px" y="0px"
	 width="30px" height="31px" viewBox="0 0 30 31" enable-background="new 0 0 30 31" xml:space="preserve">
<linearGradient id="SVGID_1_" gradientUnits="userSpaceOnUse" x1="-4.882813e-004" y1="775.499" x2="29.5077" y2="775.499" gradientTransform="matrix(1 0 0 1 0 -760)">
	<stop  offset="0" style="stop-color:#FF8BDE"/>
	<stop  offset="1" style="stop-color:#669FFF"/>
</linearGradient>
<path fill="none" stroke="url(#SVGID_1_)" d="M0.73,12.676l-0.49-0.094L0.73,12.676z M0.73,12.676
	c-0.754,3.943,0.463,7.333,1.932,9.793c1.47,2.463,3.172,3.957,3.314,4.079c2.424,2.063,5.582,3.414,8.749,3.821
	c3.169,0.406,6.304-0.133,8.714-1.792c3.086-2.125,4.367-5.65,4.977-7.343l0,0c0.406-1.129,1.418-4.047,0.973-7.771 M0.73,12.676
	c1.02-5.327,4.984-8.25,6.044-9.004l0,0c4.027-2.866,10.703-4.685,16.11-1.462c5.535,3.301,6.334,9.838,6.505,11.256"/>
<linearGradient id="SVGID_2_" gradientUnits="userSpaceOnUse" x1="9.3706" y1="15.8125" x2="20.3702" y2="15.8125" gradientTransform="matrix(1 0 0 -1 0 32)">
	<stop  offset="0" style="stop-color:#FF8BDE"/>
	<stop  offset="1" style="stop-color:#669FFF"/>
</linearGradient>
<path fill="url(#SVGID_2_)" d="M10.156,15.07c-0.341-0.436-0.97-0.51-1.403-0.168c-0.436,0.34-0.51,0.969-0.169,1.402L10.156,15.07z
	 M13.299,20.688l-0.786,0.617c0.189,0.242,0.479,0.383,0.786,0.383c0.307,0,0.597-0.141,0.786-0.383L13.299,20.688z M21.156,12.305
	c0.341-0.434,0.267-1.063-0.169-1.403c-0.434-0.341-1.063-0.267-1.403,0.169L21.156,12.305z M8.584,16.305l3.929,5l1.572-1.234
	l-3.929-5L8.584,16.305z M14.085,21.305l7.071-9l-1.572-1.234l-7.071,9L14.085,21.305z"/>
</svg>
