<?xml version="1.0" encoding="utf-8"?>
<!-- Generator: Adobe Illustrator 16.0.0, SVG Export Plug-In . SVG Version: 6.00 Build 0)  -->
<!DOCTYPE svg PUBLIC "-//W3C//DTD SVG 1.1//EN" "http://www.w3.org/Graphics/SVG/1.1/DTD/svg11.dtd">
<svg version="1.1" id="Layer_1" xmlns="http://www.w3.org/2000/svg" xmlns:xlink="http://www.w3.org/1999/xlink" x="0px" y="0px"
	 width="170px" height="164px" viewBox="0 0 170 164" enable-background="new 0 0 170 164" xml:space="preserve">
<linearGradient id="SVGID_1_" gradientUnits="userSpaceOnUse" x1="16.2183" y1="83.8203" x2="159.0391" y2="83.8203" gradientTransform="matrix(1 0 0 -1 0 165)">
	<stop  offset="0" style="stop-color:#FF8BDE"/>
	<stop  offset="1" style="stop-color:#669FFF"/>
</linearGradient>
<path opacity="0.8" fill="url(#SVGID_1_)" enable-background="new    " d="M17.061,53.5c3.355-13.273,2.729-31.202,27.796-44.534
	C63.217-0.84,80.405,1.919,89.75,2.25c10.775,0.441,27.998-1.106,44.49,10.572C149.412,23.51,151.382,34.003,156,44.25
	c4.068,9.035,3.399,25.668,1.75,45.5c-2.089,24.57-6.174,50.469-33,63.25c-37.6,17.959-72.967-0.252-82.861-6.313
	C32.983,141.18,24.527,127.91,19.25,97.5C16.172,79.651,15.429,72.5,17.061,53.5z"/>
</svg>
