<?xml version="1.0" encoding="utf-8"?>
<!-- Generator: Adobe Illustrator 16.0.0, SVG Export Plug-In . SVG Version: 6.00 Build 0)  -->
<!DOCTYPE svg PUBLIC "-//W3C//DTD SVG 1.1//EN" "http://www.w3.org/Graphics/SVG/1.1/DTD/svg11.dtd">
<svg version="1.1" id="Layer_1" xmlns="http://www.w3.org/2000/svg" xmlns:xlink="http://www.w3.org/1999/xlink" x="0px" y="0px"
	 width="170px" height="164px" viewBox="0 0 170 164" enable-background="new 0 0 170 164" xml:space="preserve">
<linearGradient id="SVGID_1_" gradientUnits="userSpaceOnUse" x1="1.8315" y1="84.3867" x2="168.3145" y2="84.3867" gradientTransform="matrix(1 0 0 -1 0 165)">
	<stop  offset="0" style="stop-color:#FF8BDE"/>
	<stop  offset="1" style="stop-color:#669FFF"/>
</linearGradient>
<path opacity="0.8" fill="url(#SVGID_1_)" enable-background="new    " d="M6.927,53.588c3.188-8.043,1.256-19.006,26.323-32.338
	C51.61,11.444,80.405,8.169,89.75,8.5c10.775,0.441,31.508,4.321,48,16c15.172,10.688,18.038,13.333,22.656,23.579
	c4.068,9.035,9.243,25.589,7.594,45.421c-2.089,24.57-17.924,37.969-44.75,50.75c-37.6,17.959-72.855,2.811-82.75-3.25
	C31.595,135.492,8.277,124.91,3,94.5C-0.078,76.651,3.519,61.961,6.927,53.588z"/>
</svg>
