<svg width="170" height="164" viewBox="0 0 170 164" fill="none" xmlns="http://www.w3.org/2000/svg">
<path opacity="0.8" d="M6.92721 53.588C10.1155 45.5451 19.7904 22.2976 44.8571 8.96618C63.2174 -0.839608 80.3683 -0.178544 89.7133 0.151988C100.488 0.592698 117.748 1.14358 134.24 12.8224C149.412 23.5096 155.788 37.8326 160.406 48.0791C164.474 57.1137 171.4 72.869 169.751 92.701C167.662 117.271 152.6 144.374 125.774 157.155C88.1741 175.114 51.7834 152.748 41.8887 146.688C32.9834 141.179 6.15762 124.763 0.880415 94.3536C-2.19795 76.5049 3.51902 61.9615 6.92721 53.588Z" fill="url(#paint0_linear)"/>
<defs>
<linearGradient id="paint0_linear" x1="6.6354e-07" y1="84.4848" x2="170" y2="84.4848" gradientUnits="userSpaceOnUse">
<stop stop-color="#FF8BDE"/>
<stop offset="1" stop-color="#669FFF"/>
</linearGradient>
</defs>
</svg>
