<svg width="1064" height="836" viewBox="0 0 1064 836" fill="none" xmlns="http://www.w3.org/2000/svg">
<path fill-rule="evenodd" clip-rule="evenodd" d="M916.827 175.244C917.398 177.378 916.131 179.571 913.997 180.143L778.189 216.511C776.055 217.082 773.862 215.816 773.291 213.682C772.719 211.548 773.986 209.355 776.12 208.783L911.928 172.415C914.062 171.843 916.255 173.11 916.827 175.244Z" fill="#C6C9D0"/>
<path fill-rule="evenodd" clip-rule="evenodd" d="M231.703 384.748C231.721 382.539 233.527 380.763 235.736 380.782L291.234 381.245C293.443 381.263 295.219 383.069 295.201 385.278C295.182 387.487 293.377 389.263 291.168 389.244L235.669 388.781C233.46 388.763 231.685 386.957 231.703 384.748Z" fill="#C6C9D0"/>
<path fill-rule="evenodd" clip-rule="evenodd" d="M595.875 109.237C597.821 110.283 598.552 112.708 597.507 114.654L588.741 130.977L763.014 308.679L815.508 309.116L931.642 319.141L969.846 333.709L1055.8 311.26C1057.94 310.702 1060.12 311.982 1060.68 314.119C1061.24 316.257 1059.96 318.442 1057.82 319L969.389 342.097L929.838 327.015L817.509 317.319L791.872 361.694L352.161 402.163L299.221 427.146L299.966 432.716C300.259 434.906 298.722 436.918 296.532 437.211C294.342 437.504 292.33 435.966 292.037 433.777L290.893 425.222L284.51 354.438L238.013 185.89C237.426 183.76 238.676 181.558 240.805 180.97C242.935 180.383 245.138 181.633 245.725 183.762L292.413 353.004L298.339 418.716L350.023 394.326L787.016 354.107L808.421 317.058L759.627 316.651L578.908 132.377L590.459 110.869C591.504 108.923 593.929 108.192 595.875 109.237Z" fill="#C6C9D0"/>
<path fill-rule="evenodd" clip-rule="evenodd" d="M271.401 290.082C271.852 292.245 270.463 294.363 268.301 294.813L226.727 303.467C224.564 303.917 222.446 302.529 221.996 300.366C221.546 298.203 222.934 296.085 225.097 295.635L266.67 286.981C268.833 286.531 270.951 287.919 271.401 290.082ZM970.255 333.511C972.412 333.032 974.548 334.392 975.027 336.549L982.255 369.111C982.734 371.267 981.374 373.404 979.217 373.882C977.061 374.361 974.924 373.001 974.445 370.844L967.217 338.283C966.738 336.126 968.098 333.99 970.255 333.511ZM579.291 374.278C581.433 373.738 583.607 375.037 584.147 377.179L589.955 400.228C590.495 402.37 589.196 404.545 587.053 405.084C584.911 405.624 582.737 404.325 582.197 402.183L576.389 379.134C575.85 376.992 577.149 374.817 579.291 374.278ZM447.589 384.71C449.715 384.109 451.925 385.345 452.526 387.471L459.326 411.528C459.926 413.654 458.69 415.865 456.564 416.466C454.438 417.066 452.228 415.83 451.627 413.704L444.828 389.647C444.227 387.521 445.463 385.31 447.589 384.71Z" fill="#C6C9D0"/>
<path fill-rule="evenodd" clip-rule="evenodd" d="M296.037 407.391C297.067 409.346 296.317 411.765 294.363 412.795L241.626 440.589L198.4 482.122L155.724 537.882L122.785 589.919L58.88 621.207L6.13104 626.848C3.93442 627.083 1.96329 625.493 1.72839 623.296C1.49349 621.1 3.08377 619.129 5.28038 618.894L56.6279 613.403L117.236 583.728L149.154 533.302L192.418 476.776L236.898 434.038L290.633 405.718C292.587 404.688 295.007 405.437 296.037 407.391Z" fill="#C6C9D0"/>
<path fill-rule="evenodd" clip-rule="evenodd" d="M317.134 254.852C317.726 256.981 316.481 259.186 314.353 259.778L267.242 272.885C265.113 273.478 262.908 272.232 262.316 270.104C261.724 267.976 262.969 265.77 265.097 265.178L312.208 252.071C314.336 251.479 316.542 252.724 317.134 254.852Z" fill="#C6C9D0"/>
<path fill-rule="evenodd" clip-rule="evenodd" d="M180.979 352.094C181.125 349.889 183.03 348.22 185.234 348.366L289.181 355.234C291.385 355.379 293.054 357.284 292.908 359.489C292.762 361.693 290.857 363.362 288.653 363.216L184.707 356.349C182.502 356.203 180.834 354.298 180.979 352.094Z" fill="#C6C9D0"/>
<g filter="url(#filter0_d)">
<path d="M650.748 380.75L758.443 372.643L760.996 406.547L653.3 414.655L650.748 380.75Z" fill="url(#paint0_linear)"/>
</g>
<path d="M724.797 495.226L778.936 491.15L783.344 549.711L729.205 553.786L724.797 495.226Z" fill="white"/>
<path d="M796.855 488.348L926.073 478.621L928.655 512.922L799.438 522.649L796.855 488.348Z" fill="white"/>
<path d="M692.01 649.452L675.204 506.306L690.22 504.432L700.552 584.521L713.56 583.629L715.006 590.141L729.018 588.758L732.359 607.787L745.871 606.399L748.721 624.424L776.237 622.653L779.595 639.682L692.01 649.452Z" fill="white"/>
<path d="M786.746 381.739L894.441 373.631L895.862 392.5L788.167 400.608L786.746 381.739Z" fill="white"/>
<path d="M468.523 407.231L576.219 399.123L578.09 423.975L470.394 432.083L468.523 407.231Z" fill="white"/>
<path d="M565.154 207.156L605.485 292.364L576.407 306.127L536.077 220.918L565.154 207.156Z" fill="white"/>
<path d="M319.133 307.012L402.329 310.523L401.36 333.485L318.164 329.974L319.133 307.012Z" fill="white"/>
<path d="M318.607 269.431L397.742 243.513L407.637 273.725L328.502 299.643L318.607 269.431Z" fill="white"/>
<path d="M794.1 219.803L919.039 192.83L924.329 217.335L799.39 244.307L794.1 219.803Z" fill="white"/>
<path d="M781.084 160.678L906.024 133.705L911.314 158.21L786.375 185.182L781.084 160.678Z" fill="white"/>
<path d="M759.674 90.4968L884.613 63.5244L889.903 88.0288L764.964 115.001L759.674 90.4968Z" fill="white"/>
<path d="M639.338 97.2854L736.465 149.176L724.652 171.287L627.525 119.397L639.338 97.2854Z" fill="white"/>
<path d="M520.957 76.5049L571.399 183.076L529.56 202.878L479.119 96.3077L520.957 76.5049Z" fill="white"/>
<path d="M484.328 154.348L504.305 196.554L427.305 233L407.328 190.794L484.328 154.348Z" fill="white"/>
<path d="M576.328 137.648L584.629 155.185L571.021 161.626L562.721 144.088L576.328 137.648Z" fill="white"/>
<path d="M603.047 171.339L611.348 188.877L588.475 199.703L580.174 182.165L603.047 171.339Z" fill="white"/>
<path d="M526.561 256.704L534.861 274.241L526.722 278.094L518.421 260.556L526.561 256.704Z" fill="white"/>
<path d="M561.494 303.997L566.833 315.277L558.694 319.13L553.355 307.849L561.494 303.997Z" fill="white"/>
<path d="M624.068 189.065L636.388 204.054L600.836 233.274L588.516 218.285L624.068 189.065Z" fill="white"/>
<path d="M647.053 211.29L659.231 226.395L614.977 262.075L602.799 246.971L647.053 211.29Z" fill="white"/>
<path d="M716.398 277.289L729.799 291.32L688.69 330.582L675.289 316.551L716.398 277.289Z" fill="white"/>
<path d="M740.172 304.488L753.573 318.519L726.886 344.007L713.485 329.975L740.172 304.488Z" fill="white"/>
<path d="M397.4 421.638L445.92 417.986L447.165 434.527L398.646 438.179L397.4 421.638Z" fill="white"/>
<path d="M328.959 474.12L367.456 471.222L370.633 513.412L332.135 516.31L328.959 474.12Z" fill="white"/>
<path d="M241.332 471.578L257.988 470.324L260.369 501.953L243.713 503.206L241.332 471.578Z" fill="white"/>
<path d="M234.561 521.524L251.217 520.27L252.226 533.673L235.57 534.927L234.561 521.524Z" fill="white"/>
<path d="M250.15 570.655L275.818 568.723L282.126 652.512L256.458 654.444L250.15 570.655Z" fill="white"/>
<path d="M135.635 579.779L165.242 587.268L145.01 667.26L115.402 659.771L135.635 579.779Z" fill="white"/>
<path d="M58.6719 627.28L75.8967 625.811L81.9056 696.244L64.6808 697.714L58.6719 627.28Z" fill="white"/>
<path d="M8 640.222L39.7983 637.51L45.8072 707.944L14.0089 710.656L8 640.222Z" fill="white"/>
<path d="M115.404 659.452L145.336 653.391L152.688 689.696L122.756 695.757L115.404 659.452Z" fill="white"/>
<path d="M400.986 471.188L419.212 469.816L421.72 503.143L403.495 504.515L400.986 471.188Z" fill="white"/>
<path d="M449.385 543.448L467.61 542.075L469.109 561.991L450.884 563.363L449.385 543.448Z" fill="white"/>
<path d="M806.213 565.426L840.778 562.823L842.277 582.739L807.712 585.341L806.213 565.426Z" fill="white"/>
<path d="M379.664 509.706L399.619 508.204L405.148 581.642L385.193 583.144L379.664 509.706Z" fill="white"/>
<path d="M612.316 432.431L683.645 427.062L688.19 487.434L652.827 491.266L657.071 550.492L621.406 553.177L612.316 432.431Z" fill="white"/>
<path d="M971.779 445.323L962.36 368.698L915.815 373.81L917.95 409.338L788.403 422.748L794.377 464.609L971.779 445.323Z" fill="white"/>
<path d="M773.26 322.764L785.298 335.352L776.214 344.04L770.056 337.951L761.111 346.434L755.092 340.14L773.26 322.764Z" fill="white"/>
<path d="M483.973 552.571L527.798 549.272L523.898 497.464L502.042 498.106L498.085 447.305L476.172 448.955L483.973 552.571Z" fill="white"/>
<path d="M357.201 626.171L337.226 627.675L334.836 595.92L344.717 594.561L342.433 563.412L352.42 562.66L357.201 626.171Z" fill="white"/>
<path d="M681.376 245.995L672.452 236.92L638.186 268.636L656.531 287.289L630.315 313.072L650.147 333.238L709.133 275.228L690.788 256.574L672.135 274.919L662.218 264.836L681.376 245.995Z" fill="white"/>
<path fill-rule="evenodd" clip-rule="evenodd" d="M890.557 26.4718C891.155 28.5985 889.916 30.8073 887.789 31.4053L748.113 70.6803L803.223 311.945C803.715 314.098 802.368 316.243 800.214 316.735C798.061 317.227 795.916 315.88 795.424 313.726L738.618 65.0398L885.624 23.7039C887.751 23.1059 889.959 24.3452 890.557 26.4718Z" fill="#C6C9D0"/>
<path fill-rule="evenodd" clip-rule="evenodd" d="M902.349 112.611C902.926 114.744 901.665 116.94 899.532 117.517L763.22 154.381C761.088 154.958 758.891 153.696 758.315 151.564C757.738 149.431 758.999 147.235 761.132 146.658L897.444 109.794C899.576 109.218 901.773 110.479 902.349 112.611Z" fill="#C6C9D0"/>
<path fill-rule="evenodd" clip-rule="evenodd" d="M590.973 111.198C592.034 109.26 594.465 108.55 596.403 109.611L778.079 209.13C780.016 210.192 780.726 212.623 779.665 214.56C778.604 216.498 776.173 217.208 774.235 216.147L592.559 116.627C590.622 115.566 589.911 113.135 590.973 111.198Z" fill="#C6C9D0"/>
<g filter="url(#filter1_d)">
<path d="M600.441 297.816L799.259 285.834L802.946 347.009L713.965 352.372L704.543 369.684L693.11 353.628L604.128 358.991L600.441 297.816Z" fill="url(#paint1_linear)"/>
</g>
<path d="M647.939 333.889L647.74 337.364L650.734 337.183L650.92 340.274L647.543 340.477L647.303 344.074L644.044 344.271L644.285 340.674L641.338 340.851L641.098 344.448L637.84 344.644L638.08 341.048L635.061 341.229L634.875 338.139L638.277 337.934L638.476 334.46L635.458 334.642L635.271 331.551L638.673 331.346L638.913 327.749L642.171 327.553L641.931 331.15L644.878 330.972L645.118 327.375L648.376 327.179L648.136 330.776L651.155 330.594L651.341 333.684L647.939 333.889ZM644.681 334.086L641.734 334.263L641.535 337.738L644.482 337.56L644.681 334.086Z" fill="white"/>
<path d="M665.085 339.733L657.994 340.16L656.872 343.497L652.033 343.789L658.425 326.573L663.097 326.292L671.534 342.614L666.599 342.911L665.085 339.733ZM663.485 336.319L661.005 331.082L659.172 336.579L663.485 336.319Z" fill="white"/>
<path d="M676.31 330.857C676.738 330.238 677.31 329.763 678.028 329.431C678.76 329.083 679.605 328.879 680.564 328.822L680.811 332.918C680.392 332.895 680.048 332.892 679.776 332.908C678.802 332.967 678.051 333.277 677.524 333.838C677.013 334.397 676.79 335.22 676.855 336.306L677.215 342.271L672.663 342.546L671.88 329.561L676.217 329.3L676.31 330.857Z" fill="white"/>
<path d="M689.65 341.738C688.26 341.822 686.989 341.61 685.837 341.103C684.684 340.595 683.757 339.849 683.057 338.866C682.373 337.881 681.991 336.742 681.913 335.448C681.836 334.171 682.078 333.002 682.64 331.942C683.217 330.882 684.04 330.039 685.108 329.413C686.191 328.771 687.436 328.407 688.841 328.323C690.247 328.238 691.526 328.449 692.678 328.957C693.83 329.449 694.748 330.187 695.433 331.171C696.116 332.14 696.497 333.271 696.575 334.565C696.653 335.858 696.411 337.035 695.85 338.095C695.289 339.155 694.466 340.006 693.383 340.648C692.3 341.29 691.055 341.654 689.65 341.738ZM689.432 338.121C690.23 338.073 690.869 337.762 691.347 337.188C691.824 336.598 692.034 335.816 691.975 334.842C691.917 333.884 691.617 333.149 691.073 332.636C690.529 332.124 689.858 331.892 689.059 331.94C688.261 331.988 687.622 332.299 687.144 332.873C686.666 333.447 686.455 334.213 686.513 335.171C686.572 336.145 686.873 336.897 687.418 337.425C687.962 337.937 688.633 338.169 689.432 338.121Z" fill="white"/>
<path d="M711.653 331.42C712.632 331.698 713.414 332.179 714 332.865C714.586 333.535 714.909 334.374 714.969 335.38C715.058 336.849 714.535 338.019 713.402 338.888C712.268 339.758 710.583 340.26 708.347 340.395L699.292 340.941L698.281 324.171L706.857 323.654C708.998 323.526 710.651 323.827 711.817 324.558C712.982 325.273 713.605 326.301 713.686 327.643C713.734 328.441 713.577 329.172 713.217 329.835C712.871 330.481 712.35 331.009 711.653 331.42ZM703.183 327.314L703.378 330.548L706.636 330.352C708.233 330.256 708.999 329.665 708.933 328.579C708.869 327.508 708.038 327.022 706.441 327.118L703.183 327.314ZM707.757 336.993C709.418 336.892 710.215 336.275 710.146 335.141C710.078 334.007 709.213 333.491 707.552 333.591L703.576 333.83L703.781 337.232L707.757 336.993Z" fill="white"/>
<path d="M724.017 339.667C722.628 339.751 721.357 339.539 720.204 339.031C719.051 338.524 718.125 337.778 717.424 336.795C716.74 335.81 716.359 334.671 716.281 333.377C716.204 332.1 716.446 330.931 717.007 329.871C717.584 328.811 718.407 327.967 719.475 327.342C720.559 326.7 721.803 326.336 723.209 326.252C724.614 326.167 725.893 326.378 727.046 326.886C728.197 327.377 729.115 328.116 729.8 329.1C730.483 330.069 730.864 331.2 730.942 332.494C731.02 333.787 730.778 334.964 730.217 336.024C729.656 337.083 728.834 337.934 727.75 338.577C726.667 339.219 725.423 339.582 724.017 339.667ZM723.799 336.05C724.598 336.002 725.236 335.691 725.714 335.117C726.192 334.527 726.401 333.745 726.342 332.771C726.285 331.813 725.984 331.077 725.44 330.565C724.896 330.053 724.225 329.821 723.427 329.869C722.628 329.917 721.99 330.228 721.511 330.802C721.033 331.376 720.823 332.142 720.88 333.1C720.939 334.074 721.241 334.825 721.786 335.354C722.329 335.866 723 336.098 723.799 336.05Z" fill="white"/>
<path d="M749.561 324.663C751.158 324.567 752.457 324.97 753.457 325.871C754.473 326.772 755.039 328.188 755.156 330.121L755.603 337.547L751.051 337.822L750.649 331.138C750.594 330.227 750.378 329.567 750 329.157C749.639 328.746 749.147 328.559 748.524 328.597C747.837 328.638 747.301 328.911 746.914 329.415C746.528 329.919 746.364 330.659 746.423 331.633L746.811 338.077L742.259 338.351L741.857 331.668C741.75 329.895 741.041 329.048 739.732 329.127C739.029 329.169 738.485 329.442 738.098 329.947C737.712 330.451 737.548 331.19 737.607 332.164L737.995 338.608L733.443 338.883L732.661 325.898L736.997 325.637L737.079 327.002C737.527 326.447 738.07 326.021 738.709 325.726C739.364 325.414 740.082 325.235 740.865 325.187C741.775 325.133 742.6 325.251 743.339 325.543C744.078 325.835 744.691 326.311 745.18 326.971C745.652 326.285 746.268 325.743 747.03 325.345C747.791 324.946 748.635 324.719 749.561 324.663Z" fill="white"/>
<path d="M765.85 323.682C767.032 323.61 768.118 323.817 769.109 324.303C770.116 324.787 770.93 325.523 771.55 326.512C772.186 327.483 772.544 328.64 772.625 329.982C772.706 331.323 772.49 332.522 771.976 333.579C771.479 334.635 770.76 335.472 769.819 336.089C768.894 336.69 767.84 337.026 766.658 337.097C764.949 337.2 763.641 336.774 762.734 335.819L762.812 337.113L758.476 337.374L757.405 319.598L761.956 319.324L762.313 325.241C763.138 324.294 764.316 323.774 765.85 323.682ZM765.482 333.538C766.28 333.49 766.919 333.179 767.397 332.605C767.875 332.015 768.084 331.233 768.025 330.259C767.968 329.3 767.667 328.565 767.123 328.053C766.579 327.541 765.908 327.309 765.109 327.357C764.311 327.405 763.672 327.716 763.194 328.29C762.716 328.864 762.505 329.63 762.563 330.588C762.622 331.562 762.924 332.313 763.468 332.842C764.012 333.354 764.683 333.586 765.482 333.538Z" fill="white"/>
<path d="M683.268 313.662C682.342 313.718 681.495 313.576 680.726 313.238C679.958 312.9 679.34 312.403 678.873 311.747C678.417 311.09 678.163 310.331 678.111 309.469C678.059 308.617 678.221 307.838 678.595 307.131C678.98 306.424 679.528 305.862 680.24 305.445C680.963 305.017 681.792 304.775 682.729 304.718C683.666 304.662 684.519 304.803 685.287 305.141C686.055 305.469 686.667 305.961 687.123 306.617C687.579 307.263 687.833 308.017 687.885 308.879C687.937 309.742 687.776 310.526 687.402 311.233C687.027 311.939 686.479 312.507 685.757 312.935C685.035 313.363 684.205 313.605 683.268 313.662ZM683.123 311.25C683.655 311.218 684.081 311.011 684.4 310.628C684.718 310.235 684.858 309.714 684.818 309.064C684.78 308.425 684.579 307.935 684.217 307.594C683.854 307.252 683.407 307.098 682.875 307.13C682.342 307.162 681.917 307.369 681.598 307.752C681.279 308.134 681.139 308.645 681.177 309.284C681.216 309.933 681.417 310.434 681.781 310.786C682.143 311.128 682.59 311.282 683.123 311.25Z" fill="white"/>
<path d="M701.844 308.022C701.926 309.374 701.537 310.466 700.679 311.298C699.82 312.119 698.554 312.644 696.879 312.874L697.055 315.796L694.372 315.958L694.197 313.051C692.496 313.015 691.169 312.641 690.218 311.929C689.277 311.205 688.766 310.167 688.684 308.815C688.603 307.474 688.982 306.404 689.821 305.605C690.671 304.806 691.949 304.291 693.655 304.06L693.471 301.009L696.154 300.847L696.338 303.898C698.04 303.934 699.36 304.298 700.299 304.99C701.249 305.68 701.764 306.691 701.844 308.022ZM691.575 308.641C691.617 309.344 691.831 309.871 692.215 310.221C692.61 310.561 693.225 310.759 694.062 310.815L693.789 306.28C692.954 306.437 692.366 306.702 692.026 307.075C691.685 307.448 691.535 307.97 691.575 308.641ZM696.745 310.654C697.58 310.496 698.168 310.226 698.508 309.842C698.858 309.447 699.012 308.898 698.97 308.195C698.929 307.525 698.712 307.025 698.318 306.696C697.935 306.366 697.32 306.179 696.473 306.134L696.745 310.654Z" fill="white"/>
<path d="M703.007 303.64L706.026 303.458L706.299 307.994L709.651 303.24L712.446 303.071L712.968 311.728L709.933 311.911L709.659 307.359L706.34 312.127L703.529 312.297L703.007 303.64Z" fill="white"/>
<path d="M719.361 311.487C718.403 311.544 717.534 311.404 716.755 311.067C715.976 310.729 715.353 310.232 714.886 309.576C714.429 308.92 714.175 308.161 714.123 307.298C714.071 306.436 714.233 305.657 714.608 304.961C714.992 304.254 715.552 303.691 716.285 303.273C717.018 302.844 717.864 302.601 718.822 302.543C719.801 302.484 720.661 302.646 721.4 303.029C722.138 303.401 722.679 303.951 723.022 304.678L720.746 306.017C720.306 305.264 719.707 304.91 718.951 304.955C718.408 304.988 717.967 305.196 717.626 305.58C717.297 305.963 717.151 306.475 717.19 307.113C717.229 307.763 717.435 308.263 717.809 308.615C718.193 308.955 718.657 309.109 719.2 309.076C719.955 309.03 720.507 308.607 720.854 307.806L723.274 308.863C723.021 309.626 722.55 310.242 721.863 310.711C721.174 311.169 720.34 311.428 719.361 311.487Z" fill="white"/>
<path d="M296.687 442.884L296.474 441.077L292.372 441.561L292.162 439.781L301.895 438.633L302.105 440.412L298.031 440.893L298.251 442.756L302.654 445.07L302.88 446.989L297.775 444.222L293.163 448.262L292.922 446.218L296.687 442.884Z" fill="#9CA1AB"/>
<path d="M293.566 452.52C293.478 451.769 293.56 451.073 293.814 450.432C294.067 449.792 294.461 449.266 294.995 448.855C295.539 448.453 296.178 448.208 296.91 448.122C297.642 448.035 298.316 448.125 298.93 448.391C299.545 448.666 300.05 449.086 300.446 449.65C300.841 450.214 301.083 450.872 301.172 451.622C301.261 452.383 301.18 453.083 300.926 453.724C300.673 454.364 300.279 454.886 299.743 455.287C299.209 455.698 298.576 455.946 297.844 456.033C297.111 456.119 296.433 456.025 295.809 455.751C295.195 455.485 294.69 455.07 294.294 454.506C293.899 453.942 293.656 453.28 293.566 452.52ZM295.054 452.344C295.13 452.984 295.405 453.487 295.881 453.854C296.356 454.221 296.942 454.363 297.637 454.281C298.332 454.199 298.868 453.924 299.245 453.457C299.623 452.989 299.773 452.436 299.698 451.796C299.622 451.157 299.347 450.654 298.871 450.287C298.397 449.929 297.812 449.792 297.117 449.874C296.422 449.956 295.885 450.226 295.507 450.684C295.13 451.151 294.979 451.705 295.054 452.344Z" fill="#9CA1AB"/>
<path d="M295.195 465.487L300.117 464.906L295.679 462.893L295.59 462.142L299.457 459.19L294.521 459.773L294.334 458.188L301.758 457.312L301.973 459.133L297.641 462.323L302.612 464.542L302.803 466.168L295.381 467.058L295.195 465.487Z" fill="#9CA1AB"/>
<path d="M296.517 476.689L301.439 476.108L297 474.094L296.912 473.343L300.778 470.392L295.843 470.974L295.656 469.389L303.08 468.513L303.295 470.335L298.963 473.524L303.933 475.743L304.125 477.37L296.702 478.26L296.517 476.689Z" fill="#9CA1AB"/>
<path d="M305.229 486.722L296.796 484.193C295.952 483.964 295.34 483.636 294.961 483.211C294.572 482.787 294.339 482.246 294.262 481.588C294.218 481.217 294.235 480.844 294.313 480.468C294.391 480.093 294.522 479.776 294.708 479.519L296.069 480.064C295.931 480.249 295.829 480.459 295.763 480.692C295.698 480.935 295.679 481.172 295.706 481.403C295.742 481.709 295.85 481.95 296.031 482.126C296.212 482.312 296.498 482.466 296.889 482.589L297.196 482.68L304.266 478.561L304.479 480.368L299.263 483.352L305.032 485.054L305.229 486.722Z" fill="#9CA1AB"/>
<path d="M305.371 487.929L305.576 489.667L302.559 490.023L303 493.763L306.018 493.407L306.223 495.145L298.798 496.021L298.593 494.283L301.527 493.937L301.085 490.197L298.152 490.543L297.947 488.805L305.371 487.929Z" fill="#9CA1AB"/>
<path d="M306.907 500.231C307.036 501.325 306.871 502.191 306.41 502.828C305.96 503.473 305.207 503.858 304.15 503.982L299.798 504.496L299.604 502.855L300.508 502.749C300.159 502.574 299.872 502.297 299.649 501.92C299.436 501.55 299.297 501.087 299.232 500.531C299.166 499.975 299.201 499.477 299.337 499.038C299.483 498.598 299.709 498.243 300.015 497.972C300.332 497.709 300.703 497.552 301.13 497.502C301.797 497.423 302.359 497.606 302.815 498.05C303.282 498.502 303.579 499.261 303.705 500.327L303.931 502.246L304.042 502.233C304.561 502.172 304.941 501.967 305.182 501.619C305.424 501.28 305.509 500.805 305.437 500.193C305.388 499.776 305.274 499.372 305.096 498.979C304.919 498.596 304.699 498.279 304.434 498.028L305.619 497.197C305.961 497.552 306.244 497.993 306.466 498.521C306.688 499.05 306.835 499.62 306.907 500.231ZM300.539 500.743C300.591 501.179 300.734 501.552 300.968 501.863C301.212 502.182 301.528 502.389 301.915 502.484L302.777 502.382L302.565 500.589C302.447 499.588 302.059 499.126 301.401 499.204C301.086 499.241 300.85 499.395 300.694 499.668C300.539 499.94 300.487 500.298 300.539 500.743Z" fill="#9CA1AB"/>
<path d="M308.27 512.5L300.846 513.376L300.641 511.638L306.591 510.936L306.263 508.155L304.781 508.259C303.793 508.329 302.958 508.334 302.274 508.273C301.6 508.221 301.05 508.056 300.622 507.777C300.205 507.507 299.964 507.094 299.898 506.538C299.867 506.278 299.881 505.952 299.938 505.56L301.407 505.472C301.395 505.605 301.394 505.717 301.405 505.81C301.447 506.162 301.617 506.41 301.916 506.553C302.224 506.696 302.575 506.767 302.97 506.767C303.375 506.776 303.946 506.756 304.683 506.706L307.562 506.493L308.27 512.5Z" fill="#9CA1AB"/>
<path d="M306.539 518.855C306.651 519.801 306.523 520.549 306.156 521.1C305.789 521.66 305.217 521.986 304.438 522.078C303.623 522.174 302.96 521.97 302.449 521.466C301.938 520.963 301.628 520.205 301.518 519.194L301.122 515.716L308.547 514.84L308.752 516.578L306.318 516.865L306.539 518.855ZM302.779 518.89C302.83 519.401 302.983 519.778 303.237 520.02C303.491 520.263 303.831 520.359 304.258 520.309C304.675 520.259 304.965 520.093 305.129 519.811C305.293 519.528 305.349 519.123 305.296 518.593L305.123 517.006L302.606 517.303L302.779 518.89Z" fill="#9CA1AB"/>
<path d="M309.513 523.028L309.718 524.766L306.701 525.122L307.142 528.862L310.159 528.506L310.364 530.244L302.94 531.12L302.734 529.382L305.668 529.036L305.227 525.295L302.293 525.642L302.088 523.904L309.513 523.028Z" fill="#9CA1AB"/>
<path d="M311.049 535.33C311.178 536.423 311.012 537.289 310.552 537.926C310.101 538.571 309.348 538.956 308.291 539.081L303.939 539.594L303.746 537.954L304.65 537.847C304.3 537.672 304.014 537.396 303.791 537.018C303.578 536.648 303.439 536.185 303.373 535.629C303.307 535.073 303.343 534.576 303.479 534.137C303.624 533.696 303.85 533.341 304.156 533.07C304.473 532.807 304.845 532.65 305.271 532.6C305.938 532.521 306.5 532.704 306.957 533.148C307.424 533.601 307.72 534.36 307.846 535.426L308.072 537.344L308.184 537.331C308.703 537.27 309.083 537.065 309.323 536.717C309.565 536.379 309.65 535.904 309.578 535.292C309.529 534.875 309.415 534.47 309.238 534.077C309.061 533.694 308.84 533.377 308.576 533.126L309.76 532.296C310.103 532.65 310.385 533.091 310.607 533.62C310.829 534.148 310.977 534.718 311.049 535.33ZM304.681 535.841C304.732 536.277 304.875 536.65 305.109 536.961C305.353 537.28 305.669 537.487 306.056 537.582L306.918 537.481L306.707 535.687C306.589 534.686 306.2 534.224 305.542 534.302C305.227 534.339 304.992 534.494 304.836 534.766C304.68 535.038 304.628 535.397 304.681 535.841Z" fill="#9CA1AB"/>
<path d="M312.358 547.139L304.933 548.015L304.749 546.458L306.988 546.194L306.757 544.234L304.339 542.982L304.119 541.119L306.801 542.579C306.923 542.019 307.157 541.574 307.503 541.241C307.86 540.917 308.32 540.722 308.886 540.655C309.739 540.555 310.432 540.778 310.967 541.326C311.501 541.874 311.831 542.676 311.956 543.733L312.358 547.139ZM310.502 543.961C310.37 542.839 309.882 542.328 309.039 542.428C308.204 542.526 307.851 543.118 307.979 544.202L308.197 546.051L310.714 545.754L310.502 543.961Z" fill="#9CA1AB"/>
<path d="M313.914 560.327L305.481 557.798C304.637 557.568 304.025 557.241 303.646 556.816C303.257 556.392 303.024 555.851 302.946 555.193C302.903 554.822 302.92 554.449 302.998 554.073C303.075 553.697 303.207 553.381 303.393 553.124L304.754 553.668C304.616 553.854 304.514 554.063 304.448 554.297C304.382 554.539 304.363 554.776 304.391 555.008C304.427 555.314 304.535 555.555 304.716 555.731C304.897 555.916 305.183 556.071 305.574 556.194L305.881 556.284L312.951 552.165L313.164 553.973L307.948 556.957L313.717 558.658L313.914 560.327Z" fill="#9CA1AB"/>
<path d="M314.796 567.802L307.371 568.678L307.166 566.94L313.117 566.238L312.789 563.457L311.307 563.561C310.319 563.631 309.483 563.635 308.799 563.575C308.126 563.523 307.575 563.358 307.148 563.079C306.73 562.809 306.489 562.396 306.423 561.84C306.393 561.58 306.406 561.254 306.463 560.862L307.933 560.773C307.92 560.906 307.92 561.019 307.93 561.112C307.972 561.464 308.142 561.712 308.441 561.855C308.749 561.998 309.101 562.069 309.495 562.069C309.901 562.078 310.471 562.057 311.208 562.008L314.087 561.795L314.796 567.802Z" fill="#9CA1AB"/>
<path d="M315.072 570.142L315.277 571.88L310.383 572.458L315.761 575.982L315.948 577.567L308.523 578.443L308.318 576.705L313.212 576.127L307.836 572.617L307.647 571.018L315.072 570.142Z" fill="#9CA1AB"/>
<path d="M311.234 588.754L308.05 589.13L307.859 587.503L309.569 587.301L308.799 580.781L316.224 579.905L316.429 581.643L310.478 582.345L310.896 585.89L316.847 585.188L317.052 586.926L311.102 587.628L311.234 588.754Z" fill="#9CA1AB"/>
<path d="M317.778 592.356C317.907 593.45 317.741 594.315 317.28 594.952C316.83 595.597 316.077 595.982 315.02 596.107L310.668 596.62L310.475 594.98L311.378 594.873C311.029 594.698 310.742 594.422 310.519 594.044C310.307 593.675 310.167 593.212 310.102 592.656C310.036 592.099 310.071 591.602 310.208 591.163C310.353 590.723 310.579 590.367 310.885 590.096C311.202 589.833 311.573 589.677 312 589.626C312.667 589.547 313.229 589.73 313.686 590.174C314.153 590.627 314.449 591.386 314.575 592.452L314.801 594.371L314.912 594.358C315.431 594.296 315.811 594.092 316.052 593.744C316.294 593.405 316.379 592.93 316.307 592.318C316.258 591.901 316.144 591.496 315.966 591.104C315.789 590.72 315.569 590.403 315.304 590.153L316.489 589.322C316.832 589.676 317.114 590.118 317.336 590.646C317.558 591.174 317.705 591.744 317.778 592.356ZM311.41 592.868C311.461 593.303 311.604 593.677 311.838 593.987C312.082 594.306 312.398 594.513 312.785 594.609L313.647 594.507L313.435 592.713C313.317 591.712 312.929 591.251 312.271 591.328C311.956 591.365 311.721 591.52 311.565 591.792C311.409 592.064 311.357 592.423 311.41 592.868Z" fill="#9CA1AB"/>
<path d="M909.361 86.3194C909.396 86.966 909.269 87.5084 908.98 87.9467C908.7 88.382 908.272 88.6941 907.696 88.883C906.88 89.1503 906.147 89.0564 905.497 88.6015C904.847 88.1465 904.335 87.347 903.96 86.2028L902.513 81.7857L911.826 78.7351L913.19 82.8994C913.533 83.946 913.592 84.8303 913.367 85.5522C913.142 86.2742 912.648 86.7601 911.885 87.0099C911.397 87.1697 910.937 87.188 910.503 87.0647C910.073 86.9503 909.692 86.7019 909.361 86.3194ZM908.406 81.7411L909.164 84.0561C909.347 84.6149 909.598 85.0043 909.915 85.2244C910.233 85.4444 910.609 85.4833 911.044 85.3409C911.478 85.1986 911.758 84.9447 911.884 84.5794C912.019 84.2111 911.995 83.7476 911.812 83.1888L911.054 80.8739L908.406 81.7411ZM905.273 85.7138C905.674 86.9378 906.336 87.3987 907.258 87.0965C908.163 86.8002 908.415 86.04 908.014 84.816L907.142 82.1551L904.401 83.0529L905.273 85.7138Z" fill="#9CA1AB"/>
<path d="M913.751 91.8068C914.094 92.8534 914.102 93.7344 913.777 94.45C913.463 95.1714 912.801 95.6978 911.79 96.029L907.625 97.393L907.111 95.8231L907.976 95.5399C907.599 95.4375 907.263 95.2233 906.97 94.8971C906.688 94.5769 906.46 94.1507 906.286 93.6185C906.112 93.0863 906.048 92.5916 906.094 92.1344C906.15 91.6742 906.301 91.281 906.548 90.9546C906.806 90.6343 907.139 90.4073 907.547 90.2736C908.186 90.0644 908.773 90.1324 909.308 90.4776C909.855 90.8287 910.296 91.5143 910.63 92.5343L911.232 94.3703L911.338 94.3354C911.835 94.1727 912.167 93.897 912.334 93.5083C912.504 93.1284 912.494 92.6458 912.302 92.0604C912.171 91.6613 911.98 91.2869 911.728 90.9373C911.479 90.5966 911.2 90.3295 910.891 90.1361L911.888 89.0876C912.294 89.3671 912.658 89.7439 912.98 90.2178C913.302 90.6917 913.559 91.2214 913.751 91.8068ZM907.61 93.5678C907.746 93.9847 907.96 94.3223 908.251 94.5806C908.554 94.8448 908.904 94.9854 909.302 95.0022L910.127 94.732L909.565 93.0157C909.251 92.0578 908.78 91.682 908.15 91.8883C907.848 91.9871 907.648 92.1852 907.549 92.4828C907.45 92.7804 907.47 93.1421 907.61 93.5678Z" fill="#9CA1AB"/>
<path d="M915.837 103.214L915.022 100.726L909.328 102.591L908.783 100.928L914.478 99.0625L913.658 96.5613L915.068 96.0994L917.247 102.752L915.837 103.214Z" fill="#9CA1AB"/>
<path d="M919.856 110.715L911.09 109.904C910.217 109.846 909.552 109.646 909.096 109.305C908.632 108.966 908.296 108.481 908.09 107.852C907.974 107.497 907.917 107.128 907.919 106.744C907.921 106.36 907.987 106.024 908.119 105.736L909.561 106C909.462 106.209 909.403 106.434 909.385 106.676C909.368 106.927 909.397 107.163 909.469 107.385C909.565 107.678 909.719 107.893 909.931 108.029C910.146 108.175 910.456 108.27 910.864 108.313L911.182 108.341L917.298 102.906L917.864 104.635L913.341 108.592L919.333 109.119L919.856 110.715Z" fill="#9CA1AB"/>
<path d="M920.685 118.012L919.87 115.524L914.175 117.389L913.631 115.726L919.325 113.861L918.506 111.36L919.916 110.898L922.095 117.55L920.685 118.012Z" fill="#9CA1AB"/>
<path d="M922.49 118.757L923.035 120.42L918.352 121.954L924.32 124.344L924.817 125.861L917.713 128.188L917.168 126.525L921.851 124.991L915.887 122.614L915.385 121.084L922.49 118.757Z" fill="#9CA1AB"/>
<path d="M925.55 128.098L926.095 129.761L923.208 130.707L924.38 134.286L927.267 133.34L927.812 135.003L920.707 137.33L920.162 135.667L922.97 134.748L921.797 131.169L918.99 132.088L918.445 130.425L925.55 128.098Z" fill="#9CA1AB"/>
<path d="M929.489 139.853C929.832 140.9 929.84 141.781 929.515 142.497C929.201 143.218 928.539 143.744 927.528 144.076L923.364 145.44L922.849 143.87L923.714 143.587C923.337 143.484 923.001 143.27 922.708 142.944C922.426 142.624 922.198 142.197 922.024 141.665C921.85 141.133 921.786 140.638 921.832 140.181C921.888 139.721 922.039 139.328 922.286 139.001C922.544 138.681 922.877 138.454 923.285 138.32C923.924 138.111 924.511 138.179 925.046 138.524C925.594 138.875 926.034 139.561 926.368 140.581L926.97 142.417L927.076 142.382C927.573 142.219 927.905 141.944 928.072 141.555C928.242 141.175 928.232 140.692 928.04 140.107C927.909 139.708 927.718 139.334 927.466 138.984C927.217 138.643 926.938 138.376 926.629 138.183L927.626 137.134C928.032 137.414 928.396 137.791 928.718 138.264C929.04 138.738 929.297 139.268 929.489 139.853ZM923.348 141.614C923.485 142.031 923.698 142.369 923.989 142.627C924.292 142.892 924.642 143.032 925.041 143.049L925.865 142.779L925.303 141.062C924.99 140.104 924.518 139.729 923.888 139.935C923.586 140.034 923.386 140.232 923.287 140.53C923.188 140.827 923.209 141.189 923.348 141.614Z" fill="#9CA1AB"/>
<path d="M949.341 242.02C949.118 242.628 948.788 243.077 948.351 243.366C947.922 243.656 947.406 243.775 946.801 243.722C945.946 243.646 945.309 243.272 944.891 242.598C944.472 241.924 944.316 240.987 944.422 239.788L944.83 235.158L954.592 236.018L954.207 240.383C954.11 241.48 953.817 242.316 953.326 242.891C952.834 243.466 952.189 243.719 951.39 243.648C950.878 243.603 950.448 243.439 950.098 243.155C949.747 242.88 949.495 242.502 949.341 242.02ZM950.265 237.435L950.051 239.862C949.999 240.448 950.076 240.904 950.281 241.232C950.487 241.559 950.817 241.743 951.273 241.783C951.728 241.823 952.086 241.7 952.345 241.413C952.614 241.128 952.774 240.692 952.826 240.107L953.04 237.68L950.265 237.435ZM945.821 239.855C945.708 241.138 946.135 241.822 947.102 241.907C948.05 241.991 948.581 241.391 948.694 240.108L948.94 237.319L946.067 237.065L945.821 239.855Z" fill="#9CA1AB"/>
<path d="M951.217 248.792C951.121 249.889 950.782 250.703 950.201 251.232C949.629 251.772 948.813 251.996 947.753 251.902L943.388 251.517L943.533 249.872L944.439 249.952C944.133 249.709 943.909 249.38 943.767 248.965C943.634 248.56 943.593 248.078 943.642 247.52C943.691 246.962 943.827 246.483 944.05 246.081C944.282 245.679 944.575 245.377 944.931 245.174C945.294 244.982 945.69 244.904 946.118 244.942C946.787 245.001 947.3 245.294 947.656 245.822C948.021 246.36 948.156 247.164 948.062 248.233L947.893 250.158L948.004 250.167C948.525 250.213 948.939 250.091 949.245 249.799C949.551 249.517 949.731 249.069 949.785 248.455C949.822 248.037 949.794 247.617 949.7 247.197C949.605 246.786 949.453 246.43 949.245 246.131L950.575 245.559C950.838 245.976 951.024 246.466 951.134 247.028C951.244 247.591 951.271 248.179 951.217 248.792ZM944.879 247.995C944.84 248.432 944.904 248.826 945.07 249.178C945.244 249.54 945.511 249.807 945.87 249.979L946.735 250.056L946.894 248.257C946.982 247.252 946.696 246.721 946.036 246.663C945.72 246.635 945.458 246.739 945.25 246.973C945.042 247.208 944.918 247.548 944.879 247.995Z" fill="#9CA1AB"/>
<path d="M948.647 260.1L948.877 257.492L942.908 256.966L943.061 255.223L949.03 255.749L949.261 253.127L950.74 253.257L950.125 260.23L948.647 260.1Z" fill="#9CA1AB"/>
<path d="M949.389 268.578L941.65 264.382C940.87 263.985 940.337 263.54 940.053 263.047C939.759 262.552 939.641 261.975 939.7 261.315C939.732 260.943 939.825 260.581 939.978 260.229C940.131 259.877 940.324 259.595 940.559 259.381L941.78 260.191C941.607 260.345 941.465 260.529 941.352 260.744C941.239 260.968 941.172 261.197 941.151 261.429C941.124 261.736 941.181 261.994 941.322 262.203C941.462 262.421 941.71 262.631 942.068 262.831L942.349 262.982L950.111 260.391L949.951 262.204L944.236 264.062L949.537 266.904L949.389 268.578Z" fill="#9CA1AB"/>
<path d="M947.28 275.612L947.51 273.004L941.541 272.478L941.694 270.735L947.663 271.261L947.894 268.639L949.373 268.769L948.758 275.742L947.28 275.612Z" fill="#9CA1AB"/>
<path d="M948.647 277.007L948.493 278.75L943.584 278.317L948.13 282.864L947.99 284.454L940.543 283.797L940.697 282.054L945.606 282.487L941.058 277.954L941.199 276.35L948.647 277.007Z" fill="#9CA1AB"/>
<path d="M947.784 286.799L947.63 288.542L944.604 288.275L944.273 292.027L947.299 292.293L947.146 294.037L939.699 293.38L939.852 291.637L942.795 291.897L943.125 288.145L940.183 287.886L940.336 286.142L947.784 286.799Z" fill="#9CA1AB"/>
<path d="M946.779 299.156C946.682 300.253 946.344 301.066 945.763 301.596C945.191 302.136 944.374 302.359 943.315 302.265L938.95 301.881L939.095 300.235L940.001 300.315C939.694 300.073 939.47 299.744 939.329 299.328C939.196 298.923 939.154 298.442 939.203 297.884C939.253 297.326 939.389 296.846 939.611 296.444C939.843 296.043 940.137 295.741 940.492 295.538C940.856 295.345 941.252 295.267 941.679 295.305C942.349 295.364 942.862 295.658 943.218 296.186C943.583 296.724 943.718 297.527 943.624 298.596L943.454 300.521L943.566 300.531C944.086 300.577 944.5 300.454 944.807 300.162C945.113 299.88 945.293 299.432 945.347 298.819C945.384 298.4 945.355 297.981 945.261 297.56C945.166 297.149 945.015 296.794 944.807 296.494L946.136 295.923C946.399 296.339 946.586 296.829 946.696 297.391C946.805 297.954 946.833 298.542 946.779 299.156ZM940.441 298.358C940.402 298.795 940.466 299.19 940.631 299.541C940.806 299.903 941.073 300.171 941.432 300.343L942.297 300.419L942.455 298.62C942.544 297.616 942.258 297.085 941.598 297.027C941.282 296.999 941.02 297.102 940.812 297.337C940.604 297.571 940.48 297.912 940.441 298.358Z" fill="#9CA1AB"/>
<path fill-rule="evenodd" clip-rule="evenodd" d="M319.472 646.217C321.657 645.89 323.693 647.395 324.021 649.58L350.307 824.904C350.634 827.089 349.129 829.125 346.944 829.453C344.759 829.781 342.723 828.275 342.395 826.09L316.109 650.766C315.782 648.582 317.287 646.545 319.472 646.217Z" fill="#C6C9D0"/>
<path fill-rule="evenodd" clip-rule="evenodd" d="M885.708 8.43897C887.836 7.84556 890.042 9.08954 890.635 11.2175L906.935 69.6677C907.528 71.7957 906.284 74.0018 904.156 74.5952C902.028 75.1886 899.822 73.9446 899.229 71.8167L882.929 13.3664C882.336 11.2385 883.58 9.03238 885.708 8.43897Z" fill="#C6C9D0"/>
<path fill-rule="evenodd" clip-rule="evenodd" d="M929.523 147.732C931.639 147.096 933.869 148.295 934.506 150.411L953.608 213.931C954.245 216.046 953.045 218.277 950.93 218.913C948.814 219.55 946.584 218.35 945.947 216.235L926.844 152.715C926.208 150.599 927.407 148.369 929.523 147.732Z" fill="#C6C9D0"/>
<path fill-rule="evenodd" clip-rule="evenodd" d="M950.167 212.091C952.376 212.11 954.152 213.915 954.134 216.124L954.035 228.124C954.017 230.333 952.211 232.109 950.002 232.09C947.793 232.072 946.017 230.267 946.036 228.058L946.135 216.058C946.153 213.849 947.958 212.073 950.167 212.091ZM939.205 325.549C937.017 325.246 935.488 323.227 935.79 321.039L937.387 309.473C937.689 307.285 939.708 305.756 941.897 306.058C944.085 306.36 945.614 308.379 945.312 310.567L943.715 322.133C943.413 324.322 941.394 325.851 939.205 325.549Z" fill="#C6C9D0"/>
<defs>
<filter id="filter0_d" x="635.748" y="361.643" width="140.248" height="72.0116" filterUnits="userSpaceOnUse" color-interpolation-filters="sRGB">
<feFlood flood-opacity="0" result="BackgroundImageFix"/>
<feColorMatrix in="SourceAlpha" type="matrix" values="0 0 0 0 0 0 0 0 0 0 0 0 0 0 0 0 0 0 127 0"/>
<feOffset dy="4"/>
<feGaussianBlur stdDeviation="7.5"/>
<feColorMatrix type="matrix" values="0 0 0 0 0.705882 0 0 0 0 0.588235 0 0 0 0 0.937255 0 0 0 1 0"/>
<feBlend mode="normal" in2="BackgroundImageFix" result="effect1_dropShadow"/>
<feBlend mode="normal" in="SourceGraphic" in2="effect1_dropShadow" result="shape"/>
</filter>
<filter id="filter1_d" x="580.441" y="269.834" width="243.51" height="129.841" filterUnits="userSpaceOnUse" color-interpolation-filters="sRGB">
<feFlood flood-opacity="0" result="BackgroundImageFix"/>
<feColorMatrix in="SourceAlpha" type="matrix" values="0 0 0 0 0 0 0 0 0 0 0 0 0 0 0 0 0 0 127 0"/>
<feOffset dy="4"/>
<feGaussianBlur stdDeviation="10"/>
<feColorMatrix type="matrix" values="0 0 0 0 0.698039 0 0 0 0 0.588235 0 0 0 0 0.941176 0 0 0 1 0"/>
<feBlend mode="normal" in2="BackgroundImageFix" result="effect1_dropShadow"/>
<feBlend mode="normal" in="SourceGraphic" in2="effect1_dropShadow" result="shape"/>
</filter>
<linearGradient id="paint0_linear" x1="652.063" y1="398.216" x2="759.758" y2="390.109" gradientUnits="userSpaceOnUse">
<stop stop-color="#FF8BDE"/>
<stop offset="1" stop-color="#669FFF"/>
</linearGradient>
<linearGradient id="paint1_linear" x1="602.859" y1="337.925" x2="801.677" y2="325.943" gradientUnits="userSpaceOnUse">
<stop stop-color="#FF8BDE"/>
<stop offset="1" stop-color="#669FFF"/>
</linearGradient>
</defs>
</svg>
