<?xml version="1.0" encoding="utf-8"?>
<!-- Generator: Adobe Illustrator 16.0.0, SVG Export Plug-In . SVG Version: 6.00 Build 0)  -->
<!DOCTYPE svg PUBLIC "-//W3C//DTD SVG 1.1//EN" "http://www.w3.org/Graphics/SVG/1.1/DTD/svg11.dtd">
<svg version="1.1" id="Layer_1" xmlns="http://www.w3.org/2000/svg" xmlns:xlink="http://www.w3.org/1999/xlink" x="0px" y="0px"
	 width="277px" height="128px" viewBox="0 0 277 128" enable-background="new 0 0 277 128" xml:space="preserve">
<linearGradient id="SVGID_1_" gradientUnits="userSpaceOnUse" x1="1" y1="64" x2="276" y2="64">
	<stop  offset="0" style="stop-color:#FF8BDE"/>
	<stop  offset="1" style="stop-color:#669FFF"/>
</linearGradient>
<path fill="none" stroke="url(#SVGID_1_)" stroke-width="2" stroke-miterlimit="10" d="M267.367,124.961
	c-10.854,4.826-31.954-2.014-79.631-2.938c-32.36-0.629-32.766,2.351-87.24,3.986c-48.083,1.469-82.877,2.35-94.34-5.244
	c-4.971-3.314-2.638-6.336-0.507-13.428c7-23.412-8.825-24.377-3.55-46.994c4.463-19.259,16.839-22.154,9.129-33.777
	c-4.26-6.42-11.158-10.364-6.594-15.105c7.101-7.301,34.186-9.189,44.127-9.861c41.793-2.895,49.909,5.581,97.383,5.875
	c36.316,0.21,45.547-4.658,83.689-2.098c20.693,1.385,33.171,2.224,41.084,6.504c13.998,7.595-5.58,15.818-3.551,37.763
	c1.014,10.951,6.188,11.749,5.072,22.448c-1.217,11.623-7.508,12.84-9.131,23.288C260.469,113.506,277.714,120.389,267.367,124.961z
	"/>
</svg>
