<?xml version="1.0" encoding="utf-8"?>
<!-- Generator: Adobe Illustrator 16.0.0, SVG Export Plug-In . SVG Version: 6.00 Build 0)  -->
<!DOCTYPE svg PUBLIC "-//W3C//DTD SVG 1.1//EN" "http://www.w3.org/Graphics/SVG/1.1/DTD/svg11.dtd">
<svg version="1.1" id="Layer_1" xmlns="http://www.w3.org/2000/svg" xmlns:xlink="http://www.w3.org/1999/xlink" x="0px" y="0px"
	 width="379px" height="371px" viewBox="0 0 379 371" enable-background="new 0 0 379 371" xml:space="preserve">
<path fill="none" d="M17,97.84c7.108-18.149,14.301-39.407,70.185-69.488C128.118,6.226,180.166,2.758,201,3.504
	c24.02,0.995,44.758,4.332,86,24.648c39.5,19.229,58.5,45.362,69,64.592c20,27.611,26.121,72.567,22.445,117.318
	c-3.945,73.498-41.14,111.551-100.945,140.39c-83.826,40.523-189.94-7.815-212-21.487C45.646,316.533,13.728,282.407,1.963,213.79
	C-4.9,173.516,9.402,116.734,17,97.84z"/>
</svg>
