<?xml version="1.0" encoding="utf-8"?>
<!-- Generator: Adobe Illustrator 16.0.0, SVG Export Plug-In . SVG Version: 6.00 Build 0)  -->
<!DOCTYPE svg PUBLIC "-//W3C//DTD SVG 1.1//EN" "http://www.w3.org/Graphics/SVG/1.1/DTD/svg11.dtd">
<svg version="1.1" id="Layer_1" xmlns="http://www.w3.org/2000/svg" xmlns:xlink="http://www.w3.org/1999/xlink" x="0px" y="0px"
	 width="379px" height="371px" viewBox="0 0 379 371" enable-background="new 0 0 379 371" xml:space="preserve">
<path fill="none" d="M10.667,124.667c7.108-18.195,38.116-50.509,94-80.667c40.933-22.182,64-24.748,84.833-24
	c24.02,0.997,53.067,0.247,89.833,26.667c33.824,24.176,56.372,43.487,66.667,66.667c9.067,20.438,36.122,51.51,32.446,96.375
	C368.667,285.334,372,318,285.333,342c-92.454,24.667-150.536-2.73-192.667-24.666c-19.854-12.462-65.568-37.209-77.333-106
	C8.47,170.958,3.069,143.609,10.667,124.667z"/>
</svg>
