<?xml version="1.0" encoding="utf-8"?>
<!-- Generator: Adobe Illustrator 16.0.0, SVG Export Plug-In . SVG Version: 6.00 Build 0)  -->
<!DOCTYPE svg PUBLIC "-//W3C//DTD SVG 1.1//EN" "http://www.w3.org/Graphics/SVG/1.1/DTD/svg11.dtd">
<svg version="1.1" id="Layer_1" xmlns="http://www.w3.org/2000/svg" xmlns:xlink="http://www.w3.org/1999/xlink" x="0px" y="0px"
	 width="379px" height="371px" viewBox="0 0 379 371" enable-background="new 0 0 379 371" xml:space="preserve">
<path fill="none" d="M15.443,121.227c7.108-18.195,28.678-70.786,84.562-100.944C140.938-1.899,179.174-0.404,200.008,0.344
	c24.02,0.997,62.502,2.243,99.268,28.663c33.824,24.176,48.041,56.578,58.336,79.757c9.068,20.438,24.51,56.08,20.834,100.944
	c-4.657,55.581-38.237,116.896-98.043,145.808c-83.826,40.625-164.956-9.971-187.015-23.679
	c-19.854-12.462-79.659-49.601-91.424-118.392C-4.9,173.069,7.845,140.169,15.443,121.227z"/>
</svg>
