<?xml version="1.0" encoding="utf-8"?>
<!-- Generator: Adobe Illustrator 16.0.0, SVG Export Plug-In . SVG Version: 6.00 Build 0)  -->
<!DOCTYPE svg PUBLIC "-//W3C//DTD SVG 1.1//EN" "http://www.w3.org/Graphics/SVG/1.1/DTD/svg11.dtd">
<svg version="1.1" id="Layer_1" xmlns="http://www.w3.org/2000/svg" xmlns:xlink="http://www.w3.org/1999/xlink" x="0px" y="0px"
	 width="379px" height="371px" viewBox="0 0 379 371" enable-background="new 0 0 379 371" xml:space="preserve">
<path fill="none" d="M15.443,121.227c7.108-18.195,19.846-52.888,56.593-81.97C112.969,17.075,178.5,10.586,199.334,11.333
	c24.02,0.997,75.268,0.941,112.033,27.361c33.824,24.176,35.95,46.891,46.245,70.07c9.067,20.438,24.51,56.08,20.834,100.944
	c-4.657,55.581-49.306,91.38-109.112,120.292C185.509,370.625,106.059,325.042,84,311.334
	c-19.854-12.462-70.271-29.098-82.036-97.889C-4.9,173.069,7.845,140.169,15.443,121.227z"/>
</svg>
