<svg width="372" height="225" viewBox="0 0 372 225" fill="none" xmlns="http://www.w3.org/2000/svg">
<path d="M372 6.00022L365.573 0.195611L363.76 8.66387L372 6.00022ZM0 224.25C1.69714 224.25 3.37961 224.223 5.04771 224.169L4.99923 222.67C3.34737 222.723 1.68107 222.75 0 222.75V224.25ZM14.8864 223.53C18.2458 223.2 21.5453 222.759 24.788 222.214L24.539 220.734C21.3304 221.275 18.065 221.71 14.7398 222.037L14.8864 223.53ZM34.5082 220.228C37.7453 219.448 40.9242 218.561 44.0483 217.574L43.5964 216.143C40.505 217.12 37.3596 217.998 34.1568 218.769L34.5082 220.228ZM53.4223 214.253C56.5135 213.037 59.5501 211.723 62.5357 210.316L61.8964 208.959C58.9396 210.353 55.9332 211.654 52.8735 212.857L53.4223 214.253ZM71.3727 205.809C74.2724 204.216 77.1241 202.536 79.9312 200.777L79.1346 199.506C76.3509 201.251 73.524 202.916 70.6505 204.494L71.3727 205.809ZM88.1877 195.29C90.8843 193.396 93.5406 191.43 96.16 189.398L95.2407 188.213C92.639 190.23 90.0017 192.183 87.3255 194.062L88.1877 195.29ZM103.869 183.149C106.382 181.025 108.862 178.843 111.313 176.61L110.303 175.501C107.865 177.723 105.398 179.892 102.9 182.004L103.869 183.149ZM118.52 169.825C120.881 167.532 123.217 165.195 125.53 162.82L124.456 161.773C122.151 164.139 119.825 166.466 117.475 168.749L118.52 169.825ZM132.36 155.639C134.598 153.233 136.817 150.796 139.021 148.333L137.904 147.332C135.705 149.789 133.492 152.219 131.261 154.618L132.36 155.639ZM145.565 140.904C147.724 138.417 149.871 135.91 152.009 133.388L150.865 132.418C148.73 134.936 146.587 137.439 144.432 139.921L145.565 140.904ZM158.369 125.822C160.48 123.292 162.585 120.753 164.686 118.212L163.53 117.256C161.429 119.797 159.326 122.334 157.217 124.861L158.369 125.822ZM170.978 110.588C173.076 108.044 175.174 105.502 177.274 102.967L176.119 102.01C174.018 104.546 171.919 107.089 169.821 109.633L170.978 110.588ZM183.6 95.3728C185.718 92.8461 187.842 90.3322 189.974 87.8365L188.833 86.8623C186.698 89.3621 184.571 91.8796 182.451 94.4092L183.6 95.3728ZM196.438 80.363C198.616 77.8787 200.806 75.4188 203.01 72.9888L201.899 71.9811C199.688 74.418 197.493 76.8842 195.31 79.3741L196.438 80.363ZM209.707 65.7533C211.977 63.3534 214.264 60.9902 216.573 58.6695L215.51 57.6116C213.191 59.9419 210.895 62.3143 208.617 64.7226L209.707 65.7533ZM223.637 51.7734C226.034 49.5044 228.456 47.2858 230.906 45.1236L229.913 43.9989C227.449 46.1734 225.015 48.4039 222.606 50.6841L223.637 51.7734ZM238.408 38.7609C240.971 36.6766 243.566 34.6576 246.198 32.7104L245.306 31.5046C242.654 33.4661 240.041 35.4993 237.462 37.5972L238.408 38.7609ZM254.256 27.0579C256.994 25.2418 259.774 23.5059 262.598 21.8569L261.842 20.5615C258.992 22.2255 256.188 23.9766 253.427 25.8077L254.256 27.0579ZM271.24 17.1609C274.163 15.6902 277.134 14.3135 280.157 13.0376L279.573 11.6556C276.519 12.945 273.517 14.3357 270.566 15.821L271.24 17.1609ZM289.328 9.53851C292.412 8.48542 295.549 7.5366 298.745 6.69855L298.365 5.24762C295.133 6.09503 291.961 7.05438 288.843 8.119L289.328 9.53851ZM308.332 4.55589C311.501 3.96817 314.727 3.48768 318.013 3.12018L317.846 1.62948C314.525 2.00098 311.263 2.48675 308.058 3.08103L308.332 4.55589ZM327.824 2.37162C331.052 2.23789 334.337 2.21081 337.681 2.2953L337.719 0.795783C334.342 0.710452 331.024 0.737784 327.762 0.872903L327.824 2.37162ZM347.424 2.847C350.647 3.12858 353.924 3.5112 357.257 3.99889L357.475 2.5147C354.113 2.02288 350.807 1.63685 347.554 1.35269L347.424 2.847Z" fill="url(#paint0_linear)"/>
<defs>
<linearGradient id="paint0_linear" x1="1.45198e-06" y1="115.862" x2="372" y2="115.862" gradientUnits="userSpaceOnUse">
<stop stop-color="#FF8BDE"/>
<stop offset="1" stop-color="#669FFF"/>
</linearGradient>
</defs>
</svg>
