<svg width="552" height="228" viewBox="0 0 552 228" fill="none" xmlns="http://www.w3.org/2000/svg">
<path d="M0 223L7.53152 227.275L7.46808 218.615L0 223ZM14.96 223.421C18.2647 223.274 21.5305 223.078 24.7588 222.836L24.6465 221.34C21.4335 221.581 18.1829 221.776 14.8934 221.922L14.96 223.421ZM34.6806 221.933C37.9595 221.581 41.1991 221.181 44.4006 220.733L44.1928 219.247C41.0072 219.693 37.7837 220.092 34.5207 220.442L34.6806 221.933ZM54.2586 219.185C57.5059 218.619 60.7135 218.004 63.8831 217.342L63.5763 215.874C60.423 216.533 57.2318 217.145 54.001 217.708L54.2586 219.185ZM73.6093 215.134C76.813 214.348 79.9775 213.514 83.1044 212.634L82.6978 211.19C79.5872 212.066 76.4391 212.896 73.2521 213.677L73.6093 215.134ZM92.6397 209.77C95.7851 208.766 98.8923 207.716 101.963 206.62L101.459 205.207C98.4041 206.297 95.3127 207.343 92.1836 208.341L92.6397 209.77ZM111.262 203.127C114.335 201.914 117.372 200.656 120.375 199.357L119.779 197.98C116.791 199.273 113.769 200.524 110.712 201.731L111.262 203.127ZM129.409 195.278C132.398 193.871 135.355 192.424 138.28 190.939L137.601 189.601C134.689 191.08 131.746 192.52 128.77 193.92L129.409 195.278ZM147.038 186.332C149.94 184.754 152.811 183.139 155.655 181.491L154.903 180.193C152.07 181.834 149.21 183.443 146.321 185.015L147.038 186.332ZM164.144 176.426C166.958 174.7 169.746 172.943 172.51 171.157L171.697 169.897C168.941 171.677 166.163 173.428 163.36 175.148L164.144 176.426ZM180.751 165.709C183.484 163.861 186.195 161.988 188.887 160.092L188.024 158.866C185.339 160.756 182.635 162.624 179.911 164.466L180.751 165.709ZM196.913 154.336C199.576 152.393 202.221 150.43 204.852 148.45L203.951 147.252C201.325 149.228 198.685 151.186 196.029 153.125L196.913 154.336ZM212.706 142.462C215.313 140.449 217.908 138.422 220.492 136.384L219.563 135.206C216.982 137.241 214.392 139.265 211.789 141.274L212.706 142.462ZM228.22 130.237C230.789 128.178 233.35 126.111 235.905 124.038L234.96 122.873C232.407 124.944 229.848 127.01 227.282 129.066L228.22 130.237ZM243.561 117.806C246.11 115.724 248.655 113.64 251.2 111.557L250.25 110.397C247.705 112.48 245.16 114.563 242.612 116.644L243.561 117.806ZM258.84 105.308C261.387 103.227 263.936 101.15 266.489 99.0796L265.544 97.9146C262.99 99.9867 260.439 102.065 257.891 104.146L258.84 105.308ZM274.168 92.8844C276.734 90.8274 279.306 88.7799 281.886 86.7449L280.957 85.5672C278.373 87.605 275.798 89.6549 273.23 91.7141L274.168 92.8844ZM289.66 80.6761C292.262 78.6672 294.874 76.6738 297.5 74.6987L296.598 73.5C293.967 75.4792 291.349 77.4764 288.743 79.4888L289.66 80.6761ZM305.42 68.8301C308.074 66.8949 310.744 64.981 313.431 63.0914L312.568 61.8644C309.874 63.7592 307.197 65.6781 304.537 67.6181L305.42 68.8301ZM321.547 57.4993C324.267 55.6648 327.007 53.8574 329.769 52.08L328.958 50.8186C326.186 52.6021 323.437 54.4155 320.708 56.2557L321.547 57.4993ZM338.121 46.844C340.916 45.1378 343.737 43.4643 346.584 41.8263L345.836 40.5261C342.977 42.1708 340.146 43.8509 337.339 45.5636L338.121 46.844ZM355.19 37.031C358.07 35.479 360.979 33.9647 363.918 32.4911L363.246 31.1502C360.293 32.6306 357.371 34.1517 354.479 35.7106L355.19 37.031ZM372.785 28.2165C375.752 26.8431 378.751 25.5121 381.785 24.2261L381.2 22.8451C378.15 24.1375 375.136 25.4752 372.155 26.8553L372.785 28.2165ZM390.898 20.5423C393.949 19.3687 397.035 18.2411 400.159 17.1623L399.669 15.7445C396.529 16.8291 393.426 17.9626 390.359 19.1424L390.898 20.5423ZM409.487 14.1228C412.614 13.1647 415.778 12.2556 418.981 11.3977L418.593 9.94879C415.372 10.8113 412.191 11.7254 409.048 12.6887L409.487 14.1228ZM428.483 9.03351C431.67 8.30029 434.896 7.61764 438.163 6.98779L437.879 5.51491C434.594 6.14816 431.351 6.83449 428.146 7.5717L428.483 9.03351ZM447.792 5.30511C451.021 4.79856 454.289 4.34309 457.598 3.94068L457.417 2.45165C454.091 2.85615 450.805 3.314 447.56 3.82323L447.792 5.30511ZM467.319 2.92367C470.567 2.63831 473.854 2.4034 477.182 2.22069L477.1 0.722948C473.756 0.906554 470.452 1.14263 467.188 1.42942L467.319 2.92367ZM486.976 1.83809C490.22 1.76205 493.502 1.73485 496.824 1.758L496.834 0.258038C493.498 0.234783 490.2 0.262103 486.941 0.3385L486.976 1.83809ZM506.695 1.97223C509.913 2.08886 513.168 2.25194 516.46 2.46276L516.556 0.965828C513.25 0.754134 509.981 0.590354 506.749 0.473217L506.695 1.97223ZM526.438 3.23872C529.611 3.52843 532.818 3.86166 536.06 4.2395L536.233 2.74958C532.979 2.37032 529.76 2.03579 526.574 1.74493L526.438 3.23872ZM545.89 5.50785C547.547 5.74191 549.212 5.9874 550.886 6.24443L551.114 4.7618C549.434 4.50387 547.763 4.25751 546.1 4.02261L545.89 5.50785Z" fill="url(#paint0_linear)"/>
<defs>
<linearGradient id="paint0_linear" x1="2.15065e-06" y1="115.364" x2="551" y2="115.364" gradientUnits="userSpaceOnUse">
<stop stop-color="#FF8BDE"/>
<stop offset="1" stop-color="#669FFF"/>
</linearGradient>
</defs>
</svg>
