<svg width="953" height="597" viewBox="0 0 953 597" fill="none" xmlns="http://www.w3.org/2000/svg">
<path d="M776.154 210.401L911.962 174.032" stroke="#C6C9D0" stroke-width="8" stroke-linecap="round"/>
<path d="M290.197 382.998L234.699 382.535" stroke="#C6C9D0" stroke-width="8" stroke-linecap="round"/>
<path d="M1055.81 312.884L968.615 335.657L929.737 320.832L814.316 310.869M814.316 310.869L760.318 310.418L582.822 129.431L592.98 110.515M814.316 310.869L788.441 355.654L350.09 395.998L293.866 422.53M293.866 422.53L287.459 351.474L240.866 182.58M293.866 422.53L294.999 431" stroke="#C6C9D0" stroke-width="8" stroke-linecap="round"/>
<path d="M447.674 386.312L454.474 410.37M579.266 375.91L585.074 398.959M970.119 335.169L977.348 367.731M266.483 288.651L224.909 297.304" stroke="#C6C9D0" stroke-width="8" stroke-linecap="round"/>
<path d="M291.496 407.01L238.26 435.067L194.407 477.202L151.437 533.346L119.008 584.577L56.752 615.059L4.7037 620.625" stroke="#C6C9D0" stroke-width="8" stroke-linecap="round"/>
<path d="M265.165 266.785L312.276 253.678" stroke="#C6C9D0" stroke-width="8" stroke-linecap="round"/>
<path d="M287.913 356.978L183.967 350.111" stroke="#C6C9D0" stroke-width="8" stroke-linecap="round"/>
<g filter="url(#filter0_d)">
<rect x="649.746" y="378.504" width="108" height="34" transform="rotate(-4.30523 649.746 378.504)" fill="url(#paint0_linear)"/>
</g>
<rect x="723.795" y="492.979" width="54.2921" height="58.7259" transform="rotate(-4.30523 723.795 492.979)" fill="white"/>
<rect x="795.854" y="486.102" width="129.583" height="34.398" transform="rotate(-4.30523 795.854 486.102)" fill="white"/>
<path d="M691.006 647.205L674.2 504.06L689.216 502.185L699.548 582.274L712.556 581.383L714.002 587.895L728.014 586.512L731.355 605.54L744.867 604.153L747.717 622.177L775.233 620.407L778.591 637.436L691.006 647.205Z" fill="white"/>
<rect x="785.744" y="379.492" width="108" height="18.9226" transform="rotate(-4.30523 785.744 379.492)" fill="white"/>
<rect x="467.52" y="404.984" width="108" height="24.922" transform="rotate(-4.30523 467.52 404.984)" fill="white"/>
<rect x="564.152" y="204.909" width="94.2707" height="32.1702" transform="rotate(64.671 564.152 204.909)" fill="white"/>
<rect x="318.127" y="304.765" width="83.2706" height="22.9823" transform="rotate(2.41691 318.127 304.765)" fill="white"/>
<rect x="317.604" y="267.184" width="83.2706" height="31.7915" transform="rotate(-18.1343 317.604 267.184)" fill="white"/>
<rect x="793.094" y="217.556" width="127.817" height="25.069" transform="rotate(-12.1823 793.094 217.556)" fill="white"/>
<path d="M780.082 158.431L905.022 131.459L910.312 155.963L785.373 182.936L780.082 158.431Z" fill="white"/>
<path d="M758.672 88.2502L883.611 61.2778L888.901 85.7822L763.962 112.755L758.672 88.2502Z" fill="white"/>
<rect x="638.336" y="95.0391" width="110.119" height="25.069" transform="rotate(28.1137 638.336 95.0391)" fill="white"/>
<rect x="519.953" y="74.2581" width="117.905" height="46.2883" transform="rotate(64.671 519.953 74.2581)" fill="white"/>
<rect x="483.324" y="152.102" width="46.6953" height="85.1898" transform="rotate(64.671 483.324 152.102)" fill="white"/>
<rect x="575.326" y="135.401" width="19.4025" height="15.0548" transform="rotate(64.671 575.326 135.401)" fill="white"/>
<rect x="602.045" y="169.093" width="19.4025" height="25.3052" transform="rotate(64.671 602.045 169.093)" fill="white"/>
<rect x="525.559" y="254.458" width="19.4025" height="9.00483" transform="rotate(64.671 525.559 254.458)" fill="white"/>
<rect x="560.492" y="301.75" width="12.48" height="9.00483" transform="rotate(64.671 560.492 301.75)" fill="white"/>
<rect x="623.066" y="186.818" width="19.4025" height="46.0191" transform="rotate(50.5837 623.066 186.818)" fill="white"/>
<rect x="646.051" y="209.043" width="19.4025" height="56.8464" transform="rotate(51.1219 646.051 209.043)" fill="white"/>
<rect x="715.395" y="275.042" width="19.4025" height="56.8464" transform="rotate(46.3167 715.395 275.042)" fill="white"/>
<rect x="739.168" y="302.241" width="19.4025" height="36.9026" transform="rotate(46.3167 739.168 302.241)" fill="white"/>
<rect x="396.396" y="419.391" width="48.6569" height="16.5878" transform="rotate(-4.30523 396.396 419.391)" fill="white"/>
<rect x="327.957" y="471.874" width="38.6064" height="42.3092" transform="rotate(-4.30523 327.957 471.874)" fill="white"/>
<rect x="240.33" y="469.332" width="16.7032" height="31.7176" transform="rotate(-4.30523 240.33 469.332)" fill="white"/>
<rect x="233.559" y="519.277" width="16.7032" height="13.4412" transform="rotate(-4.30523 233.559 519.277)" fill="white"/>
<rect x="249.148" y="568.409" width="25.7405" height="84.026" transform="rotate(-4.30523 249.148 568.409)" fill="white"/>
<rect x="134.633" y="577.533" width="30.5395" height="82.5112" transform="rotate(14.1941 134.633 577.533)" fill="white"/>
<rect x="399.984" y="468.941" width="18.2768" height="33.4212" transform="rotate(-4.30523 399.984 468.941)" fill="white"/>
<rect x="448.383" y="541.201" width="18.2768" height="19.9715" transform="rotate(-4.30523 448.383 541.201)" fill="white"/>
<rect x="805.211" y="563.179" width="34.6625" height="19.9715" transform="rotate(-4.30523 805.211 563.179)" fill="white"/>
<rect x="378.662" y="507.46" width="20.0114" height="73.6455" transform="rotate(-4.30523 378.662 507.46)" fill="white"/>
<path d="M611.314 430.185L682.643 424.815L687.188 485.188L651.825 489.019L656.069 548.246L620.404 550.931L611.314 430.185Z" fill="white"/>
<path d="M970.777 443.077L961.358 366.451L914.813 371.563L916.948 407.091L787.401 420.502L793.375 462.362L970.777 443.077Z" fill="white"/>
<path d="M772.258 320.518L784.297 333.106L775.212 341.794L769.054 335.705L760.109 344.187L754.09 337.893L772.258 320.518Z" fill="white"/>
<path d="M482.971 550.325L526.796 547.025L522.896 495.217L501.04 495.86L497.083 445.059L475.17 446.708L482.971 550.325Z" fill="white"/>
<path d="M356.197 623.925L336.222 625.429L333.832 593.673L343.713 592.314L341.429 561.166L351.416 560.414L356.197 623.925Z" fill="white"/>
<path d="M680.372 243.749L671.448 234.674L637.182 266.389L655.527 285.043L629.311 310.825L649.143 330.991L708.129 272.981L689.784 254.328L671.131 272.673L661.215 262.589L680.372 243.749Z" fill="white"/>
<path d="M798.319 310.589L742.361 65.6135L885.702 25.3081" stroke="#C6C9D0" stroke-width="8" stroke-linecap="round"/>
<path d="M761.171 148.273L897.484 111.409" stroke="#C6C9D0" stroke-width="8" stroke-linecap="round"/>
<path d="M775.155 210.392L593.479 110.873" stroke="#C6C9D0" stroke-width="8" stroke-linecap="round"/>
<g filter="url(#filter1_d)">
<path d="M599.438 295.57L798.255 283.587L801.942 344.762L712.961 350.125L703.539 367.437L692.106 351.382L603.124 356.744L599.438 295.57Z" fill="url(#paint1_linear)"/>
</g>
<path d="M646.938 331.643L646.738 335.117L649.733 334.937L649.919 338.027L646.541 338.231L646.301 341.828L643.043 342.024L643.283 338.427L640.337 338.605L640.097 342.202L636.838 342.398L637.078 338.801L634.06 338.983L633.874 335.893L637.276 335.688L637.475 332.213L634.456 332.395L634.27 329.305L637.672 329.1L637.912 325.503L641.17 325.307L640.93 328.903L643.877 328.726L644.117 325.129L647.375 324.933L647.135 328.53L650.153 328.348L650.34 331.438L646.938 331.643ZM643.68 331.839L640.733 332.017L640.534 335.491L643.48 335.314L643.68 331.839ZM664.084 337.486L656.992 337.914L655.871 341.251L651.032 341.543L657.424 324.327L662.095 324.045L670.533 340.367L665.598 340.665L664.084 337.486ZM662.483 334.072L660.004 328.836L658.171 334.332L662.483 334.072ZM675.309 328.611C675.737 327.992 676.309 327.517 677.026 327.185C677.759 326.836 678.604 326.633 679.562 326.575L679.809 330.672C679.391 330.649 679.046 330.646 678.775 330.662C677.801 330.721 677.05 331.03 676.523 331.591C676.011 332.151 675.788 332.974 675.854 334.06L676.213 340.025L671.662 340.299L670.879 327.315L675.215 327.054L675.309 328.611ZM688.648 339.492C687.259 339.576 685.988 339.364 684.835 338.856C683.683 338.349 682.756 337.603 682.056 336.619C681.371 335.635 680.99 334.496 680.912 333.202C680.835 331.924 681.077 330.756 681.638 329.696C682.216 328.635 683.038 327.792 684.107 327.167C685.19 326.525 686.434 326.161 687.84 326.076C689.245 325.992 690.524 326.203 691.677 326.711C692.829 327.202 693.747 327.94 694.431 328.925C695.115 329.894 695.495 331.025 695.573 332.318C695.651 333.612 695.41 334.789 694.848 335.848C694.287 336.908 693.465 337.759 692.382 338.401C691.298 339.044 690.054 339.407 688.648 339.492ZM688.43 335.875C689.229 335.826 689.867 335.516 690.346 334.942C690.823 334.352 691.033 333.57 690.974 332.596C690.916 331.637 690.615 330.902 690.071 330.39C689.528 329.878 688.856 329.646 688.058 329.694C687.259 329.742 686.621 330.053 686.143 330.627C685.664 331.201 685.454 331.967 685.512 332.925C685.57 333.899 685.872 334.65 686.417 335.178C686.961 335.691 687.632 335.923 688.43 335.875ZM710.652 329.174C711.63 329.451 712.413 329.933 712.999 330.619C713.585 331.289 713.908 332.127 713.968 333.133C714.057 334.603 713.534 335.772 712.4 336.642C711.267 337.512 709.582 338.014 707.346 338.149L698.29 338.695L697.28 321.925L705.856 321.408C707.996 321.279 709.649 321.58 710.815 322.311C711.981 323.027 712.604 324.055 712.684 325.397C712.733 326.195 712.576 326.926 712.215 327.589C711.87 328.235 711.349 328.763 710.652 329.174ZM702.182 325.068L702.377 328.302L705.635 328.106C707.232 328.009 707.998 327.418 707.932 326.332C707.868 325.262 707.037 324.775 705.44 324.871L702.182 325.068ZM706.756 334.746C708.417 334.646 709.213 334.029 709.145 332.895C709.077 331.761 708.212 331.244 706.551 331.344L702.574 331.584L702.779 334.986L706.756 334.746ZM723.016 337.421C721.626 337.505 720.355 337.293 719.203 336.785C718.05 336.277 717.123 335.532 716.423 334.548C715.739 333.564 715.357 332.424 715.279 331.131C715.202 329.853 715.445 328.684 716.006 327.625C716.583 326.564 717.406 325.721 718.474 325.096C719.557 324.453 720.802 324.09 722.207 324.005C723.613 323.92 724.892 324.132 726.044 324.639C727.196 325.131 728.114 325.869 728.799 326.854C729.482 327.822 729.863 328.954 729.941 330.247C730.019 331.541 729.777 332.718 729.216 333.777C728.655 334.837 727.832 335.688 726.749 336.33C725.666 336.973 724.421 337.336 723.016 337.421ZM722.798 333.803C723.596 333.755 724.235 333.444 724.713 332.87C725.191 332.281 725.4 331.499 725.341 330.524C725.283 329.566 724.983 328.831 724.439 328.319C723.895 327.807 723.224 327.574 722.425 327.623C721.627 327.671 720.988 327.982 720.51 328.556C720.032 329.129 719.821 329.895 719.879 330.854C719.938 331.828 720.239 332.579 720.784 333.107C721.328 333.619 721.999 333.852 722.798 333.803ZM748.56 322.417C750.157 322.321 751.456 322.723 752.456 323.625C753.472 324.525 754.038 325.942 754.154 327.874L754.602 335.301L750.05 335.575L749.647 328.891C749.592 327.981 749.376 327.321 748.999 326.911C748.638 326.5 748.145 326.313 747.523 326.35C746.836 326.392 746.299 326.665 745.913 327.169C745.527 327.673 745.363 328.412 745.421 329.386L745.81 335.831L741.258 336.105L740.855 329.421C740.748 327.648 740.04 326.801 738.731 326.88C738.028 326.923 737.483 327.196 737.097 327.7C736.711 328.204 736.547 328.943 736.605 329.918L736.994 336.362L732.442 336.636L731.66 323.652L735.996 323.391L736.078 324.756C736.525 324.2 737.069 323.775 737.708 323.48C738.363 323.168 739.081 322.988 739.864 322.941C740.774 322.886 741.599 323.005 742.337 323.297C743.076 323.589 743.69 324.065 744.179 324.725C744.65 324.039 745.267 323.497 746.028 323.099C746.79 322.7 747.634 322.473 748.56 322.417ZM764.848 321.435C766.03 321.364 767.117 321.571 768.108 322.056C769.115 322.541 769.928 323.277 770.549 324.265C771.185 325.237 771.543 326.394 771.624 327.735C771.705 329.077 771.488 330.276 770.975 331.333C770.478 332.389 769.759 333.225 768.818 333.843C767.892 334.444 766.839 334.78 765.657 334.851C763.948 334.954 762.64 334.528 761.733 333.573L761.811 334.866L757.475 335.128L756.403 317.352L760.955 317.078L761.312 322.995C762.136 322.048 763.315 321.528 764.848 321.435ZM764.481 331.291C765.279 331.243 765.918 330.932 766.396 330.358C766.873 329.769 767.083 328.987 767.024 328.012C766.966 327.054 766.665 326.319 766.122 325.807C765.578 325.294 764.907 325.062 764.108 325.11C763.31 325.159 762.671 325.47 762.193 326.043C761.714 326.617 761.504 327.383 761.562 328.342C761.621 329.316 761.922 330.067 762.467 330.595C763.011 331.107 763.682 331.339 764.481 331.291Z" fill="white"/>
<path d="M682.266 311.415C681.34 311.471 680.493 311.33 679.724 310.991C678.956 310.653 678.338 310.156 677.871 309.5C677.415 308.844 677.161 308.084 677.109 307.222C677.058 306.37 677.219 305.591 677.593 304.885C677.978 304.178 678.526 303.616 679.239 303.199C679.961 302.77 680.79 302.528 681.727 302.472C682.664 302.415 683.517 302.556 684.286 302.894C685.053 303.222 685.665 303.714 686.122 304.371C686.577 305.016 686.831 305.771 686.883 306.633C686.935 307.495 686.774 308.28 686.4 308.986C686.026 309.693 685.477 310.26 684.755 310.688C684.033 311.117 683.203 311.359 682.266 311.415ZM682.121 309.004C682.654 308.972 683.079 308.764 683.398 308.382C683.716 307.989 683.856 307.467 683.817 306.818C683.778 306.179 683.578 305.689 683.215 305.347C682.853 305.006 682.405 304.851 681.873 304.883C681.34 304.915 680.915 305.123 680.596 305.505C680.277 305.888 680.137 306.398 680.175 307.037C680.214 307.687 680.416 308.188 680.779 308.54C681.141 308.881 681.589 309.036 682.121 309.004ZM700.843 305.776C700.924 307.128 700.536 308.22 699.678 309.052C698.819 309.873 697.552 310.398 695.877 310.627L696.054 313.55L693.37 313.712L693.195 310.805C691.494 310.768 690.168 310.394 689.217 309.682C688.275 308.959 687.764 307.921 687.682 306.569C687.602 305.227 687.981 304.157 688.819 303.359C689.669 302.559 690.947 302.044 692.653 301.813L692.47 298.763L695.153 298.601L695.337 301.651C697.038 301.688 698.358 302.052 699.297 302.743C700.247 303.434 700.762 304.445 700.843 305.776ZM690.573 306.395C690.616 307.097 690.829 307.624 691.213 307.975C691.608 308.314 692.224 308.512 693.061 308.569L692.787 304.033C691.952 304.19 691.365 304.455 691.024 304.829C690.683 305.202 690.533 305.724 690.573 306.395ZM695.744 308.407C696.578 308.25 697.166 307.979 697.506 307.596C697.856 307.201 698.01 306.652 697.968 305.949C697.927 305.278 697.71 304.778 697.316 304.449C696.933 304.12 696.318 303.932 695.471 303.887L695.744 308.407ZM702.005 301.394L705.024 301.212L705.297 305.748L708.649 300.993L711.444 300.825L711.966 309.481L708.932 309.664L708.657 305.112L705.338 309.881L702.527 310.05L702.005 301.394ZM718.359 309.24C717.401 309.298 716.532 309.158 715.753 308.82C714.974 308.482 714.351 307.986 713.884 307.33C713.428 306.673 713.174 305.914 713.122 305.052C713.07 304.189 713.231 303.41 713.606 302.714C713.991 302.007 714.55 301.445 715.283 301.026C716.016 300.597 716.862 300.354 717.82 300.296C718.8 300.237 719.659 300.399 720.398 300.782C721.136 301.154 721.677 301.704 722.02 302.432L719.745 303.771C719.304 303.017 718.705 302.663 717.949 302.709C717.406 302.742 716.965 302.95 716.625 303.334C716.295 303.717 716.15 304.228 716.188 304.867C716.227 305.516 716.434 306.017 716.808 306.368C717.191 306.708 717.655 306.862 718.198 306.829C718.954 306.784 719.505 306.361 719.852 305.56L722.272 306.616C722.019 307.379 721.549 307.995 720.861 308.464C720.173 308.922 719.339 309.181 718.359 309.24Z" fill="white"/>
<path d="M295.686 440.638L295.473 438.83L291.371 439.314L291.161 437.534L300.894 436.386L301.104 438.166L297.03 438.646L297.25 440.509L301.653 442.823L301.88 444.742L296.774 441.975L292.162 446.016L291.921 443.972L295.686 440.638ZM292.566 450.273C292.477 449.522 292.56 448.827 292.813 448.186C293.066 447.545 293.46 447.019 293.994 446.609C294.539 446.206 295.177 445.962 295.909 445.875C296.642 445.789 297.315 445.878 297.929 446.144C298.544 446.419 299.049 446.839 299.445 447.403C299.84 447.968 300.082 448.625 300.171 449.376C300.261 450.136 300.179 450.836 299.926 451.477C299.672 452.118 299.278 452.639 298.743 453.04C298.208 453.451 297.575 453.7 296.843 453.786C296.111 453.873 295.432 453.779 294.808 453.505C294.194 453.239 293.689 452.824 293.294 452.26C292.898 451.695 292.655 451.033 292.566 450.273ZM294.053 450.098C294.129 450.737 294.404 451.24 294.88 451.607C295.356 451.974 295.941 452.116 296.636 452.034C297.331 451.952 297.868 451.678 298.245 451.21C298.622 450.743 298.773 450.189 298.697 449.55C298.622 448.91 298.346 448.407 297.871 448.04C297.396 447.683 296.811 447.545 296.116 447.627C295.421 447.709 294.884 447.979 294.506 448.437C294.129 448.905 293.978 449.458 294.053 450.098ZM294.194 463.241L299.116 462.66L294.678 460.646L294.589 459.895L298.456 456.944L293.52 457.526L293.333 455.941L300.758 455.065L300.973 456.886L296.641 460.076L301.611 462.295L301.803 463.922L294.38 464.812L294.194 463.241ZM295.516 474.442L300.438 473.861L296 471.848L295.911 471.097L299.778 468.145L294.842 468.728L294.655 467.143L302.079 466.267L302.294 468.088L297.962 471.278L302.933 473.497L303.124 475.123L295.702 476.013L295.516 474.442ZM304.228 484.476L295.796 481.946C294.951 481.717 294.339 481.39 293.96 480.965C293.571 480.541 293.338 480 293.261 479.341C293.217 478.971 293.234 478.597 293.312 478.222C293.39 477.846 293.522 477.53 293.707 477.273L295.069 477.817C294.931 478.003 294.829 478.212 294.762 478.445C294.697 478.688 294.678 478.925 294.705 479.157C294.741 479.463 294.85 479.704 295.03 479.88C295.212 480.065 295.498 480.219 295.888 480.342L296.195 480.433L303.265 476.314L303.478 478.122L298.262 481.106L304.031 482.807L304.228 484.476ZM304.37 485.683L304.575 487.421L301.558 487.777L302 491.517L305.017 491.161L305.222 492.899L297.797 493.775L297.592 492.037L300.526 491.691L300.085 487.951L297.151 488.297L296.946 486.559L304.37 485.683ZM305.907 497.985C306.036 499.079 305.87 499.944 305.409 500.581C304.959 501.226 304.206 501.611 303.149 501.736L298.797 502.249L298.604 500.609L299.507 500.502C299.158 500.327 298.872 500.051 298.648 499.673C298.436 499.303 298.296 498.841 298.231 498.284C298.165 497.728 298.2 497.231 298.337 496.792C298.482 496.352 298.708 495.996 299.014 495.725C299.331 495.462 299.703 495.305 300.129 495.255C300.796 495.176 301.358 495.359 301.815 495.803C302.282 496.256 302.578 497.015 302.704 498.081L302.93 499.999L303.041 499.986C303.56 499.925 303.94 499.721 304.181 499.373C304.423 499.034 304.508 498.559 304.436 497.947C304.387 497.53 304.273 497.125 304.095 496.732C303.919 496.349 303.698 496.032 303.433 495.781L304.618 494.951C304.961 495.305 305.243 495.747 305.465 496.275C305.687 496.803 305.834 497.373 305.907 497.985ZM299.539 498.497C299.59 498.932 299.733 499.305 299.967 499.616C300.211 499.935 300.527 500.142 300.914 500.237L301.776 500.136L301.565 498.342C301.446 497.341 301.058 496.879 300.4 496.957C300.085 496.994 299.85 497.149 299.694 497.421C299.538 497.693 299.486 498.052 299.539 498.497ZM307.27 510.253L299.845 511.129L299.64 509.391L305.591 508.689L305.263 505.908L303.781 506.013C302.793 506.082 301.957 506.087 301.273 506.027C300.6 505.975 300.049 505.809 299.622 505.531C299.204 505.261 298.963 504.847 298.897 504.291C298.867 504.032 298.88 503.706 298.937 503.314L300.407 503.225C300.394 503.358 300.393 503.471 300.404 503.564C300.446 503.916 300.616 504.164 300.915 504.307C301.223 504.449 301.575 504.52 301.969 504.521C302.374 504.529 302.945 504.509 303.682 504.46L306.561 504.247L307.27 510.253ZM305.538 516.609C305.65 517.554 305.522 518.302 305.155 518.853C304.789 519.413 304.216 519.739 303.438 519.831C302.622 519.927 301.959 519.724 301.448 519.22C300.938 518.716 300.627 517.959 300.518 516.947L300.121 513.47L307.546 512.594L307.751 514.332L305.318 514.619L305.538 516.609ZM301.779 516.643C301.829 517.154 301.982 517.531 302.236 517.774C302.49 518.016 302.831 518.112 303.257 518.062C303.674 518.013 303.965 517.847 304.129 517.564C304.293 517.282 304.348 516.876 304.295 516.346L304.122 514.76L301.605 515.057L301.779 516.643ZM308.512 520.781L308.717 522.519L305.7 522.875L306.141 526.615L309.158 526.259L309.363 527.997L301.939 528.873L301.734 527.135L304.667 526.789L304.226 523.049L301.292 523.395L301.087 521.657L308.512 520.781ZM310.048 533.083C310.177 534.177 310.011 535.042 309.551 535.679C309.101 536.324 308.347 536.709 307.291 536.834L302.939 537.348L302.745 535.707L303.649 535.6C303.299 535.425 303.013 535.149 302.79 534.771C302.577 534.402 302.438 533.939 302.372 533.383C302.307 532.827 302.342 532.329 302.478 531.89C302.623 531.45 302.849 531.094 303.156 530.823C303.472 530.56 303.844 530.404 304.27 530.353C304.938 530.275 305.5 530.457 305.956 530.902C306.423 531.354 306.719 532.113 306.845 533.179L307.072 535.098L307.183 535.085C307.702 535.023 308.082 534.819 308.323 534.471C308.565 534.132 308.65 533.657 308.577 533.045C308.528 532.628 308.415 532.223 308.237 531.831C308.06 531.448 307.839 531.131 307.575 530.88L308.76 530.049C309.102 530.404 309.384 530.845 309.607 531.373C309.829 531.901 309.976 532.471 310.048 533.083ZM303.68 533.595C303.731 534.031 303.874 534.404 304.108 534.714C304.353 535.033 304.668 535.24 305.056 535.336L305.918 535.234L305.706 533.44C305.588 532.439 305.2 531.978 304.542 532.055C304.226 532.092 303.991 532.247 303.835 532.519C303.679 532.791 303.628 533.15 303.68 533.595ZM311.357 544.893L303.932 545.769L303.749 544.211L305.987 543.947L305.756 541.987L303.339 540.736L303.119 538.873L305.8 540.332C305.922 539.773 306.156 539.327 306.502 538.995C306.859 538.671 307.32 538.476 307.885 538.409C308.738 538.308 309.432 538.532 309.966 539.08C310.501 539.627 310.83 540.43 310.955 541.486L311.357 544.893ZM309.502 541.714C309.369 540.593 308.881 540.082 308.038 540.181C307.204 540.28 306.851 540.871 306.979 541.955L307.197 543.805L309.713 543.508L309.502 541.714ZM312.913 558.08L304.48 555.551C303.636 555.322 303.024 554.994 302.645 554.569C302.256 554.145 302.023 553.604 301.946 552.946C301.902 552.575 301.919 552.202 301.997 551.826C302.075 551.451 302.207 551.134 302.392 550.877L303.754 551.422C303.616 551.607 303.514 551.817 303.447 552.05C303.382 552.293 303.363 552.53 303.39 552.762C303.426 553.067 303.534 553.308 303.715 553.484C303.897 553.67 304.183 553.824 304.573 553.947L304.88 554.038L311.95 549.919L312.163 551.726L306.947 554.71L312.716 556.412L312.913 558.08ZM313.795 565.555L306.37 566.431L306.165 564.693L312.116 563.991L311.788 561.21L310.306 561.315C309.318 561.384 308.482 561.389 307.798 561.329C307.125 561.277 306.574 561.111 306.147 560.833C305.73 560.562 305.488 560.149 305.423 559.593C305.392 559.334 305.405 559.008 305.462 558.616L306.932 558.527C306.92 558.66 306.919 558.773 306.93 558.865C306.971 559.218 307.141 559.465 307.44 559.609C307.748 559.751 308.1 559.822 308.495 559.823C308.9 559.831 309.471 559.811 310.207 559.762L313.086 559.549L313.795 565.555ZM314.071 567.896L314.276 569.634L309.382 570.211L314.76 573.735L314.947 575.32L307.523 576.196L307.318 574.458L312.212 573.881L306.835 570.371L306.647 568.772L314.071 567.896ZM310.234 586.508L307.05 586.883L306.858 585.257L308.568 585.055L307.799 578.534L315.223 577.658L315.428 579.396L309.477 580.098L309.896 583.643L315.846 582.941L316.051 584.679L310.101 585.381L310.234 586.508ZM316.777 590.109C316.906 591.203 316.74 592.069 316.28 592.706C315.829 593.351 315.076 593.736 314.019 593.86L309.668 594.374L309.474 592.733L310.378 592.627C310.028 592.452 309.742 592.175 309.519 591.798C309.306 591.428 309.167 590.965 309.101 590.409C309.035 589.853 309.071 589.355 309.207 588.916C309.352 588.476 309.578 588.121 309.884 587.849C310.201 587.587 310.573 587.43 310.999 587.38C311.666 587.301 312.228 587.484 312.685 587.928C313.152 588.38 313.448 589.139 313.574 590.205L313.8 592.124L313.912 592.111C314.431 592.05 314.811 591.845 315.052 591.497C315.293 591.158 315.378 590.683 315.306 590.071C315.257 589.654 315.143 589.25 314.966 588.857C314.789 588.474 314.568 588.157 314.304 587.906L315.488 587.075C315.831 587.43 316.113 587.871 316.335 588.399C316.557 588.928 316.705 589.498 316.777 590.109ZM310.409 590.621C310.46 591.057 310.603 591.43 310.837 591.741C311.081 592.06 311.397 592.267 311.784 592.362L312.646 592.26L312.435 590.467C312.317 589.466 311.929 589.004 311.27 589.082C310.955 589.119 310.72 589.273 310.564 589.546C310.408 589.818 310.356 590.176 310.409 590.621Z" fill="#9CA1AB"/>
<path d="M908.359 84.0728C908.394 84.7194 908.267 85.2618 907.979 85.7001C907.699 86.1354 907.271 86.4476 906.694 86.6364C905.878 86.9037 905.145 86.8099 904.496 86.3549C903.846 85.8999 903.333 85.1004 902.958 83.9562L901.512 79.5391L910.825 76.4885L912.189 80.6528C912.532 81.6994 912.59 82.5837 912.365 83.3056C912.14 84.0276 911.646 84.5135 910.883 84.7633C910.396 84.9231 909.935 84.9414 909.502 84.8181C909.072 84.7037 908.691 84.4553 908.359 84.0728ZM907.405 79.4945L908.163 81.8095C908.346 82.3683 908.596 82.7577 908.914 82.9778C909.231 83.1978 909.608 83.2367 910.042 83.0943C910.477 82.952 910.757 82.6981 910.883 82.3328C911.018 81.9645 910.993 81.501 910.81 80.9422L910.052 78.6273L907.405 79.4945ZM904.272 83.4672C904.672 84.6912 905.334 85.1521 906.257 84.8499C907.161 84.5536 907.413 83.7934 907.012 82.5694L906.141 79.9085L903.4 80.8063L904.272 83.4672ZM912.749 89.5602C913.092 90.6068 913.101 91.4878 912.775 92.2034C912.462 92.9248 911.799 93.4512 910.788 93.7824L906.624 95.1464L906.11 93.5765L906.975 93.2933C906.597 93.1909 906.262 92.9767 905.968 92.6505C905.687 92.3303 905.459 91.9041 905.284 91.3719C905.11 90.8397 905.046 90.345 905.093 89.8878C905.148 89.4276 905.3 89.0344 905.546 88.708C905.805 88.3877 906.138 88.1607 906.546 88.027C907.185 87.8178 907.772 87.8858 908.307 88.231C908.854 88.5821 909.295 89.2677 909.629 90.2877L910.23 92.1237L910.337 92.0888C910.833 91.9261 911.165 91.6504 911.333 91.2617C911.503 90.8818 911.492 90.3992 911.3 89.8138C911.17 89.4147 910.978 89.0403 910.726 88.6907C910.477 88.35 910.198 88.0829 909.889 87.8895L910.886 86.841C911.292 87.1205 911.656 87.4973 911.978 87.9712C912.301 88.4451 912.558 88.9748 912.749 89.5602ZM906.608 91.3212C906.745 91.7381 906.959 92.0757 907.25 92.334C907.552 92.5982 907.903 92.7388 908.301 92.7556L909.126 92.4854L908.564 90.7691C908.25 89.8112 907.778 89.4354 907.148 89.6417C906.847 89.7405 906.647 89.9386 906.548 90.2362C906.449 90.5338 906.469 90.8955 906.608 91.3212ZM914.836 100.967L914.021 98.479L908.327 100.344L907.782 98.6812L913.476 96.8159L912.657 94.3147L914.067 93.8528L916.246 100.505L914.836 100.967ZM918.855 108.469L910.088 107.657C909.215 107.6 908.551 107.4 908.095 107.058C907.63 106.719 907.295 106.235 907.089 105.605C906.972 105.25 906.915 104.881 906.917 104.497C906.919 104.114 906.986 103.778 907.117 103.489L908.559 103.753C908.461 103.962 908.402 104.188 908.383 104.43C908.367 104.68 908.395 104.917 908.468 105.138C908.564 105.431 908.718 105.646 908.929 105.783C909.144 105.929 909.455 106.023 909.862 106.067L910.181 106.095L916.297 100.659L916.863 102.389L912.34 106.345L918.332 106.872L918.855 108.469ZM919.683 115.766L918.868 113.278L913.174 115.143L912.629 113.48L918.324 111.615L917.504 109.113L918.914 108.651L921.093 115.304L919.683 115.766ZM921.489 116.51L922.033 118.173L917.35 119.707L923.319 122.098L923.816 123.614L916.711 125.942L916.166 124.279L920.85 122.745L914.885 120.367L914.384 118.837L921.489 116.51ZM924.549 125.852L925.093 127.515L922.206 128.46L923.379 132.039L926.266 131.094L926.81 132.757L919.706 135.084L919.161 133.421L921.968 132.501L920.796 128.922L917.989 129.842L917.444 128.179L924.549 125.852ZM928.487 137.607C928.83 138.653 928.839 139.535 928.514 140.25C928.2 140.972 927.538 141.498 926.526 141.829L922.362 143.193L921.848 141.623L922.713 141.34C922.335 141.238 922 141.023 921.707 140.697C921.425 140.377 921.197 139.951 921.023 139.419C920.848 138.886 920.784 138.392 920.831 137.934C920.887 137.474 921.038 137.081 921.284 136.755C921.543 136.434 921.876 136.207 922.284 136.074C922.923 135.865 923.51 135.933 924.045 136.278C924.592 136.629 925.033 137.314 925.367 138.334L925.968 140.17L926.075 140.136C926.571 139.973 926.903 139.697 927.071 139.308C927.241 138.929 927.23 138.446 927.038 137.861C926.908 137.461 926.716 137.087 926.464 136.737C926.215 136.397 925.936 136.13 925.627 135.936L926.624 134.888C927.03 135.167 927.394 135.544 927.717 136.018C928.039 136.492 928.296 137.021 928.487 137.607ZM922.347 139.368C922.483 139.785 922.697 140.122 922.988 140.381C923.29 140.645 923.641 140.785 924.039 140.802L924.864 140.532L924.302 138.816C923.988 137.858 923.516 137.482 922.887 137.688C922.585 137.787 922.385 137.985 922.286 138.283C922.187 138.58 922.207 138.942 922.347 139.368Z" fill="#9CA1AB"/>
<path d="M948.34 239.774C948.118 240.382 947.788 240.831 947.35 241.12C946.922 241.41 946.405 241.529 945.801 241.475C944.945 241.4 944.309 241.025 943.89 240.351C943.472 239.677 943.315 238.741 943.421 237.541L943.829 232.911L953.591 233.772L953.207 238.137C953.11 239.234 952.816 240.07 952.325 240.645C951.834 241.22 951.189 241.472 950.389 241.402C949.878 241.357 949.447 241.192 949.097 240.909C948.747 240.634 948.494 240.256 948.34 239.774ZM949.264 235.189L949.05 237.616C948.999 238.201 949.075 238.658 949.281 238.985C949.486 239.313 949.817 239.496 950.272 239.536C950.728 239.577 951.085 239.453 951.345 239.167C951.614 238.882 951.774 238.446 951.825 237.86L952.039 235.434L949.264 235.189ZM944.821 237.608C944.707 238.891 945.134 239.576 946.101 239.661C947.05 239.744 947.58 239.145 947.693 237.862L947.939 235.072L945.066 234.819L944.821 237.608ZM950.217 246.546C950.12 247.643 949.781 248.456 949.201 248.986C948.628 249.526 947.812 249.749 946.752 249.656L942.387 249.271L942.532 247.626L943.439 247.705C943.132 247.463 942.908 247.134 942.767 246.719C942.634 246.313 942.592 245.832 942.641 245.274C942.69 244.716 942.826 244.236 943.049 243.834C943.281 243.433 943.575 243.131 943.93 242.928C944.294 242.735 944.689 242.658 945.117 242.695C945.787 242.754 946.299 243.048 946.656 243.576C947.021 244.114 947.156 244.918 947.062 245.987L946.892 247.911L947.004 247.921C947.524 247.967 947.938 247.844 948.245 247.553C948.551 247.27 948.731 246.823 948.785 246.209C948.822 245.791 948.793 245.371 948.699 244.951C948.604 244.539 948.453 244.184 948.245 243.885L949.574 243.313C949.837 243.73 950.024 244.219 950.133 244.782C950.243 245.344 950.271 245.932 950.217 246.546ZM943.878 245.748C943.84 246.185 943.903 246.58 944.069 246.932C944.243 247.294 944.51 247.561 944.87 247.733L945.735 247.809L945.893 246.01C945.982 245.006 945.696 244.475 945.036 244.417C944.72 244.389 944.457 244.492 944.249 244.727C944.041 244.962 943.918 245.302 943.878 245.748ZM947.646 257.853L947.876 255.246L941.907 254.72L942.061 252.976L948.03 253.502L948.261 250.88L949.739 251.011L949.124 257.984L947.646 257.853ZM948.389 266.331L940.649 262.136C939.869 261.739 939.337 261.294 939.052 260.8C938.759 260.306 938.641 259.729 938.699 259.069C938.732 258.697 938.825 258.335 938.977 257.983C939.13 257.631 939.324 257.348 939.558 257.135L940.78 257.945C940.607 258.099 940.464 258.283 940.351 258.498C940.238 258.722 940.171 258.95 940.151 259.183C940.124 259.489 940.18 259.747 940.321 259.957C940.461 260.175 940.71 260.384 941.067 260.585L941.349 260.736L949.11 258.145L948.95 259.958L943.235 261.816L948.536 264.658L948.389 266.331ZM946.279 273.366L946.509 270.758L940.54 270.232L940.694 268.488L946.663 269.014L946.894 266.393L948.372 266.523L947.757 273.496L946.279 273.366ZM947.646 274.76L947.492 276.504L942.583 276.071L947.13 280.618L946.99 282.208L939.543 281.551L939.696 279.808L944.605 280.241L940.058 275.708L940.199 274.104L947.646 274.76ZM946.783 284.552L946.629 286.296L943.603 286.029L943.273 289.781L946.299 290.047L946.145 291.79L938.698 291.134L938.852 289.391L941.794 289.65L942.125 285.899L939.182 285.639L939.336 283.896L946.783 284.552ZM945.778 296.909C945.682 298.006 945.343 298.82 944.762 299.35C944.19 299.889 943.374 300.113 942.314 300.019L937.949 299.635L938.094 297.989L939 298.069C938.694 297.826 938.47 297.497 938.328 297.082C938.196 296.677 938.154 296.195 938.203 295.637C938.252 295.08 938.388 294.6 938.611 294.198C938.843 293.796 939.137 293.494 939.492 293.291C939.855 293.099 940.251 293.021 940.679 293.059C941.348 293.118 941.861 293.411 942.217 293.939C942.582 294.477 942.718 295.281 942.623 296.35L942.454 298.275L942.565 298.285C943.086 298.33 943.5 298.208 943.806 297.916C944.112 297.634 944.292 297.186 944.346 296.572C944.383 296.154 944.355 295.734 944.261 295.314C944.166 294.903 944.014 294.547 943.806 294.248L945.136 293.676C945.399 294.093 945.585 294.583 945.695 295.145C945.805 295.708 945.832 296.296 945.778 296.909ZM939.44 296.112C939.401 296.549 939.465 296.943 939.631 297.295C939.805 297.657 940.072 297.924 940.432 298.097L941.296 298.173L941.455 296.374C941.543 295.37 941.257 294.838 940.597 294.78C940.281 294.752 940.019 294.856 939.811 295.09C939.603 295.325 939.479 295.666 939.44 296.112Z" fill="#9CA1AB"/>
<line x1="885.779" y1="10.0456" x2="902.079" y2="68.4959" stroke="#C6C9D0" stroke-width="8" stroke-linecap="round"/>
<line x1="929.674" y1="149.316" x2="948.777" y2="212.836" stroke="#C6C9D0" stroke-width="8" stroke-linecap="round"/>
<path d="M949.034 225.844L949.133 213.845M938.751 319.34L940.348 307.774" stroke="#C6C9D0" stroke-width="8" stroke-linecap="round"/>
<defs>
<filter id="filter0_d" x="634.746" y="359.396" width="140.248" height="72.0116" filterUnits="userSpaceOnUse" color-interpolation-filters="sRGB">
<feFlood flood-opacity="0" result="BackgroundImageFix"/>
<feColorMatrix in="SourceAlpha" type="matrix" values="0 0 0 0 0 0 0 0 0 0 0 0 0 0 0 0 0 0 127 0"/>
<feOffset dy="4"/>
<feGaussianBlur stdDeviation="7.5"/>
<feColorMatrix type="matrix" values="0 0 0 0 0.705882 0 0 0 0 0.588235 0 0 0 0 0.937255 0 0 0 1 0"/>
<feBlend mode="normal" in2="BackgroundImageFix" result="effect1_dropShadow"/>
<feBlend mode="normal" in="SourceGraphic" in2="effect1_dropShadow" result="shape"/>
</filter>
<filter id="filter1_d" x="579.438" y="267.587" width="243.51" height="129.841" filterUnits="userSpaceOnUse" color-interpolation-filters="sRGB">
<feFlood flood-opacity="0" result="BackgroundImageFix"/>
<feColorMatrix in="SourceAlpha" type="matrix" values="0 0 0 0 0 0 0 0 0 0 0 0 0 0 0 0 0 0 127 0"/>
<feOffset dy="4"/>
<feGaussianBlur stdDeviation="10"/>
<feColorMatrix type="matrix" values="0 0 0 0 0.698039 0 0 0 0 0.588235 0 0 0 0 0.941176 0 0 0 1 0"/>
<feBlend mode="normal" in2="BackgroundImageFix" result="effect1_dropShadow"/>
<feBlend mode="normal" in="SourceGraphic" in2="effect1_dropShadow" result="shape"/>
</filter>
<linearGradient id="paint0_linear" x1="649.746" y1="396.019" x2="757.746" y2="396.019" gradientUnits="userSpaceOnUse">
<stop stop-color="#FF8BDE"/>
<stop offset="1" stop-color="#669FFF"/>
</linearGradient>
<linearGradient id="paint1_linear" x1="601.855" y1="335.679" x2="800.673" y2="323.696" gradientUnits="userSpaceOnUse">
<stop stop-color="#FF8BDE"/>
<stop offset="1" stop-color="#669FFF"/>
</linearGradient>
</defs>
</svg>
