<svg xmlns="http://www.w3.org/2000/svg" xmlns:xlink="http://www.w3.org/1999/xlink"><symbol id="basket" viewBox="0 0 31 31">
<path d="M28.6459 10.9915H27.5429L22.6043 1.67689C22.3693 1.23368 21.8195 1.06506 21.3763 1.2998C20.9331 1.53478 20.7643 2.08455 20.9993 2.52775L25.4868 10.9914H5.64497L10.1325 2.52775C10.3674 2.08455 10.1986 1.53478 9.75543 1.2998C9.31229 1.06488 8.76247 1.23368 8.52748 1.67689L3.58892 10.9915H2.35412C1.05606 10.9915 0 12.0476 0 13.3457C0 14.6437 1.05606 15.6998 2.35412 15.6998H2.41945C2.42145 15.7127 2.42296 15.7258 2.42527 15.7387L4.31941 26.3595C4.67561 28.3566 6.40646 29.8061 8.43503 29.8061H22.6966C24.7252 29.8061 26.4561 28.3566 26.8122 26.3595L28.7064 15.7387C28.7088 15.7252 28.7104 15.7117 28.7125 15.6982C29.9798 15.6626 30.9999 14.6214 30.9999 13.3457C31 12.0475 29.9439 10.9915 28.6459 10.9915ZM25.024 26.0406C24.8226 27.1699 23.8438 27.9896 22.6967 27.9896H8.43509C7.28797 27.9896 6.30923 27.17 6.10779 26.0406L4.26365 15.6998H26.8682L25.024 26.0406ZM28.6459 13.8832H2.35412C2.05769 13.8832 1.81659 13.6421 1.81659 13.3457C1.81659 13.0492 2.05769 12.8081 2.35412 12.8081H28.6459C28.9423 12.8081 29.1834 13.0492 29.1834 13.3457C29.1834 13.6421 28.9423 13.8832 28.6459 13.8832Z"/>
<path d="M15.4605 16.96C14.9589 16.96 14.5522 17.3667 14.5522 17.8682V25.8211C14.5522 26.3227 14.9589 26.7294 15.4605 26.7294C15.9621 26.7294 16.3688 26.3227 16.3688 25.8211V17.8682C16.3688 17.3666 15.9621 16.96 15.4605 16.96Z"/>
<path d="M12.3619 25.6702L11.0224 17.7173C10.9391 17.2226 10.47 16.8891 9.97581 16.9725C9.48114 17.0558 9.14771 17.5244 9.23102 18.019L10.5706 25.972C10.6453 26.4156 11.0299 26.7295 11.4651 26.7295C11.5153 26.7295 11.5661 26.7254 11.617 26.7168C12.1118 26.6335 12.4452 26.1649 12.3619 25.6702Z"/>
<path d="M20.8822 16.9726C20.3881 16.8897 19.9191 17.2227 19.8357 17.7175L18.4961 25.6704C18.4129 26.165 18.7463 26.6335 19.241 26.7169C19.292 26.7255 19.3428 26.7296 19.3929 26.7296C19.8282 26.7296 20.2128 26.4157 20.2874 25.9721L21.6269 18.0192C21.7104 17.5245 21.3769 17.0559 20.8822 16.9726Z"/>
</symbol><symbol id="border-line" viewBox="0 0 275 307">
<path d="M265.43 5.935C254.655 -5.74525 233.708 10.8102 186.378 13.0447C154.253 14.5682 153.85 7.35696 99.7724 3.39583C52.0389 -0.159026 17.4976 -2.29194 6.1181 16.0918C1.18362 24.1156 3.4998 31.4284 5.61458 48.5933C12.5631 105.268 -3.14662 107.604 2.08997 162.349C6.52093 208.968 18.8068 215.976 11.1533 244.111C6.92375 259.65 0.0759041 269.198 4.60757 280.675C11.6568 298.348 38.5447 302.918 48.4136 304.543C89.9035 311.551 97.9598 291.035 145.089 290.324C181.141 289.816 190.305 301.598 228.17 295.402C248.713 292.05 261.1 290.019 268.954 279.659C282.852 261.276 263.416 241.368 265.43 188.249C266.437 161.739 271.573 159.81 270.465 133.91C269.257 105.776 263.013 102.83 261.402 77.54C258.582 33.6629 275.702 17.0059 265.43 5.935Z" stroke="url(#paint0_linear)" stroke-width="2" stroke-miterlimit="10"/>

</symbol></svg>
