<svg width="1089" height="810" viewBox="0 0 1089 810" fill="none" xmlns="http://www.w3.org/2000/svg">
<path d="M1054 309L1054.61 309.434L1054 309ZM939 674.5L930.48 676.05L936.082 682.654L939 674.5ZM829.5 1.05273V0.302734L829.487 0.302734L829.474 0.303186L829.5 1.05273ZM1.57199 231.164C3.21282 231.005 4.85792 230.84 6.50724 230.667L6.35101 229.175C4.70572 229.348 3.0647 229.513 1.42801 229.671L1.57199 231.164ZM16.4532 229.545C19.7766 229.144 23.1162 228.715 26.4716 228.259L26.2695 226.773C22.9214 227.228 19.5892 227.656 16.2734 228.056L16.4532 229.545ZM36.3326 226.848C39.6343 226.353 42.9505 225.832 46.2807 225.287L46.0385 223.807C42.7146 224.351 39.405 224.87 36.11 225.365L36.3326 226.848ZM56.1535 223.609C59.425 223.032 62.7094 222.433 66.0062 221.812L65.7287 220.338C62.4374 220.958 59.1587 221.556 55.8931 222.132L56.1535 223.609ZM75.9148 219.889C79.1573 219.242 82.4112 218.574 85.6761 217.887L85.3673 216.419C82.1072 217.105 78.8583 217.772 75.621 218.419L75.9148 219.889ZM95.5037 215.769C98.7561 215.051 102.019 214.315 105.292 213.561L104.955 212.1C101.687 212.852 98.4284 213.587 95.1805 214.304L95.5037 215.769ZM115.027 211.275C118.281 210.496 121.545 209.7 124.818 208.887L124.457 207.432C121.188 208.243 117.928 209.038 114.678 209.816L115.027 211.275ZM134.505 206.444C137.73 205.617 140.964 204.776 144.206 203.92L143.823 202.469C140.584 203.324 137.354 204.165 134.132 204.991L134.505 206.444ZM153.936 201.313C157.136 200.445 160.343 199.562 163.557 198.667L163.155 197.222C159.944 198.117 156.74 198.998 153.543 199.866L153.936 201.313ZM173.221 195.944C176.431 195.029 179.648 194.102 182.872 193.162L182.452 191.722C179.231 192.661 176.017 193.587 172.81 194.502L173.221 195.944ZM192.461 190.34C195.663 189.388 198.871 188.425 202.085 187.452L201.65 186.016C198.439 186.989 195.233 187.951 192.034 188.902L192.461 190.34ZM211.672 184.522C214.853 183.542 218.038 182.552 221.229 181.553L220.781 180.122C217.592 181.12 214.409 182.109 211.23 183.089L211.672 184.522ZM230.814 178.529C233.989 177.52 237.167 176.502 240.35 175.477L239.89 174.049C236.709 175.074 233.532 176.091 230.36 177.099L230.814 178.529ZM249.877 172.386C253.056 171.349 256.24 170.303 259.426 169.251L258.956 167.826C255.771 168.878 252.589 169.923 249.412 170.96L249.877 172.386ZM268.923 166.097C272.086 165.04 275.253 163.978 278.422 162.909L277.943 161.487C274.775 162.556 271.61 163.618 268.448 164.674L268.923 166.097ZM287.938 159.684C291.091 158.61 294.247 157.531 297.406 156.447L296.919 155.028C293.762 156.112 290.607 157.191 287.454 158.264L287.938 159.684ZM306.881 153.181C310.041 152.088 313.204 150.99 316.367 149.887L315.874 148.471C312.711 149.573 309.55 150.67 306.391 151.764L306.881 153.181ZM325.815 146.585C328.966 145.48 332.118 144.372 335.271 143.26L334.772 141.845C331.62 142.957 328.469 144.065 325.319 145.169L325.815 146.585ZM344.731 139.916C347.876 138.801 351.022 137.683 354.169 136.563L353.666 135.15C350.52 136.27 347.374 137.387 344.23 138.502L344.731 139.916ZM363.609 133.197C366.756 132.072 369.903 130.946 373.049 129.818L372.543 128.406C369.397 129.534 366.251 130.66 363.104 131.784L363.609 133.197ZM382.482 126.433C385.626 125.303 388.77 124.172 391.912 123.041L391.404 121.629C388.262 122.761 385.119 123.892 381.975 125.021L382.482 126.433ZM401.34 119.644C404.486 118.51 407.63 117.375 410.773 116.241L410.264 114.83C407.121 115.964 403.977 117.099 400.832 118.233L401.34 119.644ZM420.198 112.84C423.34 111.706 426.481 110.572 429.62 109.439L429.111 108.028C425.972 109.161 422.831 110.295 419.689 111.429L420.198 112.84ZM439.058 106.036C442.201 104.903 445.343 103.771 448.482 102.642L447.974 101.23C444.835 102.36 441.693 103.492 438.549 104.625L439.058 106.036ZM457.907 99.2533C461.059 98.1215 464.208 96.9921 467.354 95.8655L466.848 94.4533C463.702 95.58 460.552 96.7096 457.4 97.8415L457.907 99.2533ZM476.782 92.4948C479.931 91.371 483.076 90.2506 486.218 89.134L485.715 87.7206C482.573 88.8375 479.427 89.9581 476.278 91.082L476.782 92.4948ZM495.678 85.7792C498.828 84.6651 501.974 83.5551 505.115 82.4499L504.617 81.0349C501.475 82.1405 498.329 83.2507 495.178 84.3651L495.678 85.7792ZM514.571 79.133C517.736 78.0266 520.895 76.9255 524.05 75.8301L523.558 74.4131C520.402 75.5089 517.241 76.6104 514.076 77.7171L514.571 79.133ZM533.498 72.5615C536.666 71.4699 539.829 70.3845 542.986 69.306L542.501 67.8865C539.343 68.9655 536.179 70.0513 533.01 71.1434L533.498 72.5615ZM552.486 66.0756C555.646 65.006 558.801 63.9437 561.949 62.8893L561.473 61.4669C558.323 62.5219 555.167 63.5847 552.005 64.6548L552.486 66.0756ZM571.482 59.7141C574.663 58.6607 577.838 57.6158 581.005 56.58L580.539 55.1543C577.37 56.1907 574.194 57.2362 571.011 58.2902L571.482 59.7141ZM590.484 53.5003C593.69 52.4659 596.888 51.4414 600.078 50.4274L599.623 48.9979C596.432 50.0126 593.232 51.0377 590.024 52.0728L590.484 53.5003ZM609.625 47.4165C612.814 46.419 615.994 45.4325 619.166 44.4576L618.725 43.0238C615.551 43.9994 612.368 44.9866 609.177 45.9849L609.625 47.4165ZM628.792 41.5266C631.992 40.5619 635.181 39.6098 638.361 38.6708L637.936 37.2322C634.754 38.172 631.561 39.125 628.359 40.0904L628.792 41.5266ZM647.987 35.8602C651.216 34.9282 654.434 34.0105 657.641 33.1077L657.235 31.6639C654.025 32.5675 650.803 33.4861 647.571 34.419L647.987 35.8602ZM667.229 30.4448C670.486 29.5526 673.73 28.6767 676.962 27.8176L676.577 26.3679C673.341 27.228 670.093 28.1049 666.832 28.9981L667.229 30.4448ZM686.638 25.2872C689.882 24.4531 693.112 23.6369 696.328 22.8394L695.968 21.3835C692.747 22.1821 689.512 22.9993 686.265 23.8344L686.638 25.2872ZM706.102 20.4638C709.346 19.6916 712.575 18.9394 715.789 18.2079L715.456 16.7453C712.237 17.478 709.003 18.2313 705.755 19.0045L706.102 20.4638ZM725.627 16.0236C728.904 15.3147 732.164 14.6286 735.408 13.9659L735.108 12.4962C731.858 13.1601 728.592 13.8474 725.31 14.5575L725.627 16.0236ZM745.219 12.0235C748.531 11.3894 751.824 10.781 755.099 10.1994L754.836 8.7225C751.555 9.30536 748.255 9.9149 744.937 10.5503L745.219 12.0235ZM764.887 8.53123C768.235 7.98561 771.561 7.46948 774.865 6.98377L774.647 5.49972C771.335 5.9866 768.001 6.50393 764.646 7.05077L764.887 8.53123ZM784.711 5.61884C788.068 5.18232 791.401 4.77905 794.709 4.41006L794.543 2.9193C791.225 3.28934 787.883 3.69371 784.518 4.13136L784.711 5.61884ZM804.629 3.40049C807.988 3.09227 811.321 2.82157 814.626 2.58951L814.521 1.0932C811.205 1.32603 807.862 1.5976 804.492 1.90676L804.629 3.40049ZM824.603 2.00356C826.251 1.92617 827.892 1.85903 829.526 1.80228L829.474 0.303186C827.834 0.360153 826.187 0.427543 824.532 0.505205L824.603 2.00356ZM829.5 1.80273C831.204 1.80273 832.899 1.81215 834.585 1.83091L834.601 0.331C832.91 0.312182 831.209 0.30273 829.5 0.302734V1.80273ZM844.594 2.05469C847.937 2.16753 851.244 2.31789 854.514 2.505L854.6 1.00745C851.318 0.819666 847.999 0.668779 844.645 0.555549L844.594 2.05469ZM864.54 3.20211C867.864 3.47492 871.15 3.78662 874.396 4.13635L874.557 2.64498C871.298 2.29387 867.999 1.98097 864.662 1.70714L864.54 3.20211ZM884.391 5.34875C887.696 5.79534 890.958 6.28239 894.179 6.8089L894.421 5.32855C891.187 4.79978 887.91 4.31069 884.592 3.86226L884.391 5.34875ZM904.088 8.57816C907.367 9.21402 910.6 9.89199 913.788 10.6109L914.118 9.14769C910.916 8.42538 907.668 7.7443 904.374 7.10559L904.088 8.57816ZM923.55 12.9768C926.792 13.8183 929.985 14.7036 933.127 15.6314L933.552 14.1928C930.393 13.2603 927.185 12.3705 923.926 11.5249L923.55 12.9768ZM942.672 18.6298C945.861 19.6935 948.995 20.8024 952.075 21.9551L952.601 20.5503C949.504 19.3912 946.353 18.2762 943.146 17.2069L942.672 18.6298ZM961.327 25.6165C964.44 26.9174 967.494 28.2648 970.488 29.6568L971.12 28.2967C968.108 26.8962 965.037 25.5409 961.905 24.2325L961.327 25.6165ZM979.395 34.019C982.395 35.5648 985.33 37.1573 988.2 38.7947L988.944 37.4917C986.055 35.8437 983.101 34.2411 980.083 32.6856L979.395 34.019ZM996.749 43.9214C999.578 45.7038 1002.34 47.5317 1005.03 49.4032L1005.89 48.1716C1003.18 46.2871 1000.4 44.4467 997.549 42.6524L996.749 43.9214ZM1013.11 55.3084C1015.77 57.3479 1018.36 59.4321 1020.87 61.5586L1021.84 60.4139C1019.31 58.2718 1016.7 56.1725 1014.03 54.1184L1013.11 55.3084ZM1028.29 68.1649C1030.75 70.4601 1033.12 72.7983 1035.42 75.1766L1036.5 74.1345C1034.18 71.7378 1031.79 69.3819 1029.32 67.0694L1028.29 68.1649ZM1042.16 82.5188C1044.35 85.0359 1046.46 87.5924 1048.49 90.1852L1049.67 89.2607C1047.62 86.6472 1045.5 84.0706 1043.29 81.5337L1042.16 82.5188ZM1054.43 98.2033C1056.34 100.943 1058.17 103.717 1059.92 106.524L1061.19 105.731C1059.43 102.902 1057.59 100.105 1055.65 97.3432L1054.43 98.2033ZM1064.95 115.117C1066.56 118.038 1068.07 120.989 1069.5 123.966L1070.85 123.317C1069.41 120.315 1067.88 117.34 1066.27 114.395L1064.95 115.117ZM1073.57 133.075C1074.85 136.156 1076.03 139.26 1077.13 142.385L1078.54 141.889C1077.44 138.738 1076.24 135.607 1074.96 132.501L1073.57 133.075ZM1080.16 151.872C1081.09 155.068 1081.92 158.282 1082.67 161.509L1084.13 161.171C1083.38 157.917 1082.54 154.677 1081.6 151.454L1080.16 151.872ZM1084.64 171.279C1085.21 174.558 1085.69 177.847 1086.08 181.142L1087.57 180.967C1087.18 177.645 1086.69 174.329 1086.12 171.023L1084.64 171.279ZM1086.96 191.065C1087.17 194.383 1087.28 197.703 1087.31 201.022L1088.81 201.011C1088.78 197.665 1088.67 194.318 1088.46 190.972L1086.96 191.065ZM1087.11 210.985C1086.95 214.304 1086.7 217.617 1086.36 220.922L1087.86 221.075C1088.2 217.743 1088.45 214.402 1088.61 211.056L1087.11 210.985ZM1085.08 230.803C1084.56 234.083 1083.96 237.35 1083.26 240.6L1084.73 240.914C1085.43 237.637 1086.04 234.343 1086.56 231.037L1085.08 230.803ZM1080.91 250.287C1080.04 253.489 1079.09 256.67 1078.04 259.828L1079.47 260.299C1080.52 257.115 1081.48 253.908 1082.36 250.68L1080.91 250.287ZM1074.66 269.198C1073.45 272.285 1072.16 275.345 1070.78 278.374L1072.14 278.996C1073.53 275.943 1074.84 272.858 1076.06 269.746L1074.66 269.198ZM1066.4 287.33C1064.86 290.266 1063.24 293.167 1061.54 296.031L1062.83 296.797C1064.55 293.91 1066.18 290.985 1067.73 288.025L1066.4 287.33ZM1056.22 304.452C1055.3 305.833 1054.35 307.205 1053.39 308.566L1054.61 309.434C1055.59 308.062 1056.54 306.679 1057.47 305.286L1056.22 304.452ZM1053.39 308.566C1052.43 309.916 1051.45 311.248 1050.44 312.561L1051.63 313.475C1052.65 312.147 1053.64 310.8 1054.61 309.434L1053.39 308.566ZM1044.09 320.227C1041.87 322.71 1039.56 325.123 1037.15 327.468L1038.19 328.543C1040.63 326.174 1042.97 323.736 1045.21 321.225L1044.09 320.227ZM1029.85 334.115C1027.34 336.258 1024.74 338.338 1022.06 340.357L1022.96 341.556C1025.67 339.518 1028.29 337.419 1030.82 335.256L1029.85 334.115ZM1013.82 346.192C1011.13 347.991 1008.35 349.738 1005.51 351.433L1006.28 352.721C1009.14 351.014 1011.94 349.253 1014.65 347.439L1013.82 346.192ZM996.769 356.367C993.835 357.934 990.833 359.453 987.766 360.925L988.416 362.277C991.501 360.796 994.522 359.268 997.476 357.69L996.769 356.367ZM978.819 365.009C975.779 366.329 972.68 367.607 969.525 368.845L970.073 370.242C973.244 368.997 976.359 367.712 979.417 366.385L978.819 365.009ZM960.023 372.397C956.97 373.482 953.87 374.534 950.724 375.552L951.186 376.98C954.346 375.957 957.459 374.9 960.525 373.81L960.023 372.397ZM941.149 378.511C937.912 379.465 934.63 380.387 931.305 381.279L931.693 382.728C935.03 381.833 938.323 380.908 941.573 379.95L941.149 378.511ZM921.783 383.719C918.588 384.501 915.356 385.258 912.088 385.988L912.416 387.452C915.693 386.719 918.935 385.961 922.14 385.176L921.783 383.719ZM902.178 388.106C898.92 388.77 895.629 389.411 892.306 390.03L892.58 391.504C895.911 390.884 899.211 390.242 902.478 389.575L902.178 388.106ZM882.579 391.761C879.308 392.317 876.008 392.853 872.68 393.369L872.91 394.852C876.245 394.334 879.552 393.797 882.831 393.24L882.579 391.761ZM862.612 394.86C859.351 395.32 856.064 395.763 852.754 396.189L852.945 397.677C856.262 397.25 859.554 396.807 862.822 396.345L862.612 394.86ZM842.897 397.399C839.589 397.786 836.258 398.158 832.905 398.514L833.063 400.006C836.421 399.649 839.758 399.277 843.071 398.889L842.897 397.399ZM822.781 399.537C819.505 399.852 816.209 400.153 812.895 400.441L813.025 401.936C816.344 401.647 819.644 401.346 822.925 401.03L822.781 399.537ZM802.977 401.26C799.654 401.521 796.312 401.769 792.954 402.006L793.059 403.502C796.421 403.265 799.767 403.017 803.095 402.756L802.977 401.26ZM782.828 402.681C779.527 402.888 776.21 403.086 772.879 403.273L772.963 404.77C776.297 404.583 779.617 404.386 782.922 404.178L782.828 402.681ZM762.937 403.799C759.609 403.965 756.268 404.121 752.913 404.269L752.979 405.767C756.336 405.62 759.681 405.463 763.012 405.297L762.937 403.799ZM742.81 404.684C739.48 404.812 736.137 404.932 732.784 405.044L732.834 406.543C736.19 406.431 739.535 406.311 742.867 406.183L742.81 404.684ZM722.834 405.353C719.507 405.449 716.169 405.538 712.821 405.62L712.858 407.12C716.208 407.037 719.548 406.949 722.877 406.853L722.834 405.353ZM702.748 405.847C699.393 405.916 696.028 405.978 692.654 406.035L692.68 407.535C696.055 407.478 699.422 407.415 702.779 407.346L702.748 405.847ZM682.7 406.187C679.373 406.233 676.039 406.273 672.698 406.309L672.714 407.809C676.057 407.773 679.392 407.733 682.72 407.687L682.7 406.187ZM662.652 406.402C659.297 406.429 655.935 406.451 652.567 406.47L652.575 407.97C655.944 407.951 659.308 407.929 662.664 407.902L662.652 406.402ZM642.555 406.514C639.228 406.525 635.895 406.533 632.558 406.538L632.56 408.038C635.898 408.033 639.232 408.025 642.56 408.014L642.555 406.514ZM622.531 406.545C619.184 406.545 615.833 406.542 612.478 406.537L612.476 408.037C615.831 408.042 619.183 408.045 622.531 408.045L622.531 406.545ZM602.418 406.516C599.086 406.507 595.751 406.496 592.414 406.485L592.408 407.985C595.746 407.996 599.082 408.007 602.414 408.016L602.418 406.516ZM582.393 406.446C579.05 406.432 575.705 406.417 572.359 406.401L572.352 407.901C575.698 407.917 579.043 407.932 582.386 407.946L582.393 406.446ZM562.315 406.353C558.97 406.337 555.625 406.321 552.279 406.305L552.272 407.805C555.618 407.821 558.963 407.837 562.307 407.853L562.315 406.353ZM542.25 406.258C538.906 406.243 535.563 406.228 532.219 406.215L532.213 407.715C535.556 407.728 538.9 407.743 542.243 407.758L542.25 406.258ZM522.192 406.178C518.849 406.167 515.508 406.157 512.168 406.149L512.164 407.649C515.504 407.657 518.845 407.667 522.187 407.678L522.192 406.178ZM502.114 406.131C498.765 406.127 495.418 406.125 492.073 406.126L492.073 407.626C495.417 407.625 498.764 407.627 502.113 407.631L502.114 406.131ZM482.046 406.137C478.707 406.143 475.37 406.152 472.037 406.165L472.043 407.665C475.375 407.652 478.71 407.643 482.049 407.637L482.046 406.137ZM462 406.214C458.64 406.234 455.284 406.257 451.932 406.285L451.945 407.785C455.295 407.757 458.65 407.734 462.009 407.714L462 406.214ZM441.893 406.383C438.551 406.42 435.215 406.461 431.884 406.508L431.905 408.008C435.234 407.961 438.569 407.92 441.909 407.883L441.893 406.383ZM421.91 406.663C418.537 406.721 415.17 406.785 411.81 406.854L411.842 408.354C415.199 408.284 418.565 408.221 421.936 408.163L421.91 406.663ZM401.747 407.082C398.4 407.164 395.06 407.253 391.729 407.348L391.772 408.848C395.101 408.752 398.439 408.664 401.784 408.581L401.747 407.082ZM381.76 407.656C378.404 407.767 375.057 407.886 371.719 408.012L371.776 409.511C375.111 409.385 378.456 409.266 381.81 409.155L381.76 407.656ZM361.625 408.421C358.271 408.566 354.927 408.719 351.593 408.881L351.666 410.38C354.997 410.218 358.338 410.064 361.69 409.92L361.625 408.421ZM341.627 409.396C338.297 409.578 334.978 409.769 331.672 409.971L331.763 411.468C335.066 411.267 338.382 411.075 341.709 410.894L341.627 409.396ZM321.548 410.622C318.187 410.85 314.839 411.089 311.506 411.34L311.619 412.836C314.948 412.586 318.292 412.347 321.65 412.119L321.548 410.622ZM301.55 412.127C298.246 412.402 294.957 412.688 291.683 412.987L291.82 414.481C295.089 414.182 298.374 413.896 301.674 413.622L301.55 412.127ZM281.547 413.958C278.184 414.296 274.839 414.648 271.512 415.014L271.677 416.505C274.998 416.139 278.339 415.788 281.697 415.451L281.547 413.958ZM261.588 416.158C258.298 416.554 255.028 416.966 251.777 417.393L251.972 418.88C255.218 418.454 258.483 418.043 261.767 417.647L261.588 416.158ZM241.681 418.78C238.329 419.262 234.999 419.76 231.693 420.278L231.925 421.76C235.225 421.243 238.548 420.745 241.894 420.265L241.681 418.78ZM221.845 421.886C218.576 422.443 215.331 423.019 212.111 423.615L212.383 425.09C215.596 424.495 218.834 423.921 222.097 423.365L221.845 421.886ZM202.072 425.554C198.755 426.223 195.465 426.914 192.205 427.628L192.527 429.093C195.778 428.381 199.059 427.691 202.369 427.024L202.072 425.554ZM182.515 429.842C179.248 430.62 176.012 431.423 172.809 432.252L173.185 433.704C176.378 432.878 179.604 432.077 182.863 431.301L182.515 429.842ZM162.973 434.909C159.73 435.822 156.523 436.765 153.354 437.737L153.794 439.171C156.952 438.202 160.147 437.263 163.38 436.352L162.973 434.909ZM143.96 440.741C140.703 441.828 137.489 442.948 134.32 444.102L134.833 445.511C137.99 444.362 141.191 443.246 144.435 442.164L143.96 440.741ZM124.881 447.695C121.781 448.929 118.727 450.199 115.72 451.506L116.318 452.881C119.31 451.581 122.35 450.317 125.436 449.089L124.881 447.695ZM106.539 455.684C103.459 457.152 100.434 458.662 97.4656 460.217L98.1616 461.546C101.113 460 104.121 458.498 107.184 457.038L106.539 455.684ZM88.7321 465.016C85.8072 466.702 82.9435 468.436 80.1427 470.219L80.9483 471.484C83.7299 469.713 86.5747 467.991 89.4812 466.316L88.7321 465.016ZM71.7179 475.867C68.9774 477.803 66.3052 479.792 63.7033 481.835L64.6299 483.015C67.2112 480.987 69.8629 479.014 72.5833 477.092L71.7179 475.867ZM55.9715 488.255C53.4266 490.489 50.9593 492.784 48.5719 495.141L49.6257 496.209C51.9919 493.873 54.4377 491.598 56.9612 489.382L55.9715 488.255ZM41.6514 502.4C39.4119 504.898 37.2555 507.46 35.1845 510.089L36.3628 511.017C38.4138 508.414 40.5497 505.876 42.7683 503.401L41.6514 502.4ZM29.2126 518.199C27.3093 520.969 25.4943 523.808 23.7697 526.716L25.0599 527.481C26.7674 524.602 28.5645 521.791 30.449 519.048L29.2126 518.199ZM18.966 535.46C17.4587 538.43 16.0396 541.468 14.7106 544.576L16.0898 545.165C17.4059 542.088 18.8112 539.08 20.3036 536.138L18.966 535.46ZM10.9965 554.105C9.9144 557.169 8.91449 560.296 7.99847 563.487L9.44023 563.901C10.3481 560.738 11.3389 557.64 12.4109 554.605L10.9965 554.105ZM5.51073 573.221C4.76596 576.53 4.10625 579.903 3.53323 583.343L5.01284 583.589C5.58131 580.177 6.23565 576.831 6.97412 573.55L5.51073 573.221ZM2.16812 593.047C1.79258 596.299 1.49058 599.607 1.26337 602.972L2.75996 603.073C2.9856 599.731 3.28546 596.447 3.65822 593.219L2.16812 593.047ZM0.807369 613.237C0.769175 614.977 0.75 616.731 0.75 618.5H2.25C2.25 616.742 2.26906 614.999 2.30701 613.27L0.807369 613.237ZM0.75 618.5C0.75 620.23 0.775804 621.946 0.827153 623.649L2.32647 623.603C2.27558 621.916 2.25 620.215 2.25 618.5H0.75ZM1.43971 633.704C1.7447 637.002 2.14978 640.247 2.65288 643.439L4.13459 643.206C3.63656 640.046 3.23542 636.833 2.93334 633.566L1.43971 633.704ZM4.55395 653.297C5.30412 656.571 6.16242 659.786 7.1263 662.943L8.56092 662.505C7.60749 659.382 6.75835 656.202 6.01607 652.962L4.55395 653.297ZM10.351 672.288C11.5594 675.419 12.877 678.487 14.3009 681.496L15.6567 680.854C14.2485 677.879 12.9455 674.844 11.7504 671.748L10.351 672.288ZM18.8888 690.339C20.5204 693.223 22.2553 696.047 24.0904 698.812L25.3402 697.983C23.5244 695.247 21.8082 692.453 20.1943 689.601L18.8888 690.339ZM29.8902 706.926C31.9125 709.56 34.0313 712.136 36.2437 714.656L37.3707 713.666C35.1796 711.171 33.0818 708.62 31.0799 706.013L29.8902 706.926ZM42.9968 721.88C45.3355 724.234 47.7609 726.534 50.2706 728.782L51.2712 727.664C48.7827 725.436 46.3785 723.156 44.0609 720.823L42.9968 721.88ZM57.8444 735.201C60.3997 737.253 63.0296 739.257 65.732 741.213L66.6116 739.998C63.9289 738.056 61.3188 736.067 58.7836 734.031L57.8444 735.201ZM74.0539 746.942C76.7669 748.719 79.5436 750.453 82.3822 752.146L83.1504 750.857C80.3294 749.175 77.5705 747.452 74.8757 745.687L74.0539 746.942ZM91.0298 757.071C93.9642 758.667 96.9575 760.223 100.008 761.739L100.675 760.396C97.6412 758.888 94.6643 757.34 91.7466 755.753L91.0298 757.071ZM108.834 765.944C111.827 767.31 114.869 768.641 117.959 769.937L118.539 768.554C115.463 767.264 112.435 765.939 109.457 764.58L108.834 765.944ZM127.349 773.713C130.363 774.874 133.419 776.004 136.515 777.104L137.017 775.691C133.933 774.595 130.89 773.469 127.889 772.313L127.349 773.713ZM145.921 780.314C149.096 781.353 152.309 782.363 155.56 783.343L155.993 781.907C152.753 780.93 149.551 779.924 146.388 778.888L145.921 780.314ZM164.994 786.075C168.149 786.952 171.337 787.803 174.557 788.629L174.929 787.176C171.719 786.353 168.541 785.504 165.396 784.63L164.994 786.075ZM184.309 791.026C187.513 791.781 190.746 792.512 194.007 793.219L194.325 791.753C191.072 791.048 187.848 790.319 184.653 789.566L184.309 791.026ZM203.65 795.222C206.891 795.866 210.157 796.488 213.447 797.088L213.716 795.612C210.433 795.014 207.175 794.394 203.943 793.75L203.65 795.222ZM223.386 798.818C226.591 799.35 229.818 799.862 233.065 800.354L233.29 798.871C230.049 798.38 226.829 797.869 223.632 797.338L223.386 798.818ZM242.87 801.769C246.158 802.22 249.466 802.652 252.794 803.064L252.978 801.575C249.657 801.164 246.355 800.733 243.074 800.283L242.87 801.769ZM262.705 804.226C265.954 804.586 269.219 804.929 272.501 805.253L272.648 803.76C269.372 803.437 266.113 803.095 262.871 802.735L262.705 804.226ZM282.392 806.172C285.705 806.461 289.033 806.732 292.376 806.985L292.49 805.489C289.152 805.236 285.83 804.966 282.523 804.678L282.392 806.172ZM302.277 807.682C305.551 807.896 308.837 808.092 312.136 808.273L312.218 806.775C308.924 806.595 305.643 806.398 302.374 806.186L302.277 807.682ZM322.068 808.768C325.391 808.917 328.725 809.05 332.069 809.167L332.122 807.668C328.782 807.551 325.453 807.418 322.135 807.269L322.068 808.768ZM341.974 809.469C345.261 809.554 348.558 809.624 351.864 809.679L351.889 808.18C348.588 808.124 345.295 808.054 342.012 807.969L341.974 809.469ZM361.808 809.803C365.131 809.83 368.462 809.843 371.801 809.841L371.8 808.341C368.466 808.343 365.139 808.33 361.82 808.303L361.808 809.803ZM381.714 809.795C385.009 809.766 388.31 809.724 391.617 809.669L391.592 808.169C388.289 808.224 384.992 808.266 381.701 808.295L381.714 809.795ZM401.555 809.463C404.873 809.381 408.197 809.286 411.525 809.178L411.476 807.679C408.152 807.786 404.832 807.881 401.518 807.963L401.555 809.463ZM421.445 808.819C424.742 808.688 428.044 808.543 431.348 808.387L431.277 806.889C427.976 807.045 424.679 807.189 421.385 807.32L421.445 808.819ZM441.271 807.882C444.581 807.701 447.894 807.509 451.209 807.304L451.117 805.807C447.805 806.011 444.496 806.204 441.189 806.384L441.271 807.882ZM461.126 806.657C464.424 806.431 467.723 806.193 471.023 805.943L470.91 804.447C467.613 804.697 464.317 804.935 461.023 805.161L461.126 806.657ZM480.925 805.16C484.226 804.888 487.527 804.605 490.828 804.311L490.694 802.817C487.397 803.111 484.1 803.394 480.802 803.666L480.925 805.16ZM500.725 803.395C504.023 803.079 507.32 802.752 510.614 802.414L510.462 800.922C507.17 801.259 503.877 801.586 500.582 801.902L500.725 803.395ZM520.493 801.369C523.783 801.01 527.072 800.641 530.357 800.262L530.185 798.771C526.903 799.151 523.618 799.52 520.33 799.878L520.493 801.369ZM540.219 799.09C543.516 798.688 546.809 798.275 550.097 797.852L549.906 796.365C546.621 796.787 543.331 797.199 540.037 797.601L540.219 799.09ZM559.95 796.554C563.229 796.112 566.504 795.659 569.773 795.197L569.563 793.712C566.297 794.173 563.026 794.626 559.749 795.068L559.95 796.554ZM579.584 793.778C582.879 793.291 586.168 792.794 589.449 792.287L589.221 790.805C585.942 791.311 582.657 791.807 579.365 792.294L579.584 793.778ZM599.273 790.739C602.54 790.214 605.799 789.679 609.05 789.135L608.802 787.656C605.554 788.199 602.298 788.733 599.034 789.258L599.273 790.739ZM618.801 787.471C622.093 786.899 625.375 786.317 628.648 785.726L628.381 784.25C625.112 784.84 621.833 785.421 618.544 785.993L618.801 787.471ZM638.435 783.926C641.687 783.317 644.928 782.698 648.158 782.072L647.872 780.599C644.645 781.225 641.407 781.843 638.159 782.451L638.435 783.926ZM657.849 780.158C661.135 779.498 664.408 778.828 667.668 778.15L667.362 776.682C664.106 777.359 660.836 778.028 657.553 778.687L657.849 780.158ZM677.406 776.09C680.638 775.395 683.856 774.691 687.059 773.979L686.733 772.514C683.534 773.226 680.319 773.929 677.09 774.624L677.406 776.09ZM696.703 771.798C699.978 771.046 703.235 770.285 706.476 769.515L706.129 768.056C702.892 768.825 699.638 769.585 696.368 770.336L696.703 771.798ZM716.143 767.181C719.347 766.395 722.533 765.601 725.7 764.798L725.331 763.344C722.168 764.146 718.986 764.939 715.785 765.724L716.143 767.181ZM735.329 762.318C738.582 761.466 741.813 760.606 745.022 759.738L744.63 758.29C741.425 759.157 738.198 760.016 734.949 760.867L735.329 762.318ZM754.579 757.11C757.742 756.226 760.881 755.334 763.996 754.434L763.58 752.993C760.469 753.892 757.334 754.782 754.175 755.665L754.579 757.11ZM773.662 751.595C776.876 750.635 780.062 749.667 783.219 748.69L782.776 747.257C779.623 748.232 776.442 749.199 773.233 750.158L773.662 751.595ZM792.602 745.739C795.777 744.723 798.922 743.699 802.033 742.667L801.561 741.243C798.455 742.273 795.315 743.296 792.145 744.31L792.602 745.739ZM811.574 739.445C814.719 738.362 817.828 737.273 820.899 736.176L820.394 734.763C817.329 735.858 814.226 736.946 811.086 738.026L811.574 739.445ZM830.103 732.824C833.31 731.633 836.473 730.435 839.59 729.228L839.048 727.829C835.938 729.033 832.782 730.229 829.581 731.418L830.103 732.824ZM848.801 725.587C851.855 724.354 854.861 723.113 857.818 721.865L857.234 720.483C854.286 721.728 851.287 722.966 848.239 724.196L848.801 725.587ZM867.164 717.822C870.221 716.467 873.218 715.105 876.153 713.736L875.519 712.376C872.593 713.741 869.604 715.1 866.556 716.451L867.164 717.822ZM885.042 709.475C888.131 707.953 891.143 706.423 894.075 704.886L893.379 703.558C890.458 705.088 887.457 706.613 884.379 708.13L885.042 709.475ZM902.63 700.256C905.655 698.563 908.583 696.863 911.408 695.157L910.633 693.873C907.822 695.57 904.909 697.262 901.898 698.947L902.63 700.256ZM919.775 689.888C922.642 688.003 925.382 686.111 927.991 684.213L927.109 683C924.52 684.883 921.799 686.762 918.951 688.635L919.775 689.888Z" fill="url(#paint0_linear)"/>
<defs>
<linearGradient id="paint0_linear" x1="1.5" y1="417.315" x2="1088.06" y2="417.315" gradientUnits="userSpaceOnUse">
<stop stop-color="#FF8BDE"/>
<stop offset="1" stop-color="#669FFF"/>
</linearGradient>
</defs>
</svg>
