<svg width="988" height="739" viewBox="0 0 988 739" fill="none" xmlns="http://www.w3.org/2000/svg">
<path d="M986 170.501L986.748 170.451L986 170.501ZM936.5 660.502L928.296 663.275L934.799 668.994L936.5 660.502ZM155.531 158.249C157.197 158.18 158.862 158.106 160.527 158.026L160.456 156.528C158.794 156.607 157.132 156.681 155.469 156.75L155.531 158.249ZM170.509 157.493C173.834 157.296 177.156 157.08 180.476 156.846L180.37 155.35C177.056 155.584 173.739 155.799 170.42 155.996L170.509 157.493ZM190.427 156.088C193.747 155.816 197.064 155.527 200.379 155.219L200.24 153.726C196.931 154.032 193.62 154.322 190.305 154.593L190.427 156.088ZM210.326 154.244C213.638 153.902 216.948 153.543 220.254 153.167L220.085 151.676C216.784 152.052 213.479 152.411 210.172 152.752L210.326 154.244ZM230.163 151.989C233.47 151.58 236.773 151.154 240.072 150.712L239.873 149.226C236.578 149.666 233.28 150.092 229.979 150.501L230.163 151.989ZM249.972 149.34C253.269 148.867 256.561 148.379 259.85 147.876L259.623 146.393C256.339 146.895 253.051 147.383 249.759 147.855L249.972 149.34ZM269.703 146.324C272.993 145.791 276.28 145.243 279.561 144.682L279.309 143.204C276.031 143.764 272.749 144.311 269.463 144.843L269.703 146.324ZM289.407 142.956C292.684 142.367 295.957 141.764 299.225 141.149L298.948 139.675C295.683 140.29 292.415 140.891 289.141 141.479L289.407 142.956ZM309.015 139.267C312.288 138.624 315.557 137.969 318.82 137.302L318.52 135.833C315.26 136.499 311.996 137.153 308.726 137.795L309.015 139.267ZM328.606 135.265C331.863 134.574 335.115 133.872 338.361 133.159L338.039 131.694C334.796 132.406 331.548 133.107 328.295 133.797L328.606 135.265ZM348.083 130.989C351.34 130.25 354.592 129.501 357.838 128.742L357.496 127.281C354.254 128.039 351.005 128.788 347.752 129.526L348.083 130.989ZM367.564 126.434C370.8 125.656 374.03 124.868 377.254 124.071L376.894 122.615C373.673 123.411 370.446 124.198 367.213 124.976L367.564 126.434ZM386.911 121.654C390.153 120.832 393.389 120.002 396.618 119.164L396.241 117.713C393.015 118.55 389.782 119.379 386.543 120.2L386.911 121.654ZM406.285 116.628C409.5 115.775 412.709 114.915 415.911 114.048L415.519 112.6C412.319 113.467 409.113 114.326 405.9 115.178L406.285 116.628ZM425.521 111.421C428.747 110.53 431.966 109.633 435.177 108.731L434.771 107.287C431.562 108.189 428.346 109.085 425.122 109.975L425.521 111.421ZM444.787 106.007C447.983 105.093 451.171 104.175 454.351 103.252L453.932 101.811C450.754 102.734 447.568 103.652 444.375 104.564L444.787 106.007ZM463.932 100.45C467.143 99.5041 470.346 98.5543 473.54 97.601L473.111 96.1636C469.918 97.1165 466.717 98.0658 463.508 99.0109L463.932 100.45ZM483.096 94.7309C486.273 93.7711 489.441 92.8084 492.6 91.8433L492.162 90.4088C489.004 91.3734 485.838 92.3357 482.662 93.295L483.096 94.7309ZM502.177 88.9029C505.374 87.9163 508.562 86.9279 511.741 85.9383L511.295 84.5061C508.118 85.4953 504.931 86.4833 501.735 87.4696L502.177 88.9029ZM521.247 82.9668C524.412 81.9737 527.567 80.9801 530.712 79.9865L530.26 78.5562C527.116 79.5495 523.961 80.5428 520.798 81.5357L521.247 82.9668ZM540.298 76.949C543.483 75.937 546.658 74.9259 549.821 73.9162L549.365 72.4872C546.202 73.4967 543.029 74.5077 539.844 75.5194L540.298 76.949ZM559.278 70.8923C562.46 69.8732 565.63 68.8563 568.789 67.8423L568.331 66.4141C565.172 67.428 562.002 68.4448 558.82 69.4638L559.278 70.8923ZM578.344 64.7733C581.517 63.7538 584.678 62.738 587.826 61.7267L587.367 60.2986C584.219 61.3099 581.058 62.3258 577.885 63.3453L578.344 64.7733ZM597.241 58.7042C600.456 57.673 603.657 56.6474 606.844 55.628L606.387 54.1993C603.199 55.2188 599.998 56.2446 596.783 57.2758L597.241 58.7042ZM616.366 52.5896C619.526 51.5836 622.671 50.5847 625.803 49.5936L625.351 48.1635C622.218 49.1549 619.071 50.1541 615.911 51.1603L616.366 52.5896ZM635.357 46.5815C638.564 45.5745 641.756 44.5767 644.932 43.5891L644.486 42.1567C641.309 43.1448 638.116 44.143 634.907 45.1504L635.357 46.5815ZM654.412 40.6575C657.6 39.6775 660.772 38.7088 663.927 37.7524L663.492 36.3169C660.335 37.2739 657.161 38.2432 653.971 39.2237L654.412 40.6575ZM673.567 34.8535C676.763 33.9007 679.94 32.9617 683.1 32.0376L682.679 30.5979C679.517 31.5228 676.337 32.4625 673.139 33.416L673.567 34.8535ZM692.608 29.2862C695.867 28.354 699.105 27.4391 702.322 26.5425L701.919 25.0976C698.698 25.9951 695.457 26.911 692.196 27.8441L692.608 29.2862ZM711.912 23.9089C715.117 23.0424 718.3 22.1956 721.461 21.3698L721.082 19.9185C717.916 20.7455 714.729 21.5933 711.52 22.4609L711.912 23.9089ZM731.249 18.864C734.488 18.0522 737.703 17.2643 740.894 16.5017L740.545 15.0428C737.349 15.8068 734.129 16.5959 730.885 17.409L731.249 18.864ZM750.547 14.2557C753.858 13.5072 757.142 12.7881 760.397 12.1001L760.087 10.6325C756.824 11.3221 753.534 12.0426 750.216 12.7926L750.547 14.2557ZM770.079 10.1304C773.386 9.48469 776.663 8.87373 779.909 8.29918L779.647 6.82214C776.393 7.3983 773.107 8.01088 769.792 8.6582L770.079 10.1304ZM789.789 6.64929C793.049 6.13875 796.276 5.66823 799.469 5.23952L799.269 3.75286C796.065 4.1831 792.827 4.6552 789.557 5.16735L789.789 6.64929ZM809.539 4.0159C812.86 3.65648 816.141 3.34653 819.382 3.0882L819.263 1.59294C816.007 1.85245 812.711 2.16374 809.378 2.52461L809.539 4.0159ZM829.344 2.45306C832.713 2.29416 836.037 2.19654 839.313 2.16276L839.298 0.662843C836.002 0.696819 832.66 0.795006 829.273 0.954724L829.344 2.45306ZM849.185 2.26124C852.577 2.36693 855.914 2.54825 859.196 2.80832L859.314 1.31301C856.008 1.05095 852.646 0.868364 849.232 0.761971L849.185 2.26124ZM868.967 3.84029C872.33 4.28848 875.629 4.82891 878.863 5.46526L879.153 3.99348C875.887 3.35088 872.557 2.80552 869.165 2.35343L868.967 3.84029ZM888.439 7.68421C891.691 8.5579 894.871 9.54111 897.976 10.6381L898.476 9.22373C895.333 8.1134 892.116 7.11886 888.828 6.23557L888.439 7.68421ZM907.126 14.2995C910.158 15.6645 913.112 17.154 915.986 18.7725L916.722 17.4655C913.808 15.8244 910.814 14.3147 907.741 12.9316L907.126 14.2995ZM924.351 24.0113C927.051 25.8844 929.67 27.8904 932.207 30.034L933.175 28.8882C930.602 26.7138 927.945 24.6789 925.206 22.7788L924.351 24.0113ZM939.438 36.7462C941.723 39.0733 943.931 41.5325 946.061 44.1281L947.22 43.1766C945.063 40.5471 942.825 38.0547 940.508 35.6953L939.438 36.7462ZM951.992 52.0076C953.835 54.6757 955.609 57.4661 957.313 60.3824L958.608 59.6257C956.886 56.6777 955.092 53.8552 953.226 51.1549L951.992 52.0076ZM962.018 69.1189C963.445 71.9955 964.812 74.979 966.12 78.0723L967.502 77.4882C966.183 74.3681 964.802 71.357 963.362 68.4524L962.018 69.1189ZM969.801 87.5148C970.867 90.4846 971.884 93.5447 972.852 96.6968L974.286 96.2568C973.312 93.083 972.287 90.0007 971.213 87.0081L969.801 87.5148ZM975.604 106.431C976.414 109.549 977.18 112.749 977.901 116.032L979.366 115.71C978.641 112.409 977.87 109.191 977.055 106.054L975.604 106.431ZM979.844 125.656C980.451 128.94 981.017 132.302 981.542 135.742L983.025 135.516C982.498 132.061 981.929 128.684 981.319 125.383L979.844 125.656ZM982.884 145.431C983.283 148.62 983.649 151.873 983.981 155.19L985.474 155.041C985.14 151.712 984.773 148.447 984.373 145.245L982.884 145.431ZM984.879 165.334C985.011 167.056 985.136 168.795 985.252 170.55L986.748 170.451C986.632 168.691 986.507 166.947 986.374 165.218L984.879 165.334ZM985.252 170.55C985.367 172.305 985.459 174.043 985.528 175.764L987.026 175.705C986.958 173.97 986.865 172.219 986.748 170.451L985.252 170.55ZM985.654 185.887C985.603 189.195 985.458 192.435 985.223 195.611L986.719 195.722C986.957 192.516 987.102 189.246 987.154 185.911L985.654 185.887ZM984.208 205.216C983.738 208.609 983.158 211.922 982.47 215.158L983.937 215.47C984.633 212.198 985.219 208.849 985.694 205.422L984.208 205.216ZM980.082 224.635C979.158 227.791 978.123 230.869 976.981 233.869L978.383 234.403C979.54 231.365 980.587 228.25 981.522 225.056L980.082 224.635ZM973.059 243.003C971.636 245.965 970.099 248.846 968.451 251.649L969.744 252.409C971.413 249.571 972.97 246.652 974.411 243.652L973.059 243.003ZM963.129 259.887C961.236 262.567 959.231 265.169 957.118 267.695L958.268 268.657C960.407 266.1 962.437 263.466 964.354 260.753L963.129 259.887ZM950.457 275.047C948.202 277.351 945.848 279.585 943.398 281.753L944.392 282.877C946.868 280.686 949.248 278.426 951.529 276.096L950.457 275.047ZM935.776 288.047C933.168 290.059 930.469 292.008 927.682 293.895L928.523 295.137C931.335 293.233 934.059 291.266 936.692 289.235L935.776 288.047ZM919.501 299.109C916.696 300.793 913.814 302.423 910.856 304L911.562 305.324C914.541 303.735 917.446 302.092 920.273 300.395L919.501 299.109ZM901.905 308.512C899.022 309.884 896.076 311.213 893.07 312.499L893.66 313.878C896.684 312.584 899.648 311.247 902.549 309.866L901.905 308.512ZM883.871 316.234C880.754 317.434 877.578 318.594 874.346 319.714L874.837 321.131C878.085 320.006 881.276 318.84 884.41 317.634L883.871 316.234ZM865.176 322.741C862.071 323.717 858.919 324.66 855.721 325.571L856.132 327.014C859.343 326.099 862.508 325.152 865.626 324.172L865.176 322.741ZM845.992 328.21C842.839 329.024 839.646 329.809 836.414 330.568L836.756 332.028C839.999 331.267 843.203 330.479 846.367 329.663L845.992 328.21ZM826.868 332.704C823.65 333.391 820.396 334.053 817.107 334.691L817.392 336.163C820.69 335.524 823.953 334.86 827.181 334.171L826.868 332.704ZM807.137 336.534C803.969 337.091 800.772 337.628 797.546 338.145L797.783 339.626C801.017 339.108 804.222 338.57 807.397 338.011L807.137 336.534ZM787.818 339.633C784.548 340.109 781.25 340.567 777.926 341.007L778.123 342.494C781.453 342.053 784.758 341.595 788.035 341.117L787.818 339.633ZM767.895 342.269C764.693 342.652 761.468 343.02 758.222 343.372L758.383 344.863C761.635 344.51 764.866 344.142 768.073 343.758L767.895 342.269ZM748.417 344.385C745.127 344.708 741.816 345.017 738.485 345.312L738.618 346.806C741.953 346.51 745.269 346.201 748.563 345.878L748.417 344.385ZM728.434 346.156C725.196 346.413 721.941 346.658 718.669 346.892L718.776 348.388C722.052 348.154 725.311 347.909 728.553 347.651L728.434 346.156ZM708.839 347.557C705.545 347.768 702.236 347.968 698.911 348.157L698.997 349.655C702.325 349.465 705.637 349.265 708.934 349.054L708.839 347.557ZM688.893 348.695C685.61 348.861 682.313 349.017 679.003 349.165L679.069 350.663C682.382 350.515 685.682 350.359 688.969 350.193L688.893 348.695ZM669.167 349.576C665.876 349.705 662.573 349.826 659.258 349.939L659.31 351.438C662.626 351.325 665.932 351.204 669.225 351.075L669.167 349.576ZM649.282 350.257C645.96 350.355 642.627 350.446 639.285 350.531L639.323 352.03C642.667 351.946 646.002 351.854 649.326 351.756L649.282 350.257ZM629.446 350.761C626.158 350.832 622.86 350.897 619.555 350.957L619.582 352.457C622.889 352.397 626.188 352.332 629.478 352.261L629.446 350.761ZM609.615 351.121C606.294 351.171 602.965 351.216 599.63 351.257L599.648 352.757C602.985 352.716 606.315 352.671 609.637 352.621L609.615 351.121ZM589.709 351.365C586.419 351.397 583.124 351.425 579.823 351.45L579.835 352.95C583.136 352.925 586.433 352.897 589.723 352.865L589.709 351.365ZM569.906 351.515C566.595 351.533 563.28 351.549 559.96 351.563L559.966 353.063C563.286 353.049 566.603 353.033 569.914 353.015L569.906 351.515ZM549.989 351.596C546.692 351.605 543.391 351.612 540.087 351.618L540.09 353.118C543.394 353.112 546.695 353.105 549.993 353.096L549.989 351.596ZM530.174 351.63C526.867 351.634 523.558 351.635 520.248 351.637L520.248 353.137C523.559 353.135 526.868 353.134 530.176 353.13L530.174 351.63ZM510.311 351.639C506.999 351.64 503.686 351.64 500.372 351.641L500.373 353.141C503.686 353.14 506.999 353.14 510.311 353.139L510.311 351.639ZM490.442 351.644C487.132 351.645 483.823 351.647 480.514 351.651L480.515 353.151C483.824 353.147 487.133 353.145 490.443 353.144L490.442 351.644ZM470.589 351.664C467.282 351.67 463.977 351.678 460.673 351.687L460.678 353.187C463.981 353.178 467.286 353.17 470.592 353.164L470.589 351.664ZM450.735 351.722C447.414 351.736 444.096 351.752 440.782 351.772L440.79 353.272C444.104 353.252 447.421 353.236 450.741 353.222L450.735 351.722ZM430.848 351.838C427.54 351.864 424.237 351.893 420.937 351.925L420.952 353.425C424.25 353.392 427.553 353.364 430.859 353.338L430.848 351.838ZM411.053 352.034C407.722 352.075 404.395 352.12 401.075 352.171L401.098 353.67C404.417 353.62 407.742 353.575 411.072 353.534L411.053 352.034ZM391.112 352.336C387.797 352.396 384.489 352.461 381.188 352.532L381.22 354.032C384.52 353.961 387.826 353.896 391.139 353.835L391.112 352.336ZM371.306 352.763C368.001 352.847 364.703 352.936 361.413 353.033L361.457 354.532C364.745 354.436 368.04 354.346 371.344 354.263L371.306 352.763ZM351.405 353.348C348.078 353.46 344.76 353.58 341.453 353.708L341.511 355.207C344.816 355.079 348.131 354.959 351.455 354.847L351.405 353.348ZM331.562 354.115C328.275 354.259 325 354.412 321.735 354.573L321.809 356.071C325.071 355.91 328.344 355.758 331.627 355.614L331.562 354.115ZM311.747 355.097C308.405 355.283 305.076 355.478 301.761 355.685L301.854 357.182C305.166 356.976 308.492 356.78 311.83 356.595L311.747 355.097ZM291.856 356.336C288.569 356.564 285.296 356.803 282.039 357.054L282.154 358.549C285.408 358.299 288.677 358.06 291.96 357.832L291.856 356.336ZM272.161 357.854C268.805 358.14 265.467 358.439 262.146 358.752L262.287 360.245C265.603 359.933 268.937 359.634 272.289 359.349L272.161 357.854ZM252.24 359.733C248.956 360.074 245.692 360.43 242.447 360.8L242.617 362.29C245.857 361.921 249.116 361.565 252.395 361.225L252.24 359.733ZM232.683 361.969C229.321 362.39 225.982 362.829 222.667 363.285L222.872 364.771C226.181 364.315 229.513 363.878 232.869 363.457L232.683 361.969ZM212.793 364.709C209.527 365.202 206.284 365.713 203.068 366.244L203.312 367.724C206.522 367.194 209.757 366.684 213.017 366.192L212.793 364.709ZM193.391 367.914C190.045 368.518 186.728 369.144 183.442 369.794L183.732 371.265C187.01 370.617 190.319 369.993 193.658 369.39L193.391 367.914ZM173.677 371.812C170.454 372.509 167.263 373.23 164.105 373.976L164.45 375.436C167.598 374.692 170.78 373.974 173.994 373.279L173.677 371.812ZM154.485 376.353C151.195 377.204 147.943 378.083 144.733 378.993L145.141 380.436C148.341 379.53 151.581 378.653 154.86 377.806L154.485 376.353ZM135.222 381.814C132.094 382.786 129.007 383.789 125.963 384.824L126.446 386.244C129.477 385.213 132.551 384.215 135.667 383.247L135.222 381.814ZM116.429 388.227C113.272 389.41 110.165 390.631 107.112 391.891L107.684 393.278C110.722 392.024 113.813 390.809 116.955 389.632L116.429 388.227ZM98.111 395.793C95.0542 397.184 92.0561 398.62 89.1187 400.1L89.7939 401.44C92.7129 399.968 95.693 398.542 98.7324 397.158L98.111 395.793ZM80.2324 404.824C77.3361 406.448 74.5063 408.122 71.7451 409.847L72.5399 411.119C75.2803 409.407 78.0897 407.746 80.966 406.133L80.2324 404.824ZM63.4678 415.319C60.6968 417.258 58.0052 419.256 55.3954 421.316L56.3246 422.493C58.9111 420.452 61.5796 418.471 64.3278 416.548L63.4678 415.319ZM47.8142 427.679C45.3294 429.899 42.9319 432.185 40.6244 434.537L41.6953 435.587C43.9791 433.259 46.3528 430.996 48.8137 428.797L47.8142 427.679ZM33.8725 441.917C31.7167 444.447 29.6568 447.048 27.6955 449.723L28.9051 450.61C30.8445 447.965 32.8818 445.392 35.0143 442.889L33.8725 441.917ZM22.1319 457.932C20.3806 460.737 18.7296 463.615 17.1817 466.569L18.5103 467.265C20.0406 464.345 21.6728 461.499 23.4042 458.727L22.1319 457.932ZM12.85 475.66C11.5673 478.637 10.3817 481.685 9.29558 484.805L10.7122 485.298C11.7866 482.212 12.9591 479.197 14.2275 476.254L12.85 475.66ZM6.36413 494.29C5.48606 497.524 4.70783 500.831 4.03169 504.212L5.50256 504.506C6.17218 501.158 6.94268 497.884 7.81172 494.683L6.36413 494.29ZM2.41684 513.804C1.97581 517.004 1.6209 520.268 1.35379 523.595L2.84898 523.715C3.11387 520.416 3.46574 517.18 3.9028 514.008L2.41684 513.804ZM0.817489 533.77C0.772566 535.497 0.75 537.241 0.75 539.002H2.25C2.25 537.254 2.2724 535.523 2.31698 533.809L0.817489 533.77ZM0.75 539.002C0.75 540.718 0.784808 542.421 0.854016 544.111L2.35276 544.05C2.2844 542.38 2.25 540.697 2.25 539.002H0.75ZM1.67874 554.101C2.08955 557.384 2.63497 560.617 3.31164 563.799L4.77884 563.487C4.11105 560.347 3.57269 557.156 3.16713 553.915L1.67874 554.101ZM5.8267 573.505C6.80273 576.687 7.91514 579.815 9.16014 582.89L10.5505 582.327C9.32169 579.292 8.22388 576.205 7.26074 573.065L5.8267 573.505ZM13.2702 591.92C14.7659 594.871 16.3886 597.77 18.1346 600.618L19.4134 599.834C17.6881 597.02 16.0852 594.156 14.6082 591.241L13.2702 591.92ZM23.68 608.927C25.5913 611.57 27.6131 614.165 29.7422 616.715L30.8935 615.753C28.786 613.23 26.7857 610.662 24.8955 608.048L23.68 608.927ZM36.4476 624.223C38.686 626.573 41.0193 628.881 43.4448 631.148L44.4689 630.052C42.064 627.805 39.7513 625.517 37.5337 623.189L36.4476 624.223ZM50.8879 637.734C53.4351 639.871 56.0676 641.969 58.7828 644.029L59.6893 642.834C56.9929 640.789 54.3797 638.706 51.852 636.585L50.8879 637.734ZM66.6852 649.754C69.3914 651.628 72.1689 653.469 75.0154 655.275L75.8192 654.009C72.989 652.212 70.2283 650.383 67.5393 648.521L66.6852 649.754ZM83.5791 660.489C86.3636 662.117 89.2065 663.715 92.106 665.285L92.8201 663.966C89.9345 662.403 87.1058 660.813 84.3359 659.194L83.5791 660.489ZM100.972 669.908C103.929 671.394 106.938 672.852 109.998 674.283L110.634 672.924C107.586 671.499 104.589 670.047 101.646 668.568L100.972 669.908ZM118.904 678.31C121.918 679.628 124.977 680.922 128.08 682.191L128.648 680.803C125.556 679.538 122.508 678.249 119.505 676.936L118.904 678.31ZM137.479 685.913C140.486 687.065 143.531 688.197 146.611 689.307L147.12 687.896C144.048 686.789 141.014 685.661 138.016 684.512L137.479 685.913ZM155.96 692.575C159.111 693.644 162.298 694.692 165.518 695.719L165.974 694.29C162.762 693.265 159.584 692.22 156.441 691.155L155.96 692.575ZM174.951 698.642C178.07 699.58 181.217 700.5 184.393 701.402L184.803 699.959C181.634 699.059 178.494 698.142 175.383 697.206L174.951 698.642ZM194.004 704.053C197.226 704.916 200.475 705.762 203.75 706.59L204.118 705.136C200.85 704.31 197.607 703.466 194.392 702.604L194.004 704.053ZM213.243 708.923C216.43 709.685 219.64 710.431 222.872 711.16L223.202 709.697C219.976 708.969 216.772 708.225 213.591 707.464L213.243 708.923ZM232.633 713.302C235.871 713.992 239.13 714.667 242.408 715.327L242.704 713.856C239.431 713.198 236.178 712.524 232.946 711.835L232.633 713.302ZM252.043 717.211C255.273 717.825 258.52 718.424 261.784 719.01L262.049 717.533C258.79 716.949 255.548 716.35 252.323 715.738L252.043 717.211ZM271.627 720.724C274.884 721.274 278.158 721.811 281.446 722.334L281.681 720.853C278.398 720.33 275.13 719.794 271.877 719.244L271.627 720.724ZM291.171 723.836C294.427 724.323 297.697 724.798 300.979 725.26L301.188 723.775C297.91 723.313 294.645 722.839 291.394 722.352L291.171 723.836ZM310.862 726.608C314.14 727.04 317.429 727.461 320.73 727.869L320.914 726.38C317.617 725.972 314.332 725.553 311.059 725.121L310.862 726.608ZM330.516 729.038C333.789 729.417 337.071 729.783 340.363 730.137L340.523 728.646C337.236 728.292 333.957 727.926 330.688 727.548L330.516 729.038ZM350.265 731.166C353.56 731.496 356.864 731.814 360.175 732.121L360.314 730.627C357.006 730.321 353.706 730.003 350.414 729.673L350.265 731.166ZM370.005 732.997C373.289 733.278 376.58 733.548 379.877 733.807L379.994 732.312C376.701 732.053 373.413 731.783 370.133 731.502L370.005 732.997ZM389.785 734.552C393.092 734.79 396.404 735.016 399.721 735.233L399.818 733.736C396.505 733.52 393.196 733.293 389.893 733.056L389.785 734.552ZM409.586 735.843C412.879 736.037 416.176 736.22 419.477 736.393L419.555 734.895C416.258 734.722 412.964 734.539 409.674 734.346L409.586 735.843ZM429.388 736.881C432.694 737.033 436.004 737.176 439.315 737.308L439.375 735.81C436.067 735.677 432.76 735.535 429.457 735.382L429.388 736.881ZM449.221 737.675C452.522 737.787 455.825 737.89 459.129 737.983L459.171 736.484C455.87 736.391 452.57 736.288 449.272 736.176L449.221 737.675ZM469.041 738.233C472.346 738.307 475.65 738.371 478.954 738.426L478.979 736.926C475.678 736.871 472.376 736.807 469.075 736.734L469.041 738.233ZM488.878 738.562C492.188 738.598 495.497 738.625 498.805 738.643L498.813 737.143C495.508 737.125 492.202 737.099 488.894 737.062L488.878 738.562ZM508.72 738.667C512.023 738.667 515.324 738.656 518.621 738.637L518.612 737.137C515.318 737.157 512.02 737.167 508.72 737.167L508.72 738.667ZM528.532 738.553C531.853 738.515 535.169 738.469 538.481 738.413L538.455 736.914C535.146 736.969 531.833 737.016 528.516 737.053L528.532 738.553ZM548.402 738.22C551.704 738.147 555 738.065 558.291 737.974L558.25 736.474C554.962 736.565 551.668 736.647 548.368 736.721L548.402 738.22ZM568.165 737.674C571.496 737.564 574.82 737.445 578.137 737.317L578.079 735.819C574.765 735.946 571.444 736.065 568.115 736.175L568.165 737.674ZM588.064 736.908C591.365 736.763 594.658 736.609 597.942 736.446L597.868 734.948C594.587 735.11 591.296 735.264 587.998 735.409L588.064 736.908ZM607.767 735.933C611.107 735.75 614.438 735.557 617.758 735.356L617.667 733.859C614.35 734.06 611.022 734.252 607.685 734.436L607.767 735.933ZM627.688 734.727C630.987 734.508 634.274 734.281 637.549 734.046L637.442 732.549C634.169 732.785 630.885 733.012 627.589 733.23L627.688 734.727ZM647.337 733.314C650.682 733.054 654.013 732.786 657.329 732.508L657.204 731.014C653.891 731.291 650.562 731.559 647.22 731.818L647.337 733.314ZM667.254 731.649C670.547 731.354 673.824 731.05 677.085 730.738L676.942 729.245C673.684 729.557 670.41 729.86 667.12 730.155L667.254 731.649ZM686.822 729.776C690.179 729.434 693.518 729.083 696.837 728.723L696.675 727.232C693.36 727.591 690.024 727.942 686.67 728.284L686.822 729.776ZM706.735 727.617C710.013 727.24 713.272 726.854 716.509 726.459L716.327 724.97C713.094 725.364 709.839 725.75 706.563 726.127L706.735 727.617ZM726.27 725.235C729.623 724.802 732.952 724.361 736.254 723.91L736.051 722.424C732.752 722.874 729.428 723.315 726.079 723.747L726.27 725.235ZM746.083 722.532C749.333 722.063 752.556 721.586 755.751 721.1L755.525 719.617C752.334 720.102 749.115 720.579 745.869 721.047L746.083 722.532ZM765.628 719.555C768.957 719.02 772.253 718.476 775.515 717.922L775.264 716.443C772.006 716.996 768.715 717.54 765.39 718.074L765.628 719.555ZM785.198 716.233C788.455 715.649 791.675 715.055 794.857 714.453L794.578 712.979C791.401 713.581 788.186 714.173 784.933 714.756L785.198 716.233ZM804.789 712.517C808.056 711.861 811.279 711.196 814.456 710.521L814.144 709.054C810.973 709.728 807.755 710.392 804.494 711.046L804.789 712.517ZM823.953 708.443C827.318 707.685 830.626 706.915 833.877 706.135L833.526 704.676C830.283 705.455 826.982 706.223 823.623 706.979L823.953 708.443ZM843.45 703.761C846.665 702.938 849.816 702.103 852.902 701.258L852.505 699.811C849.428 700.654 846.285 701.487 843.078 702.308L843.45 703.761ZM862.685 698.475C865.867 697.535 868.969 696.583 871.988 695.619L871.532 694.19C868.524 695.151 865.432 696.1 862.26 697.037L862.685 698.475ZM881.545 692.432C884.766 691.308 887.877 690.17 890.873 689.017L890.335 687.617C887.355 688.763 884.258 689.897 881.051 691.016L881.545 692.432ZM900.015 685.302C903.225 683.922 906.272 682.523 909.149 681.107L908.486 679.761C905.635 681.165 902.611 682.553 899.423 683.924L900.015 685.302ZM917.908 676.435C920.932 674.678 923.698 672.896 926.194 671.09L925.315 669.875C922.865 671.647 920.142 673.402 917.155 675.138L917.908 676.435Z" fill="url(#paint0_linear)"/>
<defs>
<linearGradient id="paint0_linear" x1="1.5" y1="380.818" x2="986.425" y2="380.818" gradientUnits="userSpaceOnUse">
<stop stop-color="#FF8BDE"/>
<stop offset="1" stop-color="#669FFF"/>
</linearGradient>
</defs>
</svg>
