<svg width="275" height="307" viewBox="0 0 275 307" fill="none" xmlns="http://www.w3.org/2000/svg">
<path d="M265.43 5.935C254.655 -5.74525 233.708 10.8102 186.378 13.0447C154.253 14.5682 153.85 7.35696 99.7724 3.39583C52.0389 -0.159026 17.4976 -2.29194 6.1181 16.0918C1.18362 24.1156 3.4998 31.4284 5.61458 48.5933C12.5631 105.268 -3.14662 107.604 2.08997 162.349C6.52093 208.968 18.8068 215.976 11.1533 244.111C6.92375 259.65 0.0759041 269.198 4.60757 280.675C11.6568 298.348 38.5447 302.918 48.4136 304.543C89.9035 311.551 97.9598 291.035 145.089 290.324C181.141 289.816 190.305 301.598 228.17 295.402C248.713 292.05 261.1 290.019 268.954 279.659C282.852 261.276 263.416 241.368 265.43 188.249C266.437 161.739 271.573 159.81 270.465 133.91C269.257 105.776 263.013 102.83 261.402 77.54C258.582 33.6629 275.702 17.0059 265.43 5.935Z" stroke="url(#paint0_linear)" stroke-width="2" stroke-miterlimit="10"/>
<defs>
<linearGradient id="paint0_linear" x1="0.999987" y1="148.879" x2="274" y2="148.879" gradientUnits="userSpaceOnUse">
<stop stop-color="#FF8BDE"/>
<stop offset="1" stop-color="#669FFF"/>
</linearGradient>
</defs>
</svg>
