<?xml version="1.0" encoding="utf-8"?>
<!-- Generator: Adobe Illustrator 16.0.0, SVG Export Plug-In . SVG Version: 6.00 Build 0)  -->
<!DOCTYPE svg PUBLIC "-//W3C//DTD SVG 1.1//EN" "http://www.w3.org/Graphics/SVG/1.1/DTD/svg11.dtd">
<svg version="1.1" id="Layer_1" xmlns="http://www.w3.org/2000/svg" xmlns:xlink="http://www.w3.org/1999/xlink" x="0px" y="0px"
	 width="275px" height="307px" viewBox="0 0 275 307" enable-background="new 0 0 275 307" xml:space="preserve">
<path fill="none" d="M265.43,5.935C251.334,0,233.33,12.765,186,15c-32.125,1.523-36.923-5.372-91-9.333
	C47.267,2.112,17.379-6.05,6,12.333c-4.935,8.024-3.781,48.835-1.667,66c9.207,75.1,12.667,47,13,84c-0.333,45.333-8,49-10,76.333
	c-4.229,15.539-7.258,30.531-2.726,42.008C19.333,310.334,49.131,296.042,59,297.667c23.333,3.701,37.205-7.622,84.334-8.333
	c36.052-0.508,50.801,13.861,88.666,7.666c11.667-2.667,19.667-1,31.334-8.333c13.897-18.384,5.652-47.214,7.666-100.333
	c1.008-26.51-9.892-27.767-11-53.667c-1.208-28.134,13.278-32.377,11.667-57.667C258.334,32.667,275.702,17.006,265.43,5.935z" stroke="transparent" stroke-width="2" stroke-miterlimit="10"/>
</svg>
