<svg width="401" height="229" viewBox="0 0 401 229" fill="none" xmlns="http://www.w3.org/2000/svg">
<path d="M387.474 4.67293C371.726 -4.02025 341.112 8.30138 271.936 9.96443C224.985 11.0983 224.396 5.73123 145.36 2.78312C75.5953 0.137371 25.1119 -1.45008 8.48029 12.2322C1.26837 18.2041 4.65356 23.6467 7.74439 36.4219C17.9 78.6027 -5.06045 80.3413 2.59303 121.086C9.06905 155.783 27.0253 160.999 15.8394 181.938C9.65778 193.504 -0.350601 200.61 6.2726 209.151C16.5753 222.305 55.873 225.706 70.2968 226.916C130.936 232.132 142.71 216.862 211.592 216.333C264.283 215.955 277.676 224.724 333.017 220.112C363.042 217.618 381.145 216.106 392.626 208.396C412.937 194.713 384.531 179.897 387.474 140.362C388.946 120.632 396.452 119.196 394.833 99.9199C393.067 78.9807 383.942 76.7885 381.587 57.9658C377.466 25.3098 402.487 12.9125 387.474 4.67293Z" stroke-width="2" stroke-miterlimit="10"/>
</svg>
