<svg width="466" height="229" viewBox="0 0 466 229" fill="none" xmlns="http://www.w3.org/2000/svg">
<path d="M450.434 4.67293C432.12 -4.02025 396.519 8.30138 316.074 9.96443C261.474 11.0983 260.789 5.73123 168.877 2.78312C87.7475 0.137371 29.0399 -1.45008 9.69889 12.2322C1.31209 18.2041 5.24875 23.6467 8.8431 36.4219C20.6531 78.6027 -6.04774 80.3413 2.85254 121.086C10.3836 155.783 31.265 160.999 18.2569 181.938C11.0682 193.504 -0.570624 200.61 7.13154 209.151C19.1127 222.305 64.8122 225.706 81.5858 226.916C152.103 232.132 165.796 216.862 245.899 216.333C307.174 215.955 322.749 224.724 387.105 220.112C422.021 217.618 443.074 216.106 456.424 208.396C480.044 194.713 447.011 179.897 450.434 140.362C452.145 120.632 460.875 119.196 458.992 99.9199C456.938 78.9807 446.326 76.7885 443.587 57.9658C438.795 25.3098 467.892 12.9125 450.434 4.67293Z" stroke-width="2" stroke-miterlimit="10"/>
</svg>
