<?xml version="1.0" encoding="utf-8"?>
<!-- Generator: Adobe Illustrator 16.0.0, SVG Export Plug-In . SVG Version: 6.00 Build 0)  -->
<!DOCTYPE svg PUBLIC "-//W3C//DTD SVG 1.1//EN" "http://www.w3.org/Graphics/SVG/1.1/DTD/svg11.dtd">
<svg version="1.1" id="Layer_1" xmlns="http://www.w3.org/2000/svg" xmlns:xlink="http://www.w3.org/1999/xlink" x="0px" y="0px"
	 width="30px" height="30px" viewBox="0 0 30 30" enable-background="new 0 0 30 30" xml:space="preserve">
<circle fill="none" cx="15" cy="15" r="14.5"/>
<path  d="M15.67,15l3.691-3.691c0.186-0.185,0.186-0.485,0-0.67s-0.484-0.185-0.67,0L15,14.331l-3.691-3.691
	c-0.185-0.185-0.485-0.185-0.67,0s-0.185,0.485,0,0.67L14.33,15l-3.691,3.691c-0.185,0.186-0.185,0.486,0,0.67
	c0.185,0.186,0.485,0.186,0.67,0L15,15.67l3.692,3.691c0.186,0.186,0.484,0.186,0.67,0c0.186-0.184,0.186-0.484,0-0.67L15.67,15z"/>
</svg>
