<?xml version="1.0" encoding="utf-8"?>
<!-- Generator: Adobe Illustrator 16.0.0, SVG Export Plug-In . SVG Version: 6.00 Build 0)  -->
<!DOCTYPE svg PUBLIC "-//W3C//DTD SVG 1.1//EN" "http://www.w3.org/Graphics/SVG/1.1/DTD/svg11.dtd">
<svg version="1.1" id="border-line-3" xmlns="http://www.w3.org/2000/svg" xmlns:xlink="http://www.w3.org/1999/xlink" x="0px"
	 y="0px" width="277px" height="128px" viewBox="0 0 277 128" enable-background="new 0 0 277 128" xml:space="preserve">
<path fill="none" d="M258,123.25c-3.25,4.75-23.573,3.174-71.25,2.25c-32.36-0.629-31.775-7.386-86.25-5.75
	c-48.083,1.469-76.704,11.327-88.167,3.733c-4.971-3.314-8.815-9.054-6.685-16.146c7-23.412-5.173-24.471,0.102-47.088
	c4.463-19.259,13.187-22.06,5.478-33.683c-4.26-6.42-11.158-10.364-6.594-15.105c7.101-7.301,34.186-9.189,44.127-9.861
	C92.25,3.25,97.275,17.956,144.75,18.25C181.066,18.46,192.357-0.56,230.5,2c20.693,1.385,32.505,5.602,40.418,9.882
	c13.998,7.595-5.58,15.818-3.551,37.763c1.014,10.951,3.248,12.156,2.133,22.855c-1.217,11.623-4.568,12.433-6.191,22.881
	C260.469,113.506,265.5,114.5,258,123.25z"/>
</svg>
