<svg width="233" height="128" viewBox="0 0 277 128" fill="none" xmlns="http://www.w3.org/2000/svg">
    <symbol id="border-line-3">
        <path d="M267.367 124.961C256.513 129.787 235.413 122.947 187.736 122.024C155.376 121.395 154.97 124.374 100.496 126.01C52.4129 127.479 17.6185 128.36 6.15562 120.765C1.18499 117.451 3.51814 114.43 5.64841 107.338C12.6479 83.9254 -3.17699 82.9603 2.09796 60.3444C6.56138 41.0852 18.9372 38.1901 11.2277 26.5674C6.96715 20.1477 0.0691374 16.2035 4.634 11.4622C11.7349 4.1613 38.8197 2.27314 48.761 1.6018C90.5548 -1.29337 98.6701 7.18234 146.145 7.47606C182.461 7.68585 191.692 2.81861 229.834 5.37811C250.528 6.76275 263.005 7.60194 270.918 11.8818C284.916 19.4763 265.338 27.7003 267.367 49.6449C268.381 60.5962 273.555 61.3934 272.439 72.0929C271.222 83.7156 264.932 84.9324 263.309 95.3802C260.469 113.506 277.714 120.388 267.367 124.961Z" stroke="url(#paint0_linear)" stroke-width="2" stroke-miterlimit="10"/>
        <defs>
            <linearGradient id="paint0_linear" x1="1" y1="65.9091" x2="276" y2="65.9091" gradientUnits="userSpaceOnUse">
                <stop stop-color="#FF8BDE"/>
                <stop offset="1" stop-color="#669FFF"/>
            </linearGradient>
        </defs>
    </symbol>
</svg>

