<svg width="1288" height="355" viewBox="0 0 1288 355" fill="none" xmlns="http://www.w3.org/2000/svg">
<path d="M1249.5 324.525C1171.6 358.833 1054.48 334.146 989.824 327.057C905.143 317.815 926.626 340.603 782.292 343.515C621.064 346.806 603.856 318.068 460.044 325.791C380.16 330.095 386.104 338.831 260.855 348.579C60.2057 364.15 10.8777 344.148 2.22188 314.397C-3.8268 293.508 14.4235 282.874 16.8221 225.778C18.4907 184.887 9.93915 173.367 9.522 132.096C9.41771 122.854 8.89628 62.7196 25.1651 32.0829C56.9728 -27.6716 158.445 15.4985 346.371 24.487C462.13 30.0573 452.431 15.1187 590.403 21.955C695.838 27.2721 721.388 37.0202 809.407 34.6148C839.859 33.8552 849.453 32.336 1000.25 15.6251C1161.38 -2.22529 1242.41 -10.201 1266.19 32.0829C1278.49 53.8578 1282.77 90.3181 1280.79 118.17C1277.76 161.973 1260.14 170.961 1263.06 206.789C1266.39 248.439 1292.36 262.745 1286 289.077C1281.62 307.561 1264.83 317.815 1249.5 324.525Z" stroke-width="2" stroke-miterlimit="10"/>
<defs>
<linearGradient id="paint0_linear" x1="1.00001" y1="182.848" x2="1287" y2="182.848" gradientUnits="userSpaceOnUse">
<stop stop-color="#FF8BDE"/>
<stop offset="1" stop-color="#669FFF"/>
</linearGradient>
</defs>
</svg>
