<?xml version="1.0" encoding="utf-8"?>
<!-- Generator: Adobe Illustrator 16.0.0, SVG Export Plug-In . SVG Version: 6.00 Build 0)  -->
<!DOCTYPE svg PUBLIC "-//W3C//DTD SVG 1.1//EN" "http://www.w3.org/Graphics/SVG/1.1/DTD/svg11.dtd">
<svg version="1.1" id="Layer_1" xmlns="http://www.w3.org/2000/svg" xmlns:xlink="http://www.w3.org/1999/xlink" x="0px" y="0px"
	 width="1288px" height="355px" viewBox="0 0 1288 355" enable-background="new 0 0 1288 355" xml:space="preserve">
<path fill="none" d="M1254.167,335.664c-36.666,40.666-150.333-14.001-263-21.001c-115.666-5-64.541,25.94-208.875,28.853
	c-147.792-12.853-176.313-12.575-320.125-4.853c-79.884,4.305-76.751-13.415-202-3.667c-200.649,15.571-228.333-2-238-23
	c-7.986-22.777-15.779-28.903-13.38-86c1.668-40.891,1.152-52.629,0.735-93.9C9.417,122.854,3.833,46,25.165,32.083
	c58.002-37.417,133.28-16.584,321.206-7.596c115.759,5.57,105.823,5.34,243.796,12.177c105.435,5.317,120.333-35,220-15
	c17.333,5.333,41.87,21.044,192.667,4.333c161.13-17.85,206.667-15,263.355,6.086c21.811,6.914,8.291,58.063,6.312,85.914
	c-3.03,43.803-12.361,52.964-9.44,88.792c3.329,41.65,9.134,56.209,2.773,82.541
	C1261.454,307.813,1260.977,329.827,1254.167,335.664z"/>
</svg>
