<svg width="71" height="71" viewBox="0 0 71 71" fill="none" xmlns="http://www.w3.org/2000/svg">
<g clip-path="url(#clip0)">
<path d="M42.8672 22.0108C42.2425 21.5677 41.3769 21.7144 40.9337 22.3392L40.9068 22.377C40.4636 23.0016 40.6106 23.8672 41.2352 24.3104C41.4788 24.4832 41.7589 24.5664 42.0366 24.5664C42.4707 24.5664 42.8983 24.3631 43.1687 23.982L43.1956 23.9441C43.6388 23.3196 43.4918 22.454 42.8672 22.0108Z" fill="white"/>
<path d="M39.708 25.9419C39.2224 25.3496 38.3486 25.2635 37.7565 25.7493C35.8299 27.3296 33.6407 28.4545 31.2496 29.0929C30.5096 29.2905 30.0699 30.0504 30.2675 30.7904C30.4331 31.4105 30.9936 31.8198 31.6064 31.8198C31.7248 31.8198 31.8452 31.8045 31.965 31.7723C34.7408 31.0311 37.281 29.7261 39.5153 27.8934C40.1075 27.4078 40.1938 26.5339 39.708 25.9419Z" fill="white"/>
<path d="M66.8398 31.405C64.5459 31.405 62.6797 33.2713 62.6797 35.565V36.2585C62.6797 42.074 58.4453 46.916 52.8985 47.8713C53.6229 46.8029 54.0467 45.5147 54.0467 44.1294V43.1662C54.0467 39.4803 51.0479 36.4817 47.362 36.4817C43.6761 36.4817 40.6775 39.4803 40.6775 43.1662V44.1294C40.6775 45.4795 41.081 46.7364 41.772 47.7885C36.443 46.6589 32.4315 41.9191 32.4315 36.2585V35.565C32.4315 33.2713 30.5652 31.405 28.2713 31.405C25.9774 31.405 24.1112 33.2713 24.1112 35.565V36.2585C24.1112 39.0732 24.6839 41.7952 25.7888 44.31H16.6064H16.3532V30.3446C16.3532 29.7256 15.943 29.1814 15.3478 29.0114C7.94423 26.894 2.77344 20.0393 2.77344 12.3418V11.6484C2.77344 10.8838 3.39552 10.2617 4.16016 10.2617C4.92479 10.2617 5.54688 10.8838 5.54688 11.6484V12.3418C5.54688 20.3705 12.0787 26.9023 20.1074 26.9023H26.7813C34.81 26.9023 41.3418 20.3705 41.3418 12.3418V11.6484C41.3418 10.8838 41.9639 10.2617 42.7285 10.2617C43.4932 10.2617 44.1153 10.8838 44.1153 11.6484V12.3418C44.1153 14.4733 43.7313 16.5555 42.9739 18.53C42.6996 19.245 43.0569 20.0471 43.7721 20.3214C44.4868 20.5958 45.2891 20.2382 45.5634 19.5232C46.4429 17.2304 46.8887 14.8142 46.8887 12.3418V11.6484C46.8887 9.35453 45.0225 7.48828 42.7285 7.48828C40.4346 7.48828 38.5684 9.35453 38.5684 11.6484V12.3418C38.5684 18.1571 34.334 22.9991 28.7873 23.9546C29.5117 22.8861 29.9354 21.5981 29.9354 20.213V19.2497C29.9354 15.5638 26.9366 12.5651 23.2507 12.5651C19.5648 12.5651 16.5662 15.5638 16.5662 19.2497V20.213C16.5662 21.5629 16.9697 22.8198 17.6607 23.8718C12.3317 22.7422 8.32031 18.0024 8.32031 12.3418V11.6484C8.32031 9.35453 6.45407 7.48828 4.16016 7.48828C1.86625 7.48828 0 9.35453 0 11.6484V12.3418C0 16.794 1.43137 21.0154 4.13922 24.5495C6.54434 27.6883 9.86761 30.079 13.5799 31.3608V45.6965C13.5799 46.4623 14.2007 47.0833 14.9666 47.0833H15.2198V69.6133C15.2198 70.379 15.8406 71 16.6065 71C17.3724 71 17.9932 70.379 17.9932 69.6133V47.0833H27.2787C27.5818 47.5546 27.9056 48.016 28.2505 48.4661C28.3423 48.5859 28.4379 48.7024 28.5323 48.82V69.6133C28.5323 70.379 29.1531 71 29.919 71C30.6849 71 31.3057 70.379 31.3057 69.6133V51.6539C33.1951 53.2374 35.3669 54.4748 37.6912 55.2774V69.6133C37.6912 70.379 38.312 71 39.0779 71C39.8438 71 40.4646 70.379 40.4646 69.6133V54.2612C40.4646 53.6422 40.0544 53.098 39.4592 52.928C32.0555 50.8106 26.8847 43.9561 26.8847 36.2585V35.565C26.8847 34.8004 27.5068 34.1785 28.2715 34.1785C29.0361 34.1785 29.6582 34.8004 29.6582 35.565V36.2585C29.6582 44.2872 36.19 50.8191 44.2187 50.8191H50.8926C58.9213 50.8191 65.4531 44.2872 65.4531 36.2585V35.565C65.4531 34.8004 66.0752 34.1785 66.8398 34.1785C67.6045 34.1785 68.2266 34.8004 68.2266 35.565V36.2585C68.2266 44.0982 62.936 50.9862 55.3609 53.0088C54.754 53.1708 54.3319 53.7205 54.3319 54.3486V64.3899C54.3319 65.1557 54.9528 65.7766 55.7186 65.7766C56.4845 65.7766 57.1054 65.1557 57.1054 64.3899V55.3842C65.3389 52.7093 71 44.9933 71 36.2585V35.565C71 33.2713 69.1338 31.405 66.8398 31.405ZM19.3396 19.2496C19.3396 17.0928 21.0941 15.3384 23.2507 15.3384C25.4073 15.3384 27.1619 17.0928 27.1619 19.2496V20.2128C27.1619 22.3694 25.4075 24.1239 23.2507 24.1239C21.0941 24.1239 19.3396 22.3694 19.3396 20.2128V19.2496ZM51.2732 44.1294C51.2732 46.286 49.5188 48.0405 47.362 48.0405C45.2054 48.0405 43.4509 46.286 43.4509 44.1294V43.1662C43.4509 41.0096 45.2054 39.2551 47.362 39.2551C49.5186 39.2551 51.2732 41.0096 51.2732 43.1662V44.1294Z" fill="white"/>
<path d="M56.6987 68.6329C56.4407 68.3748 56.083 68.2266 55.7183 68.2266C55.3536 68.2266 54.9958 68.3748 54.7379 68.6329C54.4799 68.8908 54.3315 69.2486 54.3315 69.6133C54.3315 69.978 54.4799 70.3358 54.7379 70.5936C54.9958 70.8515 55.3536 71 55.7183 71C56.083 71 56.4407 70.8516 56.6987 70.5936C56.9566 70.3358 57.105 69.978 57.105 69.6133C57.105 69.2486 56.9566 68.8908 56.6987 68.6329Z" fill="white"/>
<path d="M23.2505 51.8633C22.4846 51.8633 21.8638 52.4843 21.8638 53.25V69.6133C21.8638 70.379 22.4846 71 23.2505 71C24.0164 71 24.6372 70.379 24.6372 69.6133V53.25C24.6372 52.4843 24.0164 51.8633 23.2505 51.8633Z" fill="white"/>
<path d="M64.6211 11.3711C63.8552 11.3711 63.2344 11.9921 63.2344 12.7578V14.4815C63.2344 15.2472 63.8552 15.8682 64.6211 15.8682C65.387 15.8682 66.0078 15.2472 66.0078 14.4815V12.7578C66.0078 11.9921 65.387 11.3711 64.6211 11.3711Z" fill="white"/>
<path d="M64.6211 19.6318C63.8552 19.6318 63.2344 20.2528 63.2344 21.0186V22.7422C63.2344 23.508 63.8552 24.129 64.6211 24.129C65.387 24.129 66.0078 23.508 66.0078 22.7422V21.0186C66.0078 20.2528 65.387 19.6318 64.6211 19.6318Z" fill="white"/>
<path d="M69.6133 16.3633H67.8896C67.1238 16.3633 66.5029 16.9843 66.5029 17.75C66.5029 18.5157 67.1238 19.1367 67.8896 19.1367H69.6133C70.3792 19.1367 71.0001 18.5157 71.0001 17.75C71.0001 16.9843 70.3792 16.3633 69.6133 16.3633Z" fill="white"/>
<path d="M61.3526 16.3633H59.6289C58.863 16.3633 58.2422 16.9843 58.2422 17.75C58.2422 18.5157 58.863 19.1367 59.6289 19.1367H61.3526C62.1185 19.1367 62.7393 18.5157 62.7393 17.75C62.7393 16.9843 62.1185 16.3633 61.3526 16.3633Z" fill="white"/>
<path d="M30.4902 0C29.7243 0 29.1035 0.620973 29.1035 1.38672V3.11041C29.1035 3.87616 29.7243 4.49713 30.4902 4.49713C31.2561 4.49713 31.877 3.87616 31.877 3.11041V1.38672C31.877 0.620973 31.2561 0 30.4902 0Z" fill="white"/>
<path d="M30.4902 8.26074C29.7243 8.26074 29.1035 8.88171 29.1035 9.64746V11.3712C29.1035 12.1369 29.7243 12.7579 30.4902 12.7579C31.2561 12.7579 31.877 12.1369 31.877 11.3712V9.64746C31.877 8.88171 31.2561 8.26074 30.4902 8.26074Z" fill="white"/>
<path d="M35.4825 4.99219H33.7588C32.9929 4.99219 32.3721 5.61316 32.3721 6.37891C32.3721 7.14465 32.9929 7.76562 33.7588 7.76562H35.4825C36.2484 7.76562 36.8692 7.14465 36.8692 6.37891C36.8692 5.61316 36.2484 4.99219 35.4825 4.99219Z" fill="white"/>
<path d="M27.2217 4.99219H25.498C24.7322 4.99219 24.1113 5.61316 24.1113 6.37891C24.1113 7.14465 24.7322 7.76562 25.498 7.76562H27.2217C27.9876 7.76562 28.6085 7.14465 28.6085 6.37891C28.6085 5.61316 27.9876 4.99219 27.2217 4.99219Z" fill="white"/>
</g>
<defs>
<clipPath id="clip0">
<rect width="71" height="71" fill="white"/>
</clipPath>
</defs>
</svg>
