<svg width="55" height="37" viewBox="0 0 55 37" fill="none" xmlns="http://www.w3.org/2000/svg">
<path d="M0.806554 15.05H2.38019C2.85767 15.05 3.30547 14.7949 3.54884 14.3844L5.14506 11.692C5.37219 11.3089 5.24572 10.8141 4.86255 10.587C4.47928 10.3596 3.98459 10.4862 3.75747 10.8694L2.23534 13.437H0.806554C0.361121 13.437 0 13.798 0 14.2435C0 14.6891 0.361121 15.05 0.806554 15.05Z" fill="url(#paint0_linear)"/>
<path d="M54.118 30.8437H51.632C51.4608 30.8437 51.294 30.8982 51.1558 30.9992C48.1669 33.1856 44.0787 33.2896 40.9825 31.2584L40.5519 30.9759C40.4204 30.8896 40.2667 30.8437 40.1095 30.8437H34.1512C33.9075 30.8437 33.6769 30.9538 33.5238 31.1434L30.8044 34.5093C30.5422 34.834 30.1524 35.0202 29.7352 35.0202C28.9772 35.0202 28.3605 34.4035 28.3605 33.6456V32.9233C28.3605 32.4852 28.4858 32.0586 28.7226 31.6897L30.4635 28.9792C31.1356 27.9329 32.1624 27.1919 33.3549 26.8927C37.5355 25.8439 40.2839 23.9682 41.5238 21.3173C43.1019 17.9438 41.744 14.4153 41.0869 13.0549C40.8539 12.5724 40.3964 12.2455 39.8631 12.1805L38.4828 12.0126C37.6648 11.9131 36.9025 11.5761 36.2783 11.038L34.8514 9.80792C34.5267 9.52831 34.0403 9.55111 33.7433 9.85975C33.1381 10.4893 32.364 10.9038 31.505 11.0584C31.0339 11.1429 30.692 11.5516 30.692 12.0302V15.173C30.692 15.8159 30.1691 16.3389 29.5261 16.3389C28.8832 16.3389 28.3602 15.8159 28.3602 15.173V10.6252C28.3602 9.78458 28.7372 9.00147 29.3941 8.477L31.8112 6.54783C33.5581 5.15356 36.0064 5.01032 37.9037 6.19187L42.0823 8.7936C42.4603 9.02879 42.9578 8.91329 43.1933 8.53518C43.4286 8.15706 43.313 7.65958 42.9349 7.42418L38.7563 4.82256C36.5392 3.44184 33.7457 3.4483 31.5489 4.77094C33.2673 2.39784 36.3461 1.37986 39.1865 2.34299L40.6647 2.84413C41.0861 2.98727 41.5446 2.76122 41.6875 2.33934C41.8305 1.91745 41.6046 1.45955 41.1827 1.31652L39.7046 0.815379C35.8393 -0.495325 31.6169 1.15478 29.6648 4.73943L28.2545 7.329C27.9885 7.55903 27.7535 7.81605 27.5538 8.09577C27.3541 7.81605 27.119 7.55892 26.8529 7.329L25.4427 4.73943C23.4905 1.15478 19.2678 -0.495863 15.4029 0.815379L11.2209 2.23341C9.32952 2.87467 7.72696 4.17408 6.70822 5.89205L5.51065 7.91262C5.28342 8.29579 5.40989 8.79059 5.79306 9.01771C5.9221 9.09428 6.06373 9.13063 6.20354 9.13063C6.47906 9.13063 6.74748 8.98943 6.89814 8.73531L8.09593 6.71495C8.91829 5.32789 10.2121 4.27894 11.739 3.76113L15.921 2.3431C18.7616 1.37986 21.8404 2.39795 23.5588 4.77104C21.3619 3.4484 18.5684 3.44216 16.3513 4.82256L12.1727 7.42439C11.7946 7.6598 11.6789 8.15728 11.9144 8.53539C12.1498 8.91361 12.647 9.02922 13.0254 8.79381L17.204 6.19198C19.1012 5.01086 21.5496 5.15367 23.2965 6.54804L25.7117 8.47603C25.7129 8.477 25.7141 8.47807 25.7154 8.47893C26.3713 9.0033 26.7474 9.78544 26.7474 10.6254V15.1732C26.7474 15.8161 26.2245 16.3391 25.5816 16.3391C24.9387 16.3391 24.4157 15.8161 24.4157 15.1732V12.0306C24.4157 11.5524 24.0742 11.1437 23.6034 11.0587C22.7439 10.904 21.9698 10.4894 21.3646 9.85997C21.0677 9.55111 20.5811 9.52853 20.2566 9.80814L18.8298 11.0382C18.2055 11.5763 17.4431 11.9135 16.6252 12.0128L15.2451 12.1807C14.7119 12.2454 14.2545 12.5722 14.0212 13.0551C13.353 14.4387 11.9779 18.0243 13.6368 21.4266C13.7765 21.7132 14.0637 21.8799 14.3624 21.8799C14.481 21.8799 14.6016 21.8535 14.7154 21.798C15.1157 21.6029 15.2821 21.12 15.0868 20.7196C13.7109 17.8977 15.0111 14.7223 15.463 13.7793L16.82 13.6143C17.9565 13.476 19.0158 13.0078 19.8831 12.2601L20.7698 11.4958C21.3712 11.9745 22.0591 12.3247 22.8029 12.5296V15.1734C22.8029 16.7058 24.0495 17.9524 25.5818 17.9524C26.3523 17.9524 27.0504 17.637 27.5542 17.1289C28.058 17.6371 28.7562 17.9524 29.5266 17.9524C31.059 17.9524 32.3056 16.7058 32.3056 15.1734V12.5296C33.0493 12.3246 33.7373 11.9744 34.3385 11.4958L35.2252 12.2602C36.0924 13.0078 37.1517 13.476 38.2883 13.6143L39.6453 13.7793C41.3485 17.3254 40.3959 19.9218 40.0628 20.6341C39.0385 22.824 36.6496 24.4034 32.9625 25.3283C31.3705 25.7277 30.0011 26.7148 29.1064 28.1078L27.5542 30.5246L26.0019 28.1076C25.1071 26.7147 23.7377 25.7277 22.1458 25.3283C20.0268 24.7967 18.3176 24.0382 17.0658 23.0738C16.7127 22.8018 16.2064 22.8675 15.9346 23.2205C15.6627 23.5733 15.7284 24.0797 16.0812 24.3517C17.5097 25.4521 19.418 26.3072 21.7533 26.8929C22.9457 27.1921 23.9726 27.9331 24.6447 28.9793L26.3857 31.6899C26.6226 32.0588 26.7478 32.4853 26.7478 32.9235V33.6458C26.7478 34.4037 26.1311 35.0204 25.3731 35.0204C24.9558 35.0204 24.5661 34.8342 24.3038 34.5097L21.5844 31.1436C21.4313 30.954 21.2007 30.8439 20.957 30.8439H14.9987C14.8415 30.8439 14.6877 30.8898 14.5563 30.9761L14.1257 31.2586C11.0294 33.2897 6.94116 33.1856 3.9525 30.9994C3.81431 30.8984 3.64751 30.8439 3.47631 30.8439H0.88243C0.436997 30.8439 0.0758762 31.2049 0.0758762 31.6505C0.0758762 32.096 0.436997 32.457 0.88243 32.457H3.21832C6.72554 34.8865 11.4299 34.9564 15.0102 32.6073L15.2393 32.457H20.5714L23.0487 35.5234C23.6187 36.2289 24.4658 36.6335 25.3726 36.6335C26.2325 36.6335 27.0082 36.2678 27.5539 35.6844C28.0995 36.2678 28.8752 36.6335 29.7351 36.6335C30.642 36.6335 31.4891 36.2288 32.0591 35.5233L34.5364 32.457H39.8685L40.0975 32.6073C43.6782 34.9563 48.3823 34.8863 51.8895 32.457H54.1179C54.5634 32.457 54.9245 32.096 54.9245 31.6505C54.9245 31.2049 54.5636 30.8437 54.118 30.8437Z" fill="url(#paint1_linear)"/>
<path d="M43.8593 3.9504C45.1867 4.51919 46.2768 5.47501 47.0117 6.71473L51.5587 14.3844C51.8022 14.7949 52.25 15.05 52.7273 15.05H54.1934C54.6389 15.05 54.9999 14.689 54.9999 14.2434C54.9999 13.7979 54.6389 13.4369 54.1934 13.4369H52.8723L48.3992 5.89205C47.4886 4.35616 46.1385 3.17192 44.4945 2.46764C44.0846 2.29191 43.6107 2.48194 43.4354 2.89124C43.2602 3.30086 43.45 3.77501 43.8593 3.9504Z" fill="url(#paint2_linear)"/>
<defs>
<linearGradient id="paint0_linear" x1="2.14674e-07" y1="19.0503" x2="54.9999" y2="19.0503" gradientUnits="userSpaceOnUse">
<stop stop-color="#FF8BDE"/>
<stop offset="1" stop-color="#669FFF"/>
</linearGradient>
<linearGradient id="paint1_linear" x1="2.14674e-07" y1="19.0503" x2="54.9999" y2="19.0503" gradientUnits="userSpaceOnUse">
<stop stop-color="#FF8BDE"/>
<stop offset="1" stop-color="#669FFF"/>
</linearGradient>
<linearGradient id="paint2_linear" x1="2.14674e-07" y1="19.0503" x2="54.9999" y2="19.0503" gradientUnits="userSpaceOnUse">
<stop stop-color="#FF8BDE"/>
<stop offset="1" stop-color="#669FFF"/>
</linearGradient>
</defs>
</svg>
