<svg width="75" height="75" viewBox="0 0 75 75" fill="none" xmlns="http://www.w3.org/2000/svg">
<path d="M50.6635 41.2862C53.469 39.9866 56.2623 39.0386 59.0063 38.4579C59.7977 38.2905 60.3035 37.5131 60.1361 36.7216C59.9687 35.9302 59.1922 35.4242 58.3997 35.5918C55.2235 36.2639 51.9977 37.3878 48.7715 38.9412C46.9694 36.7918 44.9063 34.5444 42.6804 32.3186C40.3152 29.9535 37.9253 27.7706 35.6549 25.8912C37.6195 23.4069 39.2231 20.6255 40.4363 17.5814C42.3279 12.8352 43.287 7.4126 43.287 1.46387C43.287 0.654834 42.6311 -0.000976562 41.8222 -0.000976562C41.0133 -0.000976562 40.3573 0.654834 40.3573 1.46387C40.3573 10.6297 38.0071 18.2155 33.3659 24.0693C32.4901 23.4012 31.6409 22.7872 30.83 22.2403C26.4886 19.3123 23.9029 18.626 22.4577 20.0193C22.4474 20.0289 22.4367 20.0382 22.4268 20.048C22.4253 20.0495 22.4238 20.0508 22.4224 20.0522C22.4215 20.053 22.4208 20.0541 22.4199 20.0548C22.0497 20.4258 21.8212 20.8745 21.7346 21.4099L0.113981 72.9679C-0.115999 73.5163 0.00851242 74.1496 0.429069 74.5701C0.70944 74.8503 1.08415 74.9992 1.4653 74.9992C1.65602 74.9992 1.8485 74.962 2.03146 74.8852C2.03556 74.8834 2.03146 74.8852 2.03556 74.8834L53.5894 53.2641C54.0782 53.185 54.4935 52.9852 54.8446 52.6692C54.8701 52.648 54.894 52.6254 54.9179 52.6029C54.9273 52.5937 54.9374 52.586 54.9466 52.5767C54.9481 52.5752 54.9492 52.5736 54.9506 52.5723C54.9607 52.5623 54.97 52.5515 54.9797 52.5411C56.3729 51.0957 55.6866 48.5101 52.7586 44.169C52.1397 43.2515 51.4364 42.2855 50.6635 41.2862ZM11.6184 64.5635C11.3127 66.4697 10.6329 67.7227 10.3058 68.2383L4.20046 70.7986L10.401 56.0127C11.6142 59.0539 12.0347 61.9672 11.6184 64.5635ZM20.6325 59.607C20.0419 62.9738 18.4754 64.5967 18.0299 64.9993L14.1699 66.6179C15.028 63.5631 15.2536 58.7141 11.9373 52.349L16.3272 41.8814C20.8818 50.5167 21.2236 56.2383 20.6325 59.607ZM25.8577 61.7164L22.7004 63.0406C23.0013 62.2805 23.2666 61.4148 23.4588 60.4338C24.6312 54.4495 22.7173 47.0502 17.773 38.4337L19.3579 34.6543C20.6124 36.1638 22.0418 38.3003 22.6207 39.6474C22.859 40.2021 23.3994 40.5343 23.9672 40.5343C24.1601 40.5343 24.3564 40.4958 24.5449 40.4149C25.2882 40.0955 25.6317 39.2341 25.3124 38.4907C24.4534 36.4921 22.2753 33.3822 20.6092 31.6706L23.031 25.8954C23.4552 26.6732 23.9807 27.5255 24.6109 28.4598C25.0447 29.1031 25.5201 29.7701 26.0313 30.4556C31.0421 38.059 30.9287 45.8416 29.9492 51.0343C28.9075 56.5575 26.677 60.6012 25.8577 61.7164ZM37.1448 56.9833L30.1906 59.8996C31.1947 57.697 32.2191 54.8056 32.8279 51.5775C33.5079 47.9719 33.8069 43.2305 32.5487 38.1105C33.2426 38.8435 33.9564 39.5781 34.6887 40.3104C36.8798 42.5013 39.0914 44.5344 41.2102 46.3162C41.0001 53.2322 37.828 56.3836 37.1448 56.9833ZM42.1941 54.8659C42.9782 53.2436 43.6707 51.1528 43.9795 48.5415C44.8636 49.2165 45.721 49.8367 46.5393 50.3885C47.474 51.0189 48.3261 51.5441 49.1042 51.9683L42.1941 54.8659ZM47.3463 47.3847C44.1617 45.1284 40.4022 41.8802 36.7604 38.2385C33.1188 34.5969 29.8705 30.8374 27.6144 27.6528C25.4325 24.5732 24.8445 23.0007 24.6897 22.3196C25.3708 22.4746 26.9433 23.0625 30.0229 25.2443C30.4796 25.5679 30.9489 25.9137 31.4271 26.2763C31.3244 26.382 31.223 26.4888 31.1186 26.5933C30.5465 27.1653 30.5465 28.0928 31.1186 28.665C31.4047 28.9509 31.7795 29.094 32.1544 29.094C32.5292 29.094 32.9042 28.9509 33.1902 28.665C33.3741 28.481 33.5553 28.2945 33.7345 28.1063C35.9565 29.9431 38.306 32.0876 40.6089 34.3905C42.5892 36.3708 44.4511 38.3853 46.1026 40.3237C45.8381 40.4706 45.5737 40.62 45.3092 40.7727C44.6086 41.1772 44.3685 42.0731 44.7731 42.7736C45.0444 43.2436 45.5367 43.5063 46.0431 43.5063C46.2916 43.5063 46.5435 43.4429 46.7741 43.3098C47.1807 43.0748 47.5877 42.8494 47.9944 42.6292C48.6309 43.4375 49.2215 44.2234 49.7549 44.9763C51.9369 48.0559 52.5248 49.6284 52.6796 50.3095C51.9982 50.1544 50.4257 49.5664 47.3463 47.3847Z" fill="white"/>
<path d="M26.4964 42.2656C26.1643 41.5277 25.2973 41.1987 24.5594 41.5308C23.8446 41.8525 23.5135 42.6766 23.7957 43.3986C24.0174 43.9791 24.5719 44.3405 25.1638 44.3405C25.3244 44.3405 25.4876 44.3138 25.6478 44.2579C26.4113 43.9907 26.8138 43.155 26.5465 42.3914C26.5326 42.3517 26.5137 42.3039 26.4964 42.2656Z" fill="white"/>
<path d="M54.702 22.6604C54.988 22.9464 55.3629 23.0895 55.7378 23.0895C56.1128 23.0895 56.4875 22.9464 56.7735 22.6604C60.0464 19.3875 65.349 17.8875 69.2205 17.5751C70.0269 17.51 70.6277 16.8034 70.5627 15.9971C70.4975 15.1907 69.7925 14.5922 68.9848 14.6549C64.5942 15.0092 58.5366 16.7542 54.702 20.5888C54.1299 21.1609 54.1299 22.0884 54.702 22.6604Z" fill="white"/>
<path d="M73.9146 14.936C73.8732 14.9249 73.831 14.9139 73.7884 14.9032C73.0033 14.7075 72.2085 15.1858 72.013 15.9708C71.8175 16.7558 72.2955 17.5508 73.0805 17.7462L73.1554 17.7655C73.2825 17.7996 73.4103 17.816 73.536 17.816C74.1826 17.816 74.7744 17.3846 74.9498 16.7304C75.1595 15.9491 74.6961 15.1458 73.9146 14.936Z" fill="white"/>
<path d="M10.7676 12.249H12.2324V13.7139C12.2324 14.5228 12.8882 15.1787 13.6973 15.1787C14.5063 15.1787 15.1621 14.5228 15.1621 13.7139V12.249H16.627C17.436 12.249 18.0918 11.5931 18.0918 10.7842C18.0918 9.9753 17.436 9.31934 16.627 9.31934H15.1621V7.85449C15.1621 7.04561 14.5063 6.38965 13.6973 6.38965C12.8882 6.38965 12.2324 7.04561 12.2324 7.85449V9.31934H10.7676C9.95854 9.31934 9.30273 9.9753 9.30273 10.7842C9.30273 11.5932 9.95854 12.249 10.7676 12.249Z" fill="white"/>
<path d="M45.0444 26.4582H46.5094V27.9229C46.5094 28.7319 47.1654 29.3877 47.9743 29.3877C48.7833 29.3877 49.4391 28.7319 49.4391 27.9229V26.4582H50.9038C51.7127 26.4582 52.3687 25.8022 52.3687 24.9933C52.3687 24.1844 51.7127 23.5285 50.9038 23.5285H49.4391V22.0635C49.4391 21.2546 48.7833 20.5986 47.9743 20.5986C47.1654 20.5986 46.5094 21.2546 46.5094 22.0635V23.5285H45.0444C44.2355 23.5285 43.5796 24.1844 43.5796 24.9933C43.5796 25.8023 44.2355 26.4582 45.0444 26.4582Z" fill="white"/>
<path d="M65.4058 61.1748H63.9409V59.71C63.9409 58.9011 63.285 58.2451 62.4761 58.2451C61.6672 58.2451 61.0112 58.9011 61.0112 59.71V61.1748H59.5464C58.7375 61.1748 58.0815 61.8308 58.0815 62.6396C58.0815 63.4485 58.7375 64.1045 59.5464 64.1045H61.0112V65.5693C61.0112 66.3782 61.6672 67.0342 62.4761 67.0342C63.285 67.0342 63.9409 66.3782 63.9409 65.5693V64.1045H65.4058C66.2146 64.1045 66.8706 63.4485 66.8706 62.6396C66.8706 61.8308 66.2148 61.1748 65.4058 61.1748Z" fill="white"/>
<path d="M57.1245 8.78906C59.5477 8.78906 61.519 6.81768 61.519 4.39453C61.519 1.97139 59.5477 0 57.1245 0C54.7014 0 52.73 1.97139 52.73 4.39453C52.73 6.81768 54.7014 8.78906 57.1245 8.78906ZM57.1245 2.92969C57.9322 2.92969 58.5894 3.58682 58.5894 4.39453C58.5894 5.20225 57.9322 5.85938 57.1245 5.85938C56.3168 5.85938 55.6597 5.20225 55.6597 4.39453C55.6597 3.58682 56.3168 2.92969 57.1245 2.92969Z" fill="white"/>
<path d="M66.2847 25.4326C63.8615 25.4326 61.8901 27.404 61.8901 29.8271C61.8901 32.2503 63.8615 34.2217 66.2847 34.2217C68.7078 34.2217 70.6792 32.2503 70.6792 29.8271C70.6792 27.404 68.7077 25.4326 66.2847 25.4326ZM66.2847 31.292C65.477 31.292 64.8198 30.6349 64.8198 29.8271C64.8198 29.0194 65.477 28.3623 66.2847 28.3623C67.0924 28.3623 67.7495 29.0194 67.7495 29.8271C67.7495 30.6349 67.0924 31.292 66.2847 31.292Z" fill="white"/>
<path d="M29.0776 14.0068C31.5008 14.0068 33.4722 12.0355 33.4722 9.61231C33.4722 7.18916 31.5008 5.21777 29.0776 5.21777C26.6545 5.21777 24.6831 7.18916 24.6831 9.61231C24.6831 12.0355 26.6545 14.0068 29.0776 14.0068ZM29.0776 8.14746C29.8854 8.14746 30.5425 8.80459 30.5425 9.61231C30.5425 10.42 29.8854 11.0772 29.0776 11.0772C28.2699 11.0772 27.6128 10.42 27.6128 9.61231C27.6128 8.80474 28.2699 8.14746 29.0776 8.14746Z" fill="white"/>
<path d="M65.7993 43.0752C65.7993 42.2684 65.1413 41.6104 64.3345 41.6104C63.5276 41.6104 62.8696 42.2684 62.8696 43.0752C62.8696 43.882 63.5276 44.54 64.3345 44.54C65.1413 44.54 65.7993 43.8819 65.7993 43.0752Z" fill="white"/>
<path d="M49.1001 13.9248C49.9069 13.9248 50.5649 13.2668 50.5649 12.46C50.5649 11.6531 49.9069 10.9951 49.1001 10.9951C48.2933 10.9951 47.6353 11.6531 47.6353 12.46C47.6354 13.2667 48.2934 13.9248 49.1001 13.9248Z" fill="white"/>
<path d="M68.7292 52.5967C67.9223 52.5967 67.2642 53.2548 67.2642 54.0617C67.2642 54.8685 67.9223 55.5265 68.7292 55.5265C69.5358 55.5265 70.194 54.8685 70.194 54.0617C70.194 53.2548 69.5358 52.5967 68.7292 52.5967Z" fill="white"/>
<path d="M20.3896 4.39453C21.1965 4.39453 21.8545 3.73652 21.8545 2.92969C21.8545 2.12285 21.1965 1.46484 20.3896 1.46484C19.5828 1.46484 18.9248 2.12285 18.9248 2.92969C18.9248 3.73652 19.5828 4.39453 20.3896 4.39453Z" fill="white"/>
</svg>
