<svg width="74" height="75" viewBox="0 0 74 75" fill="none" xmlns="http://www.w3.org/2000/svg">
<path d="M73.9515 40.8349C73.7669 39.8705 72.9926 39.1284 72.0213 38.9849L64.1699 37.8132L62.8626 29.2132C62.7231 28.196 61.9293 27.3928 60.9139 27.2413C59.8985 27.0897 58.9048 27.6262 58.4744 28.5583L54.7127 36.4035L46.8662 35.2281C45.8945 35.0814 44.9366 35.5673 44.481 36.438C43.9896 37.3246 44.1138 38.4251 44.7905 39.1797L47.5396 42.2384C44.9706 45.4525 38.0849 55.4671 37.113 71.3771C37.0288 72.4637 37.6551 73.4806 38.6633 73.8944C39.621 74.2931 40.7264 74.0296 41.4013 73.2419C45.1482 69.003 53.7754 59.2547 61.3937 57.163L62.7355 58.5628C63.1621 59.0168 63.7566 59.2755 64.3796 59.2781C64.7255 59.2771 65.0668 59.1987 65.3786 59.0487C66.3079 58.5996 66.8448 57.6055 66.7106 56.5821L65.5549 47.8081L72.8538 43.3681C73.7221 42.8438 74.1627 41.8269 73.9515 40.8349ZM39.5748 71.5264C40.049 61.6439 43.3975 52.1149 49.2096 44.1081L50.4429 45.487L46.8046 53.6048C46.3762 54.5452 46.6001 55.6544 47.3596 56.3551C48.0858 57.0312 49.1677 57.1557 50.0285 56.6622L57.1152 52.6958L59.4906 55.1748C51.5171 58.0793 43.2513 67.4181 39.5748 71.5264ZM64.2723 45.6979C63.4653 46.1931 63.0244 47.1159 63.1462 48.0548L64.2945 56.6302L58.8049 50.8989C58.0811 50.1442 56.9388 49.9739 56.0262 50.4845L49.196 54.3078L52.7011 46.4946C53.0906 45.6329 52.938 44.6228 52.3114 43.9145L49.9792 41.3245C49.9705 41.3159 49.9668 41.3048 49.9582 41.2961H49.9508L46.7269 37.7108L54.4623 38.8652C55.4772 39.013 56.4687 38.4776 56.9019 37.548L60.4946 30.0481L61.7439 38.2658C61.8869 39.282 62.6794 40.0841 63.6938 40.2392L71.3763 41.3849L64.2723 45.6979Z" fill="white"/>
<path d="M2.2074 39.8101L3.6874 39.8632C3.78854 45.497 6.2922 62.1741 18.7217 73.4468C19.4774 74.146 20.5976 74.2785 21.4955 73.7749C22.4502 73.2421 22.9618 72.1624 22.7695 71.0862C21.8038 65.5362 19.0695 47.2188 23.5219 40.2257H24.7552C24.7046 41.3148 24.6701 42.4248 24.6701 43.5656C24.5685 53.1819 25.6295 62.7753 27.8299 72.137C28.0947 73.2735 29.1075 74.0778 30.2744 74.0783C30.3447 74.0783 30.4137 74.0783 30.4853 74.0696C31.7279 73.9804 32.7165 72.9923 32.8064 71.7497C33.6858 62.2531 36.7321 39.7238 46.2115 30.0631L46.9145 31.2163C47.3218 31.8991 48.0582 32.3174 48.8533 32.3176C49.0347 32.317 49.2154 32.2963 49.3923 32.256C50.3973 32.017 51.1358 31.1603 51.2238 30.1309L51.9773 21.3126L60.0569 18.5425C61.0137 18.2159 61.6593 17.3199 61.6664 16.309C61.6939 15.3299 61.1007 14.4401 60.1864 14.089L52.7617 11.2548L53.3291 2.57332C53.4102 1.55031 52.8071 0.596296 51.8482 0.230811C50.8893 -0.134674 49.8042 0.175908 49.1838 0.99342L43.8275 7.84829L36.409 5.02025C35.4907 4.66862 34.4504 4.93859 33.819 5.69242C33.1488 6.4528 33.0339 7.5543 33.5328 8.43659L34.5072 10.1522C32.2095 13.0431 26.9838 20.9426 25.2448 34.4932L21.0799 31.405L22.7338 23.9384C22.9463 22.9929 22.5357 22.0168 21.7113 21.5075C20.9233 20.9934 19.8961 21.035 19.1522 21.6111L13.5084 25.9783L7.10867 21.4668C6.31179 20.8995 5.23755 20.9207 4.46363 21.5189C3.68971 22.117 3.3985 23.1513 3.7466 24.0654L6.50064 31.3939L0.854436 35.7598C0.111643 36.3362 -0.185239 37.3194 0.114436 38.2105C0.39987 39.1353 1.24013 39.7775 2.2074 39.8101ZM20.3744 71.619C8.65157 60.9889 6.307 44.9716 6.15654 39.9532L9.85654 40.0864L12.8572 47.4963C13.2031 48.3633 14.0414 48.933 14.9749 48.9355H15.1241C16.0735 48.8834 16.8774 48.2172 17.1048 47.294L18.94 40.2319H20.7321C17.0555 47.9846 18.8327 62.8648 20.3744 71.619ZM43.0566 10.1916C44.0158 10.5542 45.0991 10.2437 45.7206 9.42819L50.8377 2.88412L50.2951 11.1783C50.2171 12.2004 50.8186 13.1528 51.7751 13.5216L59.0345 16.2892L51.1707 18.9841C50.2772 19.2956 49.6496 20.1023 49.5674 21.045L48.8484 29.6647L44.713 22.895C44.2956 22.2125 43.5533 21.7962 42.7532 21.7961C42.5279 21.7959 42.3038 21.8296 42.0885 21.896L34.5972 24.1628L39.697 17.2833C40.2626 16.5254 40.3307 15.5061 39.8709 14.6797L37.112 9.81299C37.0843 9.75282 37.0518 9.69507 37.0145 9.64032L35.7467 7.40799L43.0566 10.1916ZM37.7151 15.8082L32.4117 22.9616C31.7921 23.7888 31.7737 24.9204 32.3661 25.7674C32.9308 26.5829 33.9603 26.9362 34.9068 26.6394L42.6768 24.2849L44.8844 27.9011C34.8833 37.5359 31.4818 59.2413 30.3311 71.5968L30.2213 71.5339C28.07 62.3694 27.0331 52.9787 27.1331 43.5656C27.1331 42.3323 27.1725 41.1298 27.2354 39.9606C27.7471 39.7076 28.1368 39.261 28.3183 38.7198C28.6185 37.7958 28.3014 36.783 27.5277 36.1952C28.8844 23.4919 33.5316 15.6676 35.8342 12.493L37.7151 15.8082ZM8.15577 33.2303C8.93145 32.6286 9.21984 31.5889 8.86494 30.6736L6.33537 23.9384L12.2097 28.075C13.0066 28.6503 14.0868 28.6332 14.8651 28.033L20.2067 23.9001L18.6391 30.9782C18.4474 31.862 18.7921 32.7759 19.5197 33.3129L25.5001 37.7529H18.7168C17.7149 37.7531 16.8394 38.4298 16.5868 39.3994L14.8824 45.9608L12.0876 39.0541C11.7497 38.2152 10.9514 37.6524 10.0477 37.616L2.80187 37.3546L8.15577 33.2303Z" fill="white"/>
</svg>
