<svg width="42" height="55" viewBox="0 0 42 55" fill="none" xmlns="http://www.w3.org/2000/svg">
<path d="M37.9288 41.186L36.7253 40.7758V15.1869C36.7252 6.81281 29.6709 0 20.9999 0C12.329 0 5.27466 6.81281 5.27466 15.1868V25.4888C5.27466 31.757 7.43339 36.3923 9.44753 39.3534L4.07121 41.186C1.6445 42.0131 0.0141602 44.2386 0.0141602 46.7239V53.2903C0.0141602 53.7278 0.381441 54.0825 0.834472 54.0825C1.2875 54.0825 1.65478 53.7278 1.65478 53.2903V46.7239C1.65478 44.9092 2.84533 43.2842 4.61721 42.6802L13.4305 39.6761C14.5658 41.6038 16.4255 43.0117 18.6467 43.6107C19.1126 45.1772 20.1673 46.7383 20.3174 46.9558C20.4696 47.1761 20.7256 47.3086 20.9999 47.3086C21.2742 47.3086 21.5304 47.1762 21.6824 46.9558C21.8326 46.7382 22.8879 45.1762 23.3536 43.6093C24.5683 43.282 25.6813 42.7092 26.6367 41.9229C27.2376 43.2762 27.9948 44.4865 28.7407 45.6777C28.9885 46.0733 29.2337 46.4653 29.4705 46.8585C28.7268 46.9005 27.9926 47.0971 27.3185 47.4443L21.4391 50.4726C21.164 50.6143 20.8358 50.6143 20.5608 50.4726L14.6813 47.4443C13.0534 46.6058 11.1369 46.6525 9.55483 47.5693C7.97272 48.486 7.02816 50.0971 7.02816 51.879V53.2902C7.02816 53.7277 7.39544 54.0824 7.84847 54.0824C8.3015 54.0824 8.66878 53.7277 8.66878 53.2902V51.879C8.66878 50.6588 9.31552 49.5556 10.3989 48.9279C11.4821 48.3002 12.7944 48.2681 13.9093 48.8423L19.7887 51.8706C20.5471 52.2612 21.4527 52.2612 22.211 51.8706L28.0905 48.8423C28.8094 48.472 29.5941 48.3502 30.3731 48.484C31.083 49.9146 31.5774 51.4441 31.5774 53.2902C31.5774 53.7277 31.9446 54.0824 32.3977 54.0824C32.8507 54.0824 33.218 53.7277 33.218 53.2902C33.218 49.7658 31.6555 47.2708 30.1444 44.8578C28.5688 42.3416 27.0806 39.9651 27.0806 36.3554V35.5086C27.0806 35.071 26.7134 34.7163 26.2603 34.7163C25.8073 34.7163 25.44 35.071 25.44 35.5086V36.3554C25.44 37.8353 25.6646 39.1316 26.0279 40.308C25.3167 41.0045 24.4731 41.538 23.5401 41.8835C23.3418 40.7021 22.2784 39.7969 20.9998 39.7969C19.7224 39.7969 18.6599 40.7005 18.4602 41.8804C16.9738 41.3236 15.7029 40.28 14.893 38.9468C15.9235 38.1688 16.5595 36.9616 16.5595 35.6525V32.9537C17.9366 33.4742 19.4341 33.7606 20.9998 33.7606C27.1591 33.7606 32.271 29.3325 33.1001 23.5997H33.5877C34.1249 23.5997 34.6363 23.4697 35.0845 23.242V53.2903C35.0845 53.7278 35.4518 54.0825 35.9048 54.0825C36.3578 54.0825 36.7251 53.7278 36.7251 53.2903V42.456L37.3825 42.6802C39.1545 43.2842 40.345 44.9092 40.345 46.7239V53.2903C40.345 53.7278 40.7123 54.0825 41.1653 54.0825C41.6183 54.0825 41.9856 53.7278 41.9856 53.2903V46.7239C41.9858 44.2387 40.3554 42.0131 37.9288 41.186ZM20.9999 41.3814C21.5145 41.3814 21.9331 41.7857 21.9331 42.2826C21.9331 43.0395 21.4596 44.1071 20.9999 44.9511C20.5401 44.1071 20.0667 43.0395 20.0667 42.2826C20.0667 41.7857 20.4853 41.3814 20.9999 41.3814ZM35.0587 14.3726C34.7566 14.3867 34.4529 14.3946 34.1514 14.3946C30.084 14.3946 26.2265 13.1428 22.9959 10.7745C20.0541 8.61792 17.8179 5.61043 16.644 2.25108C18.0163 1.81905 19.4802 1.58445 20.9999 1.58445C28.4831 1.58445 34.6211 7.25001 35.0587 14.3726ZM14.919 35.6525C14.919 36.7507 14.1987 37.7339 13.1265 38.0993L11.0444 38.8091C9.10005 36.0599 6.91528 31.6092 6.91528 25.4888V23.2798C7.33594 23.4876 7.8057 23.5997 8.28695 23.5997H8.89924C9.43025 27.2747 11.7206 30.413 14.9192 32.1928L14.919 35.6525ZM35.0773 20.83C35.0084 21.4946 34.3541 22.0154 33.5878 22.0153H33.2178V21.9689C33.2178 21.5315 32.8507 21.1768 32.3978 21.1767C31.945 21.1767 31.5775 21.531 31.5771 21.9684C31.5729 27.597 26.828 32.1762 20.9999 32.1762C15.1674 32.1762 10.4223 27.5936 10.4223 21.9609C10.4223 21.5234 10.055 21.1687 9.60197 21.1687C9.14894 21.1687 8.78166 21.5234 8.78166 21.9609V22.0154H8.28685C7.89999 22.0154 7.5292 21.8564 7.26933 21.579C7.00606 21.2981 6.88291 20.9331 6.9225 20.5514C6.99152 19.8867 7.6458 19.3661 8.41219 19.3661H8.72522C10.6279 19.3661 12.1759 17.8711 12.1759 16.0336V15.1868C12.1759 14.0942 12.6954 13.0906 13.6014 12.4333C13.9636 12.1705 14.0366 11.6738 13.7645 11.3241C13.4923 10.9743 12.978 10.9038 12.6159 11.1666C11.2937 12.126 10.5354 13.5914 10.5354 15.1868V16.0336C10.5354 16.9974 9.72337 17.7816 8.72533 17.7816H8.4123C7.87505 17.7816 7.36372 17.9117 6.91539 18.1394V15.1869C6.91539 10.9952 8.88928 7.24083 11.9859 4.74363C13.9349 8.91612 16.8174 12.4862 20.3663 15.1105C24.0776 17.8547 28.3506 19.3661 32.398 19.3661H33.7131C34.1 19.3661 34.4708 19.5251 34.7306 19.8023C34.9937 20.0833 35.1169 20.4483 35.0773 20.83ZM33.713 17.7816H32.3979C28.7089 17.7816 24.7902 16.3862 21.3636 13.8524C17.9419 11.3223 15.1764 7.84767 13.3379 3.77891C13.9037 3.42325 14.4974 3.10584 15.1151 2.83035C16.4003 6.45874 18.8235 9.70507 22.004 12.0366C25.5223 14.6158 29.7228 15.9792 34.1514 15.9792C34.4616 15.9792 34.7736 15.9713 35.0847 15.9576V18.1015C34.664 17.8938 34.1943 17.7816 33.713 17.7816Z" fill="url(#paint0_linear)"/>
<path d="M17.3945 15.783C17.2513 15.368 16.7866 15.1436 16.3569 15.2819L13.7266 16.1288C13.2968 16.2671 13.0646 16.7158 13.2078 17.1309C13.3224 17.4629 13.6424 17.6728 13.9859 17.6728C14.0718 17.6728 14.1593 17.6596 14.2454 17.6319L16.8757 16.7851C17.3055 16.6469 17.5377 16.1982 17.3945 15.783Z" fill="url(#paint1_linear)"/>
<path d="M16.5597 20.2677V19.4209C16.5597 18.9834 16.1924 18.6287 15.7394 18.6287C15.2863 18.6287 14.9191 18.9834 14.9191 19.4209V20.2677C14.9191 20.7052 15.2863 21.0599 15.7394 21.0599C16.1924 21.0599 16.5597 20.7052 16.5597 20.2677Z" fill="url(#paint2_linear)"/>
<path d="M26.2607 18.6287C25.8076 18.6287 25.4404 18.9834 25.4404 19.4209V20.2677C25.4404 20.7052 25.8076 21.0599 26.2607 21.0599C26.7137 21.0599 27.081 20.7052 27.081 20.2677V19.4209C27.081 18.9835 26.7137 18.6287 26.2607 18.6287Z" fill="url(#paint3_linear)"/>
<path d="M24.9455 23.6353H17.0546C16.6015 23.6353 16.2342 23.99 16.2342 24.4276C16.2342 26.732 18.3722 28.6067 21 28.6067C23.6279 28.6067 25.7658 26.7319 25.7658 24.4276C25.7658 23.99 25.3986 23.6353 24.9455 23.6353ZM21 27.0222C19.6094 27.0222 18.428 26.2642 18.0238 25.2198H23.9762C23.5721 26.2644 22.3906 27.0222 21 27.0222Z" fill="url(#paint4_linear)"/>
<defs>
<linearGradient id="paint0_linear" x1="0.0141603" y1="27.8607" x2="41.9856" y2="27.8607" gradientUnits="userSpaceOnUse">
<stop stop-color="#FF8BDE"/>
<stop offset="1" stop-color="#669FFF"/>
</linearGradient>
<linearGradient id="paint1_linear" x1="0.0141603" y1="27.8607" x2="41.9856" y2="27.8607" gradientUnits="userSpaceOnUse">
<stop stop-color="#FF8BDE"/>
<stop offset="1" stop-color="#669FFF"/>
</linearGradient>
<linearGradient id="paint2_linear" x1="0.0141603" y1="27.8607" x2="41.9856" y2="27.8607" gradientUnits="userSpaceOnUse">
<stop stop-color="#FF8BDE"/>
<stop offset="1" stop-color="#669FFF"/>
</linearGradient>
<linearGradient id="paint3_linear" x1="0.0141603" y1="27.8607" x2="41.9856" y2="27.8607" gradientUnits="userSpaceOnUse">
<stop stop-color="#FF8BDE"/>
<stop offset="1" stop-color="#669FFF"/>
</linearGradient>
<linearGradient id="paint4_linear" x1="0.0141603" y1="27.8607" x2="41.9856" y2="27.8607" gradientUnits="userSpaceOnUse">
<stop stop-color="#FF8BDE"/>
<stop offset="1" stop-color="#669FFF"/>
</linearGradient>
</defs>
</svg>
