<svg width="56" height="42" viewBox="0 0 56 42" fill="none" xmlns="http://www.w3.org/2000/svg">
<path d="M45.4243 23.0957L40.9282 27.5919C40.8695 27.5207 40.8072 27.4516 40.7407 27.3851L34.9341 21.5784C34.6129 21.2574 34.0926 21.2574 33.7716 21.5784C33.4506 21.8994 33.4506 22.4199 33.7716 22.7408L39.5782 28.5474C40.0774 29.0465 40.0774 29.8587 39.5783 30.3578C39.0789 30.8569 38.2668 30.8571 37.7678 30.3578L34.5412 27.1312C34.22 26.8102 33.6997 26.8102 33.3787 27.1312C33.0577 27.4522 33.0577 27.9727 33.3787 28.2936L36.6053 31.5202C36.6054 31.5203 36.6056 31.5204 36.6057 31.5207C36.8473 31.7624 36.9803 32.0837 36.9803 32.4255C36.9803 32.7674 36.8472 33.0889 36.6053 33.3308C36.3635 33.5725 36.0421 33.7057 35.7001 33.7057C35.3582 33.7057 35.0368 33.5725 34.795 33.3308L31.5684 30.1041C31.2472 29.7831 30.7269 29.7831 30.4059 30.1041C30.0849 30.4251 30.0849 30.9456 30.4059 31.2665L33.6325 34.4931C34.1317 34.9922 34.1317 35.8044 33.6326 36.3035C33.3907 36.5454 33.0692 36.6786 32.7272 36.6786C32.3853 36.6786 32.0639 36.5454 31.8221 36.3037L28.5955 33.077C28.2743 32.756 27.754 32.756 27.433 33.077C27.112 33.398 27.112 33.9185 27.433 34.2394L30.6596 37.466C31.1588 37.9651 31.1588 38.7774 30.6596 39.2765C30.4178 39.5182 30.0964 39.6514 29.7544 39.6514C29.4125 39.6514 29.0911 39.5182 28.8493 39.2765L26.759 37.1861C27.425 36.0762 27.2805 34.6122 26.3247 33.6565L26.2752 33.6069C25.6384 32.9702 24.7758 32.6937 23.9427 32.7769C23.8959 32.0796 23.6027 31.4304 23.1038 30.9315C22.7179 30.5456 22.2491 30.292 21.7541 30.1705C21.8803 29.8432 21.947 29.4921 21.947 29.1308C21.947 28.359 21.6465 27.6335 21.1008 27.0878C20.5552 26.5422 19.8296 26.2416 19.0579 26.2416C18.618 26.2416 18.1935 26.3395 17.8085 26.5245C17.6789 26.0644 17.4342 25.6303 17.0729 25.269C15.9465 24.1425 14.1135 24.1427 12.987 25.269L12.648 25.608L12.4009 25.3608C12.0034 24.9633 11.7845 24.4349 11.7845 23.8728V21.7291C11.7845 21.5111 11.6979 21.302 11.5438 21.1479L8.03479 17.6389L9.02149 16.6521C9.34249 16.3311 9.34249 15.8106 9.02138 15.4897C8.70048 15.1686 8.18001 15.1687 7.859 15.4897L6.53727 16.8115C6.28805 17.0608 5.88232 17.0609 5.6331 16.8115L1.40324 12.5816C1.08223 12.2606 0.561872 12.2606 0.240755 12.5816C-0.0802518 12.9026 -0.0802518 13.4229 0.240755 13.744L4.47073 17.9739C4.91591 18.419 5.50049 18.6415 6.08508 18.6415C6.27227 18.6415 6.45891 18.616 6.6415 18.5705L10.1406 22.0694V23.8727C10.1406 24.8739 10.5305 25.8151 11.2384 26.5231L11.4856 26.7703L11.2106 27.0454C10.6649 27.5911 10.3643 28.3166 10.3643 29.0884C10.3643 29.8602 10.6648 30.5857 11.2104 31.1313C11.7738 31.6945 12.5137 31.9761 13.2535 31.9761C13.2653 31.9761 13.277 31.9755 13.2887 31.9753C13.2886 31.9874 13.2878 31.9995 13.2878 32.0118C13.2878 32.7835 13.5884 33.5091 14.134 34.0546C14.6797 34.6003 15.4054 34.9008 16.177 34.9008C16.1892 34.9008 16.2013 34.9001 16.2135 34.9C16.2044 35.6515 16.4853 36.4059 17.0574 36.978C17.6207 37.5412 18.3606 37.8229 19.1005 37.8229C19.1127 37.8229 19.1248 37.8221 19.1369 37.822C19.1275 38.5739 19.4083 39.3289 19.9809 39.9015L20.0304 39.951C20.5761 40.4967 21.3016 40.7972 22.0733 40.7972C22.8451 40.7972 23.5706 40.4967 24.1163 39.951L25.6577 38.4097L27.687 40.4389C28.2393 40.9913 28.9736 41.2954 29.7547 41.2954C30.5357 41.2954 31.27 40.9913 31.8223 40.4389C32.405 39.8562 32.6891 39.0867 32.6762 38.3213C32.6933 38.3217 32.7102 38.3225 32.7275 38.3225C33.5085 38.3225 34.2428 38.0184 34.7952 37.466C35.3783 36.883 35.6623 36.1129 35.6491 35.3471C35.6662 35.3474 35.6833 35.3483 35.7004 35.3483C36.449 35.3482 37.198 35.0631 37.7679 34.4932C38.3203 33.941 38.6244 33.2067 38.6244 32.4256C38.6244 32.4084 38.6234 32.3914 38.6232 32.3743C38.6398 32.3746 38.6565 32.3755 38.6732 32.3755C39.4219 32.3755 40.1708 32.0905 40.7409 31.5204C41.3608 30.9006 41.6428 30.0694 41.5886 29.2567L46.5871 24.2583C46.9081 23.9373 46.9081 23.4168 46.5871 23.0959C46.2658 22.7747 45.7454 22.7747 45.4243 23.0957ZM12.3728 29.9688C12.1376 29.7336 12.0082 29.4209 12.0082 29.0884C12.0082 28.7558 12.1377 28.4431 12.3729 28.2079L14.1494 26.4315C14.3922 26.1887 14.7111 26.0673 15.03 26.0673C15.3488 26.0673 15.6676 26.1886 15.9104 26.4313C16.3959 26.917 16.3959 27.7069 15.9104 28.1923L14.1338 29.9689C13.6483 30.4544 12.8584 30.4543 12.3728 29.9688ZM16.1768 33.257C15.8443 33.257 15.5315 33.1275 15.2963 32.8923C15.0611 32.6571 14.9317 32.3444 14.9317 32.0119C14.9317 31.6794 15.0612 31.3666 15.2964 31.1314L17.073 29.3548L18.1775 28.2503C18.4127 28.0151 18.7252 27.8856 19.0579 27.8856C19.3905 27.8856 19.7032 28.0151 19.9382 28.2503C20.1734 28.4855 20.303 28.7983 20.303 29.1308C20.303 29.4633 20.1734 29.7761 19.9382 30.0113L17.0572 32.8924C16.822 33.1275 16.5094 33.257 16.1768 33.257ZM18.2197 35.8156C17.7342 35.3301 17.7342 34.5401 18.2197 34.0546L20.1805 32.0937C20.4232 31.8511 20.742 31.7298 21.0609 31.7298C21.3798 31.7298 21.6987 31.8512 21.9413 32.0939C22.1765 32.329 22.3061 32.6418 22.3061 32.9743C22.3061 33.3068 22.1767 33.6192 21.9418 33.8543L19.9806 35.8155C19.4951 36.3011 18.7052 36.3011 18.2197 35.8156ZM22.9535 38.7885C22.7183 39.0237 22.4057 39.1533 22.0731 39.1533C21.7406 39.1533 21.4278 39.0237 21.1927 38.7885L21.1433 38.7391C20.6576 38.2536 20.6576 37.4636 21.1433 36.9781L23.1039 35.0174C23.1046 35.0168 23.1051 35.0161 23.1057 35.0156L23.3517 34.7694C23.5946 34.5267 23.9134 34.4053 24.2323 34.4053C24.5511 34.4053 24.8701 34.5268 25.1127 34.7694L25.1621 34.8188C25.6478 35.3044 25.6478 36.0943 25.1621 36.5798L22.9535 38.7885Z" fill="url(#paint0_linear)"/>
<path d="M55.7592 16.0452C55.4382 15.7242 54.9178 15.7241 54.5967 16.0452L51.5164 19.1255C51.474 19.1679 51.4041 19.1686 51.3609 19.1273L40.4712 8.72519C40.4487 8.70371 40.4371 8.67708 40.4368 8.64595C40.4364 8.61483 40.4475 8.58787 40.4694 8.56595L46.9282 2.10723C47.2492 1.78623 47.2492 1.26575 46.9282 0.944857C46.6072 0.62385 46.0869 0.62385 45.7658 0.944857L39.3069 7.40357C38.97 7.74058 38.7876 8.1885 38.793 8.66491C38.7975 9.04894 38.9255 9.41049 39.1547 9.70914L36.1989 12.6079L33.4139 11.0547C33.05 10.8516 32.6374 10.7443 32.2206 10.7443H24.3077L23.7055 10.1422C23.1459 9.58256 22.4872 9.15601 21.7478 8.87424L19.5573 8.03967L18.545 7.02744C19.0685 6.15078 18.9558 4.99717 18.2017 4.24315L14.9034 0.944857C14.5824 0.62385 14.062 0.62385 13.7409 0.944857C13.4199 1.26586 13.4199 1.78633 13.7409 2.10723L17.0392 5.40553C17.2884 5.65475 17.2884 6.06036 17.0392 6.30969L10.336 13.0129C10.015 13.3339 10.015 13.8544 10.336 14.1753C10.4965 14.3357 10.707 14.4161 10.9173 14.4161C11.1276 14.4161 11.338 14.3359 11.4986 14.1753L17.4333 8.24056L18.5191 9.32632C18.6011 9.4083 18.6995 9.47198 18.8077 9.51329L21.1625 10.4104C21.6706 10.6041 22.1241 10.8954 22.5121 11.2753C22.4622 11.3172 22.4132 11.3606 22.3666 11.4073L19.2404 14.5337C18.62 15.154 18.2784 15.9789 18.2784 16.8562C18.2784 17.7335 18.62 18.5584 19.2403 19.1788C19.8814 19.8198 20.7199 20.145 21.5621 20.145C22.2982 20.145 23.037 19.8965 23.6488 19.3935L26.0146 17.4486H28.4788L31.2946 20.2643C31.4551 20.4248 31.6656 20.5051 31.8759 20.5051C32.0862 20.5051 32.2966 20.4249 32.4572 20.2643C32.7782 19.9433 32.7782 19.4229 32.4572 19.102L30.423 17.0678C30.5044 16.9402 30.5522 16.7892 30.5522 16.6266C30.5522 16.1727 30.1843 15.8047 29.7302 15.8047H25.72C25.5296 15.8047 25.345 15.8707 25.198 15.9917L22.6048 18.1236C21.9491 18.6625 21.0027 18.6163 20.4028 18.0164C20.0929 17.7065 19.9222 17.2945 19.9222 16.8563C19.9222 16.4182 20.0929 16.0061 20.4028 15.6963L23.529 12.5699C23.646 12.4529 23.8016 12.3884 23.9671 12.3884H32.2204C32.3576 12.3884 32.4932 12.4237 32.613 12.4906L35.6931 14.2084C36.1503 14.4636 36.7318 14.3864 37.1077 14.019L40.3273 10.8614L49.1915 19.3287L47.9011 20.6191C47.5801 20.9401 47.5801 21.4606 47.9012 21.7815C48.0617 21.942 48.2721 22.0223 48.4824 22.0223C48.6927 22.0223 48.9032 21.942 49.0637 21.7815L50.3913 20.4539C50.6999 20.6827 51.0682 20.7981 51.4372 20.7981C51.8883 20.7981 52.3392 20.6276 52.6787 20.288L55.7592 17.2078C56.0801 16.8866 56.0801 16.3662 55.7592 16.0452Z" fill="url(#paint1_linear)"/>
<defs>
<linearGradient id="paint0_linear" x1="1.82777e-07" y1="27.2568" x2="46.8278" y2="27.2568" gradientUnits="userSpaceOnUse">
<stop stop-color="#FF8BDE"/>
<stop offset="1" stop-color="#669FFF"/>
</linearGradient>
<linearGradient id="paint1_linear" x1="10.0952" y1="11.6862" x2="55.9998" y2="11.6862" gradientUnits="userSpaceOnUse">
<stop stop-color="#FF8BDE"/>
<stop offset="1" stop-color="#669FFF"/>
</linearGradient>
</defs>
</svg>
