<svg width="63" height="36" viewBox="0 0 63 36" fill="none" xmlns="http://www.w3.org/2000/svg">
<path d="M12.7969 25.375C12.2128 25.375 11.6418 25.5482 11.1562 25.8727C10.6706 26.1972 10.2921 26.6584 10.0685 27.198C9.84503 27.7376 9.78655 28.3314 9.90049 28.9043C10.0144 29.4771 10.2957 30.0033 10.7087 30.4163C11.1217 30.8293 11.6479 31.1106 12.2207 31.2245C12.7936 31.3385 13.3874 31.28 13.927 31.0565C14.4666 30.8329 14.9278 30.4544 15.2523 29.9688C15.5768 29.4832 15.75 28.9122 15.75 28.3281C15.7491 27.5452 15.4377 26.7946 14.884 26.241C14.3304 25.6873 13.5798 25.3759 12.7969 25.375ZM12.7969 29.3125C12.6022 29.3125 12.4119 29.2548 12.25 29.1466C12.0881 29.0384 11.9619 28.8847 11.8874 28.7048C11.8129 28.525 11.7934 28.327 11.8314 28.1361C11.8694 27.9451 11.9632 27.7697 12.1008 27.6321C12.2385 27.4944 12.4139 27.4006 12.6048 27.3627C12.7958 27.3247 12.9937 27.3442 13.1736 27.4187C13.3535 27.4932 13.5072 27.6194 13.6154 27.7812C13.7235 27.9431 13.7812 28.1334 13.7812 28.3281C13.781 28.5891 13.6772 28.8393 13.4926 29.0239C13.3081 29.2084 13.0579 29.3122 12.7969 29.3125Z" fill="url(#paint0_linear)"/>
<path d="M50.2031 25.375C49.6191 25.375 49.0481 25.5482 48.5625 25.8727C48.0768 26.1972 47.6983 26.6584 47.4748 27.198C47.2513 27.7376 47.1928 28.3314 47.3067 28.9043C47.4207 29.4771 47.702 30.0033 48.115 30.4163C48.528 30.8293 49.0542 31.1106 49.627 31.2245C50.1999 31.3385 50.7936 31.28 51.3332 31.0565C51.8728 30.8329 52.3341 30.4544 52.6586 29.9688C52.9831 29.4832 53.1563 28.9122 53.1563 28.3281C53.1553 27.5452 52.8439 26.7946 52.2903 26.241C51.7367 25.6873 50.9861 25.3759 50.2031 25.375ZM50.2031 29.3125C50.0084 29.3125 49.8181 29.2548 49.6562 29.1466C49.4944 29.0384 49.3682 28.8847 49.2937 28.7048C49.2192 28.525 49.1997 28.327 49.2377 28.1361C49.2757 27.9451 49.3694 27.7697 49.5071 27.6321C49.6447 27.4944 49.8201 27.4006 50.0111 27.3627C50.202 27.3247 50.4 27.3442 50.5798 27.4187C50.7597 27.4932 50.9134 27.6194 51.0216 27.7812C51.1298 27.9431 51.1875 28.1334 51.1875 28.3281C51.1872 28.5891 51.0834 28.8393 50.8989 29.0239C50.7143 29.2084 50.4641 29.3122 50.2031 29.3125Z" fill="url(#paint1_linear)"/>
<path d="M60.0469 23.4063V17.5C60.0452 15.9341 59.4224 14.4328 58.3151 13.3255C57.2079 12.2182 55.7066 11.5954 54.1406 11.5938H45.9629L43.2559 4.37336C42.9019 3.32134 42.2263 2.40712 41.3246 1.75977C40.4229 1.11243 39.3407 0.764681 38.2307 0.765628H19.6875C18.5853 0.764555 17.5101 1.1074 16.612 1.74638C15.7138 2.38536 15.0374 3.28863 14.677 4.3303L11.1923 11.5938H8.85938C7.29345 11.5954 5.79214 12.2182 4.68486 13.3255C3.57758 14.4328 2.95479 15.9341 2.95312 17.5V23.4063C2.43119 23.4069 1.93083 23.6146 1.56176 23.9836C1.1927 24.3527 0.985059 24.8531 0.984375 25.375V27.3438C0.985059 27.8657 1.1927 28.3661 1.56176 28.7351C1.93083 29.1042 2.43119 29.3118 2.95312 29.3125H5.97762C6.21424 30.9523 7.03386 32.452 8.28628 33.5367C9.53871 34.6214 11.14 35.2184 12.7969 35.2184C14.4537 35.2184 16.055 34.6214 17.3075 33.5367C18.5599 32.452 19.3795 30.9523 19.6161 29.3125H43.3839C43.6205 30.9523 44.4401 32.452 45.6925 33.5367C46.945 34.6214 48.5463 35.2184 50.2031 35.2184C51.86 35.2184 53.4613 34.6214 54.7137 33.5367C55.9661 32.452 56.7858 30.9523 57.0224 29.3125H60.0469C60.5688 29.3118 61.0692 29.1042 61.4382 28.7351C61.8073 28.3661 62.0149 27.8657 62.0156 27.3438V25.375C62.0149 24.8531 61.8073 24.3527 61.4382 23.9836C61.0692 23.6146 60.5688 23.4069 60.0469 23.4063ZM43.8613 11.5938H31.5V5.6875H41.6464L43.8613 11.5938ZM4.92188 18.4844H6.89062V19.4688H4.92188V18.4844ZM5.97762 27.3438H2.95312V25.375H6.57193C6.27559 25.9975 6.07521 26.6613 5.97762 27.3438ZM12.7969 33.25C11.8234 33.25 10.8718 32.9613 10.0624 32.4205C9.25303 31.8797 8.62218 31.111 8.24965 30.2116C7.87713 29.3123 7.77966 28.3227 7.96957 27.3679C8.15948 26.4132 8.62825 25.5362 9.31658 24.8478C10.0049 24.1595 10.8819 23.6907 11.8367 23.5008C12.7914 23.3109 13.781 23.4084 14.6804 23.7809C15.5798 24.1534 16.3484 24.7843 16.8893 25.5937C17.4301 26.4031 17.7188 27.3547 17.7188 28.3281C17.7174 29.6331 17.1985 30.8842 16.2757 31.807C15.353 32.7297 14.1018 33.2487 12.7969 33.25ZM43.3839 27.3438H19.6161C19.5185 26.6613 19.3182 25.9975 19.0218 25.375H43.9782C43.6818 25.9975 43.4815 26.6613 43.3839 27.3438ZM50.2031 33.25C49.2297 33.25 48.2781 32.9613 47.4687 32.4205C46.6593 31.8797 46.0284 31.111 45.6559 30.2116C45.2834 29.3123 45.1859 28.3227 45.3758 27.3679C45.5657 26.4132 46.0345 25.5362 46.7228 24.8478C47.4112 24.1595 48.2882 23.6907 49.2429 23.5008C50.1977 23.3109 51.1873 23.4084 52.0866 23.7809C52.986 24.1534 53.7547 24.7843 54.2955 25.5937C54.8363 26.4031 55.125 27.3547 55.125 28.3281C55.1237 29.6331 54.6047 30.8842 53.682 31.807C52.7592 32.7297 51.5081 33.2487 50.2031 33.25ZM55.125 23.4063C55.0917 23.4065 55.0584 23.4085 55.0253 23.4124C53.7396 22.147 52.008 21.4377 50.204 21.4375C48.4 21.4373 46.6682 22.1461 45.3821 23.4112C45.3486 23.4077 45.3149 23.406 45.2812 23.4063H17.7188C17.6851 23.406 17.6514 23.4077 17.6179 23.4112C16.3318 22.1461 14.6 21.4373 12.796 21.4375C10.992 21.4377 9.26042 22.147 7.97467 23.4124C7.94158 23.4085 7.90831 23.4065 7.875 23.4063H4.92188V21.4375H7.875C8.13607 21.4375 8.38645 21.3338 8.57106 21.1492C8.75566 20.9646 8.85938 20.7142 8.85938 20.4531V17.5C8.85938 17.2389 8.75566 16.9886 8.57106 16.8039C8.38645 16.6193 8.13607 16.5156 7.875 16.5156H5.04615C5.26552 15.6709 5.75884 14.9228 6.44886 14.3884C7.13888 13.854 7.98663 13.5636 8.85938 13.5625H11.8125C11.998 13.5624 12.1797 13.51 12.3366 13.4111C12.4936 13.3123 12.6194 13.1711 12.6997 13.0039L16.4784 5.12887C16.4961 5.09178 16.5114 5.05355 16.524 5.01444C16.7449 4.35026 17.1695 3.77255 17.7373 3.36328C18.3052 2.95401 18.9875 2.73397 19.6875 2.73438H38.2307C38.6704 2.73396 39.1058 2.82075 39.5117 2.98972C39.9177 3.15868 40.2861 3.40648 40.5956 3.71875H19.6875C19.4264 3.71875 19.176 3.82246 18.9914 4.00707C18.8068 4.19167 18.7031 4.44206 18.7031 4.70313V12.5781C18.7031 12.8392 18.8068 13.0896 18.9914 13.2742C19.176 13.4588 19.4264 13.5625 19.6875 13.5625H54.1406C55.0134 13.5636 55.8611 13.854 56.5511 14.3884C57.2412 14.9228 57.7345 15.6709 57.9538 16.5156H55.125C54.8639 16.5156 54.6135 16.6193 54.4289 16.8039C54.2443 16.9886 54.1406 17.2389 54.1406 17.5V20.4531C54.1406 20.7142 54.2443 20.9646 54.4289 21.1492C54.6135 21.3338 54.8639 21.4375 55.125 21.4375H58.0781V23.4063H55.125ZM29.5312 5.6875V11.5938H20.6719V5.6875H29.5312ZM58.0781 18.4844V19.4688H56.1094V18.4844H58.0781ZM60.0469 27.3438H57.0224C56.9248 26.6613 56.7244 25.9975 56.4281 25.375H60.0469V27.3438Z" fill="url(#paint2_linear)"/>
<path d="M31.5 16.5156H36.4219C36.6829 16.5156 36.9333 16.4119 37.1179 16.2273C37.3025 16.0427 37.4062 15.7923 37.4062 15.5312C37.4062 15.2702 37.3025 15.0198 37.1179 14.8352C36.9333 14.6506 36.6829 14.5469 36.4219 14.5469H31.5C31.2389 14.5469 30.9885 14.6506 30.8039 14.8352C30.6193 15.0198 30.5156 15.2702 30.5156 15.5312C30.5156 15.7923 30.6193 16.0427 30.8039 16.2273C30.9885 16.4119 31.2389 16.5156 31.5 16.5156Z" fill="url(#paint3_linear)"/>
<defs>
<linearGradient id="paint0_linear" x1="0.984375" y1="18.514" x2="62.0156" y2="18.514" gradientUnits="userSpaceOnUse">
<stop stop-color="#FF8BDE"/>
<stop offset="1" stop-color="#669FFF"/>
</linearGradient>
<linearGradient id="paint1_linear" x1="0.984375" y1="18.514" x2="62.0156" y2="18.514" gradientUnits="userSpaceOnUse">
<stop stop-color="#FF8BDE"/>
<stop offset="1" stop-color="#669FFF"/>
</linearGradient>
<linearGradient id="paint2_linear" x1="0.984375" y1="18.514" x2="62.0156" y2="18.514" gradientUnits="userSpaceOnUse">
<stop stop-color="#FF8BDE"/>
<stop offset="1" stop-color="#669FFF"/>
</linearGradient>
<linearGradient id="paint3_linear" x1="0.984375" y1="18.514" x2="62.0156" y2="18.514" gradientUnits="userSpaceOnUse">
<stop stop-color="#FF8BDE"/>
<stop offset="1" stop-color="#669FFF"/>
</linearGradient>
</defs>
</svg>
