<svg width="33" height="55" viewBox="0 0 33 55" fill="none" xmlns="http://www.w3.org/2000/svg">
<path d="M11.4284 17.546C10.9231 17.546 10.5149 17.9554 10.5149 18.4596V20.5771C10.5149 21.0824 10.9243 21.4906 11.4284 21.4906C11.9326 21.4906 12.342 21.0812 12.342 20.5771V18.4596C12.342 17.9554 11.9326 17.546 11.4284 17.546Z" fill="url(#paint0_linear)"/>
<path d="M20.5833 17.546C20.0791 17.546 19.6697 17.9554 19.6697 18.4596V20.5771C19.6697 21.0824 20.0791 21.4906 20.5833 21.4906C21.0886 21.4906 21.4968 21.0812 21.4968 20.5771V18.4596C21.4968 17.9554 21.0886 17.546 20.5833 17.546Z" fill="url(#paint1_linear)"/>
<path d="M17.2388 23.954C17.2108 24.0111 16.9363 24.5117 16.0057 24.5117C15.0751 24.5117 14.8006 24.0111 14.7726 23.954C14.232 22.8449 12.6041 23.6017 13.1168 24.734C13.4011 25.3572 14.2976 26.3424 16.0057 26.3424C17.7125 26.3424 18.6091 25.3584 18.8946 24.734C19.4073 23.6005 17.7794 22.8449 17.2388 23.954Z" fill="url(#paint2_linear)"/>
<path d="M31.0988 46.361C31.6042 46.361 32.0124 45.9516 32.0124 45.4474V42.4504C32.0124 39.4375 30.9458 36.6701 29.1697 34.5041C31.7779 32.7352 32.0015 30.0298 32.01 29.9022C32.0391 29.4892 31.7949 29.1114 31.4038 28.9777C31.3989 28.9753 30.879 28.7821 30.438 28.2938C29.8803 27.6766 29.6848 26.8493 29.8597 25.8361C30.9798 19.3343 31.3102 10.3906 26.5201 4.70631C23.9653 1.67163 20.2308 0 16.0056 0C13.0474 0 10.2958 0.821236 8.04835 2.37381C7.63288 2.66051 7.52961 3.23028 7.81632 3.64454C8.10302 4.06002 8.67278 4.16449 9.08705 3.87657C11.0272 2.5366 13.4204 1.82713 16.0056 1.82713C18.6066 1.82713 22.2997 2.53052 25.1242 5.88228C28.5574 9.95688 29.5718 16.7491 28.0605 25.5239C27.6171 28.0994 28.9279 29.6422 30.0711 30.3469C29.8682 31.0636 29.3203 32.2894 27.8868 33.1507C26.1581 31.5824 23.9932 30.489 21.5975 30.0772C24.4634 28.2318 26.367 25.0161 26.367 21.3606V16.4806C26.367 16.1186 26.1532 15.7906 25.8215 15.6448C22.1369 14.023 20.2187 8.96678 20.2005 8.91575C20.0802 8.59139 19.7862 8.363 19.4424 8.32534C19.0986 8.28889 18.7621 8.44925 18.575 8.74082C14.9317 14.4299 6.75576 15.7165 6.44233 15.7638C5.99284 15.8222 5.6466 16.206 5.6466 16.6701V21.3619C5.6466 25.0161 7.55027 28.233 10.4161 30.0784C8.02041 30.4914 5.85434 31.5848 4.12683 33.1519C2.6921 32.2894 2.1442 31.0636 1.94254 30.3481C3.08571 29.6435 4.39774 28.0994 3.95311 25.5239C2.48193 16.9872 3.40764 10.3043 6.62942 6.20057C6.94163 5.80332 6.87238 5.2287 6.47513 4.9177C6.07787 4.6067 5.50447 4.67594 5.19225 5.07198C1.64247 9.59364 0.59163 16.7734 2.15271 25.8337C2.32764 26.8469 2.13206 27.673 1.57444 28.2913C1.13467 28.7785 0.617142 28.9716 0.617142 28.9716C0.225962 29.1065 -0.0255122 29.4867 0.00242928 29.8998C0.0109332 30.0273 0.234464 32.7328 2.84274 34.5016C2.53174 34.8819 2.05066 35.578 1.78582 35.9922C0.618356 37.936 0 40.1689 0 42.4479V53.8238C0 54.3291 0.409404 54.7373 0.913565 54.7373H31.1001C31.6042 54.7373 32.0136 54.3279 32.0136 53.8238V49.1004C32.0136 48.5963 31.6042 48.1869 31.1001 48.1869C30.5947 48.1869 30.1865 48.5963 30.1865 49.1004V52.9102H26.0512V43.8875C26.0512 43.3822 25.6418 42.974 25.1376 42.974C24.8217 42.974 24.5435 43.1343 24.3795 43.3773C24.2811 43.5231 24.224 43.6992 24.224 43.8887V52.9114H7.78838V43.8887C7.78838 43.3834 7.37897 42.9752 6.87481 42.9752C6.55895 42.9752 6.28075 43.1355 6.11675 43.3785C6.01835 43.5243 5.96125 43.7004 5.96125 43.89V52.9126H1.82591V42.4504C1.82591 41.8502 1.87694 41.2537 1.97534 40.667V40.6779C2.75284 36.0226 6.53709 32.372 11.258 31.8022C11.3782 32.7182 11.7208 34.0619 12.6915 35.0605C13.5249 35.9181 14.634 36.3531 15.9898 36.3531C17.3468 36.3531 18.4572 35.9169 19.2905 35.058C20.2624 34.057 20.6038 32.7146 20.7228 31.7998C26.0427 32.4279 30.1841 36.9641 30.1841 42.4504V45.4474C30.1853 45.9516 30.5935 46.361 31.0988 46.361ZM17.9797 33.7849C17.4974 34.283 16.8463 34.5247 15.9898 34.5247C15.1346 34.5247 14.4846 34.283 14.0023 33.7861C13.4326 33.1993 13.1932 32.3562 13.0936 31.7233H18.8872C18.7888 32.3562 18.5507 33.1969 17.9797 33.7849ZM16.0056 29.8961C11.3005 29.8961 7.47252 26.0682 7.47252 21.3631V17.4306C9.70662 16.9848 15.5269 15.4358 19.1545 11.0405C20.0389 12.7838 21.8101 15.6083 24.5387 17.054V21.3619C24.5387 26.0682 20.7107 29.8961 16.0056 29.8961Z" fill="url(#paint3_linear)"/>
<defs>
<linearGradient id="paint0_linear" x1="1.24955e-07" y1="28.198" x2="32.0136" y2="28.198" gradientUnits="userSpaceOnUse">
<stop stop-color="#FF8BDE"/>
<stop offset="1" stop-color="#669FFF"/>
</linearGradient>
<linearGradient id="paint1_linear" x1="1.24955e-07" y1="28.198" x2="32.0136" y2="28.198" gradientUnits="userSpaceOnUse">
<stop stop-color="#FF8BDE"/>
<stop offset="1" stop-color="#669FFF"/>
</linearGradient>
<linearGradient id="paint2_linear" x1="1.24955e-07" y1="28.198" x2="32.0136" y2="28.198" gradientUnits="userSpaceOnUse">
<stop stop-color="#FF8BDE"/>
<stop offset="1" stop-color="#669FFF"/>
</linearGradient>
<linearGradient id="paint3_linear" x1="1.24955e-07" y1="28.198" x2="32.0136" y2="28.198" gradientUnits="userSpaceOnUse">
<stop stop-color="#FF8BDE"/>
<stop offset="1" stop-color="#669FFF"/>
</linearGradient>
</defs>
</svg>
