<svg width="33" height="56" viewBox="0 0 33 56" fill="none" xmlns="http://www.w3.org/2000/svg">
<path d="M11.428 22.0393C11.9322 22.0393 12.3416 21.6299 12.3416 21.1258V19.0083C12.3416 18.5029 11.9322 18.0947 11.428 18.0947C10.9238 18.0947 10.5144 18.5041 10.5144 19.0083V21.1258C10.5144 21.6299 10.9226 22.0393 11.428 22.0393Z" fill="url(#paint0_linear)"/>
<path d="M20.5833 18.0938C20.0791 18.0938 19.6697 18.5032 19.6697 19.0074V21.1249C19.6697 21.6303 20.0791 22.0384 20.5833 22.0384C21.0874 22.0384 21.4968 21.629 21.4968 21.1249V19.0074C21.4968 18.5032 21.0874 18.0938 20.5833 18.0938Z" fill="url(#paint1_linear)"/>
<path d="M15.9609 21.6599C14.1811 21.6599 12.812 22.1774 11.8911 23.1991C10.5499 24.6861 10.7394 26.6699 10.7479 26.7538C10.7856 27.1194 11.0395 27.4268 11.3906 27.5337C12.4718 27.8629 14.5601 28.0099 15.9609 26.7513C16.8137 27.5179 17.9216 27.7633 18.902 27.7633C19.5313 27.7633 20.1083 27.6625 20.5299 27.5337C20.8822 27.4268 21.1349 27.1194 21.1725 26.7538C21.1811 26.6699 21.3706 24.6861 20.0294 23.1991C19.111 22.1786 17.7406 21.6599 15.9609 21.6599ZM16.7845 24.8744C16.7724 24.8489 16.7578 24.8234 16.7432 24.7991C16.578 24.5257 16.2816 24.3593 15.9621 24.3593H15.9609C15.6413 24.3593 15.3449 24.5257 15.1797 24.7991C15.1651 24.8234 15.1506 24.8489 15.1384 24.8744C14.5662 25.9386 13.3587 25.9981 12.5957 25.9131C12.6577 25.4757 12.8241 24.895 13.2481 24.4237C13.8081 23.8029 14.7205 23.4883 15.9609 23.4883C17.1939 23.4883 18.1026 23.7993 18.6627 24.4128C19.0939 24.8841 19.2616 25.4721 19.3248 25.9143C18.5618 25.9981 17.3555 25.9374 16.7845 24.8744Z" fill="url(#paint2_linear)"/>
<path d="M30.2169 36.5414C30.133 36.4017 30.0164 36.2924 29.884 36.217V36.0142C28.0071 33.2212 25.0404 31.2192 21.5963 30.6263C23.5255 29.3847 25.0173 27.5212 25.7863 25.3211C28.0229 25.3162 29.8415 23.4952 29.8415 21.2574C29.8415 20.6561 29.7091 20.0851 29.4746 19.5712C31.1839 14.5296 31.0952 10.5583 29.2098 7.76413C27.362 5.02587 24.3479 4.27266 23.0031 4.06979C22.7492 3.36396 22.1649 2.28275 20.8492 1.4117C17.9287 -0.519903 13.0317 -0.468879 6.29533 1.56234C3.77817 2.32162 2.05309 3.72841 1.16868 5.74384C-0.168864 8.78946 0.47622 13.1447 3.08449 18.6929C2.51352 19.3926 2.16971 20.2855 2.16971 21.2574C2.16971 23.4952 3.98834 25.3162 6.22487 25.3211C6.99508 27.5224 8.48813 29.386 10.4185 30.6287C8.16862 31.0163 6.05236 32.0112 4.31149 33.5274C3.93124 33.859 3.89115 34.4361 4.2228 34.8163C4.55446 35.1966 5.13151 35.2367 5.51175 34.905C7.13843 33.4885 9.149 32.6041 11.2738 32.3502C11.3928 33.2662 11.7366 34.6086 12.7073 35.6072C13.5407 36.4649 14.6498 36.8998 16.0056 36.8998C17.3626 36.8998 18.4729 36.4637 19.3063 35.606C20.277 34.6062 20.6196 33.2638 20.7386 32.349C24.0795 32.7474 26.9514 34.6888 28.6254 37.4355C28.6339 37.4513 28.6412 37.4671 28.6509 37.4829C29.6483 39.1424 30.1756 41.0497 30.1756 42.9971V53.4594H26.0512V44.4367C26.0512 43.9325 25.6418 43.5231 25.1376 43.5231H25.1279C24.6237 43.5231 24.2143 43.9325 24.2143 44.4367V53.4594H7.78838V44.4367C7.78838 43.9325 7.37897 43.5231 6.87481 43.5231H6.86509C6.36093 43.5231 5.95153 43.9325 5.95153 44.4367V53.4594H1.82713V42.9971C1.82713 41.0497 2.35437 39.1424 3.35176 37.4829C3.61174 37.0504 3.47203 36.4892 3.03954 36.2292C2.60706 35.9692 2.0458 36.1089 1.78582 36.5414C0.618356 38.4852 0 40.718 0 42.9971V54.3729C0 54.8783 0.409403 55.2865 0.913564 55.2865H31.0903C31.5945 55.2865 32.0039 54.8771 32.0039 54.3729V42.9971C32.0027 40.718 31.3843 38.4864 30.2169 36.5414ZM26.2516 23.4429C26.3257 22.9424 26.3658 22.4322 26.3658 21.911V19.0999C27.317 19.3586 28.0143 20.2285 28.0143 21.2574C28.0143 22.3289 27.2587 23.2243 26.2516 23.4429ZM3.99684 21.2586C3.99684 20.2285 4.69416 19.3586 5.64539 19.1011V21.9122C5.64539 22.4322 5.68548 22.9436 5.75958 23.4441C4.75248 23.2243 3.99684 22.3289 3.99684 21.2586ZM6.64885 13.3755C6.12768 13.3111 5.63324 13.7594 5.64417 14.2842V17.2375C5.26636 17.2922 4.90555 17.4003 4.56904 17.5521C2.36652 12.7426 1.7676 8.92552 2.84152 6.47882C3.5109 4.95419 4.81322 3.91914 6.82257 3.31294C14.4688 1.00716 18.0915 1.81503 19.7838 2.89867C21.1529 3.77579 21.3606 4.9056 21.3776 5.01494C21.4177 5.46929 21.7858 5.79973 22.2426 5.82281C22.2778 5.82524 25.8483 6.03419 27.7046 8.80283C29.1199 10.913 29.245 13.9744 28.0836 17.9154C27.5806 17.5679 26.9975 17.331 26.3658 17.2387V15.6254C26.3658 15.2767 26.1678 14.9584 25.8543 14.8042C23.0213 13.4156 21.1432 8.76638 21.125 8.72022C20.9184 8.1541 20.1446 7.95608 19.6914 8.35455C13.0146 13.9003 6.70959 13.3792 6.64885 13.3755ZM17.9943 34.3328C17.512 34.8297 16.8608 35.0727 16.0056 35.0727C15.1503 35.0727 14.5004 34.8309 14.0181 34.334C13.4483 33.7473 13.209 32.9042 13.1094 32.2712H18.9018C18.8034 32.9042 18.5653 33.746 17.9943 34.3328ZM16.0056 30.4441C11.3005 30.4441 7.47252 26.6161 7.47252 21.911V15.2196C9.54504 15.1783 14.5296 14.6025 19.9283 10.5C20.69 12.0428 22.2863 14.7944 24.5399 16.1636V21.911C24.5387 26.6161 20.7107 30.4441 16.0056 30.4441Z" fill="url(#paint3_linear)"/>
<defs>
<linearGradient id="paint0_linear" x1="1.24917e-07" y1="28.4809" x2="32.0039" y2="28.4809" gradientUnits="userSpaceOnUse">
<stop stop-color="#FF8BDE"/>
<stop offset="1" stop-color="#669FFF"/>
</linearGradient>
<linearGradient id="paint1_linear" x1="1.24917e-07" y1="28.4809" x2="32.0039" y2="28.4809" gradientUnits="userSpaceOnUse">
<stop stop-color="#FF8BDE"/>
<stop offset="1" stop-color="#669FFF"/>
</linearGradient>
<linearGradient id="paint2_linear" x1="1.24917e-07" y1="28.4809" x2="32.0039" y2="28.4809" gradientUnits="userSpaceOnUse">
<stop stop-color="#FF8BDE"/>
<stop offset="1" stop-color="#669FFF"/>
</linearGradient>
<linearGradient id="paint3_linear" x1="1.24917e-07" y1="28.4809" x2="32.0039" y2="28.4809" gradientUnits="userSpaceOnUse">
<stop stop-color="#FF8BDE"/>
<stop offset="1" stop-color="#669FFF"/>
</linearGradient>
</defs>
</svg>
