<svg width="85" height="86" viewBox="0 0 85 86" fill="none" xmlns="http://www.w3.org/2000/svg">
<g clip-path="url(#clip0)">
<path d="M78.1335 27.5156C75.9757 27.5156 74.2202 29.2711 74.2202 31.4288C74.2202 33.5867 75.9757 35.3421 78.1335 35.3421C80.2912 35.3421 82.0467 33.5867 82.0467 31.4288C82.0467 29.2711 80.2914 27.5156 78.1335 27.5156ZM78.1335 32.8519C77.3488 32.8519 76.7104 32.2134 76.7104 31.4288C76.7104 30.6442 77.3489 30.0059 78.1335 30.0059C78.9181 30.0059 79.5565 30.6442 79.5565 31.4288C79.5566 32.2134 78.9183 32.8519 78.1335 32.8519Z" fill="white"/>
<path d="M52.9338 53.4521C50.7761 53.4521 49.0205 55.2076 49.0205 57.3655C49.0205 59.5232 50.776 61.2786 52.9338 61.2786C55.0915 61.2786 56.847 59.5232 56.847 57.3655C56.847 55.2076 55.0915 53.4521 52.9338 53.4521ZM52.9338 58.7884C52.1492 58.7884 51.5107 58.1501 51.5107 57.3655C51.5107 56.5809 52.1492 55.9424 52.9338 55.9424C53.7184 55.9424 54.3568 56.5809 54.3568 57.3655C54.3568 58.1502 53.7186 58.7884 52.9338 58.7884Z" fill="white"/>
<path d="M69.3121 12.4365C67.1544 12.4365 65.3989 14.192 65.3989 16.3498C65.3989 18.5075 67.1544 20.263 69.3121 20.263C71.47 20.263 73.2254 18.5075 73.2254 16.3498C73.2256 14.192 71.47 12.4365 69.3121 12.4365ZM69.3121 17.7726C68.5275 17.7726 67.8892 17.1343 67.8892 16.3497C67.8892 15.5651 68.5273 14.9266 69.3121 14.9266C70.0968 14.9266 70.7352 15.5651 70.7352 16.3497C70.7353 17.1343 70.0968 17.7726 69.3121 17.7726Z" fill="white"/>
<path d="M6.86693 41.0986C4.70906 41.0986 2.95361 42.8541 2.95361 45.0118C2.95361 47.1697 4.70906 48.9251 6.86693 48.9251C9.02447 48.9251 10.7801 47.1697 10.7801 45.0118C10.7801 42.8541 9.02464 41.0986 6.86693 41.0986ZM6.86693 46.4349C6.08218 46.4349 5.44385 45.7964 5.44385 45.0118C5.44385 44.2272 6.08234 43.5889 6.86693 43.5889C7.65152 43.5889 8.28985 44.2272 8.28985 45.0118C8.28985 45.7964 7.65169 46.4349 6.86693 46.4349Z" fill="white"/>
<path d="M78.0483 57.0123C77.957 56.0232 77.4504 55.1747 76.6588 54.6841C75.3687 53.8846 74.0615 52.976 72.7735 51.9837C72.2295 51.5644 71.4472 51.6651 71.0272 52.2102C70.6075 52.7549 70.709 53.5366 71.2537 53.9565C72.6082 55.0001 73.9853 55.957 75.3469 56.801C75.4655 56.8742 75.5505 57.0432 75.5689 57.2418C75.5895 57.4661 75.5221 57.6786 75.3924 57.7968C73.8621 59.1923 70.9716 61.2094 65.8917 62.8924C61.4896 64.3509 56.2588 65.2894 50.2869 65.7034C45.6836 65.1619 38.5131 63.568 37.4789 61.8099C35.1785 57.899 31.356 58.5483 26.5171 59.3698C26.0544 59.4483 25.8321 59.391 25.7735 59.3449C25.5067 59.1338 25.4335 57.9986 25.3897 57.3205C25.2962 55.8715 25.1905 54.2294 23.9399 53.2634C23.1337 52.641 22.0675 52.4687 20.6805 52.7371C19.1065 53.0422 17.7437 52.9184 16.6081 52.3747C16.9006 52.1278 17.1927 51.8768 17.4837 51.6215C19.4749 49.878 21.4742 47.9002 23.4262 45.7434C23.6967 45.4444 23.8057 45.033 23.7187 44.6394C23.6319 44.2457 23.3596 43.9185 22.9884 43.7613C21.1379 42.978 19.5851 42.0747 18.372 41.0752C18.213 40.9445 18.1673 40.7096 18.1776 40.5335C18.1898 40.3241 18.2759 40.1437 18.4019 40.0628C20.2283 38.8906 22.0594 37.4763 23.87 35.8443C24.027 36.5059 24.3269 37.1457 24.8637 37.6298C25.491 38.1955 26.6577 38.7279 28.6524 38.0517C30.7339 37.346 31.6466 36.2244 32.2506 35.4819C32.3793 35.3239 32.5503 35.1139 32.6444 35.033C32.787 35.0506 33.2676 35.1831 34.5609 36.055C35.6584 36.7958 36.703 37.0579 37.6649 36.8351C39.2037 36.4784 40.0426 35.0176 40.7166 33.8439C40.9968 33.3558 41.5188 32.4473 41.7711 32.3655C41.7729 32.3655 41.9104 32.3705 42.2198 32.5953C43.367 33.4283 43.792 34.4794 44.2421 35.592C44.9686 37.3883 45.8727 39.6239 49.9809 39.7158C50.0213 39.7168 50.0609 39.7172 50.1004 39.7172C51.5946 39.7172 52.4285 39.0773 52.8674 38.5326C53.8004 37.3747 53.7941 35.715 53.539 34.1256C55.5071 36.1827 57.9191 38.3092 60.4482 38.3092C60.5051 38.3092 60.5626 38.3082 60.6199 38.3059C61.6732 38.2655 62.6371 37.8644 63.4984 37.1134C64.8207 38.2127 66.1628 39.2033 67.5004 40.0623C67.6269 40.1435 67.7129 40.3239 67.7252 40.5331C67.7383 40.7579 67.6639 40.9654 67.5293 41.0762C66.318 42.0744 64.7656 42.9777 62.9144 43.7611C62.5431 43.9184 62.2709 44.2457 62.1841 44.6394C62.0971 45.0331 62.2063 45.4447 62.4769 45.7435C64.0971 47.5325 65.7504 49.2011 67.3911 50.7026C67.63 50.9211 67.9312 51.0291 68.2315 51.0291C68.5687 51.0291 68.9049 50.893 69.1504 50.6245C69.6146 50.1172 69.5797 49.3296 69.0724 48.8653C67.8759 47.7704 66.6711 46.5822 65.4775 45.3199C66.8712 44.6193 68.0891 43.8418 69.1117 42.9991C69.86 42.3845 70.271 41.4085 70.2114 40.388C70.1528 39.3836 69.6428 38.4788 68.8466 37.9672C67.3038 36.9764 65.7499 35.798 64.2272 34.4636C62.4595 32.9173 60.6901 31.13 58.9527 29.136C60.2179 28.5968 61.337 27.98 62.2945 27.2935C63.0912 26.7201 63.5573 25.7547 63.5416 24.7113C63.526 23.6757 63.0357 22.7331 62.2302 22.1897C54.6177 17.0583 48.8346 7.34727 46.0646 2.01534C45.4186 0.771885 44.2549 0.0292969 42.9518 0.0292969C42.9516 0.0292969 42.9516 0.0292969 42.9516 0.0292969C41.6484 0.0292969 40.4848 0.771885 39.8387 2.01551C38.0324 5.49221 35.0694 10.5997 31.2105 15.1875C30.7678 15.7138 30.8355 16.4992 31.3618 16.9418C31.8885 17.3847 32.6736 17.3165 33.1161 16.7906C34.021 15.7148 34.8771 14.6128 35.683 13.5098C35.9974 13.913 36.393 14.2676 36.8914 14.5153C37.5473 14.8415 38.6449 15.0949 40.1493 14.4519C40.9812 14.0956 41.6077 13.7644 42.1111 13.4985C42.3083 13.3942 42.5346 13.2745 42.7121 13.19C42.9259 13.5742 43.2131 14.2666 43.3235 14.5331C43.6517 15.3246 44.1564 16.2543 45.1538 16.4189C45.2538 16.4353 45.3506 16.4431 45.4447 16.4431C46.3595 16.4431 47.0062 15.7057 47.5833 15.0477C48.4263 14.086 49.1012 13.4053 50.1082 13.4053C50.122 13.4053 50.1355 13.4037 50.1493 13.4033C53.0718 17.4179 56.6843 21.4549 60.8377 24.2548C60.9662 24.3415 61.0483 24.531 61.0515 24.7494C61.055 24.9723 60.9718 25.1775 60.8415 25.2715C59.6787 26.105 58.2058 26.8289 56.4637 27.4224C56.0763 27.5544 55.7785 27.8685 55.6671 28.2621C55.5557 28.6559 55.6449 29.0792 55.9058 29.3946C57.7659 31.6437 59.6747 33.6714 61.5929 35.4418C61.2489 35.6767 60.8948 35.8035 60.5242 35.8176C60.498 35.8188 60.4716 35.8193 60.4449 35.8193C58.4447 35.8193 55.8431 32.9763 54.1139 31.0868C53.8507 30.7993 53.5986 30.5237 53.3593 30.2682C52.9428 29.8236 52.0759 28.8991 51.0637 29.4453C50.0427 29.9963 50.2985 31.057 50.6526 32.5249C50.941 33.7207 51.5415 36.2091 50.928 36.9703C50.7833 37.1502 50.4795 37.2364 50.0365 37.2263C47.5665 37.171 47.227 36.3311 46.5504 34.6583C46.0414 33.3994 45.4077 31.8327 43.6831 30.5805C42.8573 29.981 42.0415 29.7619 41.257 29.9297C39.9302 30.2134 39.2007 31.4833 38.5572 32.6037C38.1239 33.3583 37.5845 34.2974 37.1023 34.4093C36.8489 34.4681 36.441 34.3197 35.9533 33.9906C34.355 32.913 33.3872 32.5068 32.5049 32.5425C31.3958 32.587 30.7988 33.3207 30.319 33.9103C29.8203 34.523 29.255 35.2178 27.853 35.6931C27.2178 35.9088 26.7117 35.9421 26.5317 35.7806C26.2096 35.4917 26.1477 34.4239 26.2865 33.5224C27.5381 32.2458 28.7855 30.8599 29.9986 29.3948C30.2598 29.0795 30.3491 28.656 30.2377 28.2621C30.1263 27.8681 29.8284 27.554 29.4408 27.422C27.6978 26.8287 26.2242 26.1049 25.0631 25.2723C24.9312 25.1775 24.8481 24.972 24.8515 24.7494C24.8549 24.531 24.9368 24.3413 25.0651 24.2548C26.423 23.3394 27.7908 22.2453 29.1305 21.0025C29.6347 20.5349 29.6643 19.747 29.1966 19.2428C28.7289 18.7389 27.941 18.709 27.4368 19.1767C26.1909 20.3325 24.9245 21.3462 23.6726 22.1901C22.8671 22.7334 22.377 23.6761 22.3614 24.7115C22.3456 25.7551 22.8118 26.7203 23.6102 27.2949C24.5664 27.9805 25.6854 28.5969 26.9506 29.136C26.0584 30.1588 25.1538 31.1323 24.2487 32.0438C21.8756 34.434 19.4558 36.4269 17.056 37.9675C16.2602 38.479 15.7502 39.384 15.6916 40.3884C15.6321 41.4087 16.0432 42.3847 16.7897 42.9981C17.8137 43.8418 19.0321 44.6198 20.4257 45.3202C18.9091 46.9239 17.3725 48.4087 15.8423 49.7488C13.6627 51.6612 11.4429 53.3216 9.24434 54.6843C8.45228 55.1749 7.94593 56.0237 7.85445 57.0128C7.76198 58.0136 8.12771 58.9947 8.83295 59.637C10.1501 60.8373 12.5361 62.6064 16.4238 64.2172C17.3597 64.6041 18.3642 64.9741 19.4121 65.3179C19.5833 65.3737 19.7598 65.43 19.9406 65.4864V68.0897C19.9406 70.111 21.5849 71.7554 23.6062 71.7554C25.6274 71.7554 27.2718 70.111 27.2718 68.0897V67.2271C27.5942 67.2829 27.9193 67.3367 28.2462 67.3885V75.9479C28.2462 77.7274 29.694 79.1751 31.4733 79.1751C33.2527 79.1751 34.7005 77.7273 34.7005 75.9479V68.1355C35.1245 68.1684 35.5475 68.1985 35.967 68.225C36.6127 68.2662 37.2691 68.3007 37.9325 68.3301V83.7842C37.9325 84.472 38.4898 85.0293 39.1776 85.0293H46.7247C47.4125 85.0293 47.9698 84.472 47.9698 83.7842V78.8303C47.9698 78.1425 47.4125 77.5852 46.7247 77.5852C46.0369 77.5852 45.4796 78.1425 45.4796 78.8303V82.5391H40.4227V68.4121C41.2576 68.4302 42.1011 68.4397 42.9513 68.4397C43.8144 68.4397 44.6556 68.4297 45.4796 68.4121V73.7386C45.4796 74.4264 46.0369 74.9837 46.7247 74.9837C47.4125 74.9837 47.9698 74.4264 47.9698 73.7386V68.3309C65.7199 67.5452 73.7623 62.6534 77.0698 59.6367C77.7751 58.9942 78.1408 58.0131 78.0483 57.0123ZM45.711 13.4057C45.6766 13.4447 45.6403 13.4862 45.6029 13.5285C44.9684 12.0013 44.5074 11.0486 43.5656 10.7092C42.6689 10.3865 41.9094 10.7883 40.9475 11.2968C40.4842 11.5418 39.9074 11.8466 39.1698 12.1624C38.664 12.3787 38.2707 12.42 38.0001 12.2854C37.72 12.1463 37.4589 11.7729 37.2643 11.2529C39.2784 8.2577 40.8937 5.38662 42.0485 3.16367C42.2612 2.75428 42.5904 2.51953 42.9516 2.51953C43.3129 2.51953 43.6419 2.75428 43.8546 3.16351C44.9759 5.32204 46.5778 8.17402 48.5902 11.1723C47.2573 11.6436 46.3599 12.6656 45.711 13.4057ZM36.1262 65.7401C35.2812 65.6861 34.4216 65.6189 33.5706 65.5402C33.2213 65.5083 32.8755 65.6242 32.617 65.86C32.3582 66.0959 32.2108 66.4299 32.2108 66.78V75.9474C32.2108 76.3538 31.8802 76.6844 31.4738 76.6844C31.0674 76.6844 30.7369 76.3538 30.7369 75.9474V66.3164C30.7369 65.6968 30.2812 65.1713 29.6679 65.0837C28.5086 64.9182 27.3644 64.7249 26.2676 64.5091C25.9018 64.4369 25.5238 64.533 25.2363 64.7692C24.9487 65.0055 24.7822 65.3584 24.7822 65.7308V68.0892C24.7822 68.7374 24.255 69.2646 23.6068 69.2646C22.9587 69.2646 22.4315 68.7374 22.4315 68.0892V64.5612C22.4315 64.0081 22.0666 63.5211 21.5355 63.3661C21.0592 63.227 20.6048 63.087 20.1871 62.9509C19.2005 62.6272 18.2545 62.2787 17.3769 61.9161C13.8225 60.4434 11.6813 58.8629 10.5112 57.7964C10.3819 57.6787 10.3143 57.4662 10.3351 57.2419C10.3533 57.0434 10.4383 56.8744 10.557 56.801C11.8812 55.9802 13.2104 55.0555 14.5329 54.0425C16.3352 55.2808 18.601 55.6764 21.1546 55.182C21.7626 55.0641 22.2234 55.0836 22.4185 55.2343C22.7786 55.5124 22.849 56.6036 22.9056 57.4805C22.9937 58.8488 23.0939 60.3997 24.2299 61.298C24.9112 61.8367 25.8215 62.0139 26.935 61.825C32.2003 60.9305 34.0144 60.8299 35.3334 63.0726C35.9644 64.1452 37.3725 65.0807 39.6024 65.9003C38.4189 65.8653 37.2571 65.8122 36.1262 65.7401Z" fill="white"/>
</g>
<defs>
<clipPath id="clip0">
<rect width="85" height="85" fill="white" transform="translate(0 0.0292969)"/>
</clipPath>
</defs>
</svg>
