<svg width="25" height="25" viewBox="0 0 25 25" fill="none" xmlns="http://www.w3.org/2000/svg">
<path d="M14.3609 12.5022L24.6147 2.24839C25.1285 1.73452 25.1285 0.901416 24.6147 0.387598C24.1008 -0.126269 23.2676 -0.126269 22.7538 0.387598L12.5 10.6414L2.24619 0.387598C1.73232 -0.126269 0.899217 -0.126269 0.3854 0.387598C-0.128418 0.901465 -0.128467 1.73457 0.3854 2.24839L10.6392 12.5022L0.3854 22.756C-0.128467 23.2699 -0.128467 24.103 0.3854 24.6168C0.899266 25.1307 1.73237 25.1306 2.24619 24.6168L12.5 14.363L22.7537 24.6168C23.2676 25.1307 24.1007 25.1306 24.6146 24.6168C25.1284 24.1029 25.1284 23.2698 24.6146 22.756L14.3609 12.5022Z"/>
<defs>
<linearGradient id="paint0_linear" x1="9.75794e-08" y1="12.881" x2="25" y2="12.881" gradientUnits="userSpaceOnUse">
<stop stop-color="#FF8BDE"/>
<stop offset="1" stop-color="#669FFF"/>
</linearGradient>
</defs>
</svg>
