<svg width="54" height="81" viewBox="0 0 54 81" fill="none" xmlns="http://www.w3.org/2000/svg">
<path d="M41.9274 21.4608C42.2529 21.4608 42.581 21.435 42.9086 21.3831C44.5396 21.1245 45.9721 20.2463 46.9424 18.9102L52.8306 10.8027C53.0692 10.4741 53.1208 10.0453 52.9667 9.66956C52.8127 9.29378 52.475 9.02456 52.0744 8.958C51.97 8.94066 49.6607 8.56144 46.8408 8.53019C45.9377 5.85926 44.8647 3.78129 44.8152 3.68567C44.628 3.3252 44.2675 3.08739 43.8625 3.05723C43.458 3.02629 43.0657 3.20848 42.8271 3.53723L36.9388 11.6447C35.9685 12.9808 35.5765 14.6147 35.8351 16.2456C36.0265 17.4533 36.5585 18.5516 37.3638 19.4345C36.4724 20.4938 34.903 22.4213 33.1824 24.82V23.7953C33.1824 23.1481 32.6577 22.6234 32.0105 22.6234C31.3633 22.6234 30.8387 23.1481 30.8387 23.7953V28.2728C29.8982 29.745 28.9823 31.3016 28.1724 32.8817V26.3008C28.1724 26.3006 28.1724 26.3003 28.1724 26.3V24.2808L31.5868 20.8664C32.0444 20.4088 32.0444 19.6667 31.5868 19.2092C31.1291 18.7516 30.3871 18.7516 29.9296 19.2092L28.1721 20.9663V17.3392C31.0221 16.7899 33.1821 14.2781 33.1821 11.2702V1.25005C33.1821 0.843954 32.9718 0.466767 32.6263 0.253174C32.2808 0.0395808 31.8496 0.0202058 31.4862 0.201924C31.3915 0.249268 29.3018 1.30036 27.0004 2.93145C24.7001 1.30098 22.6105 0.250049 22.5143 0.201924C22.1509 0.0202058 21.7195 0.039737 21.3741 0.253174C21.0287 0.466767 20.8184 0.843954 20.8184 1.25005V11.2702C20.8184 14.2781 22.9784 16.79 25.8284 17.3392V23.4713L22.8188 20.4617C22.3612 20.0041 21.6191 20.0041 21.1616 20.4617C20.704 20.9194 20.704 21.6614 21.1616 22.1189L25.8285 26.7858V32.8817C22.8395 27.0502 18.4048 21.5349 16.6371 19.4345C17.4424 18.5516 17.9745 17.4533 18.1659 16.2456C18.4245 14.6147 18.0324 12.9808 17.0621 11.6447L11.1738 3.53723C10.9353 3.20848 10.5429 3.02645 10.1384 3.05723C9.73338 3.08739 9.37291 3.3252 9.18572 3.68567C9.13573 3.78129 8.06276 5.85941 7.15979 8.53035C4.3412 8.56191 2.03074 8.94066 1.92621 8.958C1.52558 9.02456 1.18777 9.29378 1.03386 9.66956C0.879803 10.0453 0.931364 10.4741 1.16996 10.8027L7.05823 18.9102C8.02854 20.2463 9.46104 21.1244 11.092 21.3831C11.4198 21.4352 11.7476 21.4608 12.0732 21.4608C13.0052 21.4608 13.9177 21.2492 14.7543 20.8419C15.1163 21.2727 15.6165 21.8783 16.2085 22.6236H15.1796C14.5324 22.6236 14.0077 23.1483 14.0077 23.7955C14.0077 24.4427 14.5324 24.9673 15.1796 24.9673H18.0102C19.7224 27.2697 21.7066 30.1667 23.3201 33.1556C21.414 31.2826 19.2959 29.602 16.9829 28.13C9.9651 23.6641 3.64198 22.6764 3.3762 22.6366C3.03917 22.5861 2.69621 22.685 2.43777 22.9075C2.17918 23.1302 2.03058 23.4544 2.03058 23.7955C2.03058 23.9828 2.05636 28.4548 4.29136 34.6812C6.30964 40.3036 10.5968 48.4676 19.5659 55.6706V59.9649L14.5954 78.6043C14.5015 78.956 14.5765 79.3315 14.7984 79.6202C15.0201 79.909 15.3635 80.0782 15.7276 80.0782H38.2729C38.6369 80.0782 38.9804 79.909 39.2021 79.6202C39.424 79.3315 39.499 78.9561 39.405 78.6043L34.4346 59.9649V55.6706C43.4035 48.4676 47.6908 40.3036 49.7091 34.6812C51.9442 28.4548 51.9699 23.9828 51.9699 23.7955C51.9699 23.4544 51.8211 23.1302 51.5627 22.9075C51.3042 22.6849 50.9619 22.5858 50.6241 22.6366C50.4689 22.6598 46.7664 23.2325 41.8918 25.4761C38.6977 26.9461 34.5513 29.3662 30.6704 33.1753C32.2858 30.1801 34.2752 27.2752 35.9911 24.9673H38.8207C39.4679 24.9673 39.9925 24.4427 39.9925 23.7955C39.9925 23.1483 39.4679 22.6236 38.8207 22.6236H37.7925C38.3844 21.8784 38.8843 21.2728 39.2461 20.842C40.083 21.2492 40.9954 21.4608 41.9274 21.4608ZM49.765 11.0353L47.9955 13.4717C47.9121 12.6697 47.7603 11.811 47.5342 10.8913C48.3594 10.9194 49.1239 10.9749 49.765 11.0353ZM6.00495 13.4717L4.23511 11.0349C4.87558 10.9744 5.63995 10.9192 6.4662 10.8914C6.24011 11.8111 6.08839 12.6697 6.00495 13.4717ZM14.3156 18.383C13.4859 18.9855 12.4715 19.2289 11.4588 19.0683C10.4463 18.9077 9.55697 18.3625 8.95448 17.533C7.27401 15.2192 9.05651 9.75144 10.4445 6.5216L15.1656 13.0219C16.4091 14.7342 16.0279 17.1392 14.3156 18.383ZM30.8383 3.23957V6.24598C30.3004 5.6477 29.6705 5.04332 28.949 4.43379C29.633 3.9716 30.284 3.56739 30.8383 3.23957ZM23.1621 11.2702V3.23629C26.1834 5.0341 30.8385 8.4105 30.8385 11.2702C30.8385 13.3866 29.1166 15.1083 27.0004 15.1083C24.8841 15.1083 23.1621 13.3866 23.1621 11.2702ZM6.53339 33.9897C5.14667 30.158 4.65042 26.9995 4.47276 25.2584C6.65823 25.7908 11.0484 27.1316 15.7246 30.1073C19.5985 32.5726 22.8884 35.6576 25.5021 39.277C28.5262 43.4642 30.6518 48.391 31.8346 53.9365H29.1051C27.6065 47.3625 24.6571 41.7664 20.3277 37.2931C19.8777 36.8279 19.1359 36.8158 18.6707 37.2661C18.2056 37.7161 18.1935 38.4581 18.6437 38.9231C22.5559 42.9653 25.2591 48.0117 26.6959 53.9365H21.1495C12.5654 47.0832 8.46323 39.3226 6.53339 33.9897ZM32.0908 56.2801V58.9465H21.9095V56.2801H32.0908ZM36.7475 77.7343H31.7838L31.5855 76.2466C31.5001 75.6052 30.9107 75.1541 30.2691 75.2399C29.6276 75.3254 29.1769 75.9147 29.2624 76.5563L29.4194 77.7341H17.2531L21.638 61.2901H27.2268L28.5943 71.5462C28.6727 72.1352 29.176 72.5633 29.7544 72.5633C29.806 72.5633 29.8582 72.5599 29.9107 72.5529C30.5522 72.4674 31.0029 71.878 30.9174 71.2365L29.5912 61.2901H32.3624L36.7475 77.7343ZM42.7972 27.6395C45.6299 26.3286 48.0685 25.6148 49.5274 25.2592C49.3497 27.0009 48.8533 30.1587 47.4669 33.9897C45.6269 39.0743 41.8133 46.3662 34.0221 52.9742C32.8944 47.9368 31.0151 43.3825 28.4173 39.3915C32.9221 33.1058 38.6974 29.5367 42.7972 27.6395ZM38.8349 13.0219L43.5568 6.52051C44.946 9.74878 46.7297 15.2147 45.046 17.533C44.4435 18.3625 43.5541 18.9077 42.5416 19.0683C41.5289 19.2288 40.5146 18.9855 39.685 18.383C37.9725 17.1392 37.5913 14.7344 38.8349 13.0219Z" fill="white"/>
</svg>
