<svg width="36" height="56" viewBox="0 0 36 56" fill="none" xmlns="http://www.w3.org/2000/svg">
<path d="M4.66052 22.744L1.5906 26.8376C1.15218 27.4207 0.847476 28.0933 0.6981 28.8074C0.548724 29.5215 0.558341 30.2598 0.726266 30.9698L3.89021 44.418V54.2815C3.89021 54.5219 3.98569 54.7524 4.15565 54.9223C4.3256 55.0923 4.55611 55.1878 4.79646 55.1878H16.5777C16.8181 55.1878 17.0486 55.0923 17.2185 54.9223C17.3885 54.7524 17.484 54.5219 17.484 54.2815V46.4431L18.7646 44.8424C20.2795 42.9438 21.1059 40.5877 21.109 38.1588C21.109 38.1157 21.1081 38.0729 21.1068 38.03C21.1083 38.0097 21.109 37.9893 21.109 37.9687C21.1081 37.2905 21.0272 36.6147 20.8681 35.9554C21.3661 35.5228 21.7166 34.9455 21.8709 34.3042C22.0253 33.6628 21.9757 32.9893 21.7291 32.3775L21.3651 31.4676C21.3523 31.4358 21.3377 31.4048 21.3213 31.3747C21.6229 30.667 21.6317 29.8686 21.3458 29.1544C21.3342 29.1252 21.321 29.0967 21.3064 29.0689L20.4908 27.5192L33.6055 14.4047C34.3448 13.6654 34.9313 12.7876 35.3314 11.8216C35.7316 10.8556 35.9375 9.82023 35.9375 8.77463C35.9375 7.72903 35.7316 6.69367 35.3314 5.72766C34.9313 4.76165 34.3448 3.88391 33.6055 3.14455C32.8661 2.4052 31.9884 1.81872 31.0224 1.41858C30.0564 1.01845 29.021 0.8125 27.9754 0.8125C26.9298 0.8125 25.8944 1.01845 24.9284 1.41858C23.9624 1.81872 23.0847 2.4052 22.3453 3.14455L18.4006 7.08957L14.4558 3.14478C13.7165 2.40543 12.8388 1.81894 11.8727 1.41881C10.9067 1.01867 9.87137 0.812727 8.82576 0.812727C7.78016 0.812727 6.7448 1.01867 5.77879 1.41881C4.81278 1.81894 3.93504 2.40543 3.19568 3.14478C2.45633 3.88413 1.86985 4.76187 1.46971 5.72788C1.06958 6.69389 0.86363 7.72926 0.86363 8.77486C0.86363 9.82046 1.06958 10.8558 1.46971 11.8218C1.86985 12.7878 2.45633 13.6656 3.19568 14.4049L9.54136 20.7503H8.64803C7.87455 20.7521 7.11202 20.9331 6.4202 21.279C5.72838 21.6249 5.12608 22.1264 4.66052 22.744ZM17.3496 43.7101L15.8703 45.5589C15.7418 45.7197 15.6718 45.9194 15.6718 46.1253V53.3753H5.70305V44.3128C5.70302 44.2429 5.69492 44.1732 5.67892 44.1051L2.49062 30.5548C2.38372 30.1029 2.37757 29.6331 2.47262 29.1786C2.56767 28.7242 2.76159 28.2962 3.0406 27.9251L6.11052 23.8315C6.40678 23.4384 6.79005 23.1193 7.2303 22.8992C7.67056 22.6791 8.15581 22.5639 8.64803 22.5628H9.59324L9.54635 25.2815H8.42146C8.18111 25.2815 7.9506 25.377 7.78065 25.547C7.61069 25.7169 7.51521 25.9474 7.51521 26.1878C7.51521 26.4281 7.61069 26.6586 7.78065 26.8286C7.9506 26.9985 8.18111 27.094 8.42146 27.094H9.51508L9.49412 28.3106L7.01247 29.965C6.91217 30.0305 6.82584 30.1151 6.75846 30.2142C6.69108 30.3132 6.644 30.4246 6.61993 30.5419C6.59587 30.6592 6.5953 30.7801 6.61825 30.8977C6.6412 31.0152 6.68723 31.1271 6.75366 31.2267C6.8201 31.3264 6.90563 31.4118 7.0053 31.4782C7.10498 31.5446 7.21683 31.5906 7.33438 31.6135C7.45193 31.6364 7.57286 31.6358 7.69017 31.6117C7.80749 31.5876 7.91886 31.5404 8.01784 31.473L9.45651 30.5142L9.42853 32.138C9.42648 32.257 9.44788 32.3752 9.49152 32.4859C9.53516 32.5967 9.60018 32.6977 9.68287 32.7833C9.76556 32.8689 9.86431 32.9374 9.97346 32.9848C10.0826 33.0322 10.2 33.0577 10.319 33.0598H10.335C10.5727 33.0598 10.8008 32.9665 10.9704 32.7999C11.1399 32.6333 11.2372 32.4068 11.2413 32.1691L11.4216 21.7149C11.4216 21.712 11.4216 21.7093 11.4216 21.7066C11.4216 21.6996 11.4231 21.6927 11.4233 21.6856C11.4374 21.1933 11.6419 20.7255 11.9938 20.3808C12.3456 20.0361 12.8174 19.8412 13.31 19.8371C13.8026 19.8331 14.2775 20.0202 14.635 20.3591C14.9925 20.698 15.2046 21.1623 15.2268 21.6544L15.6737 30.7633C15.6828 30.9537 15.7516 31.1363 15.8703 31.2854L17.797 33.6937C18.749 34.8866 19.2766 36.3627 19.2965 37.8888C19.2935 37.9227 19.2924 37.9568 19.2932 37.9908L19.2948 38.0508C19.2958 38.0871 19.297 38.1232 19.297 38.1596C19.2943 40.1767 18.6078 42.1334 17.3496 43.7101ZM19.5416 33.005C19.685 32.9585 19.8245 32.901 19.959 32.833L20.0465 33.0515C20.1572 33.3266 20.1754 33.6302 20.0984 33.9166C19.9318 33.6013 19.7459 33.2973 19.5416 33.005ZM19.6775 29.8654C19.7512 30.0714 19.7619 30.2946 19.7081 30.5067C19.6544 30.7187 19.5387 30.9099 19.3758 31.0559C19.2129 31.2019 19.0103 31.2961 18.7936 31.3264C18.577 31.3567 18.3563 31.3218 18.1596 31.2261C18.1518 31.2222 18.1436 31.2195 18.1357 31.2159L17.4688 30.3824L17.3809 28.5902L17.7599 28.9693C17.9299 29.1392 18.1604 29.2347 18.4007 29.2347C18.641 29.2347 18.8715 29.1392 19.0415 28.9693L19.1492 28.8615L19.6775 29.8654ZM2.6764 8.77475C2.67642 7.5585 3.03708 6.36958 3.7128 5.35832C4.38851 4.34705 5.34892 3.55887 6.47258 3.09344C7.59624 2.628 8.83269 2.50622 10.0256 2.7435C11.2184 2.98077 12.3142 3.56644 13.1742 4.42645L17.7599 9.01207C17.9299 9.182 18.1604 9.27746 18.4007 9.27746C18.641 9.27746 18.8715 9.182 19.0415 9.01207L23.6271 4.42645C24.7824 3.28289 26.3434 2.64326 27.969 2.6474C29.5945 2.65155 31.1523 3.29912 32.3017 4.44855C33.4511 5.59799 34.0987 7.15576 34.1029 8.7813C34.107 10.4068 33.4674 11.9679 32.3238 13.1232L18.7407 26.7063C18.7381 26.7088 18.7356 26.7114 18.733 26.714L18.4006 27.0463L17.2486 25.8943L17.0362 21.5659C16.9993 20.834 16.7472 20.1292 16.3114 19.54C15.8755 18.9508 15.2754 18.5034 14.5864 18.2539C13.8973 18.0045 13.1498 17.964 12.4378 18.1377C11.7259 18.3113 11.081 18.6913 10.5841 19.23L4.47746 13.1234C3.90461 12.5536 3.45047 11.8759 3.14131 11.1295C2.83216 10.383 2.67414 9.58268 2.6764 8.77475Z" fill="url(#paint0_linear)"/>
<path d="M19.6883 23.8421C19.8073 23.8422 19.9252 23.8188 20.0351 23.7733C20.1451 23.7277 20.2449 23.6609 20.329 23.5766L21.2352 22.6704C21.3209 22.5866 21.3892 22.4866 21.436 22.3763C21.4828 22.2659 21.5072 22.1474 21.5079 22.0275C21.5085 21.9076 21.4854 21.7888 21.4399 21.678C21.3943 21.5671 21.3272 21.4664 21.2424 21.3816C21.1577 21.2969 21.057 21.2298 20.9461 21.1842C20.8352 21.1387 20.7164 21.1155 20.5966 21.1162C20.4767 21.1169 20.3582 21.1413 20.2478 21.1881C20.1375 21.2349 20.0375 21.3031 19.9537 21.3888L19.0474 22.2951C18.9207 22.4218 18.8344 22.5833 18.7995 22.7591C18.7645 22.9349 18.7825 23.1171 18.8511 23.2826C18.9197 23.4482 19.0358 23.5897 19.1848 23.6893C19.3339 23.7889 19.509 23.842 19.6883 23.8421Z" fill="url(#paint1_linear)"/>
<path d="M22.8601 20.6702C22.9792 20.6703 23.097 20.647 23.207 20.6014C23.3169 20.5559 23.4168 20.489 23.5009 20.4048L25.7665 18.1391C25.8522 18.0553 25.9204 17.9554 25.9672 17.845C26.014 17.7347 26.0385 17.6161 26.0391 17.4963C26.0398 17.3764 26.0167 17.2576 25.9711 17.1467C25.9256 17.0359 25.8585 16.9351 25.7737 16.8504C25.6889 16.7656 25.5882 16.6985 25.4773 16.653C25.3665 16.6074 25.2477 16.5843 25.1278 16.585C25.008 16.5856 24.8894 16.6101 24.7791 16.6569C24.6687 16.7037 24.5687 16.7719 24.4849 16.8576L22.2193 19.1232C22.0926 19.25 22.0063 19.4114 21.9714 19.5872C21.9364 19.763 21.9544 19.9452 22.023 20.1108C22.0916 20.2763 22.2077 20.4179 22.3567 20.5174C22.5057 20.617 22.6809 20.6702 22.8601 20.6702Z" fill="url(#paint2_linear)"/>
<defs>
<linearGradient id="paint0_linear" x1="0.592774" y1="28.824" x2="35.9375" y2="28.824" gradientUnits="userSpaceOnUse">
<stop stop-color="#FF8BDE"/>
<stop offset="1" stop-color="#669FFF"/>
</linearGradient>
<linearGradient id="paint1_linear" x1="0.592774" y1="28.824" x2="35.9375" y2="28.824" gradientUnits="userSpaceOnUse">
<stop stop-color="#FF8BDE"/>
<stop offset="1" stop-color="#669FFF"/>
</linearGradient>
<linearGradient id="paint2_linear" x1="0.592774" y1="28.824" x2="35.9375" y2="28.824" gradientUnits="userSpaceOnUse">
<stop stop-color="#FF8BDE"/>
<stop offset="1" stop-color="#669FFF"/>
</linearGradient>
</defs>
</svg>
