<svg width="52" height="44" viewBox="0 0 52 44" fill="none" xmlns="http://www.w3.org/2000/svg">
<path d="M11.1845 37.1133C10.0349 37.1133 9.15372 37.4827 9.15372 37.4827L8.91033 38.9278C8.91033 38.9278 9.63723 38.6323 10.7379 38.6323C11.3627 38.6323 11.819 38.7018 11.819 39.2092C11.819 39.5178 11.7636 39.6319 11.7636 39.6319C11.7636 39.6319 11.2714 39.5917 11.0432 39.5917C9.59268 39.5917 8.06934 40.2089 8.06934 42.0767C8.06934 43.5479 9.06788 43.8836 9.6883 43.8836C10.8716 43.8836 11.3822 43.1165 11.4083 43.1143L11.3529 43.7554H12.8295L13.488 39.1375C13.4869 37.1763 11.7777 37.1133 11.1845 37.1133ZM10.3565 42.4787C9.83607 42.4787 9.70025 42.0821 9.70025 41.8452C9.70025 41.3867 9.94907 40.8347 11.178 40.8347C11.4648 40.8358 11.4952 40.8652 11.543 40.8738C11.5756 41.1563 11.367 42.4787 10.3565 42.4787Z" fill="white"/>
<path d="M16.518 38.6633C16.7538 38.6633 17.6633 38.7383 17.6633 38.7383L17.8751 37.2584C17.8751 37.2584 17.2862 37.127 16.3279 37.127C15.087 37.127 13.8288 37.6224 13.8288 39.3164C13.8288 41.2374 15.928 41.0418 15.928 41.8524C15.928 42.3913 15.3413 42.4359 14.8893 42.4359C14.1059 42.4359 13.4018 42.1686 13.3996 42.1794L13.1758 43.6474C13.216 43.6582 13.6506 43.8516 15.0577 43.8516C15.4347 43.8516 17.5937 43.9494 17.5937 41.7209C17.5937 39.6369 15.5955 40.0487 15.5955 39.211C15.5955 38.7937 15.9204 38.6633 16.518 38.6633Z" fill="white"/>
<path d="M20.0451 38.8515H20.9329L21.1469 37.2738H20.3103L20.4809 36.2959H18.8043C18.7674 36.3318 17.8145 41.8112 17.8145 42.4762C17.8145 43.4661 18.3697 43.905 19.1509 43.8974C19.7626 43.8931 20.2396 43.7236 20.4081 43.6769L20.6178 42.2513C20.5026 42.2513 20.3342 42.3013 20.1853 42.3013C19.6018 42.3013 19.5377 41.9894 19.5747 41.7602L20.0451 38.8515Z" fill="white"/>
<path d="M6.0145 35.7793L4.36185 40.6797L4.27601 35.7793H1.82909L0.488281 43.7644H2.10616L3.12644 37.7449L3.27638 43.7644H4.43139L6.58602 37.7449L5.63094 43.7644H7.3477L8.67003 35.7793H6.0145Z" fill="white"/>
<path d="M38.3683 37.1133C37.2166 37.1133 36.3364 37.4827 36.3364 37.4827L36.092 38.9278C36.092 38.9278 36.82 38.6323 37.9196 38.6323C38.5443 38.6323 39.0018 38.7018 39.0018 39.2092C39.0018 39.5178 38.9442 39.6319 38.9442 39.6319C38.9442 39.6319 38.4531 39.5917 38.2227 39.5917C36.7732 39.5917 35.251 40.2089 35.251 42.0767C35.251 43.5479 36.2506 43.8836 36.8699 43.8836C38.0521 43.8836 38.5628 43.1165 38.59 43.1143L38.5345 43.7554H40.0101L40.6685 39.1375C40.6718 37.1763 38.9616 37.1133 38.3683 37.1133ZM37.5425 42.4787C37.021 42.4787 36.8862 42.0821 36.8862 41.8452C36.8862 41.3867 37.1351 40.8347 38.364 40.8347C38.6497 40.8358 38.6801 40.8652 38.729 40.8738C38.7605 41.1563 38.5508 42.4787 37.5425 42.4787Z" fill="white"/>
<path d="M44.0659 37.1924C43.3151 37.1924 42.7577 38.217 42.7577 38.217L42.9076 37.275H41.3452L40.2988 43.7747H42.0199C42.51 40.9975 42.5991 38.7451 43.7628 39.1569C43.9681 38.0834 44.1659 37.6672 44.3886 37.2141C44.3886 37.2152 44.2843 37.1924 44.0659 37.1924Z" fill="white"/>
<path d="M48.391 35.7865L48.0292 38.0302C48.0292 38.0302 47.399 37.1577 46.4102 37.1577C44.8727 37.1588 43.5928 39.0114 43.5928 41.1388C43.5928 42.5133 44.2762 43.8596 45.6714 43.8596C46.6764 43.8596 47.2327 43.1587 47.2327 43.1587L47.1599 43.7574H48.7908L50.073 35.7832L48.391 35.7865ZM46.2646 42.2297C45.6605 42.2297 45.378 41.7234 45.378 40.928C45.378 39.6274 45.9615 38.7701 46.6992 38.7701C47.3012 38.7712 47.6109 39.1852 47.6109 40.1609C47.6109 41.0465 47.173 42.2297 46.2646 42.2297Z" fill="white"/>
<path d="M26.0441 41.0661C26.0441 41.0661 26.2647 39.9795 26.2647 39.5373C26.2647 38.4323 25.7149 37.085 23.8742 37.085C22.1879 37.086 20.9395 38.9028 20.9395 40.9564C20.9395 43.3261 22.503 43.889 23.8362 43.889C25.0662 43.889 25.6073 43.613 25.6073 43.613L25.9028 41.9962C25.9028 41.9962 24.9673 42.4091 24.122 42.4091C22.3216 42.4091 22.6367 41.0661 22.6367 41.0661H26.0441ZM23.8797 38.5898C24.8261 38.5898 24.6511 39.6536 24.6511 39.7383H22.7899C22.7899 39.6286 22.9659 38.5898 23.8797 38.5898Z" fill="white"/>
<path d="M33.9089 37.3086C34.7618 37.3086 35.4474 37.7878 35.4474 37.7878L35.7212 36.0113C35.7212 36.0113 34.7064 35.6006 33.8328 35.6006C31.8976 35.6006 30.0146 37.2804 30.0146 40.4347C30.0146 42.5263 31.0306 43.9073 33.032 43.9073C33.597 43.9073 34.4989 43.678 34.4989 43.678L34.7987 41.8483C34.7987 41.8483 33.9773 42.2601 33.4123 42.2601C32.2214 42.259 31.7444 41.3506 31.7444 40.3771C31.7444 38.3963 32.768 37.3086 33.9089 37.3086Z" fill="white"/>
<path d="M29.9845 37.1955C29.2337 37.1955 28.6774 38.2201 28.6774 38.2201L28.8284 37.278H27.2671L26.2207 43.7778H27.9418C28.4297 41.0017 28.5209 38.7482 29.6846 39.16C29.8889 38.0854 30.0856 37.6692 30.3083 37.215C30.3083 37.215 30.204 37.1933 29.9845 37.1955Z" fill="white"/>
<circle opacity="0.6" cx="16.6861" cy="16.0201" r="15.5201" fill="#FFF9F9" />
<circle opacity="0.6" cx="35.6734" cy="16.0201" r="15.5201" fill="#FFF9F9" />
</svg>
