<svg width="89" height="89" viewBox="0 0 89 89" fill="none" xmlns="http://www.w3.org/2000/svg">
<path d="M68.7179 5.00246H45.7586V2.22521C45.7586 1.53012 45.1947 0.966309 44.4997 0.966309C43.8046 0.966309 43.2408 1.53012 43.2408 2.22521V5.00246H20.2819C18.8459 5.00246 17.6777 6.17058 17.6777 7.6066V10.2975C17.6777 11.7335 18.8459 12.9017 20.2819 12.9017H20.3686V57.3879C20.3686 58.8239 21.5368 59.992 22.9728 59.992H28.1646L23.084 85.3953C22.9479 86.077 23.3898 86.7401 24.0715 86.8767C24.1547 86.8931 24.2379 86.9012 24.3198 86.9012C24.9076 86.9012 25.4332 86.4873 25.5529 85.8888L26.4269 81.5189H43.2412V85.6423C43.2412 86.3373 43.805 86.9012 44.5001 86.9012C45.1952 86.9012 45.759 86.3373 45.759 85.6423V81.5193H62.5733L63.4473 85.8892C63.567 86.4877 64.0926 86.9016 64.6804 86.9016C64.7623 86.9016 64.8451 86.8936 64.9287 86.8771C65.6105 86.7405 66.0528 86.0775 65.9162 85.3957L60.8356 59.9924H66.0274C67.4634 59.9924 68.6316 58.8243 68.6316 57.3883V12.9021H68.7183C70.1543 12.9021 71.3225 11.734 71.3225 10.298V7.60704C71.3225 6.17103 70.1543 5.00246 68.7179 5.00246ZM62.0696 79.0024H45.7586V64.1158C45.7586 63.4207 45.1947 62.8569 44.4997 62.8569C43.8046 62.8569 43.2408 63.4207 43.2408 64.1158V79.0024H26.9302L30.7323 59.9929H58.268L62.0696 79.0024ZM68.8047 10.298C68.8047 10.3456 68.7659 10.3847 68.7179 10.3847H64.6817C63.9866 10.3847 63.4228 10.9485 63.4228 11.6436C63.4228 12.3387 63.9866 12.9025 64.6817 12.9025H66.1133V57.3888C66.1133 57.4368 66.0746 57.4755 66.0265 57.4755H22.9728C22.9247 57.4755 22.886 57.4368 22.886 57.3888V12.9021H65.0765C65.7715 12.9021 66.3354 12.3383 66.3354 11.6432C66.3354 10.9481 65.7715 10.3843 65.0765 10.3843H20.2819C20.2343 10.3843 20.1951 10.3456 20.1951 10.2975V7.6066C20.1951 7.55898 20.2338 7.51982 20.2819 7.51982H68.7179C68.7659 7.51982 68.8047 7.55854 68.8047 7.6066V10.298Z" fill="white"/>
<path d="M60.6445 22.4937H53.9175C53.2224 22.4937 52.6586 23.0575 52.6586 23.7526C52.6586 24.4476 53.2224 25.0115 53.9175 25.0115H57.6056L45.2333 37.3838C45.1995 37.4176 45.1448 37.4172 45.1109 37.3838L42.3048 34.5772C41.2897 33.5621 39.6375 33.5617 38.622 34.5772L27.4645 45.7347C26.9728 46.2264 26.9728 47.0234 27.4645 47.5147C27.7101 47.7603 28.0323 47.8836 28.3545 47.8836C28.6767 47.8836 28.9989 47.7607 29.2445 47.5147L40.402 36.3572C40.4358 36.3234 40.491 36.3234 40.5243 36.3572L43.3305 39.1634C43.8227 39.6555 44.4764 39.9261 45.1719 39.9261C45.8674 39.9261 46.5216 39.6551 47.0133 39.1634L59.3856 26.791V30.4792C59.3856 31.1743 59.9495 31.7381 60.6445 31.7381C61.3396 31.7381 61.9034 31.1743 61.9034 30.4792V23.7521C61.9034 23.057 61.3401 22.4937 60.6445 22.4937Z" fill="white"/>
</svg>
