<svg width="64" height="64" viewBox="0 0 64 64" fill="none" xmlns="http://www.w3.org/2000/svg">
<path d="M61 15H51.9625C51.5478 9.4015 47.6875 5 43 5C42.8126 5 42.6289 5.05267 42.47 5.152L34.7131 10H29.2875L21.53 5.152C21.3711 5.05267 21.1874 5 21 5C16.3125 5 12.4524 9.4015 12.0375 15H3C2.73478 15 2.48043 15.1054 2.29289 15.2929C2.10536 15.4804 2 15.7348 2 16V26C2 26.2652 2.10536 26.5196 2.29289 26.7071C2.48043 26.8946 2.73478 27 3 27V58C3 58.2652 3.10536 58.5196 3.29289 58.7071C3.48043 58.8946 3.73478 59 4 59H60C60.2652 59 60.5196 58.8946 60.7071 58.7071C60.8946 58.5196 61 58.2652 61 58V27C61.2652 27 61.5196 26.8946 61.7071 26.7071C61.8946 26.5196 62 26.2652 62 26V16C62 15.7348 61.8946 15.4804 61.7071 15.2929C61.5196 15.1054 61.2652 15 61 15ZM60 25H38V17H60V25ZM26 17V25H19V17H26ZM36 17V25H28V17H36ZM34 27V57H30V27H34ZM43.2757 7.00688C46.7477 7.18062 49.5773 10.6219 49.9555 15H39.2361L43.4473 12.8944V12.8936C43.6843 12.7751 43.8645 12.5673 43.9483 12.3159C44.0321 12.0644 44.0126 11.79 43.8941 11.553C43.7756 11.316 43.5678 11.1357 43.3164 11.0519C43.0649 10.9681 42.7905 10.9876 42.5535 11.1061V11.1054L36 14.382V11.5542L43.2757 7.00688ZM34 12V15H30V12H34ZM20.7243 7.00688L28 11.5542V14.382L21.4473 11.1056V11.1064C21.3299 11.0477 21.2021 11.0127 21.0712 11.0034C20.9403 10.9941 20.8089 11.0107 20.6844 11.0522C20.5599 11.0937 20.4448 11.1593 20.3457 11.2452C20.2465 11.3312 20.1653 11.4359 20.1066 11.5533C20.0479 11.6706 20.0129 11.7984 20.0036 11.9293C19.9943 12.0602 20.0109 12.1916 20.0524 12.3161C20.0939 12.4406 20.1595 12.5557 20.2455 12.6548C20.3315 12.754 20.4361 12.8352 20.5535 12.8939V12.8946L24.7639 15H14.0445C14.4228 10.6219 17.2523 7.18062 20.7243 7.00688ZM4 17H17V25H4V17ZM5 27H17V30.5858L13.2929 34.2929C13.2 34.3857 13.1263 34.496 13.0761 34.6173C13.0258 34.7386 13 34.8687 13 35C13 35.1313 13.0258 35.2614 13.0761 35.3827C13.1263 35.504 13.2 35.6143 13.2929 35.7071L17.2929 39.7071C17.3857 39.8 17.496 39.8737 17.6173 39.9239C17.7386 39.9742 17.8687 40 18 40C18.1313 40 18.2614 39.9742 18.3827 39.9239C18.504 39.8737 18.6143 39.8 18.7071 39.7071L22.7071 35.7071C22.8 35.6143 22.8737 35.504 22.9239 35.3827C22.9742 35.2614 23 35.1313 23 35C23 34.8687 22.9742 34.7386 22.9239 34.6173C22.8737 34.496 22.8 34.3857 22.7071 34.2929L19 30.5858V27H28V57H5V27ZM18 32.4142L20.5859 35L18 37.5858L15.4141 35L18 32.4142ZM59 57H36V27H59V57Z" fill="white"/>
</svg>
