<svg width="60" height="70" viewBox="0 0 60 70" fill="none" xmlns="http://www.w3.org/2000/svg">
<path d="M58.286 59.7535C58.3726 59.4862 58.421 59.202 58.421 58.9061V50.4785C58.421 49.2901 57.6615 48.2786 56.6043 47.8961C56.6832 47.6401 56.7263 47.3684 56.7263 47.0866V38.4324C56.7263 37.323 56.0644 36.3672 55.1159 35.9338C55.2126 35.6533 55.2678 35.3537 55.2678 35.0409V26.6129C55.2678 25.4374 54.5248 24.4348 53.4853 24.0434C53.5667 23.7838 53.611 23.5076 53.611 23.2214V14.5672C53.611 13.5171 53.0183 12.6036 52.1509 12.1412C52.2645 11.8405 52.3294 11.516 52.3294 11.1757V2.74768C52.3294 1.23275 51.0973 0 49.5831 0H10.4165C8.90233 0 7.67023 1.23275 7.67023 2.74768V11.1753C7.67023 11.5156 7.7351 11.8401 7.84872 12.1408C6.98085 12.6032 6.38857 13.5167 6.38857 14.5668V23.221C6.38857 23.5072 6.43289 23.7834 6.51428 24.043C5.47476 24.4348 4.7318 25.4374 4.7318 26.6125V35.0401C4.7318 35.3529 4.78699 35.6525 4.88369 35.933C3.93524 36.3664 3.27285 37.3222 3.27285 38.4316V47.0858C3.27285 47.3676 3.31556 47.6393 3.39493 47.8952C2.33729 48.2774 1.57821 49.2892 1.57821 50.4776V58.9053C1.57821 59.2012 1.62655 59.4854 1.71318 59.7527C0.709527 60.1618 0 61.1475 0 62.2968V67.2523C0 68.7673 1.2317 70 2.74625 70H57.2538C58.7679 70 60 68.7673 60 67.2523V62.2968C59.9992 61.1483 59.2893 60.1626 58.286 59.7535ZM49.9324 51.5064C48.9373 51.5064 48.1302 52.3139 48.1302 53.3096V59.5076C48.1302 59.5217 48.1318 59.5358 48.1322 59.5499H43.4899C43.4903 59.5358 43.4919 59.5221 43.4919 59.5076V53.3096C43.4919 52.3139 42.6849 51.5064 41.6897 51.5064C40.6945 51.5064 39.8875 52.3139 39.8875 53.3096V59.5076C39.8875 59.5217 39.8891 59.5358 39.8895 59.5499H35.2475C35.2479 59.5358 35.2495 59.5221 35.2495 59.5076V53.3096C35.2495 52.3139 34.4425 51.5064 33.4473 51.5064C32.4521 51.5064 31.6451 52.3139 31.6451 53.3096V59.5076C31.6451 59.5217 31.6467 59.5358 31.6471 59.5499H27.006C27.0064 59.5358 27.008 59.5221 27.008 59.5076V53.3096C27.008 52.3139 26.2009 51.5064 25.2058 51.5064C24.2106 51.5064 23.4035 52.3139 23.4035 53.3096V59.5076C23.4035 59.5217 23.4055 59.5358 23.4055 59.5499H18.7636C18.764 59.5358 18.7656 59.5221 18.7656 59.5076V53.3096C18.7656 52.3139 17.9586 51.5064 16.9634 51.5064C15.9682 51.5064 15.1612 52.3139 15.1612 53.3096V59.5076C15.1612 59.5217 15.1632 59.5358 15.1632 59.5499H10.5212C10.5216 59.5358 10.5232 59.5221 10.5232 59.5076V53.3096C10.5232 52.3139 9.71622 51.5064 8.72102 51.5064C7.72583 51.5064 6.9188 52.3139 6.9188 53.3096V59.5076C6.9188 59.5217 6.92041 59.5358 6.92081 59.5499H4.32324C3.96828 59.5499 3.67979 59.2613 3.67979 58.9061V50.4785C3.67979 50.1233 3.96868 49.8343 4.32324 49.8343H6.01829H53.9797H55.6743C56.0293 49.8343 56.3182 50.1233 56.3182 50.4785V58.9061C56.3182 59.2613 56.0293 59.5499 55.6743 59.5499H51.7327C51.7331 59.5358 51.7347 59.5221 51.7347 59.5076V53.3096C51.7347 52.3139 50.9276 51.5064 49.9324 51.5064ZM5.37525 47.0866V38.4324C5.37525 38.0772 5.66413 37.7886 6.0187 37.7886H7.47764H52.5211H53.9801C54.3351 37.7886 54.6235 38.0772 54.6235 38.4324V47.0866C54.6235 47.3829 54.4213 47.6308 54.1485 47.7054C54.1888 47.4397 54.2118 47.1704 54.2118 46.8991C54.2118 43.9547 51.8173 41.559 48.8744 41.559C45.9315 41.559 43.537 43.9547 43.537 46.8991C43.537 47.1801 43.5648 47.4567 43.6075 47.7304H41.7634C41.8057 47.4575 41.8287 47.1805 41.8287 46.8991C41.8287 43.9547 39.4342 41.559 36.4913 41.559C33.5484 41.559 31.1539 43.9547 31.1539 46.8991C31.1539 47.1801 31.1817 47.4567 31.2244 47.7304H29.3807C29.423 47.4575 29.446 47.1805 29.446 46.8991C29.446 43.9547 27.0515 41.559 24.1086 41.559C21.1658 41.559 18.7713 43.9547 18.7713 46.8991C18.7713 47.1801 18.7991 47.4567 18.8418 47.7304H16.9976C17.0399 47.4575 17.0629 47.1805 17.0629 46.8991C17.0629 43.9547 14.6684 41.559 11.7255 41.559C8.78267 41.559 6.38816 43.9547 6.38816 46.8991C6.38816 47.1801 6.41597 47.4567 6.45908 47.7304H6.0187C5.66373 47.7304 5.37525 47.4417 5.37525 47.0866ZM6.83419 35.0409V26.6129C6.83419 26.2577 7.12308 25.9687 7.47764 25.9687H9.13441H50.8644H52.5211C52.8761 25.9687 53.165 26.2577 53.165 26.6129V35.0405C53.165 35.3957 52.8761 35.6847 52.5211 35.6847H52.256C52.3036 35.3969 52.3286 35.1042 52.3286 34.8067C52.3286 31.8619 49.9341 29.4666 46.9912 29.4666C44.0483 29.4666 41.6538 31.8623 41.6538 34.8067C41.6538 35.1038 41.6836 35.3961 41.7316 35.6847H35.3902C35.4377 35.3969 35.4627 35.1042 35.4627 34.8067C35.4627 31.8619 33.0682 29.4666 30.1253 29.4666C27.1824 29.4666 24.7879 31.8623 24.7879 34.8067C24.7879 35.1034 24.8169 35.3961 24.8649 35.6847H18.519C18.5666 35.3961 18.5968 35.1038 18.5968 34.8067C18.5968 31.8619 16.2023 29.4666 13.2594 29.4666C10.3166 29.4666 7.92205 31.8623 7.92205 34.8067C7.92205 35.1038 7.95187 35.3961 7.99981 35.6847H7.47845C7.12267 35.6847 6.83419 35.3957 6.83419 35.0409ZM8.49096 23.2214V14.5672C8.49096 14.212 8.77985 13.9234 9.13441 13.9234H10.4165H49.5827H50.8648C51.2197 13.9234 51.5082 14.212 51.5082 14.5672V23.2214C51.5082 23.5766 51.2197 23.8652 50.8648 23.8652H49.7979C49.8809 23.4879 49.9256 23.1017 49.9256 22.7139C49.9256 19.7695 47.5311 17.3737 44.5882 17.3737C41.645 17.3737 39.2509 19.7695 39.2509 22.7139C39.2509 23.1033 39.2952 23.4887 39.3782 23.8652H35.5126C35.5952 23.4903 35.6383 23.1057 35.6383 22.7139C35.6383 19.7695 33.2438 17.3737 30.301 17.3737C27.3581 17.3737 24.9636 19.7695 24.9636 22.7139C24.9636 23.1053 25.0091 23.4895 25.0917 23.8652H21.223C21.306 23.4879 21.3507 23.1013 21.3507 22.7139C21.3507 19.7695 18.9562 17.3737 16.0133 17.3737C13.0705 17.3737 10.676 19.7695 10.676 22.7139C10.676 23.1033 10.7203 23.4887 10.8033 23.8652H9.13602C8.77945 23.8652 8.49096 23.5766 8.49096 23.2214ZM14.3102 10.6214C14.3102 8.83682 15.7615 7.38478 17.5452 7.38478C19.3289 7.38478 20.7802 8.83682 20.7802 10.6214C20.7802 11.0354 20.6964 11.4406 20.5449 11.8195H14.5451C14.394 11.4402 14.3102 11.035 14.3102 10.6214ZM27.1937 10.6214C27.1937 8.83682 28.645 7.38478 30.4287 7.38478C32.2124 7.38478 33.6637 8.83682 33.6637 10.6214C33.6637 11.0354 33.5799 11.4406 33.4288 11.8195H27.4234C27.2719 11.439 27.1937 11.0363 27.1937 10.6214ZM40.0772 10.6214C40.0772 8.83682 41.5285 7.38478 43.3122 7.38478C45.0959 7.38478 46.5472 8.83682 46.5472 10.6214C46.5472 11.0346 46.4646 11.4406 46.3135 11.8195H40.3069C40.1554 11.4386 40.0772 11.0359 40.0772 10.6214ZM41.57 23.8652C41.4306 23.4992 41.3528 23.1105 41.3528 22.7139C41.3528 20.9293 42.8041 19.4772 44.5878 19.4772C46.3715 19.4772 47.8228 20.9293 47.8228 22.7139C47.8228 23.1142 47.7511 23.4996 47.6113 23.8652H41.57ZM27.2791 23.8652C27.1393 23.4983 27.0648 23.1122 27.0648 22.7139C27.0648 20.9293 28.5161 19.4772 30.2998 19.4772C32.0835 19.4772 33.5347 20.9293 33.5347 22.7139C33.5347 23.1134 33.4602 23.4987 33.3204 23.8652H27.2791ZM12.9943 23.8652C12.8549 23.4992 12.7771 23.1105 12.7771 22.7139C12.7771 20.9293 14.2284 19.4772 16.0121 19.4772C17.7958 19.4772 19.2471 20.9293 19.2471 22.7139C19.2471 23.1142 19.1754 23.4996 19.0356 23.8652H12.9943ZM43.8795 35.6847C43.7997 35.4005 43.7562 35.107 43.7562 34.8067C43.7562 33.0221 45.2075 31.57 46.9912 31.57C48.7749 31.57 50.2262 33.0221 50.2262 34.8067C50.2262 35.1086 50.181 35.4013 50.1013 35.6847H43.8795ZM27.012 35.6847C26.9322 35.4005 26.8899 35.107 26.8899 34.8067C26.8899 33.0221 28.3412 31.57 30.1249 31.57C31.9086 31.57 33.3599 33.0221 33.3599 34.8067C33.3599 35.1086 33.3148 35.4013 33.235 35.6847H27.012ZM10.1469 35.6847C10.0672 35.4005 10.0236 35.107 10.0236 34.8067C10.0236 33.0221 11.4749 31.57 13.2586 31.57C15.0423 31.57 16.4936 33.0221 16.4936 34.8067C16.4936 35.1074 16.4501 35.4005 16.3703 35.6847H10.1469ZM45.7502 47.7304C45.6789 47.4611 45.639 47.1833 45.639 46.8991C45.639 45.1145 47.0903 43.6625 48.874 43.6625C50.6577 43.6625 52.109 45.1145 52.109 46.8991C52.109 47.1813 52.0707 47.4607 51.9994 47.7304H45.7502ZM33.3675 47.7304C33.2962 47.4611 33.2563 47.1833 33.2563 46.8991C33.2563 45.1145 34.7076 43.6625 36.4913 43.6625C38.275 43.6625 39.7263 45.1145 39.7263 46.8991C39.7263 47.1841 39.6864 47.4615 39.6151 47.7304H33.3675ZM20.9848 47.7304C20.9135 47.4611 20.8736 47.1833 20.8736 46.8991C20.8736 45.1145 22.3249 43.6625 24.1086 43.6625C25.8923 43.6625 27.3436 45.1145 27.3436 46.8991C27.3436 47.1841 27.3037 47.4615 27.2324 47.7304H20.9848ZM8.60217 47.7304C8.53085 47.4611 8.49096 47.1833 8.49096 46.8991C8.49096 45.1145 9.94225 43.6625 11.7259 43.6625C13.5096 43.6625 14.9609 45.1145 14.9609 46.8991C14.9609 47.1841 14.9206 47.4615 14.8497 47.7304H8.60217ZM9.77262 2.74768C9.77262 2.39253 10.0615 2.10389 10.4161 2.10389H49.5823C49.9373 2.10389 50.2262 2.39253 50.2262 2.74768V11.1753C50.2262 11.5305 49.9373 11.8195 49.5823 11.8195H48.5114C48.6012 11.4285 48.65 11.027 48.65 10.6214C48.65 7.67704 46.2555 5.28129 43.3126 5.28129C40.3693 5.28129 37.9752 7.67704 37.9752 10.6214C37.9752 11.029 38.026 11.4289 38.1159 11.8195H35.6287C35.7185 11.4285 35.7669 11.027 35.7669 10.6214C35.7669 7.67704 33.3724 5.28129 30.4295 5.28129C27.4866 5.28129 25.0913 7.67664 25.0913 10.6214C25.0913 11.029 25.1421 11.4289 25.2319 11.8195H22.7448C22.8346 11.4285 22.883 11.0274 22.883 10.6214C22.883 7.67704 20.4885 5.28129 17.5456 5.28129C14.6027 5.28129 12.2074 7.67664 12.2074 10.6214C12.2074 11.0274 12.2558 11.4289 12.3456 11.8195H10.4161C10.0611 11.8195 9.77262 11.5305 9.77262 11.1753V2.74768ZM57.8968 67.2531C57.8968 67.6083 57.6083 67.8969 57.2534 67.8969H2.74544C2.39048 67.8969 2.10199 67.6083 2.10199 67.2531V62.2976C2.10199 61.9424 2.39088 61.6534 2.74544 61.6534H4.32365H55.6747H57.2529C57.6079 61.6534 57.8964 61.9424 57.8964 62.2976V67.2531H57.8968Z" fill="white"/>
</svg>
