<svg width="42" height="79" viewBox="0 0 42 79" fill="none" xmlns="http://www.w3.org/2000/svg">
<path d="M35.9392 0.454834H6.06075C2.71881 0.454834 0 3.21751 0 6.61337V72.0264C0 75.4223 2.71881 78.1849 6.06075 78.1849H35.9392C39.2812 78.1849 42 75.4223 42 72.0264V6.61337C42 3.21751 39.2812 0.454834 35.9392 0.454834ZM6.06075 2.49924H35.9392C38.172 2.49924 39.9881 4.34498 39.9881 6.61337V10.6191H2.01194V6.61337C2.01194 4.34458 3.82838 2.49924 6.06075 2.49924ZM39.9881 12.6631V66.224H2.01194V12.6631H39.9881ZM35.9392 76.1405H6.06075C3.82799 76.1405 2.01194 74.2948 2.01194 72.0264V68.2684H39.9884V72.0264C39.9881 74.2952 38.172 76.1405 35.9392 76.1405Z" fill="white"/>
<path d="M20.9999 70.7363C20.1111 70.7363 19.3906 71.4684 19.3906 72.3715C19.3906 73.2746 20.1111 74.0067 20.9999 74.0067C21.8886 74.0067 22.6091 73.2746 22.6091 72.3715C22.6091 71.4684 21.8886 70.7363 20.9999 70.7363Z" fill="white"/>
<path d="M15.2618 7.96252H26.7391C27.2945 7.96252 27.7451 7.50507 27.7451 6.94037C27.7451 6.37567 27.2949 5.91821 26.7391 5.91821H15.2618C14.7065 5.91821 14.2559 6.37567 14.2559 6.94037C14.2559 7.50507 14.7065 7.96252 15.2618 7.96252Z" fill="white"/>
<path d="M17.3817 50.2684H24.6175C26.1204 50.2684 27.3429 49.0262 27.3429 47.499V33.8016C27.3429 32.2745 26.1204 31.0322 24.6175 31.0322H24.3674V25.5093C24.3674 24.7506 23.7618 24.1337 23.0164 24.1297L22.6335 19.2751C22.5634 18.3871 21.8761 17.7424 20.9994 17.7424C20.1227 17.7424 19.4353 18.3871 19.3656 19.2751L18.9828 24.1297C18.2373 24.1337 17.6317 24.7506 17.6317 25.5093V31.0326H17.3817C15.8788 31.0326 14.6562 32.2749 14.6562 33.802V47.4994C14.6562 49.0262 15.8788 50.2684 17.3817 50.2684ZM19.6433 26.1733H20.2882H21.7109H22.3559V31.0326H19.6437V26.1733H19.6433ZM16.6682 33.8016C16.6682 33.4019 16.9883 33.0766 17.3817 33.0766H18.9898H23.009H24.6171C25.0104 33.0766 25.3306 33.4019 25.3306 33.8016V47.499C25.3306 47.8987 25.0104 48.224 24.6171 48.224H17.3817C16.9883 48.224 16.6682 47.8987 16.6682 47.499V33.8016Z" fill="white"/>
<path d="M9.41417 57.3694H32.5846C33.14 57.3694 33.5906 56.9115 33.5906 56.3472C33.5906 55.7828 33.1404 55.325 32.5846 55.325H9.41417C8.85881 55.325 8.4082 55.7828 8.4082 56.3472C8.4082 56.9115 8.85881 57.3694 9.41417 57.3694Z" fill="white"/>
<path d="M29.1955 58.8657H12.8048C12.2494 58.8657 11.7988 59.3236 11.7988 59.8879C11.7988 60.4523 12.249 60.9102 12.8048 60.9102H29.1951C29.7505 60.9102 30.201 60.4523 30.201 59.8879C30.201 59.3236 29.7508 58.8657 29.1955 58.8657Z" fill="white"/>
</svg>
