<svg width="76" height="83" viewBox="0 0 76 83" fill="none" xmlns="http://www.w3.org/2000/svg">
<path d="M71.4154 23.2357H68.0476H54.9132V17.3436C54.9132 10.6913 50.6601 5.27884 45.4329 5.27884H25.6127V1.51244C25.6127 0.767959 24.8066 0.30244 24.162 0.67468L15.6933 5.5644C15.0487 5.93664 15.0487 6.86724 15.6933 7.23948L24.162 12.1288C24.8066 12.501 25.6127 12.0355 25.6127 11.291V7.5246H45.4325C49.4215 7.5246 52.667 11.9294 52.667 17.3436V23.2357H22.7505H9.07441H4.58377C2.55581 23.2357 0.90625 24.8857 0.90625 26.9132V56.5767C0.90625 58.6042 2.55581 60.2542 4.58377 60.2542H7.95197H21.0864V66.1462C21.0864 72.7986 25.339 78.2111 30.5666 78.2111H49.4629V81.9774C49.4629 82.7219 50.269 83.187 50.9136 82.8148L59.3822 77.9255C60.0268 77.5533 60.0268 76.6227 59.3822 76.2504L50.9136 71.3611C50.269 70.9889 49.4629 71.454 49.4629 72.1984V75.9648H30.5666C26.5776 75.9648 23.3322 71.56 23.3322 66.1458V60.2538H53.2486H66.9247H71.4154C73.4433 60.2538 75.0929 58.6038 75.0929 56.5762V26.9132C75.0929 24.8857 73.4433 23.2357 71.4154 23.2357ZM48.7598 25.4814C50.932 30.0425 52.1258 35.7836 52.1258 41.7452C52.1258 47.7067 50.932 53.4483 48.7598 58.0089H27.2394C25.0671 53.4487 23.8734 47.7072 23.8734 41.7452C23.8734 35.7832 25.0671 30.042 27.2389 25.4814H48.7598ZM4.58377 58.0084C3.79441 58.0084 3.15201 57.366 3.15201 56.5767V26.9132C3.15201 26.1238 3.79441 25.4814 4.58377 25.4814H9.07485C10.6448 25.4814 11.9221 26.7588 11.9221 28.3287C11.9221 29.8986 10.6448 31.1759 9.07485 31.1759H7.95197V52.3131H9.07485C10.6448 52.3131 11.9221 53.5904 11.9221 55.1603C11.9221 56.7302 10.6448 58.0076 9.07485 58.0076L7.95197 58.0084H4.58377ZM10.1973 50.1918V33.2972C12.4672 32.7846 14.1674 30.7518 14.1674 28.3287C14.1674 27.2749 13.8458 26.2946 13.2953 25.4814H22.7505H24.7727C22.7386 30.1688 21.6276 35.8663 21.6276 41.7452C21.6276 47.6236 22.7386 53.3216 24.7727 58.0089H22.7505H13.2949C13.8458 57.1953 14.1678 56.215 14.1678 55.1608C14.1674 52.7377 12.4672 50.7044 10.1973 50.1918ZM53.2486 58.0084H51.2264C53.2605 53.3207 54.3715 47.6231 54.3715 41.7447C54.3715 35.8663 53.2605 30.1688 51.2264 25.481H53.2486H62.7042C62.1534 26.2946 61.8313 27.2749 61.8313 28.3291C61.8313 30.7518 63.5314 32.785 65.8014 33.2976V50.1923C63.5314 50.7049 61.8313 52.7377 61.8313 55.1608C61.8313 56.2146 62.1529 57.1949 62.7034 58.008H53.2486V58.0084ZM72.8471 56.5767C72.8471 57.366 72.2047 58.0084 71.4154 58.0084H66.9247C65.3548 58.0084 64.0775 56.7311 64.0775 55.1612C64.0775 53.5913 65.3548 52.314 66.9247 52.314H68.0476V31.1768H66.9247C65.3548 31.1768 64.0775 29.8995 64.0775 28.3296C64.0775 26.7596 65.3548 25.4823 66.9247 25.4823L68.0476 25.4814H71.4154C72.2047 25.4814 72.8471 26.1238 72.8471 26.9132V56.5767Z" fill="white"/>
<path d="M32.0809 43.64C31.5015 43.64 31.0317 44.1098 31.0317 44.6892C31.0317 45.2686 31.5015 45.7384 32.0809 45.7384H34.8107V48.5129C34.8107 49.0923 35.2805 49.5621 35.8599 49.5621C36.4394 49.5621 36.9092 49.0923 36.9092 48.5129V45.7384H39.7803C40.3597 45.7384 40.8295 45.2686 40.8295 44.6892C40.8295 44.1098 40.3597 43.64 39.7803 43.64H36.9092V41.7348H41.8726C42.1509 41.7348 42.4178 41.6243 42.6141 41.4276C44.6038 39.4379 44.6038 36.201 42.599 34.1967C42.4022 33.9999 42.1357 33.8894 41.8575 33.8894H35.8595C35.2801 33.8894 34.8103 34.3592 34.8103 34.9386V39.6369H32.0805C31.501 39.6369 31.0312 40.1066 31.0312 40.6861C31.0312 41.2655 31.501 41.7353 32.0805 41.7353H34.8103V43.6404H32.0809V43.64ZM36.9087 35.9874H41.3872C41.7912 36.51 42.01 37.148 42.01 37.8197C42.01 38.4845 41.7955 39.1168 41.399 39.6369H36.9087V35.9874Z" fill="white"/>
<path d="M13.0448 40.8705H19.0002C19.6206 40.8705 20.123 40.3676 20.123 39.7476C20.123 39.1277 19.6206 38.6248 19.0002 38.6248H13.0448C12.4244 38.6248 11.9219 39.1277 11.9219 39.7476C11.9219 40.3676 12.4248 40.8705 13.0448 40.8705Z" fill="white"/>
<path d="M20.123 44.8004C20.123 44.1804 19.6206 43.6775 19.0002 43.6775H13.0448C12.4244 43.6775 11.9219 44.1804 11.9219 44.8004C11.9219 45.4203 12.4244 45.9232 13.0448 45.9232H19.0002C19.6206 45.9232 20.123 45.4203 20.123 44.8004Z" fill="white"/>
<path d="M57.1092 40.8705H63.0646C63.6846 40.8705 64.1875 40.3676 64.1875 39.7476C64.1875 39.1277 63.685 38.6248 63.0646 38.6248H57.1092C56.4892 38.6248 55.9863 39.1277 55.9863 39.7476C55.9863 40.3676 56.4892 40.8705 57.1092 40.8705Z" fill="white"/>
<path d="M64.1875 44.8004C64.1875 44.1804 63.685 43.6775 63.0646 43.6775H57.1092C56.4892 43.6775 55.9863 44.1804 55.9863 44.8004C55.9863 45.4203 56.4888 45.9232 57.1092 45.9232H63.0646C63.685 45.9232 64.1875 45.4203 64.1875 44.8004Z" fill="white"/>
</svg>
