<svg width="79" height="79" viewBox="0 0 79 79" fill="none" xmlns="http://www.w3.org/2000/svg">
<path d="M66.5792 22.4395H12.7497C10.8952 22.4395 9.38672 23.948 9.38672 25.8025V61.924C9.38672 63.7786 10.8952 65.2871 12.7497 65.2871H66.5788C68.4333 65.2871 69.9418 63.7786 69.9418 61.924V25.8021C69.9422 23.948 68.4337 22.4395 66.5792 22.4395ZM67.6243 61.9236C67.6243 62.4999 67.1555 62.9688 66.5792 62.9688H12.7497C12.1734 62.9688 11.7046 62.4999 11.7046 61.9236V25.8021C11.7046 25.2258 12.1734 24.7569 12.7497 24.7569H66.5788C67.1551 24.7569 67.6239 25.2258 67.6239 25.8021V61.9236H67.6243Z" fill="white"/>
<path d="M70.5006 17.7405H44.9722L55.8876 6.82504C56.3403 6.37276 56.3403 5.63846 55.8876 5.18618C55.4349 4.73351 54.7014 4.73351 54.2487 5.18618L41.6945 17.7405H37.6354L25.0811 5.18618C24.6285 4.73351 23.8946 4.73351 23.4419 5.18618C22.9892 5.63846 22.9892 6.37276 23.4419 6.82504L34.3573 17.7405H8.82887C6.08875 17.7405 3.85938 19.9698 3.85938 22.71V65.0165C3.85938 67.7566 6.08875 69.986 8.82887 69.986H9.5533C9.44547 70.315 9.387 70.6661 9.387 71.0311V71.8863C9.387 73.7408 10.8955 75.2493 12.75 75.2493H66.5791C68.4336 75.2493 69.9421 73.7408 69.9421 71.8863V71.0311C69.9421 70.6665 69.884 70.315 69.7758 69.986H70.5002C73.2403 69.986 75.4697 67.7566 75.4697 65.0165V22.71C75.4701 19.9698 73.2407 17.7405 70.5006 17.7405ZM73.1522 65.0165C73.1522 66.4783 71.9625 67.6681 70.5006 67.6681H66.5795C65.9396 67.6681 65.4205 68.1871 65.4205 68.827C65.4205 69.4669 65.9396 69.986 66.5795 69.986C67.1558 69.986 67.6246 70.4548 67.6246 71.0311V71.8863C67.6246 72.4626 67.1558 72.9315 66.5795 72.9315H12.75C12.1737 72.9315 11.7049 72.4626 11.7049 71.8863V71.0311C11.7049 70.4548 12.1737 69.986 12.75 69.986C13.3903 69.986 13.909 69.4669 13.909 68.827C13.909 68.1871 13.3899 67.6681 12.75 67.6681H8.82887C7.36658 67.6681 6.17724 66.4783 6.17724 65.0165V22.71C6.17724 21.2481 7.36658 20.0583 8.82887 20.0583H70.5002C71.9621 20.0583 73.1518 21.2481 73.1518 22.71V65.0165H73.1522Z" fill="white"/>
<path d="M49.6571 29.4668C49.0172 29.4668 48.4982 29.9858 48.4982 30.6257V31.7787L17.58 38.2844C17.5172 38.2966 17.4559 38.314 17.3975 38.3361C17.3947 38.3373 17.3923 38.3381 17.3896 38.3393C17.375 38.3448 17.3607 38.3507 17.3465 38.3567C17.3394 38.3598 17.3323 38.363 17.3252 38.3661C17.3157 38.3705 17.3062 38.3748 17.2971 38.3792C17.2865 38.3843 17.2762 38.3898 17.2655 38.3954C17.26 38.3981 17.2545 38.4013 17.249 38.4041C17.2359 38.4112 17.2233 38.4187 17.2106 38.4262C17.2079 38.4278 17.2047 38.4297 17.2019 38.4313C17.1877 38.44 17.1739 38.4491 17.1601 38.4582C17.1589 38.459 17.1573 38.4598 17.1561 38.4609C17.1415 38.4708 17.1273 38.4811 17.1131 38.4918C17.1123 38.4922 17.1119 38.4925 17.1111 38.4929C17.0969 38.5036 17.0831 38.5147 17.0692 38.5257C17.0684 38.5261 17.068 38.5269 17.0673 38.5273C17.0538 38.5384 17.0408 38.5498 17.0281 38.5613C17.027 38.5625 17.0258 38.5633 17.0246 38.5644C17.0127 38.5755 17.0009 38.5866 16.9894 38.598C16.9875 38.6 16.9855 38.602 16.9835 38.6039C16.9732 38.6142 16.963 38.6249 16.9531 38.6355C16.9499 38.6387 16.9468 38.6423 16.944 38.6454C16.9353 38.6549 16.927 38.6644 16.9191 38.6742C16.9148 38.6794 16.9108 38.6841 16.9065 38.6893C16.8998 38.6976 16.8931 38.7062 16.8867 38.7145C16.8816 38.7213 16.8765 38.728 16.8713 38.7347C16.8662 38.7418 16.8611 38.7489 16.8559 38.756C16.85 38.7647 16.8441 38.773 16.8382 38.7817C16.8342 38.7876 16.8306 38.7935 16.8267 38.7995C16.8204 38.8097 16.8137 38.82 16.8077 38.8303C16.805 38.835 16.8022 38.8398 16.7994 38.8449C16.7927 38.8563 16.7864 38.8682 16.7801 38.88C16.7777 38.884 16.7757 38.8883 16.7738 38.8927C16.7674 38.9053 16.7611 38.918 16.7552 38.9306C16.7532 38.9346 16.7516 38.9385 16.7497 38.9425C16.7437 38.9555 16.7382 38.9681 16.7327 38.9816C16.7307 38.9859 16.7291 38.9906 16.7272 38.9954C16.722 39.008 16.7173 39.0203 16.7129 39.0333C16.711 39.0392 16.709 39.0452 16.707 39.0511C16.7031 39.0625 16.6995 39.074 16.696 39.0854C16.6936 39.0937 16.6912 39.102 16.6888 39.1103C16.6861 39.1198 16.6837 39.1289 16.6813 39.1384C16.6786 39.1498 16.6758 39.1613 16.6734 39.1731C16.6719 39.1795 16.6707 39.1858 16.6691 39.1921C16.6659 39.2075 16.6632 39.2233 16.6608 39.2391C16.6604 39.2419 16.66 39.2442 16.6596 39.247C16.6501 39.3082 16.6458 39.3706 16.6466 39.4338V46.6532C16.6458 46.7164 16.6505 46.7789 16.6596 46.8401C16.66 46.8428 16.6604 46.8452 16.6608 46.848C16.6632 46.8638 16.6659 46.8792 16.6691 46.895C16.6703 46.9013 16.6719 46.9076 16.6734 46.9139C16.6758 46.9254 16.6786 46.9373 16.6813 46.9487C16.6837 46.9582 16.6865 46.9673 16.6888 46.9768C16.6912 46.985 16.6936 46.9933 16.696 47.0016C16.6995 47.0131 16.7031 47.0245 16.707 47.036C16.709 47.0419 16.711 47.0479 16.7129 47.0538C16.7173 47.0664 16.7224 47.0791 16.7272 47.0917C16.7291 47.0964 16.7307 47.1008 16.7327 47.1055C16.7382 47.1186 16.7437 47.1316 16.7497 47.1446C16.7516 47.1486 16.7532 47.1525 16.7552 47.1565C16.7611 47.1691 16.7674 47.1818 16.7738 47.1944C16.7757 47.1987 16.7781 47.2027 16.7801 47.207C16.7864 47.2189 16.7927 47.2303 16.7994 47.2422C16.8022 47.2469 16.805 47.2521 16.8077 47.2568C16.8141 47.2671 16.8204 47.2773 16.8267 47.2876C16.8303 47.2935 16.8342 47.2995 16.8382 47.3054C16.8441 47.3141 16.85 47.3228 16.8559 47.3311C16.8611 47.3382 16.8662 47.3457 16.8713 47.3524C16.8765 47.3591 16.8816 47.3658 16.8867 47.3725C16.8935 47.3812 16.8998 47.3895 16.9065 47.3978C16.9104 47.403 16.9148 47.4077 16.9191 47.4128C16.9274 47.4227 16.9357 47.4322 16.944 47.4417C16.9472 47.4448 16.9499 47.4484 16.9531 47.4515C16.963 47.4622 16.9732 47.4729 16.9835 47.4835C16.9855 47.4855 16.9875 47.4875 16.9894 47.4895C17.0009 47.5009 17.0127 47.512 17.0246 47.523C17.0258 47.5242 17.027 47.525 17.0281 47.5262C17.0408 47.5377 17.0538 47.5491 17.0673 47.5602C17.068 47.5606 17.0684 47.5614 17.0692 47.5617C17.0831 47.5732 17.0969 47.5839 17.1111 47.5945C17.1119 47.5949 17.1123 47.5953 17.1131 47.5957C17.1273 47.6064 17.1415 47.6167 17.1561 47.6265C17.1573 47.6273 17.1589 47.6281 17.1601 47.6293C17.1739 47.6384 17.1877 47.6475 17.2019 47.6562C17.2047 47.6581 17.2079 47.6597 17.2106 47.6613C17.2233 47.6688 17.2359 47.6763 17.249 47.6834C17.2545 47.6866 17.26 47.6893 17.2655 47.6921C17.2758 47.6976 17.2865 47.7032 17.2971 47.7083C17.3066 47.713 17.3157 47.717 17.3252 47.7213C17.3323 47.7245 17.3394 47.728 17.3465 47.7308C17.3607 47.7371 17.375 47.7427 17.3896 47.7482C17.3923 47.7494 17.3947 47.7502 17.3975 47.7513C17.4563 47.7735 17.5172 47.7908 17.58 47.8031L24.4261 49.2437V58.0328C24.4261 58.6727 24.9451 59.1917 25.585 59.1917C26.2249 59.1917 26.744 58.6727 26.744 58.0328V49.7315L48.4978 54.3091V55.4625C48.4978 56.1024 49.0168 56.6215 49.6567 56.6215C50.2966 56.6215 50.8157 56.1024 50.8157 55.4625V30.6257C50.816 29.9858 50.297 29.4668 49.6571 29.4668ZM18.9636 45.7238V40.3621L48.4978 34.1472V51.9383L18.9636 45.7238Z" fill="white"/>
<path d="M60.972 41.8843H55.4499C54.81 41.8843 54.291 42.4033 54.291 43.0432C54.291 43.6831 54.81 44.2021 55.4499 44.2021H60.972C61.6119 44.2021 62.131 43.6831 62.131 43.0432C62.131 42.4033 61.6119 41.8843 60.972 41.8843Z" fill="white"/>
<path d="M57.078 49.7409C56.6253 49.2882 55.8918 49.2882 55.4391 49.7409C54.9864 50.1931 54.9864 50.9274 55.4391 51.3797L59.3437 55.2843C59.57 55.5106 59.8667 55.624 60.1629 55.624C60.4596 55.624 60.7558 55.5106 60.9822 55.2843C61.4348 54.832 61.4348 54.0977 60.9822 53.6454L57.078 49.7409Z" fill="white"/>
<path d="M56.2587 36.6845C56.5554 36.6845 56.852 36.5711 57.078 36.3448L60.9825 32.4398C61.4352 31.9871 61.4352 31.2532 60.9825 30.8009C60.5299 30.3483 59.796 30.3483 59.3437 30.8009L55.4391 34.7059C54.9864 35.1586 54.9864 35.8925 55.4391 36.3448C55.6658 36.5711 55.9625 36.6845 56.2587 36.6845Z" fill="white"/>
</svg>
