<svg width="53" height="72" viewBox="0 0 53 72" fill="none" xmlns="http://www.w3.org/2000/svg">
<path d="M35.6551 37.5301C35.6551 37.2543 35.5455 36.9897 35.3504 36.7947C35.1554 36.5997 34.8909 36.4901 34.615 36.4901H18.3649C18.0891 36.4901 17.8246 36.5997 17.6295 36.7947C17.4345 36.9897 17.3249 37.2543 17.3249 37.5301C17.3249 37.806 17.4345 38.0705 17.6295 38.2655C17.8246 38.4606 18.0891 38.5702 18.3649 38.5702H34.615C34.8909 38.5702 35.1554 38.4606 35.3504 38.2655C35.5455 38.0705 35.6551 37.806 35.6551 37.5301ZM19.3337 34.256H33.6463C34.1399 34.2574 34.6226 34.1107 35.032 33.8349C35.4413 33.5591 35.7587 33.1669 35.9429 32.709L39.4372 24.0895C40.1204 24.3285 40.8645 24.3281 41.5474 24.0883C42.2303 23.8485 42.8113 23.3835 43.1949 22.7698C43.5786 22.1561 43.7421 21.4301 43.6586 20.7112C43.575 19.9923 43.2494 19.3231 42.7353 18.8137C42.2211 18.3043 41.549 17.985 40.8293 17.9081C40.1096 17.8313 39.3852 18.0015 38.7751 18.3909C38.165 18.7802 37.7054 19.3655 37.472 20.0506C37.2385 20.7357 37.245 21.4798 37.4904 22.1607L31.2578 25.4701L28.0049 18.9645C28.7381 18.6346 29.3369 18.0647 29.7027 17.3488C30.0685 16.6328 30.1793 15.8136 30.017 15.0262C29.8547 14.2388 29.4288 13.5303 28.8097 13.0174C28.1906 12.5045 27.4152 12.2179 26.6114 12.2048C25.8075 12.1918 25.0232 12.4531 24.3878 12.9456C23.7524 13.4382 23.3039 14.1326 23.1161 14.9143C22.9283 15.696 23.0126 16.5184 23.3549 17.2458C23.6973 17.9732 24.2773 18.5622 24.9994 18.9157L21.7222 25.4701L15.4812 22.1563C15.7262 21.4743 15.7317 20.7294 15.497 20.0438C15.2623 19.3583 14.8013 18.773 14.1899 18.3842C13.5784 17.9955 12.8528 17.8263 12.1325 17.9047C11.4121 17.983 10.7398 18.3041 10.2262 18.8153C9.71259 19.3264 9.38818 19.9971 9.30633 20.717C9.22447 21.437 9.39005 22.1634 9.77582 22.7768C10.1616 23.3901 10.7446 23.854 11.429 24.092C12.1134 24.3301 12.8584 24.3281 13.5415 24.0866L17.0371 32.709C17.2213 33.1669 17.5386 33.5592 17.948 33.8349C18.3574 34.1107 18.8401 34.2574 19.3337 34.256ZM40.491 19.9703C40.7104 19.9703 40.9249 20.0354 41.1073 20.1573C41.2897 20.2792 41.4319 20.4524 41.5159 20.6551C41.5999 20.8579 41.6218 21.0809 41.579 21.2961C41.5362 21.5113 41.4306 21.709 41.2754 21.8641C41.1203 22.0193 40.9226 22.1249 40.7074 22.1677C40.4922 22.2106 40.2691 22.1886 40.0664 22.1046C39.8637 22.0207 39.6904 21.8785 39.5685 21.696C39.4466 21.5136 39.3816 21.2991 39.3816 21.0797C39.3819 20.7856 39.4989 20.5036 39.7069 20.2956C39.9149 20.0876 40.1968 19.9707 40.491 19.9703ZM12.4792 22.1891C12.2598 22.1891 12.0453 22.124 11.8629 22.0021C11.6805 21.8802 11.5383 21.7069 11.4543 21.5042C11.3703 21.3015 11.3484 21.0785 11.3912 20.8633C11.434 20.6481 11.5396 20.4504 11.6948 20.2952C11.8499 20.1401 12.0476 20.0344 12.2628 19.9916C12.478 19.9488 12.7011 19.9708 12.9038 20.0548C13.1065 20.1387 13.2798 20.2809 13.4017 20.4634C13.5236 20.6458 13.5886 20.8603 13.5886 21.0797C13.5883 21.3738 13.4713 21.6558 13.2633 21.8638C13.0553 22.0717 12.7734 22.1887 12.4792 22.1891ZM26.5544 14.2848C26.8424 14.2848 27.1239 14.3702 27.3634 14.5302C27.6028 14.6902 27.7894 14.9176 27.8997 15.1836C28.0099 15.4497 28.0387 15.7424 27.9825 16.0249C27.9263 16.3073 27.7877 16.5668 27.584 16.7704C27.3804 16.974 27.1209 17.1127 26.8385 17.1689C26.5561 17.2251 26.2633 17.1962 25.9972 17.086C25.7312 16.9758 25.5038 16.7892 25.3438 16.5498C25.1838 16.3103 25.0984 16.0288 25.0984 15.7408C25.0988 15.3548 25.2524 14.9847 25.5253 14.7117C25.7983 14.4388 26.1684 14.2852 26.5544 14.2848ZM16.0892 24.8342L21.0373 27.4615C21.2445 27.5715 21.4716 27.639 21.7053 27.6599C21.939 27.6808 22.1745 27.6548 22.398 27.5833C22.6215 27.5119 22.8284 27.3964 23.0066 27.2438C23.1848 27.0911 23.3306 26.9044 23.4355 26.6945L26.49 20.5857L29.5445 26.6947C29.6494 26.9045 29.7953 27.0912 29.9735 27.2438C30.1516 27.3965 30.3586 27.5119 30.582 27.5833C30.8055 27.6548 31.041 27.6808 31.2746 27.6599C31.5083 27.639 31.7355 27.5715 31.9427 27.4615L36.8908 24.8342L34.0152 31.9274C33.9856 32.001 33.9347 32.064 33.8689 32.1083C33.8031 32.1526 33.7256 32.1762 33.6463 32.1759H19.3337C19.2544 32.1762 19.1769 32.1526 19.1111 32.1083C19.0454 32.064 18.9944 32.001 18.9649 31.9274L16.0892 24.8342ZM52.738 61.3292L41.9589 42.6592C42.2666 42.5667 42.5865 42.4787 42.9121 42.3894C44.613 41.9227 46.3718 41.4402 47.4116 40.0114C48.4409 38.5972 48.3597 36.7846 48.2813 35.0317C48.2296 33.8756 48.1807 32.7837 48.4535 31.9435C48.7079 31.1598 49.3701 30.3366 50.0711 29.4651C51.1398 28.1364 52.3512 26.6304 52.3512 24.8054C52.3512 22.9805 51.1399 21.4744 50.0711 20.1457C49.3701 19.2742 48.708 18.451 48.4535 17.6673C48.1807 16.827 48.2296 15.7351 48.2813 14.5791C48.3597 12.8262 48.4408 11.0137 47.4116 9.59945C46.3718 8.17068 44.6131 7.68817 42.9122 7.22158C41.805 6.91776 40.7592 6.63087 40.059 6.12134C39.3733 5.62225 38.7855 4.72481 38.1632 3.77455C37.2355 2.35804 36.1839 0.752476 34.4797 0.199147C32.8452 -0.331571 31.163 0.29963 29.5363 0.910043C28.4361 1.32287 27.397 1.71275 26.4851 1.71275C25.5732 1.71275 24.534 1.32287 23.4339 0.91004C21.8072 0.299627 20.125 -0.331574 18.4905 0.199208C16.7862 0.752541 15.7347 2.35803 14.807 3.77454C14.1847 4.7248 13.5969 5.62224 12.9111 6.12134C12.211 6.63086 11.1652 6.91775 10.058 7.22157C8.35714 7.68817 6.59841 8.17067 5.55858 9.59944C4.52931 11.0137 4.61049 12.8263 4.6889 14.5792C4.74062 15.7352 4.78952 16.8272 4.51671 17.6673C4.26225 18.451 3.60011 19.2743 2.8991 20.1458C1.83036 21.4744 0.619009 22.9805 0.619009 24.8054C0.619009 26.6304 1.83036 28.1365 2.8991 29.4652C3.60011 30.3367 4.26226 31.1599 4.51671 31.9436C4.78952 32.7838 4.74063 33.8757 4.6889 35.0318C4.61049 36.7846 4.52937 38.5972 5.55858 40.0113C6.59841 41.4402 8.3572 41.9227 10.0581 42.3894C10.3837 42.4787 10.7036 42.5667 11.0113 42.6592L0.232171 61.3293C0.0823907 61.5887 0.00241793 61.8826 5.39741e-05 62.1822C-0.00230998 62.4818 0.0730156 62.7769 0.218683 63.0387C0.36435 63.3005 0.575385 63.5201 0.831204 63.676C1.08702 63.8319 1.37889 63.9189 1.67834 63.9284L8.76929 64.1539L12.51 70.1821C12.6644 70.4335 12.8809 70.641 13.1387 70.7845C13.3965 70.9281 13.6869 71.0028 13.9819 71.0016C13.9914 71.0016 14.001 71.0015 14.0105 71.0014C14.3103 70.998 14.604 70.9163 14.8625 70.7644C15.1209 70.6124 15.3352 70.3955 15.4839 70.1352L26.4896 51.0883L37.4861 70.1348C37.6348 70.3952 37.849 70.6122 38.1076 70.7643C38.3661 70.9163 38.6599 70.998 38.9598 71.0014C38.9692 71.0015 38.9788 71.0016 38.9883 71.0016C39.2833 71.0028 39.5737 70.928 39.8314 70.7845C40.0892 70.641 40.3057 70.4336 40.4601 70.1821L44.2009 64.1539L51.2919 63.9284C51.5913 63.9189 51.8832 63.8319 52.139 63.676C52.3948 63.52 52.6059 63.3005 52.7515 63.0386C52.8972 62.7768 52.9725 62.4817 52.9701 62.1821C52.9678 61.8825 52.8878 61.5887 52.738 61.3292L52.738 61.3292ZM13.9723 68.5936L10.4388 62.8994C10.2884 62.6564 10.0803 62.4546 9.83288 62.3117C9.58549 62.1689 9.30657 62.0896 9.02104 62.0808L2.32315 61.8678L12.9268 43.5016C13.6058 44.0029 14.1895 44.8933 14.807 45.8362C15.7347 47.2528 16.7863 48.8583 18.4905 49.4117C18.9111 49.5464 19.3504 49.6136 19.7921 49.6108C21.0086 49.6108 22.2362 49.1502 23.4339 48.7008C23.9112 48.5217 24.3769 48.347 24.8258 48.2065L25.2889 49.0087L13.9723 68.5936ZM26.4851 45.818C25.1957 45.818 23.9286 46.2935 22.7032 46.7533C21.3517 47.2604 20.0754 47.7395 19.1329 47.4333C18.1251 47.1061 17.3586 45.9357 16.547 44.6966C15.8497 43.6317 15.1285 42.5306 14.1351 41.8077C13.1278 41.0746 11.847 40.7232 10.6085 40.3834C9.19066 39.9945 7.85147 39.6271 7.24038 38.7874C6.63992 37.9623 6.70161 36.584 6.76695 35.1248C6.82463 33.8344 6.88436 32.5001 6.49509 31.3012C6.12261 30.154 5.30785 29.1411 4.51996 28.1615C3.58352 26.9973 2.69908 25.8977 2.69908 24.8054C2.69908 23.7132 3.58352 22.6136 4.51989 21.4495C5.30785 20.4699 6.12261 19.4569 6.49509 18.3097C6.88436 17.1109 6.82464 15.7766 6.76688 14.4862C6.70161 13.0269 6.63993 11.6486 7.24039 10.8235C7.85148 9.98384 9.1906 9.61644 10.6083 9.22751C11.847 8.88767 13.1278 8.53625 14.1351 7.80314C15.1286 7.08019 15.8497 5.97908 16.5471 4.91419C17.3586 3.67515 18.125 2.50484 19.1329 2.17759C20.0756 1.87147 21.3518 2.35052 22.7032 2.85754C23.9286 3.31737 25.1958 3.79283 26.4851 3.79283C27.7745 3.79283 29.0416 3.31737 30.267 2.85754C31.6185 2.35046 32.8952 1.87181 33.8373 2.17752C34.845 2.50477 35.6116 3.67515 36.4231 4.91426C37.1205 5.97908 37.8417 7.0802 38.8351 7.80315C39.8424 8.53625 41.1233 8.88767 42.3619 9.22751C43.7796 9.61644 45.1187 9.98384 45.7298 10.8235C46.3303 11.6485 46.2686 13.0269 46.2033 14.4861C46.1456 15.7765 46.0858 17.1108 46.4751 18.3097C46.8476 19.4569 47.6624 20.4698 48.4503 21.4494C49.3867 22.6136 50.2711 23.7132 50.2711 24.8054C50.2711 25.8977 49.3867 26.9973 48.4502 28.1614C47.6624 29.141 46.8476 30.1539 46.4751 31.3011C46.0858 32.5 46.1456 33.8343 46.2033 35.1247C46.2686 36.5839 46.3303 37.9622 45.7298 38.7874C45.1187 39.6271 43.7795 39.9945 42.3617 40.3834C41.1232 40.7232 39.8424 41.0746 38.8351 41.8077C37.8416 42.5306 37.1205 43.6317 36.4231 44.6966C35.6116 45.9357 34.8452 47.1061 33.8374 47.4333C32.8949 47.7394 31.6185 47.2604 30.2671 46.7533C29.0417 46.2935 27.7744 45.818 26.4851 45.818ZM43.9491 62.0808C43.6636 62.0896 43.3847 62.1689 43.1373 62.3117C42.8899 62.4546 42.6818 62.6565 42.5314 62.8994L38.9979 68.5934L27.0781 47.9474C27.8379 48.0642 28.668 48.375 29.5364 48.7008C31.163 49.3111 32.8451 49.9422 34.4797 49.4117C36.184 48.8583 37.2355 47.2528 38.1633 45.8363C38.7807 44.8934 39.3644 44.0029 40.0434 43.5016L50.647 61.8678L43.9491 62.0808Z" fill="white"/>
</svg>
