<svg width="75" height="75" viewBox="0 0 75 75" fill="none" xmlns="http://www.w3.org/2000/svg">
<path d="M73.0987 32.1639C72.3427 31.0161 71.169 30.2081 69.8268 29.9117C70.2069 29.1893 70.4155 28.3891 70.4363 27.5731C70.4571 26.7571 70.2897 25.9473 69.947 25.2065C69.6042 24.4657 69.0954 23.8138 68.46 23.3014C67.8246 22.789 67.0797 22.4299 66.2831 22.2519C66.5169 21.806 66.6866 21.3293 66.7871 20.8359C67.0642 19.4716 66.7952 18.053 66.038 16.8848C65.2808 15.7166 64.0956 14.8918 62.7371 14.5877C63.1798 13.7439 63.3879 12.7968 63.3398 11.8451C63.2918 10.8934 62.9892 9.97208 62.4637 9.1772C60.8444 6.7322 57.5366 6.05945 55.0908 7.67907L49.7951 11.1864L49.5787 11.3297C46.8723 9.95871 43.989 8.96919 41.0111 8.38932C40.9222 8.24945 40.8629 8.16207 40.854 8.1602C39.8701 6.66418 38.7258 5.2801 37.4414 4.03257L35.2496 1.9082C33.6453 0.352697 31.1291 0.119447 29.2665 1.35357C27.1316 2.76695 26.5027 5.6057 27.7912 7.7852C27.8782 7.91607 28.0222 8.1377 28.1883 8.40845C20.9996 9.8357 14.4431 13.6453 9.61008 19.2377C6.61521 22.7051 4.37326 26.7568 3.0263 31.136C1.67935 35.5153 1.25676 40.1266 1.78533 44.6777C1.79395 44.7527 1.80558 44.8487 1.8187 44.9518C1.83183 45.0549 1.8442 45.1502 1.8562 45.2496C1.8757 45.3939 1.8937 45.5319 1.90795 45.6328C1.91508 45.6819 1.9237 45.7307 1.93083 45.7798C1.9432 45.8634 1.95633 45.9474 1.96833 46.0311C3.68883 57.5248 11.1933 67.0539 21.9783 71.5228C22.1388 71.5896 22.6421 71.6961 22.8033 71.7602C26.5846 73.2148 30.6019 73.959 34.6533 73.9554C43.4103 73.9554 51.6652 70.5677 57.8973 64.4166C63.9393 58.4541 67.4096 50.5558 67.7201 42.1059L69.6629 40.8193L71.5991 39.5368C72.1817 39.1512 72.6826 38.6547 73.0733 38.0755C73.464 37.4963 73.7368 36.8459 73.8761 36.1612C74.0153 35.4766 74.0184 34.7713 73.8851 34.0855C73.7518 33.3997 73.4847 32.7469 73.0991 32.1643L73.0987 32.1639ZM47.5413 12.6771L46.2435 13.5377L44.0621 14.9811L43.3721 13.1222C43.0916 12.3669 42.4443 10.9303 42.4196 10.8572C44.1772 11.3115 45.8911 11.9205 47.5413 12.6771ZM29.1959 10.3607C29.2402 10.4799 29.2788 10.5954 29.3085 10.7042C30.3242 13.3381 30.5297 16.2154 29.8987 18.9669L27.1016 31.0479C26.5971 30.51 25.9184 30.1681 25.1859 30.0827C24.4534 29.9973 23.7143 30.174 23.0996 30.5814L15.1777 35.8262L3.76608 43.3832C3.69908 42.5522 3.66483 41.7127 3.66333 40.8647C3.66333 25.7031 14.3621 12.9857 29.1959 10.3607ZM40.74 57.2222L33.9285 61.7327L18.8246 39.2604C18.7951 39.1826 18.7574 39.1082 18.7121 39.0384L17.4045 37.0884L24.3652 32.4936C24.5498 32.3716 24.7753 32.328 24.9921 32.3722C25.2089 32.4165 25.3992 32.5449 25.5213 32.7294L40.9758 56.0664C41.0362 56.1578 41.078 56.2602 41.0988 56.3678C41.1196 56.4753 41.1191 56.5859 41.0971 56.6933C41.0752 56.8006 41.0323 56.9025 40.971 56.9933C40.9096 57.084 40.831 57.1618 40.7396 57.2222H40.74ZM4.07245 45.8878L15.4631 38.3694L32.0156 63.0002L22.4362 69.3433C12.885 65.2299 5.8012 56.4482 4.07245 45.8878ZM34.6548 71.8558C31.3772 71.8581 28.1202 71.3383 25.0061 70.3161L36.9798 62.4632L37.2742 62.2686L42.0063 59.1343L42.0112 59.1313C42.7014 58.6727 43.1813 57.9589 43.3458 57.1467C43.5102 56.3346 43.3457 55.4903 42.8883 54.7993L42.7859 54.6441L44.2923 53.6466C45.3635 52.9354 46.6635 52.6542 47.9328 52.8591C49.7695 53.1559 51.6505 52.7495 53.2008 51.7209L62.2151 45.7517L65.5282 43.5576C64.1508 59.3559 50.7495 71.8558 34.6548 71.8558ZM71.6298 35.7036C71.5518 36.0935 71.3972 36.464 71.1749 36.7937C70.9526 37.1234 70.6671 37.4058 70.3349 37.6243L66.3093 40.2902L66.3056 40.2924L51.9371 49.8077C50.866 50.5195 49.5657 50.8007 48.2962 50.5952C46.4586 50.2986 44.5768 50.7055 43.026 51.7348L41.5196 52.7327L28.8615 33.6186L32.1333 19.4848C32.9678 15.8463 32.5423 12.0323 30.9266 8.6672C30.9119 8.63232 30.8962 8.59857 30.8782 8.5652C30.5685 7.93136 30.2178 7.31843 29.8282 6.73032C29.4875 6.21636 29.3488 5.59464 29.4387 4.98462C29.5286 4.37459 29.8407 3.8193 30.3151 3.42544C30.7896 3.03157 31.3928 2.82692 32.009 2.8508C32.6251 2.87469 33.2107 3.12542 33.6532 3.55482L35.8439 5.67882C38.2252 7.9936 40.0621 10.8087 41.2218 13.9206L42.4151 17.1347L42.4218 17.1516C42.4244 17.1587 42.4278 17.1666 42.4308 17.1741C42.4381 17.1921 42.4464 17.2098 42.4556 17.2269C42.4783 17.2761 42.5046 17.3235 42.5343 17.3687C42.6174 17.4943 42.7244 17.6023 42.8493 17.6866C42.9742 17.7708 43.1144 17.8296 43.262 17.8596C43.4096 17.8896 43.5617 17.8902 43.7095 17.8613C43.8574 17.8325 43.9981 17.7748 44.1236 17.6916L56.3564 9.59157C57.0255 9.14825 57.8433 8.98887 58.6299 9.14851C59.4165 9.30815 60.1075 9.77373 60.5508 10.4428C60.9941 11.1119 61.1535 11.9297 60.9939 12.7163C60.8342 13.5029 60.3687 14.1939 59.6996 14.6372L58.6376 15.3407L56.2691 16.9097C56.2663 16.912 56.2632 16.914 56.2601 16.9157C56.2466 16.9254 56.2335 16.9344 56.2226 16.9434C55.983 17.1213 55.8222 17.3855 55.7743 17.6799C55.7264 17.9744 55.7952 18.2759 55.9661 18.5205C56.1369 18.765 56.3964 18.9334 56.6894 18.9897C56.9823 19.046 57.2857 18.9859 57.5351 18.8222L59.9054 17.2517C60.5748 16.8151 61.3897 16.661 62.1723 16.823C62.9549 16.985 63.6416 17.45 64.0826 18.1165C64.5236 18.783 64.6831 19.5968 64.5262 20.3805C64.3693 21.1641 63.9088 21.8538 63.2452 22.2992L59.8121 24.5728C59.5585 24.7408 59.3819 25.0026 59.3214 25.3006C59.2608 25.5987 59.3211 25.9086 59.489 26.1623C59.6569 26.4159 59.9187 26.5924 60.2168 26.653C60.5149 26.7136 60.8248 26.6533 61.0784 26.4853L61.6098 26.1336L63.4473 24.9163C64.1165 24.4763 64.9329 24.3196 65.7174 24.4804C66.502 24.6412 67.1908 25.1064 67.633 25.7742C68.0752 26.4419 68.2346 27.2577 68.0764 28.0429C67.9182 28.828 67.4552 29.5183 66.7889 29.9627L65.0748 31.0978L65.0478 31.1158L63.3573 32.2352C63.1037 32.4031 62.9272 32.6648 62.8666 32.9629C62.8059 33.2609 62.8662 33.5708 63.0341 33.8244C63.202 34.0781 63.4637 34.2546 63.7618 34.3152C64.0598 34.3758 64.3697 34.3156 64.6233 34.1477L65.1547 33.7959L66.9922 32.5794C67.4911 32.2489 68.0768 32.0737 68.6752 32.0761C69.2737 32.0785 69.8579 32.2583 70.3542 32.5928C70.8504 32.9273 71.2362 33.4015 71.4629 33.9554C71.6896 34.5092 71.7469 35.1179 71.6276 35.7043L71.6298 35.7036Z" fill="white"/>
</svg>
