<svg width="65" height="53" viewBox="0 0 65 53" fill="none" xmlns="http://www.w3.org/2000/svg">
<path d="M62.0125 50.8837H60.9294V22.6362C63.3753 21.0624 65 18.3181 65 15.1996C65 15.0339 64.9567 14.871 64.8746 14.7272L57.3192 1.50528C56.7885 0.576875 55.7946 0 54.7253 0H10.2747C9.20537 0 8.21146 0.576748 7.68079 1.50528L0.12543 14.7272C0.043291 14.871 0 15.034 0 15.1996C0 18.3181 1.62475 21.0624 4.07062 22.6362V50.8837H2.98746C2.46162 50.8837 2.03531 51.31 2.03531 51.8358C2.03531 52.3617 2.46162 52.788 2.98746 52.788H62.0125C62.5385 52.788 62.9647 52.3617 62.9647 51.8358C62.9647 51.31 62.5384 50.8837 62.0125 50.8837ZM1.96993 16.1517H11.5C12.0258 16.1517 12.4521 15.7254 12.4521 15.1996C12.4521 14.6738 12.0258 14.2474 11.5 14.2474H2.59289L9.33423 2.45007C9.52669 2.11339 9.88698 1.9043 10.2747 1.9043H54.7253C55.113 1.9043 55.4734 2.11339 55.6658 2.45007L62.407 14.2474H55.6658C55.1398 14.2474 54.7136 14.6738 54.7136 15.1996C54.7136 15.7254 55.1398 16.1517 55.6658 16.1517H63.0299C62.5644 19.5267 59.6616 22.1344 56.1608 22.1344C52.66 22.1344 49.7586 19.5264 49.293 16.1517H55.9067C56.4327 16.1517 56.8589 15.7254 56.8589 15.1996C56.8589 14.6738 56.4327 14.2474 55.9067 14.2474H9.09378C8.56794 14.2474 8.14163 14.6738 8.14163 15.1996C8.14163 15.7254 8.56794 16.1517 9.09378 16.1517H15.7069C15.2412 19.5264 12.3397 22.1344 8.83911 22.1344C5.33825 22.1344 2.43547 19.5267 1.96993 16.1517ZM47.2547 16.1517C46.7891 19.5264 43.8876 22.1344 40.387 22.1344C36.8862 22.1344 33.9848 19.5264 33.5192 16.1517H47.2547ZM31.4808 16.1517C31.0152 19.5264 28.1136 22.1344 24.613 22.1344C21.1124 22.1344 18.2109 19.5264 17.7453 16.1517H31.4808ZM53.9365 50.8838H43.6288V47.6997H53.9365V50.8838ZM53.9365 45.7954H43.6288V28.3639H53.9365V45.7954ZM59.0251 50.8838H55.841V27.4117C55.841 26.8859 55.4148 26.4596 54.8888 26.4596H42.6768C42.1508 26.4596 41.7247 26.8859 41.7247 27.4117V50.8837H5.97492V23.5597C6.87388 23.8686 7.83669 24.0387 8.83911 24.0387C12.2789 24.0387 15.266 22.0638 16.7261 19.1882C18.1862 22.0637 21.1732 24.0387 24.613 24.0387C28.0528 24.0387 31.0399 22.0638 32.5 19.1882C33.9601 22.0637 36.9472 24.0387 40.387 24.0387C43.8268 24.0387 46.8138 22.0638 48.2739 19.1882C49.734 22.0637 52.7211 24.0387 56.1609 24.0387C57.1633 24.0387 58.1261 23.8686 59.0251 23.5598V50.8838Z" fill="white"/>
<path d="M37.5886 26.4595H10.1113C9.58549 26.4595 9.15918 26.8858 9.15918 27.4116V46.7475C9.15918 47.2733 9.58549 47.6996 10.1113 47.6996H37.5886C38.1145 47.6996 38.5407 47.2733 38.5407 46.7475V27.4116C38.5407 26.8857 38.1145 26.4595 37.5886 26.4595ZM36.6364 45.7953H11.0635V28.3638H36.6364V45.7953Z" fill="white"/>
</svg>
