<svg width="74" height="74" viewBox="0 0 74 74" fill="none" xmlns="http://www.w3.org/2000/svg">
<g clip-path="url(#clip0)">
<path d="M64.4697 30.1218C65.2473 28.8461 65.2473 27.2614 64.4694 25.9859L62.9352 23.4701C62.7331 23.1385 62.655 22.7448 62.7154 22.3615L63.1727 19.456C63.4058 17.9753 62.7975 16.5078 61.5854 15.626L59.2077 13.8966C58.8934 13.6678 58.6699 13.3341 58.5784 12.9563L57.886 10.0947C57.5345 8.64112 56.4131 7.51985 54.9597 7.16806L52.0979 6.47546C51.7201 6.38398 51.3861 6.16053 51.1576 5.84617L49.4279 3.46791C48.5462 2.25587 47.0786 1.64724 45.5984 1.88052L42.6918 2.33782C42.3085 2.39809 41.9147 2.32004 41.5834 2.11798L39.0671 0.583347C37.7915 -0.194521 36.2068 -0.194377 34.9312 0.583347L32.4152 2.11755C32.0839 2.31975 31.6904 2.39751 31.3066 2.33738L28.401 1.88008C26.9207 1.6471 25.453 2.25543 24.5713 3.46747L22.8419 5.84516C22.6131 6.15952 22.2792 6.38296 21.9012 6.47445L19.0397 7.1669C17.5864 7.5184 16.4648 8.63982 16.113 10.0932L15.4205 12.955C15.329 13.3328 15.1057 13.6668 14.7912 13.8953L12.4129 15.625C11.2009 16.5065 10.5927 17.9738 10.8255 19.4545L11.2828 22.3612C11.3431 22.7447 11.265 23.1384 11.063 23.4696L9.52848 25.9861C8.7509 27.2617 8.7509 28.8463 9.52862 30.1218L11.0628 32.6378C11.2649 32.9694 11.3431 33.3631 11.2827 33.7464L10.8254 36.6521C10.5922 38.1326 11.2006 39.6002 12.4126 40.4819L14.7903 42.2113C15.1047 42.4398 15.3281 42.7738 15.4196 43.1516L16.112 46.0132C16.4635 47.4668 17.585 48.588 19.0384 48.9398L20.2334 49.229L12.1462 67.2686C11.9744 67.6521 12.0219 68.0981 12.271 68.4366C12.5198 68.7751 12.9313 68.9536 13.3487 68.9035L19.8558 68.1255L23.6044 73.5008C23.8238 73.8152 24.1818 73.9999 24.5606 73.9999C24.5969 73.9999 24.6336 73.9981 24.67 73.9948C25.0883 73.9555 25.4533 73.694 25.6251 73.3109L33.8844 54.8862L34.9309 55.5243C35.5687 55.9132 36.2837 56.1076 36.9989 56.1076C37.714 56.1076 38.429 55.9131 39.0668 55.5243L40.1511 54.8632L48.4208 73.3109C48.5926 73.6943 48.9574 73.9555 49.3758 73.9948C49.4124 73.9983 49.449 74 49.4852 74C49.8641 74 50.2222 73.8153 50.4415 73.5009L54.19 68.1257L60.6971 68.9037C61.1142 68.9533 61.526 68.7752 61.7749 68.4367C62.0238 68.0982 62.0716 67.6522 61.8996 67.2688L53.8083 49.2192L54.9584 48.941C56.4116 48.5895 57.5332 47.4681 57.885 46.0147L58.5776 43.1529C58.6691 42.7751 58.8925 42.4411 59.2069 42.2126L61.5851 40.4829C62.7972 39.6014 63.4054 38.1341 63.1725 36.6534L62.7152 33.7467C62.655 33.3632 62.733 32.9695 62.9351 32.6383L64.4697 30.1218ZM24.3394 70.4775L21.3686 66.2176C21.1224 65.8643 20.7012 65.6753 20.2737 65.7267L15.1169 66.3433L22.485 49.9068C22.6197 50.0058 22.7405 50.1244 22.8401 50.2616L24.5699 52.6398C24.7342 52.8657 24.9189 53.0705 25.1203 53.2529L21.242 61.9042C20.9787 62.492 21.2415 63.1818 21.8291 63.4453C21.9841 63.5148 22.1461 63.5476 22.3054 63.5476C22.7508 63.5476 23.1763 63.291 23.3701 62.8582L27.2346 54.2378C27.6149 54.29 28.0064 54.2891 28.3994 54.2272L31.3059 53.7699C31.4799 53.7426 31.6558 53.7451 31.8271 53.7734L24.3394 70.4775ZM58.9292 66.343L53.7723 65.7267C53.3444 65.6754 52.9236 65.8643 52.6774 66.2176L49.7067 70.4775L42.2157 53.7669C42.3728 53.7455 42.5331 53.7455 42.6917 53.7704L45.5972 54.2277C46.0061 54.292 46.4135 54.29 46.8082 54.2311L50.6756 62.8585C50.8697 63.2914 51.2949 63.5479 51.7404 63.5479C51.8998 63.5479 52.0618 63.5151 52.2166 63.4456C52.8043 63.1823 53.0672 62.4921 52.8037 61.9045L48.9107 53.2203C49.0985 53.046 49.2721 52.853 49.4268 52.6403L51.1563 50.2626C51.2653 50.1127 51.3988 49.9842 51.5489 49.8803L58.9292 66.343ZM62.4782 28.9075L60.9437 31.4239C60.4545 32.2266 60.2651 33.1803 60.4112 34.109L60.8685 37.0156C60.9647 37.6268 60.7135 38.2325 60.2132 38.5964L57.8348 40.3263C57.0736 40.8802 56.5322 41.6891 56.3107 42.6042L55.6181 45.4659C55.4729 46.0658 55.0101 46.5288 54.41 46.674L51.5483 47.3665C50.6331 47.5879 49.824 48.1293 49.2702 48.8907L47.5407 51.2684C47.1768 51.7689 46.5712 52.0198 45.9597 51.9235L43.054 51.4663C42.1251 51.3201 41.1714 51.5092 40.3685 51.9987L37.8526 53.5329C37.3261 53.8538 36.6716 53.8538 36.1454 53.5329L33.629 51.9986C33.0032 51.6169 32.2857 51.418 31.5597 51.418C31.3545 51.418 31.1482 51.4339 30.9437 51.4661L28.037 51.9234C27.4257 52.0197 26.8201 51.7683 26.4562 51.2681L24.7263 48.8898C24.1724 48.1286 23.3635 47.5872 22.4484 47.3657L19.5867 46.6732C18.9868 46.5279 18.5238 46.0651 18.3786 45.465L17.6861 42.6034C17.4647 41.6883 16.9234 40.879 16.1619 40.3252L13.7844 38.5956C13.284 38.2316 13.0329 37.6258 13.1292 37.0145L13.5865 34.1089C13.7326 33.18 13.5436 32.2264 13.054 31.4235L11.5198 28.9073C11.1988 28.3808 11.1988 27.7265 11.5198 27.2001L13.0543 24.6837C13.5437 23.881 13.7329 22.9273 13.5868 21.9986L13.1295 19.0921C13.0334 18.4808 13.2846 17.8751 13.7848 17.5112L16.1632 15.7813C16.9244 15.2274 17.4659 14.4185 17.6873 13.5035L18.3799 10.6417C18.5251 10.0418 18.9879 9.57884 19.588 9.43359L22.4497 8.74114C23.3649 8.51972 24.174 7.9783 24.7277 7.21691L26.4572 4.83922C26.8211 4.33885 27.4267 4.08751 28.0382 4.18392L30.9439 4.64121C31.8729 4.78763 32.8267 4.59829 33.6294 4.10876L36.1453 2.57456C36.6718 2.2537 37.3262 2.2537 37.8525 2.57456L40.3689 4.10891C41.1716 4.59858 42.1255 4.78777 43.0542 4.6415L45.9608 4.18421C46.5719 4.08838 47.1778 4.33929 47.5417 4.83951L49.2716 7.21778C49.8255 7.97903 50.6344 8.52044 51.5494 8.74186L54.4112 9.43446C55.0111 9.57971 55.474 10.0425 55.6193 10.6426L56.3118 13.5042C56.5332 14.4193 57.0744 15.2286 57.836 15.7824L60.2137 17.5119C60.714 17.8758 60.9651 18.4817 60.8688 19.0929L60.4115 21.9986C60.2654 22.9275 60.4545 23.8811 60.944 24.684L62.4782 27.2001C62.7993 27.7267 62.7993 28.381 62.4782 28.9075Z" fill="white"/>
<path d="M53.8179 23.2187C53.5012 22.2436 52.672 21.5629 51.6539 21.4421L43.0061 20.4167L39.3587 12.5092C38.9292 11.5783 38.0256 11 37.0004 11C35.9753 11 35.0716 11.5783 34.6421 12.5092L30.9946 20.4169L22.3469 21.4423C21.3288 21.5631 20.4995 22.2438 20.1829 23.2188C19.8662 24.1933 20.137 25.2316 20.8893 25.9275L27.2829 31.8401L25.5858 40.3815C25.3861 41.3871 25.7772 42.386 26.6067 42.9884C27.0643 43.3208 27.5953 43.4891 28.1296 43.4891C28.5641 43.4891 29.0004 43.3779 29.4014 43.1535L37.0002 38.9003L44.5991 43.1535C45.4937 43.6544 46.5644 43.5912 47.3939 42.9886C48.2234 42.386 48.6145 41.387 48.4147 40.3815L46.7176 31.8402L53.1111 25.9276C53.8638 25.2317 54.1345 24.1937 53.8179 23.2187ZM44.1757 30.2762C43.8087 30.6155 43.6445 31.1212 43.7418 31.6114L45.4784 40.3517L37.7022 35.9991C37.4842 35.8771 37.2423 35.816 37.0002 35.816C36.7582 35.816 36.5165 35.8769 36.2983 35.9991L28.522 40.3517L30.2587 31.6114C30.3563 31.121 30.1919 30.6155 29.8248 30.2762L23.2822 24.2255L32.1321 23.1763C32.6283 23.1175 33.0585 22.8049 33.268 22.3512L37.0004 14.2592L40.7328 22.3512C40.9423 22.8049 41.3723 23.1175 41.8687 23.1763L50.7183 24.2255L44.1757 30.2762Z" fill="white"/>
</g>
<defs>
<clipPath id="clip0">
<rect width="74" height="74" fill="white"/>
</clipPath>
</defs>
</svg>
