<svg width="66" height="66" viewBox="0 0 66 66" fill="none" xmlns="http://www.w3.org/2000/svg">
<path d="M53.1681 32.6778L49.3999 22.0013C49.118 21.2023 48.3593 20.6655 47.5121 20.6655H18.2295C17.3822 20.6655 16.6236 21.2023 16.3417 22.0011L12.5735 32.6778C12.3546 33.2979 12.8303 33.9689 13.4869 33.9689H52.2547C52.569 33.9689 52.8638 33.8163 53.0453 33.5598C53.2269 33.3031 53.2728 32.9743 53.1681 32.6778ZM14.856 32.0314L18.1685 22.6459C18.1773 22.621 18.2029 22.6029 18.2294 22.6029H47.5121C47.5385 22.6029 47.5642 22.621 47.5731 22.646L50.8856 32.0314H14.856Z" fill="white"/>
<path d="M51.47 45.4639C48.0297 45.4639 45.335 47.251 45.335 49.5324C45.335 51.8138 48.0297 53.6009 51.47 53.6009C54.9102 53.6009 57.605 51.8138 57.605 49.5324C57.605 47.251 54.9102 45.4639 51.47 45.4639ZM51.47 51.6635C49.0674 51.6635 47.2723 50.5384 47.2723 49.5324C47.2723 48.5264 49.0673 47.4013 51.47 47.4013C53.8726 47.4013 55.6677 48.5264 55.6677 49.5324C55.6677 50.5384 53.8726 51.6635 51.47 51.6635Z" fill="white"/>
<path d="M14.2718 45.4639C10.8315 45.4639 8.13672 47.251 8.13672 49.5324C8.13672 51.8138 10.8315 53.6009 14.2718 53.6009C17.712 53.6009 20.4068 51.8138 20.4068 49.5324C20.4068 47.251 17.712 45.4639 14.2718 45.4639ZM14.2718 51.6635C11.8693 51.6635 10.0741 50.5384 10.0741 49.5324C10.0741 48.5264 11.8692 47.4013 14.2718 47.4013C16.6743 47.4013 18.4695 48.5264 18.4695 49.5324C18.4695 50.5384 16.6743 51.6635 14.2718 51.6635Z" fill="white"/>
<path d="M63.8692 30.998H58.7029C58.2584 30.998 57.8709 31.3005 57.7632 31.7317L57.0827 34.4536L52.3233 20.9692C51.6048 18.9334 49.6715 17.5654 47.5124 17.5654H18.2298C16.0708 17.5654 14.1374 18.9334 13.4189 20.9693L8.65968 34.4537L7.97919 31.7317C7.87129 31.3004 7.4838 30.998 7.03946 30.998H1.87303C1.33807 30.998 0.904297 31.4316 0.904297 31.9667V36.0998C0.904297 36.6349 1.33807 37.0686 1.87303 37.0686H7.22354L3.92109 41.6919C3.2995 42.5622 2.97092 43.5877 2.97092 44.6573V56.7652C2.97092 58.4429 3.78522 59.9338 5.03909 60.8641C5.03871 60.8755 5.03742 60.8867 5.03742 60.8982V63.998C5.03742 65.1019 5.93551 65.9999 7.03933 65.9999H13.2389C14.3429 65.9999 15.2409 65.1018 15.2409 63.998V61.8669H50.5011V63.998C50.5011 65.1019 51.3992 65.9999 52.503 65.9999H58.7026C59.8066 65.9999 60.7046 65.1018 60.7046 63.998V60.8982C60.7046 60.8867 60.7033 60.8755 60.7029 60.8641C61.9567 59.9338 62.771 58.4429 62.771 56.7652V44.6573C62.771 43.5876 62.4423 42.562 61.8208 41.6919L58.5183 37.0686H63.8689C64.404 37.0686 64.8377 36.6349 64.8377 36.0998V31.9667C64.8378 31.4315 64.4043 30.998 63.8692 30.998ZM2.84176 35.131V32.9353H6.28304L6.83192 35.131H2.84176ZM13.3037 63.998C13.3037 64.0336 13.2748 64.0626 13.2391 64.0626H7.03946C7.00388 64.0626 6.97488 64.0336 6.97488 63.998V61.8669H8.07277H13.3037V63.998ZM58.7673 63.998C58.7673 64.0336 58.7383 64.0626 58.7028 64.0626H52.5032C52.4676 64.0626 52.4386 64.0336 52.4386 63.998V61.8669H57.6695H58.7673V63.998ZM57.6696 59.9294H8.07264C6.66563 59.9294 5.47067 59.0062 5.06049 57.7338H60.6816C60.2714 59.0062 59.0766 59.9294 57.6696 59.9294ZM41.2018 49.4677V51.6633H24.5404V49.4677H41.2018ZM24.6927 47.5302C25.1028 46.2578 26.2977 45.3345 27.7048 45.3345H38.0375C39.4446 45.3345 40.6395 46.2578 41.0497 47.5302H24.6927ZM41.2018 53.6007V55.7963H24.5404V53.6007H41.2018ZM60.2446 42.8179C60.6302 43.3576 60.834 43.9937 60.834 44.6571V55.7964H43.1393V48.4989C43.1393 45.6858 40.8505 43.3972 38.0375 43.3972H27.7048C24.8917 43.3972 22.6031 45.6859 22.6031 48.4989V55.7964H4.90825V44.6571C4.90825 43.9937 5.11205 43.3576 5.49761 42.8179L9.60444 37.0684L51.3546 37.0686C51.8897 37.0686 52.3233 36.6349 52.3233 36.0998C52.3233 35.5647 51.8897 35.1311 51.3546 35.1311L10.4751 35.131L15.2458 21.614C15.6915 20.3514 16.8906 19.5028 18.2298 19.5028H47.5125C48.8516 19.5028 50.0507 20.3512 50.4966 21.614L55.2672 35.131H49.4033C48.8682 35.131 48.4346 35.5646 48.4346 36.0997C48.4346 36.6348 48.8682 37.0684 49.4033 37.0684H56.1378L60.2446 42.8179ZM62.9005 35.131H58.9102L59.4591 32.9353H62.9005V35.131Z" fill="white"/>
<path d="M17.3715 42.3638H11.1719C10.6369 42.3638 10.2031 42.7974 10.2031 43.3325C10.2031 43.8676 10.6369 44.3012 11.1719 44.3012H17.3715C17.9064 44.3012 18.3402 43.8676 18.3402 43.3325C18.3402 42.7974 17.9064 42.3638 17.3715 42.3638Z" fill="white"/>
<path d="M54.5697 42.3638H48.3701C47.835 42.3638 47.4014 42.7974 47.4014 43.3325C47.4014 43.8676 47.835 44.3012 48.3701 44.3012H54.5697C55.1048 44.3012 55.5385 43.8676 55.5385 43.3325C55.5385 42.7974 55.1048 42.3638 54.5697 42.3638Z" fill="white"/>
</svg>
