<svg width="55" height="59" viewBox="0 0 55 59" fill="none" xmlns="http://www.w3.org/2000/svg">
<path d="M53.3988 17.3199L52.3125 16.2337V10.6562C52.3125 10.3993 52.2104 10.1529 52.0288 9.97124C51.8471 9.78957 51.6007 9.6875 51.3438 9.6875H45.7663L43.7112 7.63242C43.442 7.36171 43.1217 7.1471 42.769 7.001C42.4163 6.85489 42.038 6.7802 41.6562 6.78125H35.8438V5.8125C35.842 4.27147 35.229 2.79406 34.1394 1.70439C33.0497 0.614716 31.5723 0.00176274 30.0312 0H8.71875C7.17772 0.00176274 5.70031 0.614716 4.61064 1.70439C3.52097 2.79406 2.90801 4.27147 2.90625 5.8125V48.4375H0.96875C0.711821 48.4375 0.465416 48.5396 0.28374 48.7212C0.102065 48.9029 0 49.1493 0 49.4062V57.1562C0 57.4132 0.102065 57.6596 0.28374 57.8413C0.465416 58.0229 0.711821 58.125 0.96875 58.125H38.75V56.1875H1.9375V50.375H34.875C35.1319 50.375 35.3783 50.2729 35.56 50.0913C35.7417 49.9096 35.8438 49.6632 35.8438 49.4062V33.9062H36.8125C37.0693 33.9065 37.3156 34.0087 37.4972 34.1903C37.6788 34.3719 37.781 34.6182 37.7812 34.875V49.8906C37.7812 52.0745 38.6488 54.169 40.193 55.7132C41.7373 57.2575 43.8317 58.125 46.0156 58.125C48.1995 58.125 50.294 57.2575 51.8382 55.7132C53.3825 54.169 54.25 52.0745 54.25 49.8906V19.375C54.251 18.9932 54.1763 18.615 54.0302 18.2622C53.8841 17.9095 53.6695 17.5892 53.3988 17.3199ZM42.3413 9.00247L44.6801 11.3413C44.77 11.4312 44.8768 11.5026 44.9944 11.5513C45.1119 11.6 45.2379 11.625 45.3651 11.625H50.375V16.6349C50.375 16.7621 50.4 16.8881 50.4487 17.0056C50.4974 17.1232 50.5688 17.23 50.6587 17.3199L52.0288 18.6899C52.119 18.7796 52.1905 18.8864 52.2392 19.004C52.2879 19.1216 52.3128 19.2477 52.3125 19.375V31H50.375V20.1775C50.375 19.9206 50.2729 19.6742 50.0913 19.4926L47.3512 16.7525C47.1695 16.5708 46.9231 16.4688 46.6663 16.4688H41.6634C41.6612 13.8328 41.6562 11.6228 41.6562 11.6228C41.6557 11.3663 41.5534 11.1204 41.3717 10.9392C41.1901 10.758 40.944 10.6562 40.6875 10.6562H39.7188V8.71875H41.6562C41.7835 8.7184 41.9096 8.7433 42.0272 8.792C42.1448 8.8407 42.2515 8.91224 42.3413 9.00247ZM36.8125 28.0938H35.8438V12.5938H39.7207C39.7226 13.6643 39.727 22.7793 39.7232 24.2094C39.7219 24.7191 39.8211 25.2241 40.0153 25.6953C40.2094 26.1666 40.4947 26.5949 40.8546 26.9557C41.2146 27.3166 41.6422 27.6028 42.113 27.7981C42.5838 27.9934 43.0885 28.0939 43.5982 28.0938H48.4375V49.8906C48.4375 50.5329 48.1823 51.149 47.7281 51.6031C47.274 52.0573 46.6579 52.3125 46.0156 52.3125C45.3733 52.3125 44.7573 52.0573 44.3031 51.6031C43.8489 51.149 43.5938 50.5329 43.5938 49.8906V34.875C43.5917 33.0771 42.8766 31.3535 41.6053 30.0822C40.334 28.8109 38.6104 28.0958 36.8125 28.0938ZM46.265 18.4062L48.4375 20.5788V22.2812H45.5312V18.4062H46.265ZM44.5625 24.2188H48.4375V26.1562H43.5982C43.3434 26.1563 43.0911 26.1062 42.8557 26.0086C42.6203 25.911 42.4065 25.7679 42.2265 25.5875C42.0465 25.4071 41.9039 25.193 41.8068 24.9574C41.7097 24.7218 41.6601 24.4693 41.6607 24.2145C41.6638 23.019 41.6646 20.2533 41.6644 18.4062H43.5938V23.25C43.5938 23.5069 43.6958 23.7533 43.8775 23.935C44.0592 24.1167 44.3056 24.2188 44.5625 24.2188ZM37.7812 8.71875V10.6562H35.8438V8.71875H37.7812ZM4.84375 48.4375V5.8125C4.8449 4.78514 5.25353 3.80019 5.97999 3.07374C6.70644 2.34728 7.69139 1.93865 8.71875 1.9375H30.0312C31.0586 1.93865 32.0436 2.34728 32.77 3.07374C33.4965 3.80019 33.9051 4.78514 33.9062 5.8125V48.4375H4.84375ZM52.3125 49.8906C52.3125 51.5607 51.6491 53.1623 50.4682 54.3432C49.2873 55.5241 47.6857 56.1875 46.0156 56.1875C44.3456 56.1875 42.744 55.5241 41.5631 54.3432C40.3822 53.1623 39.7188 51.5607 39.7188 49.8906V34.875C39.7179 34.1045 39.4114 33.3658 38.8666 32.8209C38.3217 32.2761 37.583 31.9696 36.8125 31.9688H35.8438V30.0312H36.8125C38.0967 30.0327 39.3279 30.5435 40.236 31.4515C41.144 32.3596 41.6548 33.5908 41.6562 34.875V49.8906C41.6562 51.0468 42.1155 52.1556 42.9331 52.9732C43.7506 53.7907 44.8594 54.25 46.0156 54.25C47.1718 54.25 48.2806 53.7907 49.0982 52.9732C49.9157 52.1556 50.375 51.0468 50.375 49.8906V32.9375H52.3125V49.8906Z" fill="white"/>
<path d="M30.0312 5.8125H8.71875C8.46182 5.8125 8.21542 5.91456 8.03374 6.09624C7.85206 6.27792 7.75 6.52432 7.75 6.78125V22.2812C7.75 22.5382 7.85206 22.7846 8.03374 22.9663C8.21542 23.1479 8.46182 23.25 8.71875 23.25H30.0312C30.2882 23.25 30.5346 23.1479 30.7163 22.9663C30.8979 22.7846 31 22.5382 31 22.2812V6.78125C31 6.52432 30.8979 6.27792 30.7163 6.09624C30.5346 5.91456 30.2882 5.8125 30.0312 5.8125ZM29.0625 21.3125H9.6875V7.75H29.0625V21.3125Z" fill="white"/>
<path d="M12.5938 13.5625H14.5312V15.5H12.5938V13.5625Z" fill="white"/>
<path d="M16.4688 13.5625H18.4062V15.5H16.4688V13.5625Z" fill="white"/>
<path d="M20.3438 13.5625H22.2812V15.5H20.3438V13.5625Z" fill="white"/>
<path d="M24.2188 13.5625H26.1562V15.5H24.2188V13.5625Z" fill="white"/>
<path d="M14.915 42.1152C15.6359 43.2484 16.7611 44.0648 18.062 44.3986C19.3629 44.7325 20.7422 44.5587 21.9197 43.9126C23.0971 43.2665 23.9846 42.1966 24.4019 40.92C24.8192 39.6434 24.7351 38.2558 24.1666 37.039L20.2528 28.6527C20.1749 28.4856 20.0509 28.3442 19.8953 28.2452C19.7398 28.1461 19.5593 28.0935 19.3749 28.0935C19.1905 28.0935 19.0099 28.1461 18.8544 28.2452C18.6989 28.3442 18.5749 28.4856 18.497 28.6527L14.5834 37.039C14.2052 37.8441 14.0372 38.7321 14.0952 39.6198C14.1532 40.5075 14.4352 41.3661 14.915 42.1152ZM16.3392 37.8583L19.3749 31.3531L22.4106 37.8583C22.6488 38.3688 22.7544 38.9311 22.7177 39.4933C22.681 40.0554 22.5031 40.5992 22.2004 41.0744C21.8978 41.5495 21.4802 41.9407 20.9864 42.2117C20.4925 42.4827 19.9382 42.6248 19.3749 42.6248C18.8115 42.6248 18.2573 42.4827 17.7634 42.2117C17.2695 41.9407 16.852 41.5495 16.5493 41.0744C16.2467 40.5992 16.0688 40.0554 16.0321 39.4933C15.9953 38.9311 16.101 38.3688 16.3392 37.8583Z" fill="white"/>
</svg>
