<svg width="68" height="68" viewBox="0 0 68 68" fill="none" xmlns="http://www.w3.org/2000/svg">
<path d="M23.375 20.1875H21.25V22.3125H23.375V20.1875Z" fill="white"/>
<path d="M31.875 20.1875H29.75V22.3125H31.875V20.1875Z" fill="white"/>
<path d="M31.875 25.5H29.75C29.75 26.3454 29.4142 27.1561 28.8164 27.7539C28.2186 28.3517 27.4079 28.6875 26.5625 28.6875C25.7171 28.6875 24.9064 28.3517 24.3086 27.7539C23.7108 27.1561 23.375 26.3454 23.375 25.5H21.25C21.25 26.909 21.8097 28.2602 22.806 29.2565C23.8023 30.2528 25.1535 30.8125 26.5625 30.8125C27.9715 30.8125 29.3227 30.2528 30.319 29.2565C31.3153 28.2602 31.875 26.909 31.875 25.5Z" fill="white"/>
<path d="M63.75 59.6817V49.9375C63.7454 47.3875 62.9079 44.9088 61.3649 42.8787C59.8219 40.8485 57.6579 39.378 55.2022 38.6909C55.2338 38.5461 55.2498 38.3983 55.25 38.25V37.1875C55.2489 36.8792 55.1803 36.5748 55.0491 36.2958C54.9179 36.0168 54.7271 35.7699 54.4903 35.5725L56.2371 31.2078C56.3017 31.0465 56.3258 30.8718 56.3072 30.699C56.2887 30.5262 56.228 30.3607 56.1306 30.2168C56.0332 30.0729 55.902 29.9551 55.7484 29.8737C55.5949 29.7924 55.4238 29.7499 55.25 29.75H44.625C44.4512 29.7499 44.2801 29.7924 44.1266 29.8737C43.973 29.9551 43.8418 30.0729 43.7444 30.2168C43.647 30.3607 43.5863 30.5262 43.5678 30.699C43.5492 30.8718 43.5733 31.0465 43.6379 31.2078L45.3847 35.5725C45.1479 35.7699 44.9571 36.0168 44.8259 36.2958C44.6947 36.5748 44.6261 36.8792 44.625 37.1875V38.25C44.6252 38.3983 44.6412 38.5461 44.6728 38.6909C43.5238 39.0105 42.4308 39.505 41.4322 40.1572C40.9399 39.8944 40.4314 39.6634 39.9096 39.4655L31.875 36.4512V34.8351C33.6538 33.9244 35.1695 32.5731 36.2776 30.91C37.3856 29.2469 38.0489 27.3276 38.2043 25.3353C38.8191 25.5108 39.4655 25.5453 40.0954 25.4363C40.7254 25.3273 41.3226 25.0776 41.8427 24.7058C42.3628 24.334 42.7922 23.8496 43.0992 23.2888C43.4061 22.7279 43.5825 22.1051 43.6153 21.4666C43.6481 20.8282 43.5364 20.1905 43.2886 19.6012C43.0408 19.0119 42.6632 18.486 42.184 18.0628C41.7048 17.6397 41.1363 17.3301 40.5208 17.1571C39.9054 16.9841 39.2588 16.9522 38.6293 17.0637L40.0658 15.6262C40.2643 15.4266 40.3755 15.1565 40.375 14.875V9.5625C40.3727 7.59064 39.5884 5.70019 38.1941 4.30588C36.7998 2.91156 34.9094 2.12725 32.9375 2.125H9.5625C9.37014 2.12497 9.18138 2.17716 9.01637 2.27601C8.85135 2.37485 8.71626 2.51664 8.62551 2.68625C8.53476 2.85586 8.49176 3.04692 8.50109 3.23905C8.51043 3.43118 8.57174 3.61717 8.6785 3.77719L12.5109 9.52637L9.775 13.175C9.68582 13.294 9.62259 13.4303 9.58941 13.5752C9.55622 13.7201 9.55383 13.8704 9.58237 14.0163C9.61091 14.1622 9.66975 14.3005 9.75509 14.4223C9.84044 14.544 9.95038 14.6465 10.0778 14.7231L13.8837 17.0064C13.8593 17.0064 13.8359 17 13.8125 17C13.2019 16.9911 12.5966 17.1139 12.0378 17.36C11.4789 17.6061 10.9797 17.9698 10.574 18.4262C10.1683 18.8826 9.86578 19.4211 9.68695 20.0049C9.50813 20.5888 9.45722 21.2043 9.5377 21.8097C9.61818 22.415 9.82815 22.9958 10.1533 23.5127C10.4785 24.0296 10.9112 24.4703 11.422 24.8049C11.9329 25.1394 12.5098 25.36 13.1135 25.4515C13.7173 25.5431 14.3336 25.5034 14.9207 25.3353C15.0761 27.3276 15.7394 29.2469 16.8474 30.91C17.9555 32.5731 19.4712 33.9244 21.25 34.8351V36.4512L13.2154 39.4655C10.5873 40.4612 8.32323 42.231 6.72245 44.5409C5.12167 46.8508 4.25953 49.5921 4.25 52.4025V64.8125C4.25 65.0943 4.36194 65.3645 4.5612 65.5638C4.76046 65.7631 5.03071 65.875 5.3125 65.875H62.6875C63.4397 65.8754 64.1679 65.6098 64.7431 65.1251C65.3183 64.6404 65.7036 63.9679 65.8308 63.2265C65.958 62.4851 65.8189 61.7226 65.4381 61.0739C65.0573 60.4252 64.4593 59.932 63.75 59.6817ZM53.6807 31.875L52.4057 35.0625H47.4693L46.1943 31.875H53.6807ZM46.75 38.25V37.1875H53.125V38.25H46.75ZM39.5951 41.6372C38.4955 42.7218 37.6224 44.014 37.0267 45.439C36.431 46.8639 36.1245 48.3931 36.125 49.9375V59.6817C35.504 59.9022 34.9664 60.3095 34.5859 60.8477C34.2055 61.3858 34.0008 62.0285 34 62.6875C34.0035 63.0503 34.0697 63.4097 34.1955 63.75H29.6098L30.634 62.2147C30.7727 62.0067 30.8336 61.7566 30.8061 61.5081L28.8479 43.8812L31.2853 45.5069C31.4599 45.6237 31.665 45.6865 31.875 45.6875C31.9672 45.6876 32.059 45.6754 32.1481 45.6514C32.2937 45.6128 32.4294 45.5436 32.5463 45.4486C32.6632 45.3535 32.7585 45.2347 32.8259 45.0999L35.3611 40.0286L39.168 41.4577C39.3125 41.5098 39.4527 41.5778 39.5951 41.6372ZM25.6541 42.2131L26.2661 40.375H26.8589L27.4709 42.2131L26.5625 43.1226L25.6541 42.2131ZM33.3625 39.2785L31.4627 43.0737L29.58 41.8179L28.8894 39.7471L30.9485 38.3733L33.3625 39.2785ZM41.4375 21.25C41.4375 21.8136 41.2136 22.3541 40.8151 22.7526C40.4166 23.1511 39.8761 23.375 39.3125 23.375C38.9388 23.374 38.5721 23.2735 38.25 23.0839V19.4161C38.5721 19.2265 38.9388 19.126 39.3125 19.125C39.8761 19.125 40.4166 19.3489 40.8151 19.7474C41.2136 20.1459 41.4375 20.6864 41.4375 21.25ZM14.6625 10.2C14.7945 10.0241 14.8686 9.81161 14.8747 9.59181C14.8808 9.37201 14.8185 9.15574 14.6965 8.97281L11.5472 4.25H32.9375C34.3459 4.25169 35.6962 4.81194 36.6921 5.80786C37.6881 6.80378 38.2483 8.15406 38.25 9.5625V14.4351L36.7476 15.9375H35.564C34.9717 15.9396 34.3907 15.7756 33.8868 15.4643C33.3829 15.1529 32.9764 14.7065 32.7133 14.1759L31.7687 12.2751C31.698 12.1333 31.5963 12.0091 31.4713 11.9116C31.3463 11.8142 31.2011 11.746 31.0462 11.7119C30.9694 11.6956 30.8911 11.6874 30.8125 11.6875C30.5711 11.6874 30.3369 11.7695 30.1484 11.9202L27.7461 13.8422C26.049 15.1957 23.9434 15.9342 21.7728 15.9375H16.2318L12.1816 13.5076L14.6625 10.2ZM11.6875 21.25C11.6875 20.6864 11.9114 20.1459 12.3099 19.7474C12.7084 19.3489 13.2489 19.125 13.8125 19.125C14.1862 19.126 14.5529 19.2265 14.875 19.4161V23.0839C14.5529 23.2735 14.1862 23.374 13.8125 23.375C13.2489 23.375 12.7084 23.1511 12.3099 22.7526C11.9114 22.3541 11.6875 21.8136 11.6875 21.25ZM17 24.4375V18.0625H21.7728C24.4263 18.0592 27.0003 17.1561 29.0743 15.5008L30.4502 14.4011L30.8125 15.1257C31.251 16.0103 31.9286 16.7543 32.7685 17.2733C33.6083 17.7924 34.5767 18.0658 35.564 18.0625H36.125V24.4375C36.125 26.9736 35.1175 29.4059 33.3242 31.1992C31.5309 32.9925 29.0986 34 26.5625 34C24.0264 34 21.5941 32.9925 19.8008 31.1992C18.0075 29.4059 17 26.9736 17 24.4375ZM26.5625 36.125C27.6408 36.1224 28.7136 35.97 29.75 35.6724V36.6191L27.3063 38.25H25.8187L23.375 36.6191V35.6724C24.4114 35.97 25.4842 36.1224 26.5625 36.125ZM22.1765 38.3733L24.2356 39.7471L23.545 41.8179L21.6623 43.0737L19.7625 39.2785L22.1765 38.3733ZM6.375 52.4025C6.38361 50.0247 7.11363 47.7055 8.46856 45.7514C9.82349 43.7974 11.7395 42.3005 13.9634 41.4588L17.7639 40.0318L20.2991 45.1031C20.3665 45.2378 20.4618 45.3567 20.5787 45.4518C20.6956 45.5468 20.8313 45.616 20.9769 45.6546C21.0661 45.6776 21.1579 45.6886 21.25 45.6875C21.4598 45.6871 21.6649 45.625 21.8397 45.509L24.2771 43.8834L22.3189 61.5081C22.2914 61.7566 22.3523 62.0067 22.491 62.2147L23.5152 63.75H14.875V47.8125H12.75V63.75H6.375V52.4025ZM26.0684 63.75L24.4747 61.3583L26.2225 45.6216C26.4407 45.7094 26.6843 45.7094 26.9025 45.6216L28.6514 61.3583L27.0566 63.75H26.0684ZM62.6875 63.75H37.1875C36.9057 63.75 36.6355 63.6381 36.4362 63.4388C36.2369 63.2395 36.125 62.9693 36.125 62.6875C36.125 62.4057 36.2369 62.1355 36.4362 61.9362C36.6355 61.7369 36.9057 61.625 37.1875 61.625C37.4693 61.625 37.7395 61.5131 37.9388 61.3138C38.1381 61.1145 38.25 60.8443 38.25 60.5625V49.9375C38.2528 47.4022 39.2612 44.9716 41.0539 43.1789C42.8466 41.3862 45.2772 40.3778 47.8125 40.375H52.0625C54.5978 40.3778 57.0284 41.3862 58.8211 43.1789C60.6138 44.9716 61.6222 47.4022 61.625 49.9375V60.5625C61.625 60.8443 61.7369 61.1145 61.9362 61.3138C62.1355 61.5131 62.4057 61.625 62.6875 61.625C62.9693 61.625 63.2395 61.7369 63.4388 61.9362C63.6381 62.1355 63.75 62.4057 63.75 62.6875C63.75 62.9693 63.6381 63.2395 63.4388 63.4388C63.2395 63.6381 62.9693 63.75 62.6875 63.75Z" fill="white"/>
<path d="M44.0496 54.7506C43.4702 54.7506 43.0004 55.2204 43.0004 55.7998C43.0004 56.3792 43.4702 56.849 44.0496 56.849H46.7795V59.6235C46.7795 60.2029 47.2493 60.6727 47.8287 60.6727C48.4081 60.6727 48.8779 60.2029 48.8779 59.6235V56.849H51.749C52.3285 56.849 52.7982 56.3792 52.7982 55.7998C52.7982 55.2204 52.3285 54.7506 51.749 54.7506H48.8779V52.8454H53.8414C54.1196 52.8454 54.3866 52.7349 54.5829 52.5382C56.5725 50.5485 56.5725 47.3116 54.5677 45.3073C54.371 45.1105 54.1044 45 53.8262 45H47.8283C47.2488 45 46.7791 45.4698 46.7791 46.0492V50.7475H44.0492C43.4698 50.7475 43 51.2172 43 51.7967C43 52.3761 43.4698 52.8459 44.0492 52.8459H46.7791V54.751H44.0496V54.7506ZM48.8775 47.098H53.356C53.7599 47.6206 53.9788 48.2586 53.9788 48.9303C53.9788 49.5951 53.7642 50.2274 53.3677 50.7475H48.8775V47.098Z" fill="white"/>
</svg>
