<svg width="75" height="75" viewBox="0 0 75 75" fill="none" xmlns="http://www.w3.org/2000/svg">
<g clip-path="url(#clip0)">
<path d="M42.1003 7.16133C39.5491 5.88574 34.7658 5.87109 34.5635 5.87109C33.9567 5.87109 33.4648 6.36299 33.4648 6.96973C33.4648 7.57647 33.9567 8.06836 34.5635 8.06836C35.7978 8.06851 39.3814 8.2585 41.1176 9.12671C41.2754 9.20552 41.443 9.24287 41.6081 9.24287C42.011 9.24287 42.3991 9.02022 42.5916 8.63525C42.863 8.09253 42.643 7.43262 42.1003 7.16133Z" fill="white"/>
<path d="M47.5766 22.7969L43.6149 21.665C43.0812 21.5125 42.7085 21.0183 42.7085 20.4631L42.7086 19.5467C43.0776 19.2911 43.4295 19.005 43.7586 18.6857C45.3533 17.1382 46.2314 15.0624 46.2314 12.8408V10.752L46.6699 9.8751C47.1514 8.9124 47.4057 7.83457 47.4057 6.75806V1.09863C47.4057 0.491895 46.9138 0 46.307 0H35.7388C31.8956 0 28.7689 3.12656 28.7689 6.96987V7.03535C28.7689 7.93037 28.9804 8.82671 29.3808 9.62725L29.9431 10.7521V12.5458C29.9431 15.3885 31.3439 17.9392 33.4658 19.4742V21.0609C33.4658 21.2644 33.3291 21.4455 33.1335 21.5014L28.598 22.7974C26.6244 23.3612 25.2461 25.1884 25.2461 27.241V33.9776C25.2464 34.5841 25.7383 35.076 26.345 35.076C26.9518 35.076 27.4437 34.5841 27.4437 33.9773V27.2407C27.4437 26.164 28.1667 25.2056 29.2019 24.9098L33.7375 23.6139C33.9011 23.5671 34.0565 23.5037 34.2046 23.4284L36.9889 26.2126V33.9772C36.9889 34.5839 37.4808 35.0758 38.0875 35.0758C38.6942 35.0758 39.1861 34.5839 39.1861 33.9772V26.2125L42.0615 23.3372C42.3493 23.5283 42.6676 23.6796 43.0114 23.7778L46.9729 24.9097C48.0082 25.2054 48.7312 26.1639 48.7312 27.2405V33.9772C48.7312 34.5839 49.2231 35.0758 49.8298 35.0758C50.4366 35.0758 50.9285 34.5839 50.9285 33.9772V27.2405C50.9285 25.1881 49.5502 23.3607 47.5766 22.7969ZM38.0875 24.2039L35.5841 21.7005C35.6358 21.4942 35.6633 21.2796 35.6633 21.0606V20.5972C36.3546 20.8241 37.0835 20.9587 37.8377 20.9812C37.9223 20.9837 38.0063 20.9851 38.0904 20.9851C38.926 20.9851 39.7416 20.8585 40.5177 20.6171C40.5329 20.9531 40.5952 21.2799 40.7028 21.5886L38.0875 24.2039ZM37.9038 18.7849C34.7258 18.6896 32.1405 15.8906 32.1405 12.5457V10.4925C32.1405 10.322 32.1008 10.1537 32.0245 10.0012L31.3461 8.64448C31.0977 8.14746 30.9663 7.59097 30.9663 7.03521V6.96973C30.9663 4.33814 33.1073 2.19712 35.7389 2.19712H45.2085V6.75791C45.2085 7.49487 45.0344 8.23301 44.7046 8.89233L44.1503 10.0012C44.074 10.1539 44.0343 10.322 44.0343 10.4925V12.841C44.0343 14.4631 43.393 15.979 42.2286 17.1089C41.0646 18.2385 39.5286 18.8332 37.9038 18.7849Z" fill="white"/>
<path d="M31.042 28.1816C30.4353 28.1816 29.9434 28.6735 29.9434 29.2803V33.9772C29.9434 34.5839 30.4353 35.0758 31.042 35.0758C31.6487 35.0758 32.1406 34.5839 32.1406 33.9772V29.2803C32.1406 28.6735 31.6487 28.1816 31.042 28.1816Z" fill="white"/>
<path d="M45.1318 28.1816C44.5251 28.1816 44.0332 28.6735 44.0332 29.2803V33.9772C44.0332 34.5839 44.5251 35.0758 45.1318 35.0758C45.7386 35.0758 46.2305 34.5839 46.2305 33.9772V29.2803C46.2305 28.6735 45.7386 28.1816 45.1318 28.1816Z" fill="white"/>
<path d="M17.4419 47.0856C14.8907 45.8101 10.1076 45.7954 9.90513 45.7954C9.29854 45.7954 8.80679 46.287 8.80664 46.8938C8.80649 47.5003 9.2981 47.9924 9.90483 47.9927C11.1407 47.9934 14.7275 48.185 16.4593 49.051C16.617 49.1298 16.7846 49.1672 16.9497 49.1672C17.3527 49.1672 17.7407 48.9445 17.9332 48.5596C18.2046 48.0168 17.9846 47.3569 17.4419 47.0856Z" fill="white"/>
<path d="M22.9181 62.7214L18.3822 61.4256C18.1865 61.3696 18.0499 61.1884 18.0499 60.985L18.0501 59.4713C18.4191 59.2157 18.771 58.9296 19.1 58.6103C20.6946 57.0628 21.5728 54.987 21.5728 52.7654V50.6763L22.0112 49.7994C22.4927 48.8367 22.747 47.7589 22.747 46.6824V41.0229C22.747 40.4162 22.2551 39.9243 21.6484 39.9243H11.0804C7.23726 39.9243 4.11055 43.051 4.11055 46.8942V46.9597C4.11055 47.8548 4.32207 48.751 4.72241 49.5516L5.28477 50.6763V52.47C5.28477 55.3126 6.6856 57.8634 8.80742 59.3984V60.985C8.80742 61.1884 8.67075 61.3695 8.47505 61.4254L3.93945 62.7214C1.96616 63.2852 0.587891 65.1124 0.587891 67.1648V73.9015C0.587891 74.5083 1.07979 75.0001 1.68652 75.0001C2.29326 75.0001 2.78516 74.5083 2.78516 73.9015V67.1648C2.78516 66.0882 3.5082 65.1297 4.54326 64.834L9.07886 63.538C9.24248 63.4913 9.3979 63.4279 9.546 63.3526L12.3302 66.1368V73.9015C12.3302 74.5083 12.8221 75.0001 13.4289 75.0001C14.0356 75.0001 14.5275 74.5083 14.5275 73.9015V66.137L17.3116 63.3529C17.4595 63.428 17.6151 63.4915 17.7787 63.5382L22.3146 64.834C23.3497 65.1297 24.0727 66.0882 24.0727 67.1648V73.9015C24.0727 74.5083 24.5646 75.0001 25.1713 75.0001C25.7781 75.0001 26.27 74.5083 26.27 73.9015V67.1648C26.27 65.1123 24.8916 63.2851 22.9181 62.7214ZM13.429 64.1282L10.9256 61.6248C10.9773 61.4186 11.0048 61.204 11.0048 60.985V60.5215C11.6961 60.7482 12.425 60.8829 13.1792 60.9056C13.2638 60.9081 13.3479 60.9094 13.4321 60.9094C14.2653 60.9094 15.0787 60.7835 15.8529 60.5435L15.8527 60.9845C15.8527 61.2038 15.8803 61.4186 15.9321 61.6251L13.429 64.1282ZM17.57 57.0333C16.4062 58.1628 14.8691 58.7584 13.2453 58.7092C10.0675 58.6138 7.48218 55.8149 7.48218 52.4698V50.4167C7.48218 50.246 7.44248 50.0779 7.36616 49.9254L6.68779 48.5687C6.43921 48.0716 6.30796 47.5151 6.30796 46.9594V46.8939C6.30796 44.2623 8.44897 42.1213 11.0806 42.1213H20.5501V46.6821C20.5501 47.419 20.3759 48.1572 20.0463 48.8165L19.4918 49.9254C19.4155 50.078 19.3758 50.2462 19.3758 50.4167V52.7651C19.3758 54.3875 18.7345 55.9031 17.57 57.0333Z" fill="white"/>
<path d="M6.38184 68.106C5.7751 68.106 5.2832 68.5979 5.2832 69.2046V73.9015C5.2832 74.5082 5.7751 75.0001 6.38184 75.0001C6.98857 75.0001 7.48047 74.5082 7.48047 73.9015V69.2046C7.48047 68.5977 6.98857 68.106 6.38184 68.106Z" fill="white"/>
<path d="M20.4736 68.106C19.8669 68.106 19.375 68.5979 19.375 69.2046V73.9015C19.375 74.5082 19.8669 75.0001 20.4736 75.0001C21.0804 75.0001 21.5723 74.5082 21.5723 73.9015V69.2046C21.5723 68.5977 21.0804 68.106 20.4736 68.106Z" fill="white"/>
<path d="M71.8587 64.0031L67.4096 61.7787C67.3838 61.7658 67.3677 61.7399 67.3677 61.711L67.368 59.475C69.1943 58.2174 70.4871 56.2293 70.8105 53.8961C71.6318 52.4767 72.0648 50.8731 72.0648 49.2427C72.0648 46.2024 70.6009 43.498 68.3414 41.7962C68.4738 41.3551 68.5422 40.9 68.5422 40.4359C68.5422 37.564 65.9422 35.2275 62.7467 35.2275C59.5511 35.2275 56.9512 37.564 56.9512 40.4359C56.9512 40.9007 57.0188 41.3559 57.1513 41.7968C54.8922 43.4988 53.4285 46.2029 53.4285 49.2429C53.4285 50.8732 53.8615 52.4767 54.6829 53.8962C55.0063 56.2294 56.299 58.2175 58.1254 59.4751V61.7112C58.1254 61.74 58.1094 61.766 58.0836 61.7789L53.6346 64.0034C52.0589 64.7913 51.0801 66.3751 51.0801 68.1369V73.9016C51.0801 74.5084 51.572 75.0002 52.1787 75.0002C52.7854 75.0002 53.2773 74.5084 53.2773 73.9016V68.1366C53.2773 67.2124 53.7908 66.3817 54.6172 65.9685L58.287 64.1336L59.5633 65.3465C60.456 66.1949 61.6012 66.6188 62.7467 66.6188C63.892 66.6188 65.0377 66.1946 65.9302 65.3465L67.2064 64.1337L70.8761 65.9685C71.7027 66.3817 72.2162 67.2125 72.2162 68.1367V73.9016C72.2162 74.5084 72.7081 75.0002 73.3148 75.0002C73.9215 75.0002 74.4134 74.5084 74.4134 73.9016V68.1366C74.4134 66.3748 73.4345 64.7909 71.8587 64.0031ZM62.7465 37.4247C64.7305 37.4247 66.3448 38.7755 66.3448 40.4358C66.3448 40.5054 66.3392 40.5744 66.3336 40.6434C65.2289 40.1808 64.0171 39.9244 62.7465 39.9244C61.4761 39.9244 60.2646 40.1808 59.16 40.6432C59.1544 40.5742 59.1483 40.5054 59.1483 40.4358C59.1483 38.7754 60.7625 37.4247 62.7465 37.4247ZM64.4165 63.7538C63.4803 64.6435 62.0134 64.6437 61.0768 63.7536L60.0556 62.7832C60.2279 62.4603 60.3225 62.0942 60.3225 61.7107V60.5416C61.0898 60.7797 61.9037 60.9093 62.7465 60.9093C63.5893 60.9093 64.4033 60.7798 65.1704 60.5418L65.1703 61.7109C65.1703 62.0944 65.2649 62.4606 65.4373 62.7836L64.4165 63.7538ZM62.7464 58.7119C59.7048 58.7121 57.1642 56.4342 56.8369 53.4136C56.8193 53.2517 56.7662 53.0959 56.6809 52.9571C55.9905 51.8326 55.6255 50.548 55.6255 49.2426C55.6255 45.3161 58.82 42.1215 62.7465 42.1215C66.673 42.1215 69.8676 45.3161 69.8676 49.2426C69.8676 49.9996 69.7441 50.7493 69.5063 51.465C66.3868 48.2957 60.8991 47.0538 60.6344 46.9955C60.3008 46.9218 59.9515 46.9831 59.69 47.2029C59.4316 47.4205 59.2872 47.7203 59.2989 48.0569C59.2905 48.1636 59.2075 48.8793 58.4469 49.64C58.0179 50.069 58.0179 50.7646 58.4469 51.1936C58.876 51.6227 59.5716 51.6227 60.0005 51.1936C60.6184 50.5757 60.9814 49.9486 61.1944 49.4191C63.043 49.9683 66.88 51.3552 68.6018 53.7895C68.1131 56.6208 65.6604 58.7119 62.7464 58.7119Z" fill="white"/>
<path d="M56.874 69.5571C56.2673 69.5571 55.7754 70.049 55.7754 70.6558V73.901C55.7754 74.5077 56.2673 74.9996 56.874 74.9996C57.4808 74.9996 57.9727 74.5077 57.9727 73.901V70.6558C57.9727 70.049 57.4808 69.5571 56.874 69.5571Z" fill="white"/>
<path d="M68.6182 69.5571C68.0114 69.5571 67.5195 70.049 67.5195 70.6558V73.901C67.5195 74.5077 68.0114 74.9996 68.6182 74.9996C69.2249 74.9996 69.7168 74.5077 69.7168 73.901V70.6558C69.7168 70.049 69.2249 69.5571 68.6182 69.5571Z" fill="white"/>
<path d="M51.5941 58.8837L39.1863 50.9879V38.6743C39.1863 38.0676 38.6944 37.5757 38.0877 37.5757C37.481 37.5757 36.9891 38.0676 36.9891 38.6743V50.9879L24.5812 58.8837C24.0693 59.2095 23.9184 59.8885 24.2442 60.4004C24.5701 60.9124 25.2492 61.0633 25.7609 60.7375L38.0877 52.8933L50.4145 60.7375C50.5973 60.8538 50.8015 60.9095 51.0032 60.9095C51.3664 60.9093 51.7217 60.7294 51.9312 60.4004C52.257 59.8885 52.106 59.2095 51.5941 58.8837Z" fill="white"/>
</g>
<defs>
<clipPath id="clip0">
<rect width="75" height="75" fill="white"/>
</clipPath>
</defs>
</svg>
