<svg width="70" height="85" viewBox="0 0 70 85" fill="none" xmlns="http://www.w3.org/2000/svg">
<path d="M66.3302 60.594H59.9626C58.8215 60.594 57.8234 61.2159 57.2878 62.1381C55.9824 61.4794 53.6925 60.4952 50.7819 59.9409L50.8651 58.3643C50.895 57.7172 50.6709 57.0975 50.2341 56.619C49.7977 56.1406 49.2009 55.8606 48.5539 55.8312L23.9081 54.7052C23.2585 54.6788 22.6413 54.8998 22.1629 55.3367C21.6844 55.7735 21.4049 56.3699 21.3754 57.0169L21.255 59.6579C21.2251 60.3049 21.4491 60.9247 21.886 61.4031C22.3224 61.8816 22.9191 62.1615 23.5683 62.191L34.967 62.6894C34.6034 62.8263 34.2221 62.8974 33.8433 62.8974H25.8041V62.9225C22.826 63.1968 20.4857 65.7087 20.4857 68.7575C20.4857 70.1881 21.0014 71.5008 21.8565 72.5192H21.3265L7.97755 65.9401C5.2191 64.6071 1.89032 65.7659 0.556816 68.5239C-0.089351 69.86 -0.176027 71.3678 0.311957 72.7693C0.800374 74.1708 1.80495 75.2985 3.14972 75.949L19.0447 83.4516C20.0029 83.9041 21.0703 84.1433 22.1304 84.1433H59.9634H61.17H66.3311C68.036 84.1433 69.4228 82.7565 69.4228 81.0516V63.6857C69.4219 61.9812 68.0351 60.594 66.3302 60.594ZM23.4353 59.9894C23.3937 59.9439 23.3456 59.8663 23.3503 59.7545L23.4708 57.1131C23.476 57.0017 23.5315 56.9285 23.577 56.8869C23.6225 56.8453 23.7035 56.7963 23.8119 56.8019L48.4577 57.9278C48.5756 57.933 48.6501 57.9963 48.6843 58.0336C48.7259 58.0791 48.774 58.1567 48.7697 58.2611L48.6969 59.638C45.8539 59.3524 42.5793 59.55 39.134 60.7721L23.6619 60.0956C23.5441 60.09 23.4695 60.0267 23.4353 59.9894ZM19.9392 81.5543L4.05288 74.056C3.22123 73.6538 2.59586 72.9522 2.29206 72.0798C1.98826 71.2074 2.04244 70.2691 2.44461 69.4375C3.27453 67.7204 5.34564 66.9993 7.05619 67.8258L20.6175 74.5097C20.7613 74.5808 20.9204 74.6181 21.0812 74.6181H26.345H26.6176H36.9831C37.5625 74.6181 38.0323 74.1483 38.0323 73.5689C38.0323 72.9895 37.5625 72.5197 36.9831 72.5197H26.618H26.3454C24.2708 72.5197 22.5837 70.8321 22.5837 68.7575C22.5837 66.6834 24.2713 64.9958 26.3454 64.9958H33.8429C34.7573 64.9958 35.6722 64.7505 36.4878 64.2868C45.7699 59.0083 54.7161 63.1409 56.8713 64.2963V81.052C56.8713 81.3996 56.9298 81.7337 57.036 82.0457H22.1291C21.3767 82.0453 20.6196 81.8754 19.9392 81.5543ZM67.3239 81.0516C67.3239 81.5994 66.878 82.0453 66.3302 82.0453H61.1691H59.9626C59.4148 82.0453 58.9693 81.5994 58.9693 81.0516V63.6857C58.9693 63.1379 59.4152 62.692 59.9626 62.692H66.3302C66.878 62.692 67.3239 63.1379 67.3239 63.6857V81.0516Z" fill="white"/>
<path d="M63.2341 74.6982C62.3071 74.6982 61.5557 75.4497 61.5557 76.3767C61.5557 77.3037 62.3071 78.0552 63.2341 78.0552C64.1611 78.0552 64.9126 77.3037 64.9126 76.3767C64.9131 75.4497 64.1611 74.6982 63.2341 74.6982Z" fill="white"/>
<path d="M36.0602 29.5209C44.1991 29.5209 50.8207 22.8993 50.8207 14.7604C50.8207 6.62158 44.1991 0 36.0602 0C27.9214 0 21.2998 6.62158 21.2998 14.7604C21.2998 22.8993 27.921 29.5209 36.0602 29.5209ZM36.0602 2.09798C43.0424 2.09798 48.7227 7.77827 48.7227 14.7604C48.7227 21.7426 43.0424 27.4229 36.0602 27.4229C29.0781 27.4229 23.3978 21.7426 23.3978 14.7604C23.3978 7.77827 29.0781 2.09798 36.0602 2.09798Z" fill="white"/>
<path d="M21.4741 51.2677C21.5864 52.5267 22.6468 53.478 23.8876 53.478C23.9591 53.478 24.031 53.4749 24.1034 53.4684L48.6786 51.2868C50.0099 51.1685 50.9971 49.9893 50.8792 48.6575L50.6452 46.0234C50.5265 44.6921 49.349 43.707 48.0159 43.8227L23.4408 46.0043C22.1094 46.1227 21.1218 47.3019 21.2401 48.6336L21.4741 51.2677ZM23.6267 48.0945L48.2018 45.9129C48.2114 45.912 48.2213 45.9116 48.2309 45.9116C48.3982 45.9116 48.5407 46.0399 48.5559 46.2093L48.7899 48.843C48.8055 49.0224 48.6729 49.181 48.4939 49.197L23.9188 51.3787C23.7437 51.3943 23.5803 51.2617 23.5647 51.0822L23.3307 48.4486C23.3142 48.2692 23.4473 48.1101 23.6267 48.0945Z" fill="white"/>
<path d="M23.2446 38.2608L47.4939 42.8082C47.4943 42.8082 47.4943 42.8082 47.4943 42.8082C47.6443 42.8364 47.7942 42.8498 47.9416 42.8498C49.0848 42.8498 50.1054 42.0355 50.3243 40.8719L50.8118 38.2729C51.058 36.9589 50.1891 35.6896 48.8755 35.4434L24.6258 30.896C23.3114 30.6489 22.0429 31.5179 21.7959 32.8319L21.3083 35.4308C21.0621 36.7448 21.9311 38.0142 23.2446 38.2608ZM23.3708 35.8174L23.8579 33.2189C23.8912 33.0416 24.0624 32.9255 24.2388 32.958L48.488 37.5054C48.6653 37.5388 48.7823 37.7095 48.7489 37.8864L48.2618 40.4849C48.2285 40.6622 48.056 40.7792 47.8805 40.7458H47.8809L23.6316 36.1988C23.4548 36.1654 23.3374 35.9947 23.3708 35.8174Z" fill="white"/>
<path d="M30.0809 17.6397C29.5015 17.6397 29.0317 18.1095 29.0317 18.6889C29.0317 19.2684 29.5015 19.7382 30.0809 19.7382H32.8107V22.5126C32.8107 23.0921 33.2805 23.5618 33.8599 23.5618C34.4394 23.5618 34.9092 23.0921 34.9092 22.5126V19.7382H37.7803C38.3597 19.7382 38.8295 19.2684 38.8295 18.6889C38.8295 18.1095 38.3597 17.6397 37.7803 17.6397H34.9092V15.7346H39.8726C40.1509 15.7346 40.4178 15.6241 40.6141 15.4273C42.6038 13.4377 42.6038 10.2008 40.599 8.19643C40.4022 7.99967 40.1357 7.88916 39.8575 7.88916H33.8595C33.2801 7.88916 32.8103 8.35894 32.8103 8.93837V13.6366H30.0805C29.501 13.6366 29.0312 14.1064 29.0312 14.6858C29.0312 15.2653 29.501 15.735 30.0805 15.735H32.8103V17.6402H30.0809V17.6397ZM34.9087 9.98714H39.3872C39.7912 10.5098 40.01 11.1477 40.01 11.8195C40.01 12.4843 39.7955 13.1166 39.399 13.6366H34.9087V9.98714Z" fill="white"/>
</svg>
