<svg width="62" height="62" viewBox="0 0 62 62" fill="none" xmlns="http://www.w3.org/2000/svg">
<path d="M61.275 21.039L47.636 17.142L39.204 4.11C37.539 1.537 34.714 0 31.648 0H15.357C11.696 0 8.43 2.188 7.035 5.573L2.33 17H0V19H3C3.405 19 3.771 18.755 3.925 18.381L8.885 6.335C9.969 3.702 12.51 2 15.357 2H31.648C34.033 2 36.23 3.195 37.525 5.197L46.161 18.543C46.292 18.746 46.493 18.895 46.725 18.961L56 21.612V27C56 27.552 56.448 28 57 28H60V34H55.941C55.441 29.507 51.624 26 47 26C42.038 26 38 30.038 38 35C38 39.962 42.038 44 47 44C51.624 44 55.441 40.493 55.941 36H61C61.552 36 62 35.552 62 35V22C62 21.554 61.704 21.161 61.275 21.039ZM47 42C43.14 42 40 38.86 40 35C40 31.14 43.14 28 47 28C50.86 28 54 31.14 54 35C54 38.86 50.86 42 47 42ZM58 26V22.183L60 22.754V26H58Z" fill="white"/>
<path d="M47 30C44.243 30 42 32.243 42 35C42 37.757 44.243 40 47 40C49.757 40 52 37.757 52 35C52 32.243 49.757 30 47 30ZM47 38C45.346 38 44 36.654 44 35C44 33.346 45.346 32 47 32C48.654 32 50 33.346 50 35C50 36.654 48.654 38 47 38Z" fill="white"/>
<path d="M41.8734 18.488C42.0504 18.172 42.0414 17.785 41.8524 17.476L35.0234 6.38C34.1204 4.912 32.4884 4 30.7654 4H15.7474C13.6934 4 11.8184 5.288 11.0804 7.205L7.06641 17.641C6.94841 17.949 6.98941 18.294 7.17541 18.566C7.36241 18.838 7.67041 19 8.00041 19H41.0004C41.3624 19 41.6964 18.804 41.8734 18.488ZM12.9474 7.923C13.3904 6.773 14.5154 6 15.7474 6H23.0004V17H9.45641L12.9474 7.923ZM25.0004 17V6H30.7654C31.7994 6 32.7784 6.547 33.3204 7.428L39.2104 17H25.0004Z" fill="white"/>
<path d="M23 21H27V23H23V21Z" fill="white"/>
<path d="M7 21H11V23H7V21Z" fill="white"/>
<path d="M61 47C58.794 47 57 45.206 57 43C57 42.448 56.552 42 56 42C55.448 42 55 42.448 55 43C55 45.206 53.206 47 51 47C50.448 47 50 47.448 50 48C50 48.552 50.448 49 51 49C53.206 49 55 50.794 55 53C55 53.552 55.448 54 56 54C56.552 54 57 53.552 57 53C57 50.794 58.794 49 61 49C61.552 49 62 48.552 62 48C62 47.448 61.552 47 61 47ZM56 49.687C55.556 49.019 54.981 48.445 54.313 48C54.981 47.556 55.555 46.981 56 46.313C56.444 46.981 57.019 47.555 57.687 48C57.019 48.444 56.444 49.019 56 49.687Z" fill="white"/>
<path d="M51 7C53.206 7 55 8.794 55 11C55 11.552 55.448 12 56 12C56.552 12 57 11.552 57 11C57 8.794 58.794 7 61 7C61.552 7 62 6.552 62 6C62 5.448 61.552 5 61 5C58.794 5 57 3.206 57 1C57 0.448 56.552 0 56 0C55.448 0 55 0.448 55 1C55 3.206 53.206 5 51 5C50.448 5 50 5.448 50 6C50 6.552 50.448 7 51 7ZM56 4.313C56.444 4.981 57.019 5.556 57.687 6C57.019 6.444 56.444 7.019 56 7.687C55.556 7.019 54.981 6.444 54.313 6C54.981 5.556 55.556 4.981 56 4.313Z" fill="white"/>
<path d="M36 41V39C36 38.448 35.552 38 35 38H32C34.206 38 36 36.206 36 34C36 31.794 34.206 30 32 30C31.563 30 31.137 30.082 30.73 30.219C29.97 27.777 27.689 26 25 26C24.418 26 23.858 26.087 23.325 26.242C22.311 24.27 20.286 23 18 23C15.684 23 13.675 24.321 12.675 26.247C12.134 26.089 11.576 26 11 26C8.309 26 6.027 27.781 5.268 30.225C4.867 30.09 4.446 30 4 30C1.794 30 0 31.794 0 34C0 36.206 1.794 38 4 38H1C0.448 38 0 38.448 0 39V41C0 46.065 2.918 50.451 7.154 52.596L8.004 61.1C8.056 61.611 8.486 62 9 62H27C27.514 62 27.944 61.611 27.995 61.1L28.845 52.596C33.082 50.451 36 46.065 36 41ZM34 40V41C34 44.814 32.047 48.179 29.09 50.153L29.905 42H31C31.552 42 32 41.552 32 41V40H34ZM23 50H13C12.448 50 12 50.448 12 51V51.949C10.961 51.855 9.966 51.611 9.03 51.247L8.105 42H27.895L26.97 51.247C26.034 51.611 25.039 51.855 24 51.949V51C24 50.448 23.552 50 23 50ZM22 52V54H14V52H22ZM6 38H30V40H6V38ZM2 34C2 32.897 2.897 32 4 32C5.103 32 6 32.897 6 34H8C8 33.026 7.636 32.144 7.056 31.45C7.327 29.506 8.983 28 11 28C11.367 28 11.721 28.063 12.066 28.159C12.027 28.435 12 28.714 12 29C12 30.31 12.415 31.555 13.2 32.601L14.8 31.4C14.276 30.704 14 29.874 14 29C14 26.794 15.794 25 18 25C19.507 25 20.841 25.829 21.525 27.118C19.999 28.207 19 29.987 19 32H21C21 29.794 22.794 28 25 28C27.206 28 29 29.794 29 32C29 32.557 28.888 33.095 28.667 33.6L30.5 34.401C30.794 33.727 30.952 33.014 30.985 32.279C31.291 32.099 31.64 32 32 32C33.103 32 34 32.897 34 34C34 35.103 33.103 36 32 36H31H30H6H5H4C2.897 36 2 35.103 2 34ZM2 41V40H4V41C4 41.552 4.448 42 5 42H6.095L6.91 50.153C3.953 48.179 2 44.814 2 41ZM26.095 60H9.905L9.249 53.443C10.13 53.709 11.051 53.876 12 53.949V55C12 55.552 12.448 56 13 56H23C23.552 56 24 55.552 24 55V53.949C24.948 53.876 25.87 53.709 26.751 53.443L26.095 60Z" fill="white"/>
<path d="M59 56H53C52.449 56 52 55.551 52 55C52 53.346 50.654 52 49 52H35C33.346 52 32 53.346 32 55C32 56.654 33.346 58 35 58H41C41.551 58 42 58.449 42 59C42 60.654 43.346 62 45 62H59C60.654 62 62 60.654 62 59C62 57.346 60.654 56 59 56ZM59 60H45C44.449 60 44 59.551 44 59C44 57.346 42.654 56 41 56H35C34.449 56 34 55.551 34 55C34 54.449 34.449 54 35 54H49C49.551 54 50 54.449 50 55C50 56.654 51.346 58 53 58H59C59.551 58 60 58.449 60 59C60 59.551 59.551 60 59 60Z" fill="white"/>
</svg>
