<svg width="69" height="67" viewBox="0 0 69 67" fill="none" xmlns="http://www.w3.org/2000/svg">
<path d="M34.7666 48.4513C35.6652 48.3055 36.2755 47.4588 36.1296 46.5602C35.9838 45.6615 35.1371 45.0513 34.2384 45.1971C33.3398 45.343 32.7296 46.1897 32.8754 47.0883C33.0212 47.9869 33.868 48.5972 34.7666 48.4513Z" fill="white"/>
<path d="M14.8182 20.7685L19.8168 23.1207V31.0406C19.8168 31.4684 20.0588 31.8594 20.4414 32.0515L33.9945 38.828C34.1526 38.9073 34.3265 38.9467 34.4995 38.9467C34.6722 38.9467 34.8465 38.9073 35.0046 38.828L48.5577 32.0515C48.9407 31.8594 49.1822 31.4688 49.1822 31.0406V23.1211L52.5707 21.5267V29.5698L50.5015 32.6736C50.1558 33.1932 50.2961 33.8945 50.8144 34.2402C51.0074 34.3689 51.2257 34.4299 51.4402 34.4299C51.805 34.4299 52.1632 34.2535 52.3811 33.9273L52.5707 33.6426V35.1789C52.5707 36.0932 53.0766 36.8348 53.6999 36.8348C54.3232 36.8348 54.8295 36.0928 54.8295 35.1789V33.6426L55.0192 33.9273C55.2371 34.2535 55.5952 34.4299 55.96 34.4299C56.1746 34.4299 56.3929 34.3689 56.5858 34.2402C57.1042 33.8945 57.244 33.1923 56.8987 32.6736L54.8295 29.5698V20.2738C54.8295 20.1655 54.8221 20.0597 54.8084 19.9572C54.8088 19.9543 54.8088 19.9514 54.8092 19.9485C54.8213 19.8825 54.8295 19.8157 54.8295 19.7472V19.7468C54.8295 19.6783 54.8213 19.6111 54.8092 19.5451C54.8055 19.5256 54.8009 19.5065 54.7963 19.487C54.7843 19.4372 54.7694 19.3882 54.7511 19.3409C54.7453 19.326 54.7407 19.3102 54.7341 19.2952C54.7084 19.2363 54.6777 19.1803 54.6424 19.1268C54.6341 19.1143 54.6245 19.1031 54.6158 19.0906C54.5855 19.0483 54.5527 19.0085 54.5166 18.9707C54.5046 18.9583 54.493 18.9454 54.4801 18.9334C54.4365 18.8914 54.3905 18.8529 54.3403 18.818C54.3361 18.8151 54.3324 18.8118 54.3282 18.8089C54.2813 18.7773 54.2324 18.7491 54.1805 18.7246L34.9801 9.68924C34.6751 9.54565 34.3227 9.54565 34.0177 9.68924L14.8182 18.7242C14.4227 18.9105 14.1699 19.3094 14.1699 19.7463C14.1699 20.1833 14.4227 20.5822 14.8182 20.7685ZM22.0757 24.1844L33.3724 29.5005C33.3716 29.53 33.3699 29.559 33.3699 29.5889V35.3964C33.3699 35.6151 33.3923 35.8247 33.4313 36.021L22.0757 30.3434V24.1844ZM46.9234 30.343L35.5677 36.0206C35.6067 35.8243 35.6292 35.6147 35.6292 35.396V29.5885C35.6292 29.5586 35.6275 29.5296 35.6267 29.5001L46.9234 24.1839V30.343ZM34.4995 11.9589L48.6469 18.6171H34.4995C33.8762 18.6171 33.3699 19.123 33.3699 19.7468C33.3699 20.3701 33.8758 20.876 34.4995 20.876H48.6469L34.4995 27.5338L17.9522 19.7463L34.4995 11.9589Z" fill="white"/>
<path d="M63.8645 0.546143H5.13612C2.64446 0.546143 0.617188 2.57342 0.617188 5.06508V42.335V42.3354V47.9811C0.617188 50.4727 2.64446 52.5 5.13612 52.5H27.6881C27.4254 56.9953 25.5433 59.2769 22.0764 59.2769C22.0752 59.2769 22.0739 59.2774 22.0727 59.2774H19.8176C17.9497 59.2774 16.4291 60.7975 16.4291 62.6658C16.4291 64.5342 17.9493 66.0543 19.8176 66.0543H49.183C51.0509 66.0543 52.5715 64.5342 52.5715 62.6658C52.5715 60.7975 51.0513 59.2774 49.183 59.2774H46.9279C46.9266 59.2774 46.9254 59.2769 46.9242 59.2769C43.4568 59.2769 41.5752 56.9953 41.3125 52.5H63.8649C66.3561 52.5 68.3838 50.4727 68.3838 47.9811V42.3354V42.335V5.06508C68.3834 2.57383 66.3557 0.546143 63.8645 0.546143ZM50.3122 62.6654C50.3122 63.2875 49.8051 63.795 49.183 63.795H19.8176C19.1955 63.795 18.6884 63.2879 18.6884 62.6654C18.6884 62.0433 19.1955 61.5358 19.8176 61.5358H49.183C49.8051 61.5358 50.3122 62.0429 50.3122 62.6654ZM27.5781 59.2765C28.9696 57.736 29.7871 55.4423 29.9523 52.5H39.0499C39.2139 55.4423 40.0327 57.736 41.4242 59.2765H27.5781ZM5.13612 2.80499H63.8645C65.1115 2.80499 66.1246 3.818 66.1246 5.06508V41.2053H2.87603V5.06508C2.87603 3.81842 3.88946 2.80499 5.13612 2.80499ZM63.8645 50.2407H5.13612C3.88905 50.2407 2.87603 49.2277 2.87603 47.9806V43.4646H66.1241V47.9806C66.1246 49.2277 65.1111 50.2407 63.8645 50.2407Z" fill="white"/>
</svg>
