<svg width="87" height="87" viewBox="0 0 87 87" fill="none" xmlns="http://www.w3.org/2000/svg">
<path d="M65.9297 25.1484H21.0703C20.7098 25.1484 20.364 25.2917 20.1091 25.5466C19.8542 25.8015 19.7109 26.1473 19.7109 26.5078C19.7109 26.8683 19.8542 27.2141 20.1091 27.469C20.364 27.724 20.7098 27.8672 21.0703 27.8672H65.9297C66.2902 27.8672 66.636 27.724 66.8909 27.469C67.1458 27.2141 67.2891 26.8683 67.2891 26.5078C67.2891 26.1473 67.1458 25.8015 66.8909 25.5466C66.636 25.2917 66.2902 25.1484 65.9297 25.1484ZM67.2891 33.3048C67.289 32.9442 67.1458 32.5985 66.8909 32.3436C66.636 32.0886 66.2902 31.9454 65.9297 31.9454H21.0703C20.7098 31.9454 20.364 32.0886 20.1091 32.3435C19.8542 32.5985 19.7109 32.9442 19.7109 33.3048C19.7109 33.6653 19.8542 34.0111 20.1091 34.266C20.364 34.5209 20.7098 34.6641 21.0703 34.6641H65.9297C66.2902 34.6641 66.636 34.5209 66.8909 34.266C67.1458 34.011 67.289 33.6653 67.2891 33.3048ZM41.4609 40.1017C41.4609 39.7412 41.3177 39.3954 41.0628 39.1405C40.8078 38.8856 40.4621 38.7423 40.1016 38.7423H21.0703C20.7098 38.7423 20.364 38.8855 20.1091 39.1405C19.8542 39.3954 19.7109 39.7412 19.7109 40.1017C19.7109 40.4622 19.8542 40.808 20.1091 41.0629C20.364 41.3179 20.7098 41.4611 21.0703 41.4611H40.1016C40.4621 41.4611 40.8078 41.3178 41.0628 41.0629C41.3177 40.808 41.4609 40.4622 41.4609 40.1017ZM19.7109 53.0159C19.7109 54.0913 20.0299 55.1426 20.6273 56.0368C21.2248 56.931 22.0741 57.6279 23.0676 58.0394C24.0612 58.451 25.1545 58.5587 26.2093 58.3488C27.264 58.139 28.2329 57.6212 28.9933 56.8607C29.7538 56.1003 30.2717 55.1314 30.4815 54.0766C30.6913 53.0218 30.5836 51.9285 30.172 50.935C29.7605 49.9414 29.0635 49.0922 28.1693 48.4947C27.2752 47.8972 26.2239 47.5783 25.1484 47.5783C23.7068 47.58 22.3247 48.1534 21.3053 49.1728C20.286 50.1921 19.7126 51.5743 19.7109 53.0159ZM27.8672 53.0159C27.8672 53.5536 27.7077 54.0792 27.409 54.5263C27.1103 54.9734 26.6856 55.3219 26.1889 55.5277C25.6921 55.7334 25.1454 55.7873 24.618 55.6824C24.0907 55.5775 23.6062 55.3185 23.226 54.9383C22.8458 54.5581 22.5868 54.0737 22.4819 53.5463C22.377 53.0189 22.4309 52.4722 22.6366 51.9755C22.8424 51.4787 23.1909 51.0541 23.638 50.7553C24.0851 50.4566 24.6107 50.2971 25.1484 50.2971C25.8695 50.2971 26.561 50.5836 27.0709 51.0934C27.5807 51.6033 27.8672 52.2948 27.8672 53.0159Z" fill="white"/>
<path d="M64.0639 70.2953C64.9557 69.907 65.6601 69.1848 66.0259 68.2834C66.1509 68.0235 66.3045 67.7784 66.4839 67.5526C66.7597 67.4465 67.0468 67.3726 67.3395 67.3323C67.8238 67.3446 68.3039 67.2393 68.7386 67.0253C69.1732 66.8113 69.5495 66.4951 69.835 66.1037C70.1206 65.7123 70.3069 65.2575 70.3781 64.7783C70.4492 64.2991 70.403 63.8098 70.2435 63.3523C70.1908 63.0579 70.1725 62.7583 70.189 62.4596C70.3452 62.2248 70.5269 62.008 70.7307 61.8131C71.4817 61.1817 71.9545 60.2803 72.0469 59.3034C71.9545 58.3265 71.4817 57.4251 70.7307 56.7937C70.5284 56.5999 70.3474 56.3849 70.191 56.1525C70.1726 55.8521 70.1902 55.5506 70.2435 55.2544C70.4767 54.3224 70.3316 53.3359 69.8399 52.5104C69.2025 51.7842 68.3035 51.3399 67.3395 51.2745C67.0484 51.2341 66.7627 51.1611 66.4879 51.0568C66.3064 50.8304 66.1512 50.5841 66.0253 50.3226C65.6598 49.4212 64.9553 48.6991 64.0632 48.3115C63.1346 48.1029 62.1612 48.2692 61.3544 48.7741C61.0822 48.9212 60.7925 49.0333 60.4922 49.108C60.1919 49.0333 59.9022 48.9212 59.63 48.7741C58.8228 48.2695 57.8494 48.1033 56.9205 48.3115C56.0286 48.6998 55.3243 49.422 54.9584 50.3233C54.8335 50.5833 54.6799 50.8284 54.5005 51.0541C54.2247 51.1602 53.9376 51.2342 53.6449 51.2745C52.6809 51.3396 51.782 51.7838 51.1445 52.5098C50.6528 53.3355 50.5077 54.3221 50.7409 55.2544C50.7936 55.5489 50.8118 55.8485 50.7954 56.1472C50.6392 56.382 50.4575 56.5988 50.2537 56.7937C49.5026 57.4251 49.0299 58.3265 48.9375 59.3034C49.0299 60.2803 49.5026 61.1817 50.2537 61.8131C50.456 62.0069 50.6369 62.2219 50.7934 62.4543C50.8118 62.7547 50.7942 63.0562 50.7409 63.3523C50.5815 63.8098 50.5354 64.2991 50.6066 64.7782C50.6778 65.2574 50.8642 65.7122 51.1497 66.1035C51.4352 66.4948 51.8114 66.811 52.246 67.0251C52.6806 67.2391 53.1606 67.3445 53.6449 67.3323C53.936 67.3727 54.2217 67.4457 54.4965 67.55C54.678 67.7764 54.8332 68.0227 54.9591 68.2841C55.3246 69.1855 56.0291 69.9076 56.9212 70.2953C57.163 70.3738 57.4157 70.4134 57.6699 70.4128C58.3581 70.3668 59.0276 70.1686 59.63 69.8327C59.9022 69.6856 60.1919 69.5734 60.4922 69.4988C60.7925 69.5734 61.0822 69.6856 61.3544 69.8327C62.1616 70.3372 63.135 70.5035 64.0639 70.2953ZM58.4697 67.3741C58.2408 67.4891 58.0047 67.5891 57.7628 67.6734C57.6083 67.4538 57.4695 67.2236 57.3473 66.9845C57.0955 66.3293 56.6593 65.7612 56.0914 65.3488C55.5235 64.9364 54.8482 64.6974 54.1474 64.6606C53.8848 64.6179 53.6256 64.5571 53.3714 64.4787C53.3756 64.2164 53.3978 63.9547 53.4378 63.6955C53.5745 63.0062 53.5546 62.2951 53.3794 61.6146C53.1261 60.9771 52.7317 60.4052 52.2258 59.9419C52.0266 59.7443 51.8439 59.5307 51.6795 59.3033C51.8439 59.076 52.0266 58.8624 52.2258 58.6648C52.7317 58.2015 53.1261 57.6296 53.3794 56.9921C53.5546 56.3114 53.5745 55.6 53.4378 54.9105C53.3981 54.6512 53.3759 54.3896 53.3714 54.1273C53.6257 54.0494 53.8849 53.9889 54.1474 53.9461C54.8484 53.9099 55.5239 53.6711 56.0919 53.2586C56.6599 52.8461 57.096 52.2777 57.3473 51.6222C57.4694 51.383 57.6082 51.1528 57.7628 50.9332C58.0047 51.0176 58.2408 51.1176 58.4697 51.2326C59.073 51.6205 59.775 51.8267 60.4922 51.8267C61.2094 51.8267 61.9114 51.6205 62.5147 51.2326C62.7435 51.1176 62.9797 51.0176 63.2215 50.9332C63.3761 51.1529 63.5149 51.3831 63.637 51.6222C63.8889 52.2773 64.3251 52.8455 64.893 53.2579C65.4609 53.6703 66.1361 53.9093 66.837 53.9461C67.0995 53.9888 67.3588 54.0496 67.6129 54.128C67.6088 54.3902 67.5866 54.6519 67.5466 54.9112C67.4099 55.6004 67.4298 56.3116 67.605 56.9921C67.8583 57.6296 68.2527 58.2015 68.7586 58.6648C68.9578 58.8624 69.1405 59.076 69.3049 59.3033C69.1405 59.5307 68.9578 59.7443 68.7586 59.9419C68.2527 60.4052 67.8583 60.9771 67.605 61.6146C67.4298 62.2953 67.4099 63.0067 67.5466 63.6962C67.5863 63.9554 67.6085 64.2171 67.6129 64.4794C67.3587 64.5573 67.0995 64.6178 66.837 64.6606C66.136 64.6968 65.4605 64.9356 64.8925 65.3481C64.3245 65.7606 63.8884 66.329 63.637 66.9845C63.515 67.2237 63.3762 67.4539 63.2215 67.6734C62.9797 67.5891 62.7435 67.4891 62.5147 67.3741C61.9114 66.9862 61.2094 66.78 60.4922 66.78C59.775 66.78 59.073 66.9862 58.4697 67.3741Z" fill="white"/>
<path d="M65.25 59.3032C65.25 58.3622 64.9709 57.4423 64.4481 56.6599C63.9253 55.8775 63.1823 55.2677 62.3129 54.9076C61.4435 54.5475 60.4869 54.4533 59.564 54.6368C58.641 54.8204 57.7933 55.2736 57.1279 55.939C56.4625 56.6044 56.0094 57.4521 55.8258 58.375C55.6422 59.298 55.7364 60.2546 56.0965 61.124C56.4567 61.9933 57.0665 62.7364 57.8489 63.2592C58.6313 63.782 59.5512 64.061 60.4922 64.061C61.7536 64.0595 62.9629 63.5577 63.8548 62.6658C64.7467 61.7739 65.2485 60.5646 65.25 59.3032ZM60.4922 61.3423C60.0889 61.3423 59.6947 61.2227 59.3593 60.9986C59.024 60.7746 58.7627 60.4561 58.6083 60.0835C58.454 59.7109 58.4136 59.3009 58.4923 58.9054C58.571 58.5098 58.7652 58.1465 59.0504 57.8614C59.3355 57.5762 59.6988 57.382 60.0944 57.3033C60.4899 57.2246 60.8999 57.265 61.2725 57.4193C61.6451 57.5737 61.9636 57.835 62.1876 58.1703C62.4117 58.5057 62.5312 58.8999 62.5312 59.3032C62.5307 59.8438 62.3156 60.3621 61.9334 60.7444C61.5511 61.1267 61.0328 61.3417 60.4922 61.3423V61.3423Z" fill="white"/>
<path d="M78.8438 65.2505C79.5646 65.2497 80.2557 64.9631 80.7654 64.4534C81.2751 63.9436 81.5618 63.2525 81.5625 62.5317V14.9531C81.5618 14.2323 81.2751 13.5412 80.7654 13.0315C80.2557 12.5218 79.5646 12.2351 78.8438 12.2344H8.15625C7.43541 12.2351 6.74431 12.5218 6.2346 13.0315C5.72489 13.5412 5.43822 14.2323 5.4375 14.9531V62.5317C5.43822 63.2525 5.72489 63.9436 6.2346 64.4533C6.74431 64.963 7.43541 65.2497 8.15625 65.2504H47.9909C47.9187 64.6295 47.9212 64.0023 47.9983 63.382C47.7509 63.1127 47.5201 62.8287 47.3069 62.5317H8.15625V25.5415L18.633 15.0646C18.6653 15.0291 18.6957 14.9919 18.7241 14.9531H68.2759C68.3042 14.9919 68.3346 15.0291 68.367 15.0646L78.8442 25.5419L78.8457 62.5317H73.6772C73.4641 62.8287 73.2333 63.1126 72.9861 63.3819C73.0632 64.0022 73.0657 64.6295 72.9934 65.2504L78.8438 65.2505ZM8.15625 21.697V14.9531H14.9L8.15625 21.697ZM72.1 14.9531H78.8438L78.844 21.6972L72.1 14.9531Z" fill="white"/>
</svg>
