<svg width="73" height="73" viewBox="0 0 73 73" fill="none" xmlns="http://www.w3.org/2000/svg">
<g clip-path="url(#clip0)">
<path d="M72.5825 0.417611C72.315 0.150277 71.9523 0 71.574 0L36.5007 0.00185352C35.7134 0.00185352 35.075 0.640318 35.075 1.42763V5.50494L21.5602 9.12628C20.7995 9.33017 20.3481 10.1119 20.552 10.8724L27.5565 37.013L21.497 43.0724C20.7258 41.9463 19.4309 41.2058 17.9662 41.2058H4.27915C1.92063 41.2058 0.00195312 43.1246 0.00195312 45.483V68.7227C0.00195312 71.0812 1.92063 73 4.27915 73H17.9664C19.97 73 21.6556 71.6147 22.1175 69.7521L23.8128 71.2305C25.1215 72.3717 26.7982 73.0001 28.5347 73.0001H71.5743C72.3616 73.0001 73.0001 72.3617 73.0001 71.5744V1.42578C72.9998 1.04766 72.8498 0.684945 72.5825 0.417611ZM19.3919 68.7228C19.3919 69.5088 18.7523 70.1486 17.9661 70.1486H4.27901C3.49284 70.1486 2.85323 69.509 2.85323 68.7228V45.4831C2.85323 44.697 3.49284 44.0574 4.27901 44.0574H9.69684V60.4816C9.69684 61.269 10.3353 61.9074 11.1226 61.9074C11.9099 61.9074 12.5484 61.269 12.5484 60.4816V44.0574H17.9662C18.7524 44.0574 19.392 44.697 19.392 45.4831L19.3919 68.7228ZM23.6753 11.5116L35.075 8.45702V13.7403L34.1195 13.9963C33.754 14.0943 33.4428 14.3331 33.2537 14.6606C33.0647 14.9881 33.0134 15.3772 33.1113 15.7425C33.6592 17.7872 32.4415 19.8963 30.3968 20.4443C30.031 20.5424 29.7192 20.7816 29.5303 21.1098C29.3414 21.4379 29.2905 21.8277 29.3893 22.1933L34.9469 42.7727H32.0853L30.6106 37.0034C30.5637 36.8198 30.4816 36.6506 30.3717 36.5034L23.6753 11.5116ZM35.075 20.2787V32.3096L32.4745 22.6806C33.5609 22.1197 34.4498 21.2805 35.075 20.2787ZM55.5584 70.1484H28.5344C27.4872 70.1484 26.4759 69.7695 25.6865 69.0812L22.2434 66.0784V46.3588L28.4681 40.1342L29.597 44.5512C29.7584 45.1824 30.3269 45.6239 30.9783 45.6239L59.0098 45.6256C60.1105 45.6256 61.0059 46.521 61.0059 47.6217C61.0059 48.7224 60.1105 49.6178 59.0098 49.6178H44.6464C43.8591 49.6178 43.2207 50.2562 43.2207 51.0435C43.2207 51.8309 43.8591 52.4693 44.6464 52.4693H63.4725C64.5732 52.4693 65.4686 53.3647 65.4686 54.4654C65.4686 55.5661 64.5732 56.4615 63.4725 56.4615H44.6464C43.8591 56.4615 43.2207 57.1 43.2207 57.8873C43.2207 58.6746 43.8591 59.3131 44.6464 59.3131H60.4217C61.5224 59.3131 62.4178 60.2085 62.4178 61.3092C62.4178 62.4099 61.5224 63.3053 60.4217 63.3053H44.6464C43.8591 63.3053 43.2207 63.9437 43.2207 64.731C43.2207 65.5184 43.8591 66.1568 44.6464 66.1568H55.5584C56.6591 66.1568 57.5545 67.0522 57.5545 68.1529C57.5543 69.2531 56.6589 70.1484 55.5584 70.1484ZM70.1485 70.1484H59.9742C60.2506 69.5392 60.4059 68.8638 60.4059 68.1523C60.4059 67.4409 60.2506 66.7655 59.9742 66.1562H60.4217C63.0946 66.1562 65.2692 63.9817 65.2692 61.3087C65.2692 60.5291 65.0832 59.7924 64.7547 59.1391C66.8072 58.5754 68.3198 56.6941 68.3198 54.4651C68.3198 53.3838 67.9637 52.3842 67.363 51.5772L67.3628 19.4258C67.3628 18.6385 66.7244 18 65.9371 18C65.1497 18 64.5113 18.6385 64.5113 19.4258L64.5114 49.7311C64.1764 49.6577 63.8289 49.6178 63.4722 49.6178H63.4254C63.7019 49.0085 63.8571 48.3331 63.8571 47.6217C63.8571 44.9486 61.6825 42.7742 59.0096 42.7742H56.7177C59.1513 41.7305 60.8606 39.3115 60.8606 36.5C60.8606 32.7375 57.7997 29.6765 54.0372 29.6765C50.2749 29.6765 47.2138 32.7375 47.2138 36.5C47.2138 39.3115 48.9232 41.7305 51.3567 42.7742H43.563V15.6641C46.11 15.109 48.1198 13.0994 48.6747 10.5522H59.3996C59.9545 13.0994 61.9643 15.109 64.5113 15.6641V20.0968C64.5113 20.8841 65.1497 21.5226 65.9371 21.5226C66.7244 21.5226 67.3628 20.8841 67.3628 20.0968V14.3911C67.3628 13.6038 66.7244 12.9653 65.9371 12.9653C63.8202 12.9653 62.0983 11.2431 62.0983 9.12643C62.0983 8.33911 61.4598 7.70064 60.6725 7.70064H47.4019C46.6146 7.70064 45.9761 8.33911 45.9761 9.12643C45.9761 11.2433 44.2541 12.9653 42.1374 12.9653C41.35 12.9653 40.7116 13.6038 40.7116 14.3911V42.774H37.9267V2.85313L70.1485 2.85156V70.1484ZM54.0375 40.4719C51.8474 40.4719 50.0657 38.6901 50.0657 36.5001C50.0657 34.3101 51.8475 32.5282 54.0375 32.5282C56.2275 32.5282 58.0093 34.31 58.0093 36.5C58.0093 38.69 56.2276 40.4719 54.0375 40.4719Z" fill="white"/>
</g>
<defs>
<clipPath id="clip0">
<rect width="73" height="73" fill="white"/>
</clipPath>
</defs>
</svg>
