<svg width="66" height="66" viewBox="0 0 66 66" fill="none" xmlns="http://www.w3.org/2000/svg">
<path d="M55.3548 51.0968V0H0V59.613C0 63.1354 2.86468 66 6.38705 66H59.6128C63.1354 66 66 63.1354 66 59.613V51.0968H55.3548ZM10.6452 59.613C10.6452 61.9612 8.73546 63.871 6.38718 63.871C4.03889 63.871 2.12914 61.9612 2.12914 59.613V2.12902H53.2259V51.0968H10.6452V59.613ZM63.871 59.613C63.871 61.9612 61.9612 63.871 59.613 63.871H11.1445C12.1568 62.7405 12.7742 61.247 12.7742 59.613V53.2259H63.871V59.613Z" fill="white"/>
<path d="M27 34H4V36H27V34Z" fill="white"/>
<path d="M26.6124 40.5806H4.25781V42.7091H26.6124V40.5806Z" fill="white"/>
<path d="M27 47H4V49H27V47Z" fill="white"/>
<path d="M51.0967 34.0645H28.7422V36.193H51.0967V34.0645Z" fill="white"/>
<path d="M51.0967 40.5806H28.7422V42.7091H51.0967V40.5806Z" fill="white"/>
<path d="M51 47H29V49H51V47Z" fill="white"/>
<path d="M12.7745 21.2903H23.4197V27.6774H25.5487V15.9678C25.5487 11.8587 22.205 8.51611 18.0972 8.51611C13.9892 8.51611 10.6455 11.8587 10.6455 15.9678V27.6775H12.7745V21.2903ZM12.7745 15.9678C12.7745 13.0329 15.1623 10.6451 18.0972 10.6451C21.0321 10.6451 23.4199 13.0329 23.4199 15.9678V19.1614H23.4197H12.7745V15.9678Z" fill="white"/>
<path d="M44.71 18.0967C44.71 12.8145 40.4124 8.51611 35.1293 8.51611H29.8066V27.6774H35.1293C40.4125 27.6774 44.71 23.3789 44.71 18.0967ZM31.9357 10.6451H35.1293C39.2372 10.6451 42.581 13.9877 42.581 18.0968C42.581 22.206 39.2372 25.5484 35.1293 25.5484H31.9357V10.6451Z" fill="white"/>
</svg>
