<svg width="90" height="90" viewBox="0 0 90 90" fill="none" xmlns="http://www.w3.org/2000/svg">
<path d="M78.75 39.4875V35.9564C79.619 35.3625 80.3295 34.5651 80.8197 33.6337C81.3099 32.7023 81.5649 31.6652 81.5625 30.6127V19.6875C81.9355 19.6875 82.2931 19.5393 82.5569 19.2756C82.8206 19.0119 82.9688 18.6542 82.9688 18.2812V15.4688C82.9688 12.1121 81.6353 8.89294 79.2618 6.51943C76.8883 4.14592 73.6691 2.8125 70.3125 2.8125C66.9559 2.8125 63.7367 4.14592 61.3632 6.51943C58.9897 8.89294 57.6562 12.1121 57.6562 15.4688V16.875H50.625C50.252 16.875 49.8944 17.0232 49.6306 17.2869C49.3669 17.5506 49.2188 17.9083 49.2188 18.2812C49.2188 18.6542 49.3669 19.0119 49.6306 19.2756C49.8944 19.5393 50.252 19.6875 50.625 19.6875H59.0625V26.7188C59.0654 29.0851 59.9194 31.3715 61.4685 33.1604C63.0175 34.9493 65.1583 36.1214 67.5 36.4627V39.375H66.0938C63.4839 39.378 60.9819 40.416 59.1365 42.2615C57.291 44.1069 56.253 46.6089 56.25 49.2188V59.0625H53.4375V29.5312C53.4375 29.1583 53.2893 28.8006 53.0256 28.5369C52.7619 28.2732 52.4042 28.125 52.0312 28.125H12.6562C12.2833 28.125 11.9256 28.2732 11.6619 28.5369C11.3982 28.8006 11.25 29.1583 11.25 29.5312V63.2812C11.25 63.6542 11.3982 64.0119 11.6619 64.2756C11.9256 64.5393 12.2833 64.6875 12.6562 64.6875H25.4531C25.7795 66.2746 26.6431 67.7006 27.8982 68.7252C29.1534 69.7499 30.7235 70.3105 32.3438 70.3125H36.5625V74.5312C36.5625 74.9042 36.7107 75.2619 36.9744 75.5256C37.2381 75.7893 37.5958 75.9375 37.9688 75.9375H46.4062C46.7792 75.9375 47.1369 75.7893 47.4006 75.5256C47.6643 75.2619 47.8125 74.9042 47.8125 74.5312V73.125H56.25V85.7812C56.25 86.1542 56.3982 86.5119 56.6619 86.7756C56.9256 87.0393 57.2833 87.1875 57.6562 87.1875H85.7812C86.1542 87.1875 86.5119 87.0393 86.7756 86.7756C87.0393 86.5119 87.1875 86.1542 87.1875 85.7812V49.2188C87.183 46.8541 86.3282 44.57 84.7791 42.7835C83.23 40.9969 81.0901 39.827 78.75 39.4875ZM60.4688 15.4688C60.4688 12.858 61.5059 10.3542 63.3519 8.50817C65.198 6.66211 67.7018 5.625 70.3125 5.625C72.9232 5.625 75.427 6.66211 77.2731 8.50817C79.1191 10.3542 80.1562 12.858 80.1562 15.4688V16.875H60.4688V15.4688ZM71.7188 33.75H68.9062C67.0421 33.7478 65.255 33.0063 63.9369 31.6881C62.6187 30.37 61.8772 28.5829 61.875 26.7188V19.6875H78.75V30.6056C78.7528 31.2898 78.5636 31.961 78.2039 32.5429C77.8441 33.1249 77.3284 33.5943 76.7152 33.8977C76.4814 34.0145 76.2848 34.1941 76.1474 34.4164C76.0101 34.6387 75.9374 34.8949 75.9375 35.1562V39.375H70.3125V36.5625H71.7188C72.0917 36.5625 72.4494 36.4143 72.7131 36.1506C72.9768 35.8869 73.125 35.5292 73.125 35.1562C73.125 34.7833 72.9768 34.4256 72.7131 34.1619C72.4494 33.8982 72.0917 33.75 71.7188 33.75ZM35.1562 30.9375V40.9655L33.1242 39.6112C32.8931 39.4571 32.6216 39.3748 32.3438 39.3748C32.0659 39.3748 31.7944 39.4571 31.5633 39.6112L29.5312 40.9655V30.9375H35.1562ZM14.0625 30.9375H26.7188V43.5938C26.7187 43.8483 26.7878 44.0982 26.9186 44.3166C27.0494 44.535 27.2371 44.7138 27.4616 44.8339C27.6861 44.954 27.9389 45.0109 28.1932 44.9986C28.4475 44.9862 28.6937 44.905 28.9055 44.7638L32.3438 42.4688L35.782 44.7609C35.9936 44.9021 36.2395 44.9832 36.4936 44.9957C36.7476 45.0082 37.0003 44.9515 37.2247 44.8317C37.4491 44.712 37.6368 44.5336 37.7678 44.3156C37.8988 44.0976 37.9683 43.8481 37.9688 43.5938V30.9375H50.625V59.0625H47.8125V57.6562C47.8125 57.2833 47.6643 56.9256 47.4006 56.6619C47.1369 56.3982 46.7792 56.25 46.4062 56.25H37.9688C37.5958 56.25 37.2381 56.3982 36.9744 56.6619C36.7107 56.9256 36.5625 57.2833 36.5625 57.6562V61.875H14.0625V30.9375ZM32.3438 67.5C31.4715 67.4989 30.6209 67.2281 29.9087 66.7245C29.1964 66.221 28.6574 65.5095 28.3655 64.6875H36.5625V67.5H32.3438ZM45 73.125H39.375V59.0625H45V73.125ZM47.8125 61.875H63.2812C64.4001 61.875 65.4732 61.4305 66.2644 60.6394C67.0555 59.8482 67.5 58.7751 67.5 57.6562V52.0312C67.5 50.9124 67.9445 49.8393 68.7356 49.0481C69.5268 48.257 70.5999 47.8125 71.7188 47.8125C72.8376 47.8125 73.9107 48.257 74.7019 49.0481C75.493 49.8393 75.9375 50.9124 75.9375 52.0312V60.4688C75.9345 63.0786 74.8965 65.5806 73.051 67.426C71.2056 69.2715 68.7036 70.3095 66.0938 70.3125H47.8125V61.875ZM66.0938 73.125C69.4493 73.1213 72.6663 71.7867 75.039 69.414C77.4117 67.0413 78.7463 63.8243 78.75 60.4688V52.0312C78.75 50.1664 78.0092 48.378 76.6906 47.0594C75.372 45.7408 73.5836 45 71.7188 45C69.8539 45 68.0655 45.7408 66.7469 47.0594C65.4283 48.378 64.6875 50.1664 64.6875 52.0312V57.6562C64.6875 58.0292 64.5393 58.3869 64.2756 58.6506C64.0119 58.9143 63.6542 59.0625 63.2812 59.0625H59.0625V49.2188C59.0647 47.3546 59.8062 45.5675 61.1244 44.2494C62.4425 42.9312 64.2296 42.1897 66.0938 42.1875H77.3438C79.2079 42.1897 80.995 42.9312 82.3131 44.2494C83.6313 45.5675 84.3728 47.3546 84.375 49.2188V78.75H59.0625V73.125H66.0938ZM84.375 84.375H59.0625V81.5625H84.375V84.375Z" fill="white"/>
</svg>
