<?xml version="1.0" encoding="utf-8"?>
<!-- Generator: Adobe Illustrator 16.0.0, SVG Export Plug-In . SVG Version: 6.00 Build 0)  -->
<!DOCTYPE svg PUBLIC "-//W3C//DTD SVG 1.1//EN" "http://www.w3.org/Graphics/SVG/1.1/DTD/svg11.dtd">
<svg version="1.1" id="Layer_1" xmlns="http://www.w3.org/2000/svg" xmlns:xlink="http://www.w3.org/1999/xlink" x="0px" y="0px"
	 width="84px" height="84px" viewBox="0 0 84 84" enable-background="new 0 0 84 84" xml:space="preserve">
<path fill="none" d="M75.631,46.328c-1.465,9.022-6.506,17.796-13.922,23.14c-7.414,5.343-16.467,7.479-25.489,6.014
	c-9.021-1.466-16.933-6.355-22.276-13.771C8.6,54.295,6.464,45.242,7.93,36.22c1.465-9.022,6.355-16.933,13.771-22.277
	C29.116,8.6,38.169,6.464,47.19,7.929c8.185,1.329,15.599,5.576,20.876,11.958c5.229,6.323,8.019,14.298,7.855,22.457l-0.297,4.063
	l2.078,0.188l0.349-4.208c0.173-8.667-2.79-17.14-8.343-23.855C64.102,11.75,56.227,7.239,47.531,5.827
	c-9.583-1.556-19.199,0.712-27.076,6.389c-7.877,5.676-13.072,14.08-14.629,23.663c-1.556,9.583,0.712,19.2,6.389,27.077
	c5.676,7.877,14.08,13.072,23.663,14.629c9.584,1.557,19.2-0.713,27.077-6.389s13.203-15.161,14.76-24.744"/>
<path fill="#FFFFFF" d="M53.086,40.872c2,1.154,2,4.041,0,5.196l-16.409,9.473c-2,1.155-4.5-0.288-4.5-2.598V33.996
	c0-2.309,2.5-3.752,4.5-2.598L53.086,40.872z"/>
</svg>
