<svg width="139" height="110" viewBox="0 0 139 110" fill="none" xmlns="http://www.w3.org/2000/svg">
<path d="M-4.59341e-06 105.085L5.53656 103.448L4.18597 109.061L-4.59341e-06 105.085ZM138.5 6.05403e-06C138.5 1.69207 138.462 3.37596 138.387 5.05079L137.388 5.0062C137.463 3.34621 137.5 1.67719 137.5 6.01032e-06L138.5 6.05403e-06ZM137.485 15.0998C137.031 18.455 136.427 21.7645 135.679 25.0204L134.705 24.7968C135.445 21.5703 136.044 18.2907 136.494 14.9655L137.485 15.0998ZM132.975 34.7446C131.921 37.9549 130.725 41.1011 129.394 44.175L128.476 43.7775C129.796 40.7316 130.981 37.614 132.025 34.4328L132.975 34.7446ZM124.962 53.2382C123.343 56.1968 121.591 59.0726 119.715 61.8571L118.886 61.2983C120.745 58.5393 122.48 55.6897 124.085 52.7581L124.962 53.2382ZM113.697 69.9548C111.567 72.5611 109.317 75.0664 106.956 77.4622L106.244 76.7603C108.583 74.3866 110.812 71.9042 112.923 69.3218L113.697 69.9548ZM99.5474 84.3111C96.9765 86.4743 94.3019 88.5198 91.5309 90.4388L90.9616 89.6167C93.7067 87.7156 96.3565 85.6891 98.9036 83.5459L99.5474 84.3111ZM82.9741 95.787C80.0518 97.427 77.0425 98.935 73.9532 100.303L73.5484 99.3884C76.6087 98.0335 79.5898 96.5396 82.4846 94.9149L82.9741 95.787ZM64.5413 103.947C61.3725 105.005 58.134 105.92 54.8324 106.685L54.6065 105.711C57.8774 104.953 61.0857 104.046 64.2248 102.999L64.5413 103.947ZM44.9097 108.502C41.6091 108.949 38.2559 109.25 34.856 109.396L34.8129 108.397C38.1823 108.252 41.5052 107.954 44.7755 107.511L44.9097 108.502ZM24.7762 109.379C21.4602 109.227 18.1073 108.929 14.7226 108.48L14.8542 107.489C18.2106 107.934 21.5349 108.229 24.8222 108.38L24.7762 109.379ZM4.79722 106.742C4.62054 106.704 4.44379 106.665 4.26697 106.626L4.48359 105.65C4.65901 105.688 4.83436 105.727 5.00964 105.765L4.79722 106.742Z" fill="url(#paint0_linear)"/>
<defs>
<linearGradient id="paint0_linear" x1="71.0909" y1="3.53293e-06" x2="71.0909" y2="109" gradientUnits="userSpaceOnUse">
<stop stop-color="#FF8BDE"/>
<stop offset="1" stop-color="#669FFF"/>
</linearGradient>
</defs>
</svg>
