<svg width="193" height="187" viewBox="0 0 193 187" fill="none" xmlns="http://www.w3.org/2000/svg">
<path d="M193 7.68071L187.504 9.44966L188.72 3.80565L193 7.68071ZM0.500015 187C0.500015 185.341 0.509903 183.686 0.5298 182.036L1.52972 182.049C1.50989 183.694 1.50002 185.344 1.50002 187L0.500015 187ZM0.772262 172.149C0.895812 168.833 1.06192 165.539 1.27157 162.272L2.26951 162.336C2.06045 165.594 1.89481 168.878 1.77156 172.187L0.772262 172.149ZM2.04504 152.413C2.35309 149.104 2.70842 145.826 3.11212 142.58L4.10447 142.704C3.70207 145.939 3.34785 149.207 3.04074 152.506L2.04504 152.413ZM4.4946 132.786C5.01526 129.499 5.58891 126.25 6.21676 123.042L7.19815 123.234C6.57267 126.43 6.00111 129.667 5.48228 132.942L4.4946 132.786ZM8.30557 113.368C9.07364 110.126 9.90152 106.93 10.7906 103.785L11.7529 104.057C10.8678 107.188 10.0435 110.37 9.27865 113.599L8.30557 113.368ZM13.7037 94.3197C14.7604 91.1561 15.8849 88.0504 17.0788 85.0062L18.0098 85.3713C16.8224 88.399 15.7037 91.4886 14.6522 94.6365L13.7037 94.3197ZM20.9505 75.8858C22.3407 72.8547 23.8076 69.8941 25.353 67.008L26.2346 67.4801C24.6992 70.3474 23.2414 73.2896 21.8595 76.3027L20.9505 75.8858ZM30.3174 58.4315C32.0816 55.6096 33.9315 52.8719 35.8691 50.2228L36.6763 50.8131C34.7534 53.442 32.9171 56.1597 31.1653 58.9616L30.3174 58.4315ZM42.0244 42.4552C44.1844 39.94 46.4377 37.5218 48.7862 35.2057L49.4884 35.9177C47.16 38.214 44.9255 40.6119 42.783 43.1067L42.0244 42.4552ZM56.1396 28.551C58.6768 26.4477 61.3108 24.4509 64.0435 22.5654L64.6114 23.3885C61.9031 25.2571 59.2926 27.2361 56.7779 29.3209L56.1396 28.551ZM72.4435 17.3022C75.2908 15.6884 78.2331 14.1843 81.272 12.7942L81.6879 13.7036C78.6752 15.0817 75.7587 16.5727 72.9366 18.1722L72.4435 17.3022ZM90.4521 9.05234C93.5141 7.94935 96.6645 6.95272 99.9046 6.06611L100.169 7.03064C96.9533 7.91045 93.8279 8.89919 90.791 9.99315L90.4521 9.05234ZM109.554 3.80672C112.734 3.18233 115.994 2.65644 119.334 2.23195L119.46 3.22397C116.142 3.64568 112.904 4.16803 109.747 4.78798L109.554 3.80672ZM129.189 1.29154C132.416 1.08217 135.712 0.961642 139.079 0.932269L139.088 1.93224C135.739 1.96144 132.461 2.08132 129.254 2.28945L129.189 1.29154ZM148.976 1.10195C152.21 1.23848 155.506 1.45464 158.863 1.75221L158.774 2.74831C155.432 2.45204 152.152 2.23693 148.933 2.10106L148.976 1.10195ZM168.734 2.84013C171.941 3.26091 175.201 3.75247 178.515 4.31627L178.347 5.30211C175.045 4.74039 171.798 4.25072 168.603 3.83164L168.734 2.84013ZM188.195 6.13849C188.364 6.17328 188.533 6.20825 188.703 6.24341L188.499 7.22252C188.331 7.18747 188.162 7.15262 187.994 7.11794L188.195 6.13849Z" fill="url(#paint0_linear)"/>
<defs>
<linearGradient id="paint0_linear" x1="94.0909" y1="187" x2="94.0909" y2="1.42519" gradientUnits="userSpaceOnUse">
<stop stop-color="#FF8BDE"/>
<stop offset="1" stop-color="#669FFF"/>
</linearGradient>
</defs>
</svg>
