<svg width="141" height="121" viewBox="0 0 141 121" fill="none" xmlns="http://www.w3.org/2000/svg">
<path d="M0.5 118L5.53294 120.829L5.4664 115.056L0.5 118ZM5.01137 118.448C5.19908 118.444 5.38655 118.439 5.57378 118.434L5.54764 117.434C5.36139 117.439 5.1749 117.444 4.98818 117.448L5.01137 118.448ZM15.6064 117.899C19.0176 117.622 22.344 117.251 25.5874 116.792L25.4472 115.801C22.2238 116.258 18.9171 116.626 15.5254 116.902L15.6064 117.899ZM35.4718 115.073C38.8336 114.376 42.098 113.58 45.2674 112.693L44.9978 111.73C41.8506 112.611 38.6084 113.401 35.2688 114.094L35.4718 115.073ZM54.8574 109.632C58.0699 108.476 61.1742 107.221 64.1731 105.878L63.7642 104.965C60.7884 106.298 57.7075 107.543 54.5187 108.691L54.8574 109.632ZM73.1984 101.402C76.1922 99.767 79.0673 98.0398 81.8274 96.2314L81.2794 95.3949C78.5414 97.1888 75.6892 98.9023 72.7191 100.524L73.1984 101.402ZM90.0174 90.3797C92.7043 88.2911 95.2653 86.1238 97.7048 83.8916L97.0297 83.1538C94.6096 85.3684 92.069 87.5183 89.4036 89.5902L90.0174 90.3797ZM104.858 76.8046C107.177 74.3191 109.365 71.7766 111.428 69.193L110.646 68.5691C108.599 71.1332 106.428 73.6562 104.127 76.1224L104.858 76.8046ZM117.409 61.095C119.331 58.278 121.119 55.4331 122.777 52.5795L121.912 52.0771C120.266 54.9104 118.491 57.7348 116.583 60.5313L117.409 61.095ZM127.519 43.7068C129.028 40.6255 130.395 37.5569 131.625 34.5252L130.699 34.1491C129.477 37.1597 128.12 40.207 126.621 43.2669L127.519 43.7068ZM135.08 25.0751C136.161 21.7559 137.079 18.5166 137.845 15.3921L136.874 15.154C136.114 18.2544 135.203 21.4698 134.129 24.7653L135.08 25.0751ZM139.839 5.52395C140.109 3.80817 140.327 2.14854 140.497 0.552893L139.503 0.447107C139.335 2.02559 139.119 3.66871 138.851 5.36866L139.839 5.52395Z" fill="url(#paint0_linear)"/>
<defs>
<linearGradient id="paint0_linear" x1="0.500001" y1="61.0303" x2="140" y2="61.0303" gradientUnits="userSpaceOnUse">
<stop stop-color="#FF8BDE"/>
<stop offset="1" stop-color="#669FFF"/>
</linearGradient>
</defs>
</svg>
