<svg width="270" height="86" viewBox="0 0 270 86" fill="none" xmlns="http://www.w3.org/2000/svg">
<path d="M269.5 49.5L267.617 44.0423L263.832 48.4021L269.5 49.5ZM266.426 46.1691C266.308 46.0691 266.191 45.9692 266.073 45.8695L265.427 46.6324C265.544 46.7316 265.661 46.831 265.778 46.9306L266.426 46.1691ZM258.522 39.7448C255.886 37.7015 253.244 35.7501 250.595 33.8878L250.02 34.7058C252.655 36.5591 255.286 38.5013 257.909 40.5351L258.522 39.7448ZM242.453 28.4509C239.667 26.6879 236.878 25.02 234.085 23.4441L233.594 24.315C236.371 25.8825 239.147 27.5418 241.918 29.2958L242.453 28.4509ZM225.415 18.847C222.447 17.3727 219.478 15.9988 216.51 14.7216L216.115 15.6401C219.066 16.9101 222.019 18.2764 224.97 19.7426L225.415 18.847ZM207.414 11.1031C204.317 9.97101 201.225 8.94055 198.138 8.00761L197.849 8.96483C200.917 9.89229 203.992 10.9167 207.07 12.0423L207.414 11.1031ZM188.696 5.44786C185.483 4.67589 182.279 4.0061 179.088 3.43378L178.912 4.41808C182.084 4.98699 185.268 5.6528 188.462 6.42019L188.696 5.44786ZM169.391 1.98469C166.121 1.59292 162.867 1.30022 159.633 1.10139L159.571 2.0995C162.787 2.29717 166.021 2.58813 169.272 2.97759L169.391 1.98469ZM149.843 0.780561C146.554 0.766553 143.289 0.846562 140.052 1.01487L140.104 2.01352C143.323 1.84617 146.569 1.76663 149.838 1.78055L149.843 0.780561ZM130.291 1.79342C127.022 2.1446 123.787 2.58303 120.587 3.10247L120.747 4.08954C123.929 3.57293 127.147 3.13693 130.397 2.78769L130.291 1.79342ZM110.968 4.92635C107.75 5.6243 104.575 6.40157 101.447 7.25137L101.709 8.2164C104.821 7.37103 107.979 6.59786 111.18 5.90363L110.968 4.92635ZM92.0582 10.0589C88.9248 11.0827 85.8451 12.1766 82.8237 13.3332L83.1812 14.2672C86.1874 13.1164 89.2514 12.028 92.3688 11.0095L92.0582 10.0589ZM73.7638 17.0603C70.7393 18.3926 67.7831 19.7848 64.9 21.2284L65.3478 22.1226C68.2163 20.6863 71.1576 19.3011 74.1669 17.9755L73.7638 17.0603ZM56.2558 25.8289C53.3671 27.4602 50.5661 29.1394 47.8589 30.8565L48.3945 31.7009C51.0873 29.993 53.8736 28.3226 56.7476 26.6996L56.2558 25.8289ZM39.7181 36.3286C36.9858 38.2748 34.3721 40.2537 31.8848 42.252L32.5111 43.0315C34.983 41.0456 37.5813 39.0784 40.2983 37.1431L39.7181 36.3286ZM24.4301 48.6387C21.931 50.9271 19.6034 53.223 17.4585 55.5076L18.1876 56.192C20.3142 53.9268 22.6238 51.6485 25.1055 49.3762L24.4301 48.6387ZM11.0623 62.9768C8.9256 65.741 7.08548 68.4582 5.5643 71.0929L6.43033 71.5929C7.92615 69.0021 9.74036 66.3221 11.8535 63.5884L11.0623 62.9768ZM1.52094 80.1059C1.0094 81.7815 0.666718 83.3996 0.50293 84.9474L1.49738 85.0526C1.65356 83.5768 1.98166 82.0215 2.47736 80.3979L1.52094 80.1059Z"/>
</svg>
