<svg width="281" height="148" viewBox="0 0 281 148" fill="none" xmlns="http://www.w3.org/2000/svg">
<path d="M9.73432 105.548L13.3157 110.077L15.4468 104.711L9.73432 105.548ZM13.7367 107.676C13.9377 107.754 14.1387 107.831 14.3396 107.907L14.6967 106.973C14.4967 106.897 14.2966 106.82 14.0965 106.743L13.7367 107.676ZM23.8883 111.309C27.1626 112.39 30.4183 113.377 33.6544 114.274L33.9216 113.311C30.7011 112.418 27.4609 111.435 24.2018 110.359L23.8883 111.309ZM43.5498 116.754C46.9011 117.505 50.2295 118.16 53.5338 118.723L53.7019 117.737C50.4145 117.177 47.1029 116.525 43.7684 115.778L43.5498 116.754ZM63.5938 120.168C67.0007 120.566 70.3798 120.867 73.7298 121.077L73.7923 120.079C70.4601 119.87 67.0988 119.57 63.7098 119.175L63.5938 120.168ZM83.9278 121.438C87.3586 121.466 90.7561 121.398 94.1186 121.242L94.072 120.243C90.7276 120.399 87.3483 120.465 83.9359 120.438L83.9278 121.438ZM104.277 120.488C107.683 120.142 111.05 119.705 114.375 119.183L114.22 118.195C110.912 118.714 107.563 119.149 104.176 119.494L104.277 120.488ZM124.387 117.332C127.732 116.62 131.032 115.823 134.284 114.948L134.025 113.983C130.789 114.853 127.507 115.646 124.179 116.354L124.387 117.332ZM144.042 112.046C147.294 110.986 150.492 109.85 153.636 108.643L153.278 107.709C150.15 108.91 146.967 110.041 143.732 111.096L144.042 112.046ZM163.054 104.753C166.185 103.366 169.256 101.912 172.264 100.398L171.814 99.5044C168.821 101.011 165.765 102.458 162.649 103.838L163.054 104.753ZM181.248 95.5969C184.233 93.9076 187.147 92.162 189.988 90.3684L189.454 89.5228C186.626 91.308 183.726 93.0453 180.755 94.7266L181.248 95.5969ZM198.466 84.7287C201.282 82.7567 204.016 80.7415 206.663 78.6926L206.051 77.9018C203.416 79.9411 200.696 81.9468 197.893 83.9095L198.466 84.7287ZM214.564 72.2657C217.196 70.0165 219.726 67.7401 222.152 65.4482L221.465 64.7214C219.051 67.0019 216.534 69.2671 213.914 71.5055L214.564 72.2657ZM229.383 58.2504C231.789 55.7245 234.066 53.1943 236.208 50.6749L235.447 50.0271C233.317 52.5319 231.053 55.0481 228.659 57.5606L229.383 58.2504ZM242.556 42.7261C244.677 39.8854 246.616 37.0796 248.365 34.3313L247.521 33.7945C245.787 36.5205 243.862 39.3058 241.754 42.1277L242.556 42.7261ZM253.447 25.4786C255.118 22.1957 256.473 19.0425 257.495 16.0656L256.549 15.7408C255.544 18.6672 254.209 21.7772 252.556 25.025L253.447 25.4786ZM259.721 6.05622C259.861 4.21599 259.808 2.49662 259.551 0.919529L258.564 1.0804C258.806 2.56628 258.859 4.20487 258.724 5.98036L259.721 6.05622Z" fill="url(#paint0_linear)"/>
<defs>
<linearGradient id="paint0_linear" x1="11.6113" y1="112.081" x2="269.669" y2="37.9286" gradientUnits="userSpaceOnUse">
<stop stop-color="#FF8BDE"/>
<stop offset="1" stop-color="#669FFF"/>
</linearGradient>
</defs>
</svg>
