<svg width="141" height="121" viewBox="0 0 141 121" fill="none" xmlns="http://www.w3.org/2000/svg">
<path d="M140.5 118L135.467 120.829L135.534 115.056L140.5 118ZM135.989 118.448C135.801 118.444 135.613 118.439 135.426 118.434L135.452 117.434C135.639 117.439 135.825 117.444 136.012 117.448L135.989 118.448ZM125.394 117.899C121.982 117.622 118.656 117.251 115.413 116.792L115.553 115.801C118.776 116.258 122.083 116.626 125.475 116.902L125.394 117.899ZM105.528 115.073C102.166 114.376 98.902 113.58 95.7326 112.693L96.0022 111.73C99.1494 112.611 102.392 113.401 105.731 114.094L105.528 115.073ZM86.1426 109.632C82.9301 108.476 79.8258 107.221 76.8269 105.878L77.2358 104.965C80.2116 106.298 83.2925 107.543 86.4813 108.691L86.1426 109.632ZM67.8016 101.402C64.8078 99.767 61.9327 98.0398 59.1726 96.2314L59.7206 95.3949C62.4586 97.1888 65.3108 98.9023 68.2809 100.524L67.8016 101.402ZM50.9826 90.3797C48.2957 88.2911 45.7347 86.1238 43.2952 83.8916L43.9703 83.1538C46.3904 85.3684 48.931 87.5183 51.5964 89.5902L50.9826 90.3797ZM36.1415 76.8046C33.8228 74.3191 31.6348 71.7766 29.5722 69.193L30.3537 68.5691C32.4007 71.1332 34.572 73.6562 36.8728 76.1224L36.1415 76.8046ZM23.5914 61.095C21.6686 58.278 19.8814 55.4331 18.2234 52.5795L19.0881 52.0771C20.7342 54.9104 22.5086 57.7348 24.4174 60.5313L23.5914 61.095ZM13.4814 43.7068C11.9717 40.6255 10.6054 37.5569 9.37457 34.5252L10.3011 34.1491C11.5234 37.1597 12.8802 40.207 14.3794 43.2669L13.4814 43.7068ZM5.92012 25.0751C4.83881 21.7559 3.92091 18.5166 3.15501 15.3921L4.12625 15.154C4.88625 18.2544 5.79733 21.4698 6.87094 24.7653L5.92012 25.0751ZM1.16077 5.52395C0.891037 3.80817 0.672562 2.14854 0.502808 0.552893L1.49719 0.447107C1.66512 2.02559 1.88139 3.66871 2.14864 5.36866L1.16077 5.52395Z"/>
</svg>
