<svg width="484" height="366" viewBox="0 0 484 366" fill="none" xmlns="http://www.w3.org/2000/svg">
<path d="M467.869 6.8829C448.844 -7.04091 411.862 12.6946 328.297 15.3583C271.579 17.1744 270.867 8.57799 175.389 3.85601C91.1127 -0.381671 30.1276 -2.92428 10.0364 18.9906C1.3242 28.5556 5.41358 37.2731 9.14736 57.7351C21.4155 125.296 -6.32114 128.081 2.92441 193.341C10.7476 248.915 32.4391 257.269 18.9263 290.808C11.4588 309.332 -0.631553 320.714 7.3694 334.395C19.8153 355.463 67.2877 360.911 84.712 362.848C157.965 371.202 172.189 346.745 255.399 345.897C319.051 345.292 335.231 359.337 402.083 351.951C438.354 347.956 460.223 345.534 474.092 333.184C498.628 311.27 464.313 287.538 467.869 224.215C469.647 192.614 478.715 190.314 476.759 159.439C474.625 125.901 463.602 122.39 460.757 92.2419C455.778 39.9368 486.004 20.0803 467.869 6.8829Z" stroke-width="2" stroke-miterlimit="10"/>
</svg>
