<svg width="136" height="100" viewBox="0 0 136 100" fill="none" xmlns="http://www.w3.org/2000/svg">
<path d="M129.92 73.3859L121.693 71.0352C121.338 70.9337 121.089 70.6048 121.089 70.2354V67.4891C121.759 67.0253 122.397 66.5062 122.994 65.9269C125.887 63.1198 127.48 59.3546 127.48 55.3245V51.5348L128.275 49.944C129.148 48.1975 129.61 46.2423 129.61 44.2899V34.0235C129.61 32.9233 128.718 32.0313 127.618 32.0313H108.447C101.476 32.0313 95.804 37.7029 95.804 44.674V44.7927C95.804 46.4162 96.1879 48.0421 96.9138 49.494L97.9341 51.5346V54.7885C97.9341 59.9453 100.475 64.5722 104.324 67.3565L104.325 70.2348C104.325 70.6787 104.325 70.8625 102.68 71.3327L98.6653 72.4796L87.052 68.2567C87.0937 67.7087 86.9088 67.1515 86.509 66.7315L82.798 62.8327V56.2877C83.1903 55.9644 83.577 55.6324 83.9518 55.2812C88.6335 50.8931 91.3184 44.6976 91.3184 38.2836V33.0566C92.7321 29.9804 93.4485 26.7252 93.4485 23.3727V2.07227C93.4485 0.972047 92.5565 0.0800781 91.4563 0.0800781H61.6348C51.14 0.0800781 42.602 8.61833 42.602 19.1129V23.3733C42.602 26.7257 43.3184 29.981 44.732 33.0572V37.5545C44.732 45.0015 48.0433 51.7107 53.2525 56.1339V62.8329L49.5415 66.7318C49.1417 67.1517 48.9568 67.709 48.9985 68.257L36.7413 72.7139C35.853 73.0369 35.0277 73.4744 34.2784 74.0043L32.3537 73.042C38.0832 70.548 39.8982 67.0404 39.9853 66.8662C40.2658 66.3054 40.2658 65.6451 39.9853 65.0844C38.5491 62.2119 38.3751 56.9469 38.2354 52.7166C38.1889 51.3082 38.1448 49.9777 38.0606 48.793C37.3814 39.2374 30.1171 32.0313 21.1629 32.0313C12.2087 32.0313 4.94408 39.2372 4.26514 48.793C4.18094 49.978 4.13684 51.3085 4.09036 52.7171C3.95064 56.9472 3.77639 62.2116 2.34042 65.0841C2.05992 65.6448 2.05992 66.3052 2.34042 66.8659C2.42755 67.0402 4.23884 70.5406 9.9798 73.0374L4.63356 75.7104C1.77544 77.1405 0 80.0133 0 83.2085V97.9265C0 99.0267 0.891969 99.9187 1.99219 99.9187C3.09241 99.9187 3.98438 99.0267 3.98438 97.9265V83.2085C3.98438 81.5319 4.91592 80.0244 6.41538 79.2746L13.0727 75.946L15.3885 78.1467C17.0077 79.6855 19.0849 80.4545 21.1629 80.4545C23.2403 80.4545 25.3186 79.685 26.9373 78.1467L29.2528 75.9463L31.4234 77.0316C30.4013 78.6671 29.8212 80.5849 29.8212 82.5938V97.927C29.8212 99.0272 30.7132 99.9192 31.8134 99.9192C32.9136 99.9192 33.8056 99.0272 33.8056 97.927V82.5938C33.8056 79.8589 35.5324 77.3934 38.1028 76.4587L51.026 71.7595L56.4057 79.8295C57.0934 80.8612 58.1955 81.5228 59.4293 81.645C59.5669 81.6586 59.7037 81.6652 59.8403 81.6652C60.9288 81.6652 61.9714 81.2367 62.7507 80.4577L66.0328 77.1756V97.9273C66.0328 99.0275 66.9248 99.9195 68.025 99.9195C69.1252 99.9195 70.0172 99.0275 70.0172 97.9273V77.1756L73.2992 80.4577C74.0783 81.237 75.1209 81.6655 76.2097 81.6655C76.3459 81.6655 76.483 81.6588 76.6203 81.6453C77.8544 81.5231 78.9565 80.8614 79.6442 79.8297L85.0242 71.76L97.9471 76.4592C100.517 77.394 102.244 79.8595 102.244 82.5944V97.9276C102.244 99.0278 103.136 99.9198 104.237 99.9198C105.337 99.9198 106.229 99.0278 106.229 97.9276V82.5944C106.229 79.8244 105.128 77.2266 103.282 75.3053L103.774 75.1648C104.271 75.023 104.948 74.8288 105.628 74.4954L110.715 79.5819V97.9276C110.715 99.0278 111.607 99.9198 112.707 99.9198C113.807 99.9198 114.699 99.0278 114.699 97.9276V79.5819L119.75 74.5308C120.019 74.6673 120.301 74.7826 120.598 74.8673L128.826 77.2181C130.704 77.7547 132.016 79.4937 132.016 81.4471V97.9276C132.016 99.0278 132.908 99.9198 134.008 99.9198C135.108 99.9198 136 99.0278 136 97.9276V81.4471C136 77.7236 133.5 74.4089 129.92 73.3859ZM12.7805 69.8672C9.05409 68.5263 7.18489 66.7387 6.38695 65.7625C6.93095 64.3403 7.2837 62.7115 7.5225 60.9921C8.62113 63.6263 10.4611 65.8751 12.7805 67.4795V69.8672ZM24.1931 75.2589C22.4939 76.8733 19.8321 76.8731 18.1334 75.2586L16.2807 73.498C16.5933 72.9123 16.7652 72.2483 16.7652 71.5526V69.4292C18.1549 69.8635 19.6323 70.0978 21.1634 70.0978C22.6926 70.0978 24.1692 69.8624 25.5614 69.4305L25.5611 71.5523C25.5611 72.2483 25.7327 72.9126 26.0456 73.4986L24.1931 75.2589ZM21.1639 66.1134C15.215 66.1134 10.3756 61.2737 10.3756 55.325C10.3756 54.2248 9.48361 53.3328 8.38339 53.3328C8.27183 53.3328 8.16292 53.3443 8.05641 53.3621C8.06225 53.1907 8.06783 53.0191 8.07367 52.8494C8.11803 51.4796 8.1608 50.1857 8.23969 49.0759C8.49416 45.4964 9.92455 42.1978 12.2674 39.7876C14.6312 37.3555 17.7905 36.0162 21.1634 36.0162C24.5363 36.0162 27.6954 37.3555 30.0595 39.7876C32.4023 42.1978 33.8327 45.4964 34.0871 49.0759C34.1658 50.1854 34.2088 51.479 34.2539 52.8486C34.2579 52.9663 34.2619 53.0855 34.2659 53.204C32.0984 49.8646 28.751 47.4036 24.4258 46.0138C20.43 44.73 16.9934 44.8095 16.8483 44.8132C16.3266 44.8278 15.8315 45.0461 15.4695 45.4217L11.875 49.1495C11.1114 49.9416 11.1342 51.2028 11.9263 51.9665C12.7184 52.7301 13.9796 52.707 14.7433 51.9152L17.7342 48.8135C20.31 48.9394 28.5967 49.9031 31.8195 56.9998C31.0085 62.2294 26.5136 66.1134 21.1639 66.1134ZM29.5452 69.8738L29.5455 67.4978C31.863 65.9022 33.7057 63.6577 34.8051 61.0036C35.0439 62.719 35.3964 64.3441 35.9393 65.763C35.1459 66.7299 33.2679 68.5335 29.5452 69.8738ZM48.7164 37.5542V32.6114C48.7164 32.3115 48.6487 32.0154 48.5183 31.7452C47.2364 29.0906 46.5864 26.2739 46.5864 23.3733V19.1132C46.5864 10.8153 53.3372 4.06472 61.6348 4.06472H89.4641V23.3735C89.4641 26.2742 88.8141 29.0908 87.5322 31.7455C87.4018 32.0156 87.334 32.3118 87.334 32.6117V38.2841C87.334 43.6792 85.1652 48.6833 81.2271 52.3747C80.7354 52.8353 80.2251 53.2672 79.6976 53.6697C79.6859 53.6776 79.6748 53.6864 79.6633 53.6946C75.9741 56.4956 71.4553 57.857 66.7362 57.5512C56.6315 56.897 48.7164 48.1133 48.7164 37.5542ZM59.9335 77.6399C59.9197 77.6537 59.8875 77.6864 59.8225 77.6795C59.7577 77.6731 59.7322 77.6351 59.7213 77.6187L53.5256 68.325L55.5193 66.23L64.9185 72.6547L59.9335 77.6399ZM68.0252 69.9519L57.2369 62.5777V58.8589C60.0283 60.3679 63.1539 61.3117 66.4782 61.5268C67.0034 61.5608 67.5253 61.5776 68.0457 61.5776C71.855 61.5776 75.5212 60.667 78.8136 58.9386V62.5777L68.0252 69.9519ZM76.3292 77.6192C76.3183 77.6357 76.2928 77.6737 76.228 77.68C76.1629 77.6883 76.1311 77.654 76.117 77.6405L71.132 72.6555L80.5311 66.2305L82.5252 68.3255L76.3292 77.6192ZM112.707 75.9383L108.186 71.4177C108.265 71.0593 108.309 70.667 108.309 70.2343L108.309 69.3936C109.563 69.8053 110.886 70.0497 112.254 70.0906C112.407 70.0954 112.56 70.0975 112.713 70.0975C114.225 70.0975 115.7 69.8691 117.105 69.4332V70.2354C117.105 70.6327 117.155 71.0221 117.249 71.3964L112.707 75.9383ZM120.219 63.0677C118.108 65.1168 115.319 66.1989 112.374 66.1081C106.609 65.9352 101.918 60.8572 101.918 54.789V51.0647C101.918 50.7552 101.846 50.4503 101.708 50.1738L100.477 47.7125C100.027 46.8107 99.7884 45.8013 99.7884 44.793V44.6743C99.7884 39.8999 103.673 36.016 108.447 36.016H125.625V44.2902C125.625 45.6273 125.309 46.9663 124.711 48.1625L123.706 50.1738C123.567 50.4505 123.495 50.7552 123.495 51.0647V55.3248C123.495 58.2679 122.332 61.0176 120.219 63.0677Z" fill="url(#paint0_linear)"/>
<defs>
<linearGradient id="paint0_linear" x1="5.30832e-07" y1="51.5126" x2="136" y2="51.5126" gradientUnits="userSpaceOnUse">
<stop stop-color="#FF8BDE"/>
<stop offset="1" stop-color="#669FFF"/>
</linearGradient>
</defs>
</svg>
