<svg width="102" height="102" viewBox="0 0 102 102" fill="none" xmlns="http://www.w3.org/2000/svg">
<g clip-path="url(#clip0)">
<path d="M95.2003 20.4001C91.45 20.4001 88.4004 23.45 88.4004 27.2001C88.4004 30.9502 91.4502 34 95.2003 34C98.9504 34 102 30.9504 102 27.2001C102 23.45 98.9504 20.4001 95.2003 20.4001ZM95.2003 30.6002C93.3253 30.6002 91.8003 29.0753 91.8003 27.2001C91.8003 25.325 93.3251 23.8 95.2003 23.8C97.0756 23.8 98.6004 25.3248 98.6004 27.2001C98.6002 29.0753 97.0754 30.6002 95.2003 30.6002Z" fill="url(#paint1_linear)"/>
<path d="M6.79993 76.5C3.04984 76.5 0 79.5498 0 83.2999C0 87.05 3.04984 90.0999 6.79993 90.0999C10.5502 90.0999 13.5999 87.05 13.5999 83.2999C13.5999 79.5498 10.5502 76.5 6.79993 76.5ZM6.79993 86.7C4.92489 86.7 3.39987 85.1752 3.39987 83.2999C3.39987 81.4247 4.92469 79.8999 6.79993 79.8999C8.67498 79.8999 10.2 81.4247 10.2 83.2999C10.2 85.1752 8.67518 86.7 6.79993 86.7Z" fill="url(#paint2_linear)"/>
<path d="M91.9034 22.549L77.2375 15.4686C76.3909 15.0588 75.376 15.4158 74.968 16.2609C74.56 17.1058 74.9153 18.1224 75.7603 18.5304L90.4262 25.6108C90.6643 25.7264 90.9159 25.7808 91.1639 25.7808C91.7962 25.7808 92.4033 25.4271 92.6955 24.8185C93.1035 23.9736 92.7483 22.957 91.9034 22.549Z" fill="url(#paint3_linear)"/>
<path d="M76.4992 88.3999C72.7489 88.3999 69.6992 91.4497 69.6992 95.1998C69.6992 98.9499 72.7489 102 76.4992 102C80.2494 102 83.2991 98.9501 83.2991 95.2C83.2991 91.4499 80.2494 88.3999 76.4992 88.3999ZM76.4992 98.5999C74.6241 98.5999 73.0991 97.0751 73.0991 95.1998C73.0991 93.3246 74.6241 91.8 76.4992 91.8C78.3742 91.8 79.8992 93.3248 79.8992 95.2C79.8992 97.0753 78.3742 98.5999 76.4992 98.5999Z" fill="url(#paint4_linear)"/>
<path d="M73.2042 90.5486L58.5383 83.4681C57.6916 83.0583 56.6768 83.4137 56.2688 84.2604C55.8608 85.1053 56.216 86.1219 57.0611 86.5299L71.727 93.6104C71.9651 93.7259 72.2167 93.7803 72.4647 93.7803C73.097 93.7803 73.7041 93.4267 73.9965 92.8181C74.4043 91.973 74.0491 90.9566 73.2042 90.5486Z" fill="url(#paint5_linear)"/>
<path d="M50.9992 45.9001C47.2489 45.9001 44.1992 48.95 44.1992 52.7001C44.1992 56.4504 47.2491 59.5 50.9992 59.5C54.7494 59.5 57.7991 56.4502 57.7991 52.7001C57.7991 48.95 54.7494 45.9001 50.9992 45.9001ZM50.9992 56.1002C49.1241 56.1002 47.5991 54.5753 47.5991 52.7001C47.5991 50.825 49.1239 49.3 50.9992 49.3C52.8742 49.3 54.3992 50.8248 54.3992 52.7001C54.3992 54.5753 52.8742 56.1002 50.9992 56.1002Z" fill="url(#paint6_linear)"/>
<path d="M48.0118 48.2393L36.7459 39.4587C36.0046 38.8858 34.9372 39.0133 34.3591 39.7546C33.7828 40.4959 33.9136 41.5633 34.6549 42.1414L45.9208 50.922C46.2319 51.1634 46.5991 51.2808 46.9647 51.2808C47.4713 51.2808 47.9711 51.0564 48.3076 50.6263C48.8839 49.8848 48.7531 48.8172 48.0118 48.2393Z" fill="url(#paint7_linear)"/>
<path d="M81.6005 44.2C71.2899 44.2 62.9004 52.5895 62.9004 62.9C62.9004 73.2106 71.2899 81.6001 81.6005 81.6001C91.911 81.6001 100.301 73.2106 100.301 62.9C100.301 52.5895 91.911 44.2 81.6005 44.2ZM81.6005 78.1998C73.1633 78.1998 66.3005 71.3369 66.3005 62.8998C66.3005 54.4627 73.1633 47.5998 81.6005 47.5998C90.0376 47.5998 96.9005 54.4627 96.9005 62.8998C96.9005 71.3369 90.0376 78.1998 81.6005 78.1998Z" fill="url(#paint8_linear)"/>
<path d="M81.6007 51C77.8504 51 74.8008 54.0498 74.8008 57.7999C74.8008 61.5502 77.8506 64.5999 81.6007 64.5999C85.351 64.5999 88.4006 61.55 88.4006 57.7999C88.4006 54.0498 85.351 51 81.6007 51ZM81.6007 61.2C79.7257 61.2 78.2006 59.6752 78.2006 57.7999C78.2006 55.9249 79.7255 54.3999 81.6007 54.3999C83.4758 54.3999 85.0008 55.9247 85.0008 57.7999C85.0008 59.6752 83.4758 61.2 81.6007 61.2Z" fill="url(#paint9_linear)"/>
<path d="M86.5321 68H76.6687C73.7635 68 71.4004 70.3002 71.4004 73.1255V77.6067C71.4004 78.2135 71.7233 78.7745 72.2487 79.0789C75.0979 80.7279 78.3312 81.6001 81.6004 81.6001C84.8696 81.6001 88.1029 80.7279 90.9521 79.0789C91.4775 78.7763 91.8004 78.2135 91.8004 77.6085V73.1273C91.8004 70.3002 89.4375 68 86.5321 68ZM88.4003 76.5935C84.1691 78.7014 79.0317 78.7014 74.8003 76.5935V73.1273C74.8003 72.1752 75.6384 71.4001 76.6685 71.4001H86.5318C87.562 71.4001 88.4001 72.1752 88.4001 73.1273V76.5935H88.4003Z" fill="url(#paint10_linear)"/>
<path d="M40.7997 64.6001C30.4891 64.6001 22.0996 72.9896 22.0996 83.3002C22.0996 93.6107 30.4891 102 40.7997 102C51.1102 102 59.4997 93.6105 59.4997 83.3C59.4997 72.9894 51.1102 64.6001 40.7997 64.6001ZM40.7997 98.5999C32.3626 98.5999 25.4997 91.7371 25.4997 83.3C25.4997 74.8628 32.3626 68 40.7997 68C49.2368 68 56.0997 74.8628 56.0997 83.3C56.0997 91.7371 49.2368 98.5999 40.7997 98.5999Z" fill="url(#paint11_linear)"/>
<path d="M40.7999 71.4001C37.0496 71.4001 34 74.45 34 78.2001C34 81.9504 37.0498 85 40.7999 85C44.55 85 47.5999 81.9502 47.5999 78.2001C47.5999 74.45 44.5502 71.4001 40.7999 71.4001ZM40.7999 81.6002C38.9249 81.6002 37.3999 80.0753 37.3999 78.2001C37.3999 76.325 38.9247 74.8 40.7999 74.8C42.675 74.8 44.2 76.3248 44.2 78.2001C44.2 80.0753 42.675 81.6002 40.7999 81.6002Z" fill="url(#paint12_linear)"/>
<path d="M45.7313 88.3999H35.8679C32.9627 88.3999 30.5996 90.7001 30.5996 93.5254V98.0066C30.5996 98.6134 30.9225 99.1744 31.4479 99.4789C34.2971 101.128 37.5304 102 40.7996 102C44.0688 102 47.3021 101.128 50.1513 99.4789C50.6767 99.1762 50.9996 98.6136 50.9996 98.0084V93.5272C50.9996 90.7001 48.6367 88.3999 45.7313 88.3999ZM47.5995 96.9934C43.3681 99.1013 38.2309 99.1013 33.9995 96.9934V93.5272C33.9995 92.5751 34.8376 91.8 35.8678 91.8H45.7311C46.7612 91.8 47.5993 92.5751 47.5993 93.5272V96.9934H47.5995Z" fill="url(#paint13_linear)"/>
<path d="M18.7001 22.0999C8.3895 22.0999 0 30.4894 0 40.7999C0 51.1105 8.3895 59.5 18.7001 59.5C29.0106 59.5 37.4001 51.1105 37.4001 40.7999C37.3999 30.4894 29.0104 22.0999 18.7001 22.0999ZM18.7001 56.0999C10.263 56.0999 3.40007 49.237 3.40007 40.7999C3.40007 32.3628 10.263 25.4999 18.7001 25.4999C27.1372 25.4999 34.0001 32.3628 34.0001 40.7999C34.0001 49.237 27.1372 56.0999 18.7001 56.0999Z" fill="url(#paint14_linear)"/>
<path d="M18.7003 28.9001C14.95 28.9001 11.9004 31.95 11.9004 35.7001C11.9004 39.4502 14.9502 42.5 18.7003 42.5C22.4506 42.5 25.5003 39.4502 25.5003 35.7001C25.5003 31.95 22.4504 28.9001 18.7003 28.9001ZM18.7003 39.1001C16.8253 39.1001 15.3003 37.5753 15.3003 35.7001C15.3003 33.8248 16.8251 32.3 18.7003 32.3C20.5754 32.3 22.1004 33.8248 22.1004 35.7001C22.1004 37.5753 20.5754 39.1001 18.7003 39.1001Z" fill="url(#paint15_linear)"/>
<path d="M23.6317 45.9001H13.7683C10.8631 45.9001 8.5 48.2003 8.5 51.0256V55.5069C8.5 56.1137 8.82293 56.6747 9.34827 56.9791C12.1975 58.628 15.4308 59.5002 18.7 59.5002C21.9692 59.5002 25.2025 58.628 28.0517 56.9791C28.5771 56.6765 28.9 56.1137 28.9 55.5087V51.0274C28.9 48.2003 26.5369 45.9001 23.6317 45.9001ZM25.4999 54.4937C21.2687 56.6016 16.1313 56.6016 11.8999 54.4937V51.0274C11.8999 50.0754 12.738 49.3002 13.7681 49.3002H23.6315C24.6616 49.3002 25.4997 50.0754 25.4997 51.0274V54.4937H25.4999Z" fill="url(#paint16_linear)"/>
<path d="M59.5008 0C49.1903 0 40.8008 8.3895 40.8008 18.7001C40.8008 29.0106 49.1903 37.4001 59.5008 37.4001C69.8114 37.4001 78.2009 29.0106 78.2009 18.7001C78.2007 8.3895 69.8112 0 59.5008 0ZM59.5008 34.0001C51.0637 34.0001 44.2008 27.1372 44.2008 18.7001C44.2008 10.263 51.0637 3.40007 59.5008 3.40007C67.938 3.40007 74.8008 10.263 74.8008 18.7001C74.8008 27.1372 67.938 34.0001 59.5008 34.0001Z" fill="url(#paint17_linear)"/>
<path d="M59.4992 6.80005C55.7489 6.80005 52.6992 9.84989 52.6992 13.6C52.6992 17.3501 55.7491 20.3999 59.4992 20.3999C63.2492 20.3999 66.2991 17.3503 66.2991 13.6002C66.2991 9.85009 63.2492 6.80005 59.4992 6.80005ZM59.4992 17C57.6241 17 56.0991 15.4752 56.0991 13.6C56.0991 11.7249 57.6239 10.1999 59.4992 10.1999C61.3744 10.1999 62.8992 11.7247 62.8992 13.6C62.899 15.4752 61.3742 17 59.4992 17Z" fill="url(#paint18_linear)"/>
<path d="M64.4324 23.8003H54.5691C51.6639 23.8003 49.3008 26.1005 49.3008 28.9258V33.407C49.3008 34.0138 49.6237 34.5748 50.1491 34.8792C52.9983 36.5282 56.2316 37.4004 59.5008 37.4004C62.77 37.4004 66.0033 36.5282 68.8525 34.8792C69.3778 34.5766 69.7008 34.0138 69.7008 33.4088V28.9276C69.7008 26.1003 67.3376 23.8003 64.4324 23.8003ZM66.3007 32.3938C62.0695 34.5017 56.9321 34.5017 52.7006 32.3938V28.9276C52.7006 27.9755 53.5388 27.2004 54.5689 27.2004H64.4322C65.4624 27.2004 66.3005 27.9755 66.3005 28.9276V32.3938H66.3007Z" fill="url(#paint19_linear)"/>
<path d="M43.7928 17.5932C43.1826 16.8826 42.1098 16.7975 41.3958 17.4079L29.6148 27.489C28.9008 28.0992 28.8175 29.172 29.4277 29.886C29.7644 30.2787 30.2404 30.4811 30.7197 30.4811C31.1107 30.4811 31.5034 30.3468 31.8247 30.0713L43.6057 19.9902C44.3199 19.38 44.4032 18.3072 43.7928 17.5932Z" fill="url(#paint20_linear)"/>
<path d="M81.26 44.8816L71.06 31.2815C70.4972 30.5285 69.4314 30.3805 68.6799 30.9415C67.9285 31.5042 67.7773 32.5701 68.3399 33.3197L78.5399 46.9198C78.8747 47.3652 79.3847 47.5997 79.9015 47.5997C80.2551 47.5997 80.6139 47.4892 80.9199 47.2597C81.6714 46.6971 81.8228 45.6312 81.26 44.8816Z" fill="url(#paint21_linear)"/>
<path d="M67.3081 68.522C66.7453 67.7705 65.6795 67.6193 64.928 68.1819L55.4319 75.3032C54.6804 75.866 54.5292 76.9318 55.0918 77.6814C55.4267 78.1269 55.9367 78.3614 56.4535 78.3614C56.8087 78.3614 57.1657 78.2492 57.4719 78.0213L66.968 70.9C67.7195 70.3377 67.8709 69.2716 67.3081 68.522Z" fill="url(#paint22_linear)"/>
<path d="M23.7993 81.6001H11.8992C10.9608 81.6001 10.1992 82.3599 10.1992 83.3C10.1992 84.2401 10.9608 85 11.8992 85H23.7991C24.7374 85 25.499 84.2401 25.499 83.3C25.499 82.3599 24.7376 81.6001 23.7993 81.6001Z" fill="url(#paint23_linear)"/>
<path d="M18.7005 0C14.9502 0 11.9004 3.04984 11.9004 6.79993C11.9004 10.5502 14.9502 13.5999 18.7003 13.5999C22.4506 13.5999 25.5003 10.55 25.5003 6.79993C25.5005 3.04984 22.4506 0 18.7005 0ZM18.7005 10.2C16.8255 10.2 15.3005 8.67518 15.3005 6.79993C15.3005 4.92489 16.8253 3.39987 18.7005 3.39987C20.5756 3.39987 22.1006 4.92469 22.1006 6.79993C22.1004 8.67518 20.5756 10.2 18.7005 10.2Z" fill="url(#paint24_linear)"/>
<path d="M18.6999 10.2C17.7616 10.2 17 10.9598 17 11.8999V23.7998C17 24.7399 17.7616 25.4998 18.6999 25.4998C19.6383 25.4998 20.3999 24.7399 20.3999 23.7998V11.8999C20.3999 10.9598 19.6383 10.2 18.6999 10.2Z" fill="url(#paint25_linear)"/>
</g>
<defs>
<linearGradient id="paint0_linear" x1="51" y1="0" x2="51" y2="102" gradientUnits="userSpaceOnUse">
<stop stop-color="white"/>
<stop offset="1" stop-color="white" stop-opacity="0"/>
</linearGradient>
<linearGradient id="paint1_linear" x1="88.4004" y1="27.4061" x2="102" y2="27.4061" gradientUnits="userSpaceOnUse">
<stop stop-color="#FF8BDE"/>
<stop offset="1" stop-color="#669FFF"/>
</linearGradient>
<linearGradient id="paint2_linear" x1="5.30827e-08" y1="83.506" x2="13.5999" y2="83.506" gradientUnits="userSpaceOnUse">
<stop stop-color="#FF8BDE"/>
<stop offset="1" stop-color="#669FFF"/>
</linearGradient>
<linearGradient id="paint3_linear" x1="74.7988" y1="20.6985" x2="92.8647" y2="20.6985" gradientUnits="userSpaceOnUse">
<stop stop-color="#FF8BDE"/>
<stop offset="1" stop-color="#669FFF"/>
</linearGradient>
<linearGradient id="paint4_linear" x1="69.6992" y1="95.406" x2="83.2991" y2="95.406" gradientUnits="userSpaceOnUse">
<stop stop-color="#FF8BDE"/>
<stop offset="1" stop-color="#669FFF"/>
</linearGradient>
<linearGradient id="paint5_linear" x1="56.0996" y1="88.6979" x2="74.1656" y2="88.6979" gradientUnits="userSpaceOnUse">
<stop stop-color="#FF8BDE"/>
<stop offset="1" stop-color="#669FFF"/>
</linearGradient>
<linearGradient id="paint6_linear" x1="44.1992" y1="52.9061" x2="57.7991" y2="52.9061" gradientUnits="userSpaceOnUse">
<stop stop-color="#FF8BDE"/>
<stop offset="1" stop-color="#669FFF"/>
</linearGradient>
<linearGradient id="paint7_linear" x1="34" y1="45.3755" x2="48.6667" y2="45.3755" gradientUnits="userSpaceOnUse">
<stop stop-color="#FF8BDE"/>
<stop offset="1" stop-color="#669FFF"/>
</linearGradient>
<linearGradient id="paint8_linear" x1="62.9004" y1="63.4667" x2="100.301" y2="63.4667" gradientUnits="userSpaceOnUse">
<stop stop-color="#FF8BDE"/>
<stop offset="1" stop-color="#669FFF"/>
</linearGradient>
<linearGradient id="paint9_linear" x1="74.8008" y1="58.006" x2="88.4006" y2="58.006" gradientUnits="userSpaceOnUse">
<stop stop-color="#FF8BDE"/>
<stop offset="1" stop-color="#669FFF"/>
</linearGradient>
<linearGradient id="paint10_linear" x1="71.4004" y1="75.0061" x2="91.8004" y2="75.0061" gradientUnits="userSpaceOnUse">
<stop stop-color="#FF8BDE"/>
<stop offset="1" stop-color="#669FFF"/>
</linearGradient>
<linearGradient id="paint11_linear" x1="22.0996" y1="83.8667" x2="59.4997" y2="83.8667" gradientUnits="userSpaceOnUse">
<stop stop-color="#FF8BDE"/>
<stop offset="1" stop-color="#669FFF"/>
</linearGradient>
<linearGradient id="paint12_linear" x1="34" y1="78.4061" x2="47.5999" y2="78.4061" gradientUnits="userSpaceOnUse">
<stop stop-color="#FF8BDE"/>
<stop offset="1" stop-color="#669FFF"/>
</linearGradient>
<linearGradient id="paint13_linear" x1="30.5996" y1="95.406" x2="50.9996" y2="95.406" gradientUnits="userSpaceOnUse">
<stop stop-color="#FF8BDE"/>
<stop offset="1" stop-color="#669FFF"/>
</linearGradient>
<linearGradient id="paint14_linear" x1="1.45979e-07" y1="41.3666" x2="37.4001" y2="41.3666" gradientUnits="userSpaceOnUse">
<stop stop-color="#FF8BDE"/>
<stop offset="1" stop-color="#669FFF"/>
</linearGradient>
<linearGradient id="paint15_linear" x1="11.9004" y1="35.9061" x2="25.5003" y2="35.9061" gradientUnits="userSpaceOnUse">
<stop stop-color="#FF8BDE"/>
<stop offset="1" stop-color="#669FFF"/>
</linearGradient>
<linearGradient id="paint16_linear" x1="8.5" y1="52.9062" x2="28.9" y2="52.9062" gradientUnits="userSpaceOnUse">
<stop stop-color="#FF8BDE"/>
<stop offset="1" stop-color="#669FFF"/>
</linearGradient>
<linearGradient id="paint17_linear" x1="40.8008" y1="19.2667" x2="78.2009" y2="19.2667" gradientUnits="userSpaceOnUse">
<stop stop-color="#FF8BDE"/>
<stop offset="1" stop-color="#669FFF"/>
</linearGradient>
<linearGradient id="paint18_linear" x1="52.6992" y1="13.806" x2="66.2991" y2="13.806" gradientUnits="userSpaceOnUse">
<stop stop-color="#FF8BDE"/>
<stop offset="1" stop-color="#669FFF"/>
</linearGradient>
<linearGradient id="paint19_linear" x1="49.3008" y1="30.8064" x2="69.7008" y2="30.8064" gradientUnits="userSpaceOnUse">
<stop stop-color="#FF8BDE"/>
<stop offset="1" stop-color="#669FFF"/>
</linearGradient>
<linearGradient id="paint20_linear" x1="29.0195" y1="23.9448" x2="44.2012" y2="23.9448" gradientUnits="userSpaceOnUse">
<stop stop-color="#FF8BDE"/>
<stop offset="1" stop-color="#669FFF"/>
</linearGradient>
<linearGradient id="paint21_linear" x1="68" y1="39.3583" x2="81.5999" y2="39.3583" gradientUnits="userSpaceOnUse">
<stop stop-color="#FF8BDE"/>
<stop offset="1" stop-color="#669FFF"/>
</linearGradient>
<linearGradient id="paint22_linear" x1="54.752" y1="73.2611" x2="67.6481" y2="73.2611" gradientUnits="userSpaceOnUse">
<stop stop-color="#FF8BDE"/>
<stop offset="1" stop-color="#669FFF"/>
</linearGradient>
<linearGradient id="paint23_linear" x1="10.1992" y1="83.3515" x2="25.499" y2="83.3515" gradientUnits="userSpaceOnUse">
<stop stop-color="#FF8BDE"/>
<stop offset="1" stop-color="#669FFF"/>
</linearGradient>
<linearGradient id="paint24_linear" x1="11.9004" y1="7.00599" x2="25.5003" y2="7.00599" gradientUnits="userSpaceOnUse">
<stop stop-color="#FF8BDE"/>
<stop offset="1" stop-color="#669FFF"/>
</linearGradient>
<linearGradient id="paint25_linear" x1="17" y1="18.0817" x2="20.3999" y2="18.0817" gradientUnits="userSpaceOnUse">
<stop stop-color="#FF8BDE"/>
<stop offset="1" stop-color="#669FFF"/>
</linearGradient>
<clipPath id="clip0">
<rect width="102" height="102" fill="white"/>
</clipPath>
</defs>
</svg>
