<svg width="124" height="148" viewBox="0 0 124 148" fill="none" xmlns="http://www.w3.org/2000/svg">
<path d="M120.458 125.772C120.637 125.209 120.737 124.611 120.737 123.988V106.249C120.737 103.748 119.167 101.619 116.982 100.814C117.145 100.275 117.234 99.703 117.234 99.1099V80.8941C117.234 78.559 115.866 76.5472 113.906 75.6351C114.106 75.0445 114.22 74.4141 114.22 73.7556V56.0159C114.22 53.5416 112.685 51.4314 110.536 50.6075C110.705 50.0611 110.796 49.4798 110.796 48.8774V30.6616C110.796 28.4513 109.571 26.5286 107.778 25.5553C108.013 24.9223 108.147 24.2393 108.147 23.5232V5.78342C108.147 2.59473 105.601 0 102.472 0H21.5274C18.3982 0 15.8518 2.59473 15.8518 5.78342V23.5223C15.8518 24.2385 15.9859 24.9215 16.2207 25.5545C14.4271 26.5277 13.203 28.4504 13.203 30.6608V48.8765C13.203 49.479 13.2946 50.0602 13.4628 50.6067C11.3145 51.4314 9.77904 53.5416 9.77904 56.015V73.7539C9.77904 74.4124 9.89312 75.0428 10.093 75.6334C8.13283 76.5455 6.7639 78.5573 6.7639 80.8924V99.1082C6.7639 99.7013 6.85216 100.273 7.0162 100.812C4.8304 101.616 3.26163 103.746 3.26163 106.248V123.986C3.26163 124.609 3.36155 125.207 3.54057 125.77C1.46636 126.631 0 128.706 0 131.125V141.556C0 144.744 2.54552 147.339 5.67558 147.339H118.324C121.454 147.339 124 144.744 124 141.556V131.125C123.998 128.707 122.531 126.633 120.458 125.772ZM103.194 108.413C101.137 108.413 99.4691 110.112 99.4691 112.208V125.254C99.4691 125.284 99.4725 125.313 99.4733 125.343H89.8791C89.8799 125.313 89.8833 125.285 89.8833 125.254V112.208C89.8833 110.112 88.2154 108.413 86.1587 108.413C84.1019 108.413 82.4341 110.112 82.4341 112.208V125.254C82.4341 125.284 82.4374 125.313 82.4382 125.343H72.8449C72.8457 125.313 72.849 125.285 72.849 125.254V112.208C72.849 110.112 71.1812 108.413 69.1245 108.413C67.0677 108.413 65.3999 110.112 65.3999 112.208V125.254C65.3999 125.284 65.4032 125.313 65.404 125.343H55.8123C55.8132 125.313 55.8165 125.285 55.8165 125.254V112.208C55.8165 110.112 54.1486 108.413 52.0919 108.413C50.0352 108.413 48.3673 110.112 48.3673 112.208V125.254C48.3673 125.284 48.3715 125.313 48.3715 125.343H38.7781C38.7789 125.313 38.7823 125.285 38.7823 125.254V112.208C38.7823 110.112 37.1144 108.413 35.0577 108.413C33.0009 108.413 31.3331 110.112 31.3331 112.208V125.254C31.3331 125.284 31.3372 125.313 31.3372 125.343H21.7439C21.7447 125.313 21.748 125.285 21.748 125.254V112.208C21.748 110.112 20.0802 108.413 18.0235 108.413C15.9667 108.413 14.2989 110.112 14.2989 112.208V125.254C14.2989 125.284 14.3022 125.313 14.303 125.343H8.9347C8.20111 125.343 7.6049 124.736 7.6049 123.988V106.249C7.6049 105.502 8.20194 104.893 8.9347 104.893H12.4378H111.558H115.06C115.794 104.893 116.391 105.502 116.391 106.249V123.988C116.391 124.736 115.794 125.343 115.06 125.343H106.914C106.915 125.313 106.918 125.285 106.918 125.254V112.208C106.918 110.112 105.25 108.413 103.194 108.413ZM11.1088 99.1099V80.8941C11.1088 80.1466 11.7059 79.539 12.4386 79.539H15.4538H108.544H111.559C112.292 79.539 112.889 80.1466 112.889 80.8941V99.1099C112.889 99.7335 112.471 100.255 111.907 100.412C111.99 99.8531 112.038 99.2863 112.038 98.7153C112.038 92.5178 107.089 87.4751 101.007 87.4751C94.9252 87.4751 89.9765 92.5178 89.9765 98.7153C89.9765 99.3067 90.034 99.8888 90.1222 100.465H86.3111C86.3985 99.8905 86.4459 99.3076 86.4459 98.7153C86.4459 92.5178 81.4973 87.4751 75.4154 87.4751C69.3335 87.4751 64.3848 92.5178 64.3848 98.7153C64.3848 99.3067 64.4423 99.8888 64.5305 100.465H60.7202C60.8076 99.8905 60.8551 99.3076 60.8551 98.7153C60.8551 92.5178 55.9064 87.4751 49.8245 87.4751C43.7426 87.4751 38.7939 92.5178 38.7939 98.7153C38.7939 99.3067 38.8514 99.8888 38.9396 100.465H35.1285C35.2159 99.8905 35.2633 99.3076 35.2633 98.7153C35.2633 92.5178 30.3147 87.4751 24.2328 87.4751C18.1509 87.4751 13.2022 92.5178 13.2022 98.7153C13.2022 99.3067 13.2597 99.8888 13.3488 100.465H12.4386C11.705 100.465 11.1088 99.8574 11.1088 99.1099ZM14.124 73.7556V56.0159C14.124 55.2683 14.721 54.66 15.4538 54.66H18.8778H105.12H108.544C109.277 54.66 109.874 55.2683 109.874 56.0159V73.7548C109.874 74.5023 109.277 75.1107 108.544 75.1107H107.996C108.094 74.5049 108.146 73.8888 108.146 73.2626C108.146 67.0643 103.197 62.0225 97.1151 62.0225C91.0332 62.0225 86.0846 67.0651 86.0846 73.2626C86.0846 73.888 86.1462 74.5032 86.2453 75.1107H73.1397C73.2379 74.5049 73.2895 73.8888 73.2895 73.2626C73.2895 67.0643 68.3409 62.0225 62.259 62.0225C56.177 62.0225 51.2284 67.0651 51.2284 73.2626C51.2284 73.8871 51.2884 74.5032 51.3874 75.1107H38.2727C38.3709 74.5032 38.4334 73.888 38.4334 73.2626C38.4334 67.0643 33.4847 62.0225 27.4028 62.0225C21.3209 62.0225 16.3722 67.0651 16.3722 73.2626C16.3722 73.888 16.4339 74.5032 16.5329 75.1107H15.4555C14.7202 75.1107 14.124 74.5023 14.124 73.7556ZM17.548 48.8774V30.6616C17.548 29.9141 18.145 29.3066 18.8778 29.3066H21.5274H102.471H105.121C105.854 29.3066 106.45 29.9141 106.45 30.6616V48.8774C106.45 49.6249 105.854 50.2325 105.121 50.2325H102.916C103.087 49.4383 103.18 48.6254 103.18 47.8091C103.18 41.6116 98.2309 36.569 92.149 36.569C86.0662 36.569 81.1184 41.6116 81.1184 47.8091C81.1184 48.6288 81.21 49.44 81.3816 50.2325H73.3928C73.5635 49.4434 73.6526 48.6339 73.6526 47.8091C73.6526 41.6116 68.7039 36.569 62.622 36.569C56.5401 36.569 51.5914 41.6116 51.5914 47.8091C51.5914 48.633 51.6855 49.4417 51.8562 50.2325H43.8608C44.0323 49.4383 44.1248 48.6245 44.1248 47.8091C44.1248 41.6116 39.1761 36.569 33.0942 36.569C27.0123 36.569 22.0636 41.6116 22.0636 47.8091C22.0636 48.6288 22.1552 49.44 22.3268 50.2325H18.8811C18.1442 50.2325 17.548 49.6249 17.548 48.8774ZM29.5744 22.3565C29.5744 18.6001 32.5738 15.5438 36.2601 15.5438C39.9464 15.5438 42.9457 18.6001 42.9457 22.3565C42.9457 23.2279 42.7725 24.0806 42.4594 24.8782H30.0599C29.7476 24.0798 29.5744 23.227 29.5744 22.3565ZM56.2004 22.3565C56.2004 18.6001 59.1997 15.5438 62.886 15.5438C66.5723 15.5438 69.5716 18.6001 69.5716 22.3565C69.5716 23.2279 69.3984 24.0806 69.0861 24.8782H56.675C56.3619 24.0772 56.2004 23.2296 56.2004 22.3565ZM82.8263 22.3565C82.8263 18.6001 85.8256 15.5438 89.5119 15.5438C93.1982 15.5438 96.1975 18.6001 96.1975 22.3565C96.1975 23.2262 96.0268 24.0806 95.7146 24.8782H83.3009C82.9878 24.0764 82.8263 23.2287 82.8263 22.3565ZM85.9114 50.2325C85.6233 49.462 85.4625 48.6441 85.4625 47.8091C85.4625 44.0528 88.4619 40.9965 92.1482 40.9965C95.8345 40.9965 98.8338 44.0528 98.8338 47.8091C98.8338 48.6517 98.6856 49.4629 98.3966 50.2325H85.9114ZM56.3769 50.2325C56.088 49.4603 55.9339 48.6475 55.9339 47.8091C55.9339 44.0528 58.9332 40.9965 62.6195 40.9965C66.3058 40.9965 69.3051 44.0528 69.3051 47.8091C69.3051 48.65 69.1511 49.4612 68.8622 50.2325H56.3769ZM26.8549 50.2325C26.5668 49.462 26.4061 48.6441 26.4061 47.8091C26.4061 44.0528 29.4054 40.9965 33.0917 40.9965C36.778 40.9965 39.7773 44.0528 39.7773 47.8091C39.7773 48.6517 39.6291 49.4629 39.3402 50.2325H26.8549ZM90.6843 75.1107C90.5194 74.5125 90.4295 73.8948 90.4295 73.2626C90.4295 69.5063 93.4288 66.45 97.1151 66.45C100.801 66.45 103.801 69.5063 103.801 73.2626C103.801 73.8982 103.707 74.5142 103.543 75.1107H90.6843ZM55.8248 75.1107C55.66 74.5125 55.5725 73.8948 55.5725 73.2626C55.5725 69.5063 58.5718 66.45 62.2581 66.45C65.9444 66.45 68.9438 69.5063 68.9438 73.2626C68.9438 73.8982 68.8505 74.5142 68.6856 75.1107H55.8248ZM20.9703 75.1107C20.8054 74.5125 20.7155 73.8948 20.7155 73.2626C20.7155 69.5063 23.7148 66.45 27.4011 66.45C31.0874 66.45 34.0868 69.5063 34.0868 73.2626C34.0868 73.8956 33.9968 74.5125 33.832 75.1107H20.9703ZM94.5505 100.465C94.4031 99.8981 94.3206 99.3135 94.3206 98.7153C94.3206 94.959 97.32 91.9026 101.006 91.9026C104.693 91.9026 107.692 94.959 107.692 98.7153C107.692 99.3093 107.613 99.8973 107.465 100.465H94.5505ZM68.9596 100.465C68.8122 99.8981 68.7298 99.3135 68.7298 98.7153C68.7298 94.959 71.7291 91.9026 75.4154 91.9026C79.1017 91.9026 82.101 94.959 82.101 98.7153C82.101 99.3152 82.0186 99.899 81.8712 100.465H68.9596ZM43.3687 100.465C43.2213 99.8981 43.1389 99.3135 43.1389 98.7153C43.1389 94.959 46.1382 91.9026 49.8245 91.9026C53.5108 91.9026 56.5101 94.959 56.5101 98.7153C56.5101 99.3152 56.4277 99.899 56.2803 100.465H43.3687ZM17.7778 100.465C17.6304 99.8981 17.548 99.3135 17.548 98.7153C17.548 94.959 20.5473 91.9026 24.2336 91.9026C27.9199 91.9026 30.9192 94.959 30.9192 98.7153C30.9192 99.3152 30.836 99.899 30.6894 100.465H17.7778ZM20.1968 5.78342C20.1968 5.03589 20.7938 4.42836 21.5266 4.42836H102.47C103.204 4.42836 103.801 5.03589 103.801 5.78342V23.5223C103.801 24.2698 103.204 24.8782 102.47 24.8782H100.257C100.443 24.0552 100.543 23.2101 100.543 22.3565C100.543 16.159 95.5947 11.1163 89.5127 11.1163C83.43 11.1163 78.4822 16.159 78.4822 22.3565C78.4822 23.2143 78.5871 24.056 78.7728 24.8782H73.6326C73.8183 24.0552 73.9182 23.2101 73.9182 22.3565C73.9182 16.159 68.9696 11.1163 62.8876 11.1163C56.8057 11.1163 51.8554 16.1581 51.8554 22.3565C51.8554 23.2143 51.9603 24.056 52.146 24.8782H47.0059C47.1915 24.0552 47.2915 23.2109 47.2915 22.3565C47.2915 16.159 42.3428 11.1163 36.2609 11.1163C30.179 11.1163 25.2287 16.1581 25.2287 22.3565C25.2287 23.2109 25.3286 24.056 25.5143 24.8782H21.5266C20.793 24.8782 20.1968 24.2698 20.1968 23.5223V5.78342ZM119.653 141.557C119.653 142.305 119.057 142.912 118.324 142.912H5.67391C4.94032 142.912 4.34411 142.305 4.34411 141.557V131.127C4.34411 130.379 4.94115 129.771 5.67391 129.771H8.93553H115.061H118.323C119.056 129.771 119.653 130.379 119.653 131.127V141.557H119.653Z" fill="url(#paint0_linear)"/>
<defs>
<linearGradient id="paint0_linear" x1="4.83994e-07" y1="75.9019" x2="124" y2="75.9019" gradientUnits="userSpaceOnUse">
<stop stop-color="#FF8BDE"/>
<stop offset="1" stop-color="#669FFF"/>
</linearGradient>
</defs>
</svg>
