<svg width="112" height="114" viewBox="0 0 112 114" fill="none" xmlns="http://www.w3.org/2000/svg">
<path d="M106.21 96.6847L105.769 96.5052C104.732 96.088 103.842 95.3628 103.217 94.4241C102.591 93.4855 102.259 92.377 102.263 91.2433V62.3511C102.249 54.1023 99.1143 46.1746 93.507 40.2099C87.8996 34.2451 80.2495 30.7002 72.1407 30.3093C72.6122 29.0669 72.6292 27.6938 72.1887 26.4397C71.7481 25.1856 70.8793 24.1337 69.7402 23.4754L79.6786 6.64307C79.8478 6.35683 79.9394 6.03012 79.944 5.69622C79.9485 5.36232 79.8659 5.03315 79.7045 4.74226C79.5432 4.45136 79.3088 4.20912 79.0253 4.0402C78.7418 3.87129 78.4193 3.78174 78.0907 3.78068C76.4404 3.81493 74.831 3.25775 73.5445 2.20683C71.6287 0.774999 69.3127 0.00273993 66.9344 0.00273993C64.5562 0.00273993 62.2402 0.774999 60.3244 2.20683C59.0211 3.22597 57.4227 3.77857 55.7782 3.77857C54.1337 3.77857 52.5353 3.22597 51.232 2.20683C49.3169 0.773308 47.0006 0 44.622 0C42.2433 0 39.927 0.773308 38.0119 2.20683C36.7255 3.25789 35.116 3.81509 33.4657 3.78068C33.1366 3.78074 32.8134 3.86956 32.5291 4.03807C32.2449 4.20657 32.0097 4.44873 31.8477 4.7398C31.6856 5.03087 31.6025 5.36042 31.6068 5.6948C31.6112 6.02919 31.7027 6.35642 31.8722 6.64307L41.8106 23.4754C40.6725 24.1346 39.8048 25.1869 39.3654 26.4409C38.9259 27.6949 38.9438 29.0675 39.4157 30.3093C31.307 30.7002 23.6568 34.2451 18.0494 40.2099C12.4421 46.1746 9.30715 54.1023 9.29384 62.3511V91.2433C9.29742 92.3774 8.96456 93.4862 8.33868 94.4252C7.71279 95.3642 6.82294 96.0897 5.7852 96.5071L5.34824 96.6847C3.51219 97.4317 1.98942 98.805 1.04148 100.569C0.0935417 102.333 -0.220398 104.377 0.153585 106.35C0.527568 108.323 1.56613 110.103 3.09089 111.383C4.61565 112.663 6.53143 113.363 8.50918 113.364H103.047C105.025 113.363 106.941 112.663 108.466 111.383C109.99 110.103 111.029 108.323 111.403 106.35C111.777 104.377 111.463 102.333 110.515 100.569C109.567 98.805 108.044 97.4317 106.208 96.6847H106.21ZM42.7626 28.3425C42.7626 27.8414 42.9585 27.3608 43.3072 27.0065C43.6559 26.6521 44.1288 26.4531 44.622 26.4531H66.9344C67.4276 26.4531 67.9005 26.6521 68.2492 27.0065C68.5979 27.3608 68.7938 27.8414 68.7938 28.3425C68.7938 28.8436 68.5979 29.3241 68.2492 29.6784C67.9005 30.0328 67.4276 30.2318 66.9344 30.2318H44.622C44.1288 30.2318 43.6559 30.0328 43.3072 29.6784C42.9585 29.3241 42.7626 28.8436 42.7626 28.3425ZM40.0758 5.35263C41.3791 4.33349 42.9774 3.78089 44.622 3.78089C46.2665 3.78089 47.8648 4.33349 49.1681 5.35263C51.0833 6.78616 53.3995 7.55947 55.7782 7.55947C58.1569 7.55947 60.4731 6.78616 62.3883 5.35263C63.6913 4.33289 65.2898 3.7799 66.9344 3.7799C68.5791 3.7799 70.1776 4.33289 71.4806 5.35263C72.5609 6.15153 73.765 6.76138 75.0432 7.15698L65.882 22.6744H45.6744L36.5151 7.16076C37.7932 6.76483 38.9969 6.15362 40.0758 5.35263ZM103.047 109.585H8.50918C7.39575 109.584 6.31734 109.19 5.45909 108.469C4.60085 107.748 4.01631 106.746 3.80582 105.635C3.59533 104.524 3.77202 103.373 4.30557 102.38C4.83911 101.387 5.69623 100.614 6.72976 100.193L7.16671 100.016C8.89578 99.3196 10.3784 98.1104 11.4211 96.5456C12.4639 94.9808 13.0185 93.1331 13.0126 91.2433V62.3511C13.021 54.8373 15.9621 47.6337 21.1908 42.3207C26.4195 37.0077 33.5087 34.0191 40.9032 34.0106H70.6532C78.0477 34.0191 85.1369 37.0077 90.3656 42.3207C95.5943 47.6337 98.5354 54.8373 98.5438 62.3511V91.2433C98.5376 93.1327 99.0919 94.9801 100.134 96.5446C101.177 98.1091 102.659 99.318 104.388 100.014L104.828 100.203C105.856 100.627 106.707 101.401 107.236 102.392C107.765 103.383 107.939 104.53 107.729 105.637C107.519 106.744 106.937 107.743 106.084 108.463C105.23 109.183 104.157 109.579 103.047 109.585Z" fill="url(#paint0_linear)"/>
<path d="M78.091 91.0147V79.3554C78.0834 74.9262 76.5464 70.6403 73.7479 67.2445C70.9494 63.8488 67.0669 61.5587 62.7771 60.7734C63.2863 59.5493 63.3545 58.1819 62.9699 56.9117C62.5853 55.6415 61.7725 54.5497 60.6742 53.8281L64.7034 48.3697C64.9106 48.089 65.0368 47.7552 65.0678 47.4057C65.0988 47.0563 65.0335 46.7049 64.879 46.3911C64.7246 46.0773 64.4872 45.8133 64.1935 45.6289C63.8997 45.4444 63.5613 45.3467 63.2159 45.3467H48.3409C47.9956 45.3467 47.6571 45.4444 47.3634 45.6289C47.0697 45.8133 46.8323 46.0773 46.6779 46.3911C46.5234 46.7049 46.4581 47.0563 46.4891 47.4057C46.5201 47.7552 46.6463 48.089 46.8534 48.3697L50.8827 53.8281C49.7844 54.5497 48.9716 55.6415 48.587 56.9117C48.2024 58.1819 48.2706 59.5493 48.7797 60.7734C44.49 61.5587 40.6075 63.8488 37.809 67.2445C35.0105 70.6403 33.4735 74.9262 33.4659 79.3554V91.0147C32.2246 91.4598 31.1781 92.3367 30.5117 93.4903C29.8453 94.6439 29.6019 95.9998 29.8245 97.3181C30.0471 98.6365 30.7213 99.8324 31.728 100.694C32.7347 101.556 34.0089 102.029 35.3253 102.028H76.2316C77.548 102.029 78.8222 101.556 79.8289 100.694C80.8356 99.8324 81.5098 98.6365 81.7324 97.3181C81.955 95.9998 81.7116 94.6439 81.0451 93.4903C80.3787 92.3367 79.3323 91.4598 78.091 91.0147ZM52.0597 58.5723C52.0597 58.0712 52.2556 57.5906 52.6043 57.2363C52.953 56.882 53.4259 56.6829 53.9191 56.6829H57.6378C58.131 56.6829 58.6039 56.882 58.9526 57.2363C59.3013 57.5906 59.4972 58.0712 59.4972 58.5723C59.4972 59.0734 59.3013 59.5539 58.9526 59.9083C58.6039 60.2626 58.131 60.4617 57.6378 60.4617H53.9191C53.4259 60.4617 52.953 60.2626 52.6043 59.9083C52.2556 59.5539 52.0597 59.0734 52.0597 58.5723ZM59.4972 49.1254L56.7081 52.9042H54.8488L52.0597 49.1254H59.4972ZM76.2316 98.2491H35.3253C34.8322 98.2491 34.3592 98.05 34.0105 97.6957C33.6618 97.3414 33.4659 96.8608 33.4659 96.3597C33.4659 95.8586 33.6618 95.3781 34.0105 95.0237C34.3592 94.6694 34.8322 94.4703 35.3253 94.4703C35.8184 94.4703 36.2914 94.2713 36.6401 93.917C36.9888 93.5626 37.1847 93.0821 37.1847 92.581V79.3554C37.1891 75.348 38.7577 71.5061 41.5464 68.6724C44.335 65.8388 48.116 64.2449 52.0597 64.2404H59.4972C63.4409 64.2449 67.2219 65.8388 70.0105 68.6724C72.7992 71.5061 74.3678 75.348 74.3722 79.3554V92.581C74.3722 93.0821 74.5681 93.5626 74.9168 93.917C75.2655 94.2713 75.7384 94.4703 76.2316 94.4703C76.7247 94.4703 77.1977 94.6694 77.5464 95.0237C77.8951 95.3781 78.091 95.8586 78.091 96.3597C78.091 96.8608 77.8951 97.3414 77.5464 97.6957C77.1977 98.05 76.7247 98.2491 76.2316 98.2491Z" fill="url(#paint1_linear)"/>
<path d="M46.6058 84.557C45.7194 84.557 45.0007 85.288 45.0007 86.1896C45.0007 87.0912 45.7194 87.8222 46.6058 87.8222H50.782V92.1394C50.782 93.041 51.5007 93.772 52.3872 93.772C53.2736 93.772 53.9923 93.041 53.9923 92.1394V87.8222H58.3847C59.2711 87.8222 59.9898 87.0912 59.9898 86.1896C59.9898 85.288 59.2711 84.557 58.3847 84.557H53.9923V81.5925H61.5856C62.0113 81.5925 62.4197 81.4206 62.72 81.1144C65.7639 78.0185 65.7639 72.9818 62.6968 69.8629C62.3958 69.5567 61.9881 69.3848 61.5624 69.3848H52.3865C51.5001 69.3848 50.7814 70.1158 50.7814 71.0174V78.328H46.6051C45.7187 78.328 45 79.059 45 79.9606C45 80.8622 45.7187 81.5932 46.6051 81.5932H50.7814V84.5576L46.6058 84.557ZM53.9916 72.6493H60.8431C61.461 73.4626 61.7958 74.4552 61.7958 75.5005C61.7958 76.5349 61.4676 77.5188 60.861 78.328H53.9916V72.6493Z" fill="url(#paint2_linear)"/>
<defs>
<linearGradient id="paint0_linear" x1="4.35424e-07" y1="58.3996" x2="111.556" y2="58.3996" gradientUnits="userSpaceOnUse">
<stop stop-color="#FF8BDE"/>
<stop offset="1" stop-color="#669FFF"/>
</linearGradient>
<linearGradient id="paint1_linear" x1="29.7441" y1="74.5461" x2="81.8127" y2="74.5461" gradientUnits="userSpaceOnUse">
<stop stop-color="#FF8BDE"/>
<stop offset="1" stop-color="#669FFF"/>
</linearGradient>
<linearGradient id="paint2_linear" x1="45" y1="81.9479" x2="65" y2="81.9479" gradientUnits="userSpaceOnUse">
<stop stop-color="#FF8BDE"/>
<stop offset="1" stop-color="#669FFF"/>
</linearGradient>
</defs>
</svg>
