<svg width="59" height="19" viewBox="0 0 59 19" fill="none" xmlns="http://www.w3.org/2000/svg">
<path d="M23.6244 0.930664L20.626 18.5268H25.4215L28.4225 0.930664H23.6244Z" fill="white"/>
<path d="M16.6046 0.950966L11.9077 12.951L11.4069 11.1391C10.4806 8.95592 7.85095 5.82054 4.76367 3.84459L9.05847 18.5187L14.1328 18.5101L21.6851 0.947266L16.6046 0.950966Z" fill="white"/>
<path d="M9.58621 2.20884C9.30746 1.13699 8.49956 0.817533 7.49678 0.779297H0.0616715L0 1.12959C5.78602 2.53323 9.61458 5.9153 11.2032 9.98191L9.58621 2.20884Z" fill="white"/>
<path d="M38.1403 4.30355C39.7092 4.27888 40.8465 4.62177 41.7296 4.977L42.1625 5.18052L42.8113 1.36675C41.8616 1.01029 40.3728 0.62793 38.5153 0.62793C33.7764 0.62793 30.4363 3.01461 30.4104 6.43491C30.3796 8.96221 32.7897 10.3733 34.6102 11.2157C36.4789 12.0791 37.1055 12.628 37.0968 13.3989C37.082 14.5768 35.6069 15.117 34.2291 15.117C32.3087 15.117 31.2886 14.8518 29.7135 14.1956L29.0956 13.9144L28.4209 17.8528C29.5433 18.3449 31.6142 18.768 33.7641 18.7902C38.8051 18.7902 42.0811 16.4319 42.1157 12.7772C42.1366 10.7778 40.8576 9.25206 38.0861 8.00013C36.4086 7.1836 35.3824 6.64089 35.3922 5.81696C35.3922 5.08554 36.263 4.30355 38.1403 4.30355Z" fill="white"/>
<path d="M55.1195 0.949219H51.4143C50.2635 0.949219 49.4075 1.26251 48.9018 2.4096L41.7812 18.5354H46.8173C46.8173 18.5354 47.6388 16.3671 47.825 15.8922C48.3764 15.8922 53.2694 15.8996 53.9663 15.8996C54.1094 16.5139 54.5509 18.5354 54.5509 18.5354H58.9999L55.1195 0.949219ZM49.2053 12.2906C49.6 11.2804 51.1158 7.37292 51.1158 7.37292C51.0899 7.42102 51.5068 6.35534 51.7548 5.69299L52.0779 7.2101C52.0779 7.2101 52.9968 11.4112 53.1892 12.2906H49.2053Z" fill="white"/>
</svg>
