<svg width="13" height="11" viewBox="0 0 13 11" fill="none" xmlns="http://www.w3.org/2000/svg">
<path d="M1.78632 4.38218C1.4451 3.94791 0.81645 3.87247 0.382178 4.21368C-0.0520931 4.5549 -0.127532 5.18355 0.213682 5.61782L1.78632 4.38218ZM4.92857 10L4.14225 10.6178C4.33184 10.8591 4.62171 11 4.92857 11C5.23543 11 5.5253 10.8591 5.71489 10.6178L4.92857 10ZM12.7863 1.61782C13.1275 1.18355 13.0521 0.554895 12.6178 0.213682C12.1836 -0.127532 11.5549 -0.0520931 11.2137 0.382178L12.7863 1.61782ZM0.213682 5.61782L4.14225 10.6178L5.71489 9.38218L1.78632 4.38218L0.213682 5.61782ZM5.71489 10.6178L12.7863 1.61782L11.2137 0.382178L4.14225 9.38218L5.71489 10.6178Z" fill="url(#paint0_linear)"/>
<defs>
<linearGradient id="paint0_linear" x1="1" y1="5.63636" x2="12" y2="5.63636" gradientUnits="userSpaceOnUse">
<stop stop-color="#FF8BDE"/>
<stop offset="1" stop-color="#669FFF"/>
</linearGradient>
</defs>
</svg>
