<svg width="30" height="31" viewBox="0 0 30 31" fill="none" xmlns="http://www.w3.org/2000/svg">
<path d="M0.730655 12.6761L0.239574 12.5821L0.730655 12.6761ZM0.730655 12.6761C-0.0240883 16.6193 1.19312 20.0097 2.66193 22.4698C4.13178 24.9317 5.83383 26.4265 5.97664 26.5483C8.40026 28.6124 11.5585 29.9628 14.7258 30.3703C17.8945 30.7779 21.0296 30.2375 23.4396 28.5784C26.5257 26.4538 27.8066 22.9276 28.4157 21.2352L28.4157 21.2352C28.8219 20.1071 29.8346 17.1889 29.389 13.466M0.730655 12.6761C1.75053 7.34918 5.7142 4.42702 6.77505 3.67227L6.77509 3.67224C10.8023 0.806502 17.4776 -1.01272 22.8842 2.21018C28.4204 5.51066 29.2192 12.048 29.389 13.466M29.389 13.466L29.8855 13.4066M29.389 13.466L29.8855 13.4066M29.8855 13.4066C30.3452 17.2474 29.3 20.2553 28.8862 21.4046M29.8855 13.4066L29.8854 13.406L28.8862 21.4046M28.8862 21.4046C28.2799 23.0888 26.9564 26.7644 23.7231 28.9902C18.6522 32.4811 10.6545 31.189 5.65245 26.9289L28.8862 21.4046Z" stroke="url(#paint0_linear)"/>
<defs>
<linearGradient id="paint0_linear" x1="1.17095e-07" y1="15.9697" x2="30" y2="15.9697" gradientUnits="userSpaceOnUse">
<stop stop-color="#FF8BDE"/>
<stop offset="1" stop-color="#669FFF"/>
</linearGradient>
</defs>
</svg>
